<svg width="18" height="18" viewBox="0 0 18 18" fill="none" xmlns="http://www.w3.org/2000/svg">
<path d="M15.5954 12.3708C15.2051 11.6986 14.625 9.79664 14.625 7.3125C14.625 5.82066 14.0324 4.38992 12.9775 3.33502C11.9226 2.28013 10.4919 1.6875 9.00004 1.6875C7.5082 1.6875 6.07746 2.28013 5.02256 3.33502C3.96767 4.38992 3.37504 5.82066 3.37504 7.3125C3.37504 9.79734 2.79426 11.6986 2.40402 12.3708C2.30437 12.5417 2.25154 12.7358 2.25086 12.9336C2.25018 13.1315 2.30168 13.326 2.40016 13.4975C2.49863 13.6691 2.64061 13.8117 2.81177 13.9109C2.98293 14.0101 3.17722 14.0624 3.37504 14.0625H6.24449C6.37427 14.6975 6.7194 15.2683 7.22151 15.6781C7.72362 16.088 8.35188 16.3119 9.00004 16.3119C9.6482 16.3119 10.2765 16.088 10.7786 15.6781C11.2807 15.2683 11.6258 14.6975 11.7556 14.0625H14.625C14.8228 14.0622 15.017 14.0098 15.1881 13.9106C15.3591 13.8114 15.501 13.6688 15.5994 13.4972C15.6978 13.3257 15.7492 13.1312 15.7485 12.9335C15.7478 12.7357 15.695 12.5416 15.5954 12.3708ZM9.00004 15.1875C8.65116 15.1874 8.3109 15.0792 8.02607 14.8777C7.74124 14.6762 7.52586 14.3914 7.40957 14.0625H10.5905C10.4742 14.3914 10.2588 14.6762 9.97401 14.8777C9.68919 15.0792 9.34892 15.1874 9.00004 15.1875ZM3.37504 12.9375C3.91645 12.0066 4.50004 9.84937 4.50004 7.3125C4.50004 6.11903 4.97415 4.97443 5.81806 4.13052C6.66197 3.28661 7.80657 2.8125 9.00004 2.8125C10.1935 2.8125 11.3381 3.28661 12.182 4.13052C13.0259 4.97443 13.5 6.11903 13.5 7.3125C13.5 9.84727 14.0822 12.0045 14.625 12.9375H3.37504Z" fill="white"/>
<path d="M7.33301 9H7.99967C7.99967 9.36 8.45634 9.66667 8.99967 9.66667C9.54301 9.66667 9.99967 9.36 9.99967 9C9.99967 8.63333 9.65301 8.5 8.91967 8.32333C8.21301 8.14667 7.33301 7.92667 7.33301 7C7.33301 6.40333 7.82301 5.89667 8.49967 5.72667V5H9.49967V5.72667C10.1763 5.89667 10.6663 6.40333 10.6663 7H9.99967C9.99967 6.64 9.54301 6.33333 8.99967 6.33333C8.45634 6.33333 7.99967 6.64 7.99967 7C7.99967 7.36667 8.34634 7.5 9.07967 7.67667C9.78634 7.85333 10.6663 8.07333 10.6663 9C10.6663 9.59667 10.1763 10.1033 9.49967 10.2733V11H8.49967V10.2733C7.82301 10.1033 7.33301 9.59667 7.33301 9Z" fill="white"/>
</svg>
