<svg version="1.1" id="Layer_1" xmlns="http://www.w3.org/2000/svg" xmlns:xlink="http://www.w3.org/1999/xlink" x="0px" y="0px"
	 width="100%" viewBox="0 0 1614 402" enable-background="new 0 0 1614 402" xml:space="preserve">
<path fill="#3070B5" opacity="1.000000" stroke="none" 
	d="
M1615.000000,42.000004 
	C1615.000000,46.356899 1615.000000,50.713799 1614.598633,55.601910 
	C1613.798340,57.983372 1613.063354,59.831707 1613.052734,61.684162 
	C1612.962524,77.504913 1612.992554,93.326424 1613.007812,109.147690 
	C1613.043701,146.450836 1613.091064,183.753983 1613.111084,221.520172 
	C1613.030396,240.989288 1612.972290,259.995361 1612.677124,279.019836 
	C1612.439941,279.038239 1611.994629,279.204926 1611.535400,279.150238 
	C1610.243286,279.086639 1609.410400,279.069855 1608.577393,279.069855 
	C1205.729614,279.068634 802.881836,279.068268 400.034088,279.079651 
	C398.377197,279.079681 396.720337,279.249207 394.894012,279.271790 
	C394.724579,279.204010 394.378998,279.086792 394.335327,278.615356 
	C394.265594,277.145844 394.216827,276.147797 394.216766,275.149750 
	C394.212982,185.441437 394.212280,95.733124 394.218872,6.024806 
	C394.218964,4.695390 394.312225,3.365981 394.529449,2.060513 
	C394.696899,2.084456 395.032104,2.038651 395.498657,2.029795 
	C701.370544,2.011562 1006.775940,2.002118 1312.181274,1.992849 
	C1409.317749,1.989901 1506.454346,1.971041 1603.590820,2.007575 
	C1614.481445,2.011672 1612.873169,0.477814 1612.978882,11.638694 
	C1613.061035,20.301912 1612.906250,28.968466 1613.090454,37.628574 
	C1613.121704,39.098595 1614.333496,40.543499 1615.000000,42.000004 
M1436.676758,154.107483 
	C1426.914307,158.742813 1417.174438,163.426880 1407.382568,167.999176 
	C1398.352417,172.215851 1397.982910,172.758850 1398.887695,182.705093 
	C1400.064697,195.644318 1411.445068,203.902161 1423.682739,199.765732 
	C1429.777710,197.705597 1435.171143,193.569687 1441.114746,190.242386 
	C1442.803101,199.796951 1450.336304,200.458374 1458.713623,199.867661 
	C1465.507812,199.388565 1472.318359,199.038116 1479.127197,198.898209 
	C1487.123169,198.733917 1495.125732,198.913895 1503.123169,198.793991 
	C1504.221313,198.777542 1505.306641,197.893860 1506.397827,197.411697 
	C1505.358643,196.636246 1504.416870,195.402435 1503.264893,195.157593 
	C1493.725708,193.130234 1492.082031,191.278320 1492.035278,181.339264 
	C1491.969360,167.340866 1492.495850,153.318665 1491.814819,139.353165 
	C1491.478638,132.460693 1494.363281,129.009460 1499.832031,126.167023 
	C1510.968384,120.378807 1526.290283,124.645752 1530.120850,135.182755 
	C1531.508301,138.999268 1531.960693,143.310715 1532.051880,147.413803 
	C1532.303467,158.740494 1532.187622,170.076691 1532.124390,181.408600 
	C1532.072388,190.725815 1530.190918,192.907516 1521.088013,195.120316 
	C1519.811890,195.430527 1518.727661,196.529755 1517.554565,197.263779 
	C1517.787354,197.677246 1518.020020,198.090729 1518.252808,198.504196 
	C1532.118408,198.504196 1545.983887,198.504196 1559.849487,198.504196 
	C1560.055420,197.963577 1560.261353,197.422974 1560.467285,196.882355 
	C1558.867554,196.207718 1557.325562,195.268784 1555.658081,194.904160 
	C1548.450562,193.328171 1546.336792,191.048676 1546.038086,183.795792 
	C1545.866943,179.636215 1545.941284,175.467133 1545.854614,171.303375 
	C1545.588013,158.492844 1545.948242,145.625458 1544.826538,132.889236 
	C1543.773193,120.929604 1535.382812,114.114845 1523.476440,114.355423 
	C1519.240234,114.441017 1514.713989,115.171837 1510.880371,116.871559 
	C1504.148560,119.856232 1497.848389,123.814590 1491.004639,127.563889 
	C1491.254517,124.654732 1491.398560,121.741737 1491.778076,118.859726 
	C1492.295776,114.929459 1490.758545,114.019852 1487.236816,115.372047 
	C1481.811279,117.455215 1476.367188,119.493805 1470.895996,121.453667 
	C1467.432373,122.694427 1466.821045,124.071709 1470.187744,126.338211 
	C1473.849976,128.803726 1477.107056,131.707077 1477.097778,136.629181 
	C1477.066650,153.111481 1477.177612,169.598465 1476.793091,186.073364 
	C1476.653320,192.057312 1472.851440,194.841797 1466.810181,194.800873 
	C1459.687622,194.752625 1455.520264,191.858124 1454.924194,186.081818 
	C1454.515381,182.120316 1454.646362,178.100616 1454.585083,174.106201 
	C1454.386597,161.119980 1454.668335,148.105957 1453.891479,135.155029 
	C1453.179810,123.290100 1446.176880,116.357018 1435.854614,114.532326 
	C1423.440063,112.337746 1403.929443,127.066658 1398.356079,135.933167 
	C1396.859863,138.313446 1398.146973,140.382416 1400.947266,140.390442 
	C1404.217651,140.399841 1407.490112,139.766342 1410.770752,139.410767 
	C1410.987915,135.972275 1410.721802,132.864136 1411.510742,130.052017 
	C1412.124756,127.863075 1413.604980,125.256989 1415.473145,124.192993 
	C1424.060791,119.301819 1436.738037,124.490959 1439.365601,134.030762 
	C1440.581299,138.444321 1440.515625,143.201370 1441.164185,147.783829 
	C1441.610718,150.937317 1440.349731,152.855423 1436.676758,154.107483 
M473.435883,71.854958 
	C471.438934,71.898987 469.442047,71.948303 467.444977,71.986099 
	C459.456757,72.137299 451.466034,72.218102 443.482849,72.507874 
	C442.321838,72.550018 441.196808,73.585121 440.055145,74.160759 
	C441.193085,74.784225 442.271820,75.594460 443.485413,75.979263 
	C444.729218,76.373627 446.118011,76.281586 447.420990,76.523087 
	C456.553009,78.215683 459.848053,81.746544 460.980347,91.039841 
	C461.181458,92.690132 461.415833,94.353401 461.407623,96.009537 
	C461.323212,112.978928 461.292480,129.949600 461.036255,146.916733 
	C460.880524,157.228882 460.544189,167.546448 459.941864,177.841278 
	C459.398834,187.122620 455.913849,191.229950 447.053772,193.863205 
	C444.995117,194.475052 442.763306,194.526413 440.732361,195.200699 
	C439.590149,195.579910 438.695740,196.705429 437.689697,197.494736 
	C437.907379,197.818954 438.125092,198.143158 438.342773,198.467377 
	C459.518585,198.467377 480.694397,198.467377 501.870178,198.467377 
	C502.059906,198.084686 502.249634,197.701981 502.439331,197.319290 
	C501.316742,196.569809 500.288330,195.470886 499.053436,195.138062 
	C495.694458,194.232742 492.214996,193.780960 488.842987,192.916382 
	C480.452148,190.764999 477.003662,186.789276 476.625885,178.248566 
	C476.258301,169.937729 476.284180,161.608536 476.192017,153.286789 
	C476.135437,148.178009 476.181549,143.068100 476.181549,137.643997 
	C479.190430,137.792160 481.499969,138.056778 483.800385,137.992767 
	C493.231689,137.730316 498.778137,142.421280 503.283722,150.605881 
	C509.481567,161.864441 516.724487,172.625351 524.338562,182.998337 
	C529.126160,189.520645 535.136475,195.622208 543.755432,196.951843 
	C552.759216,198.340851 561.882019,198.994644 570.971130,199.749222 
	C572.169373,199.848694 573.475952,198.643814 574.914612,197.955917 
	C574.149353,197.034531 573.982788,196.622009 573.726379,196.555466 
	C556.561951,192.101120 544.149353,181.102249 534.252563,167.094772 
	C526.340759,155.896744 519.152710,144.187332 511.455597,132.417709 
	C513.309143,131.513855 514.614990,130.870972 515.925903,130.238800 
	C528.679260,124.088783 535.232422,112.782455 534.158569,98.777496 
	C533.231201,86.683777 524.013306,76.679260 509.084351,74.174355 
	C497.715576,72.266815 485.982880,72.528595 473.435883,71.854958 
M740.340271,163.841171 
	C735.840210,165.987473 731.266479,167.997040 726.881775,170.357574 
	C725.434448,171.136719 723.658691,172.688507 723.425720,174.114578 
	C721.977844,182.974701 723.584412,191.128220 730.954041,197.053864 
	C737.510864,202.325943 744.876160,202.121414 751.975464,198.418472 
	C756.746765,195.929779 761.045898,192.535904 765.560974,189.543915 
	C767.574890,197.729965 770.491028,200.067413 778.847229,199.815887 
	C782.654968,199.701294 786.448242,198.960571 790.252747,198.917404 
	C801.745300,198.787018 813.240295,198.876984 824.734131,198.832932 
	C826.416870,198.826477 828.098572,198.558105 829.780823,198.410934 
	C829.880981,197.818298 829.981140,197.225677 830.081299,196.633057 
	C828.474854,196.067200 826.906555,195.326477 825.255371,194.965500 
	C817.746460,193.324020 816.228088,191.699600 815.526062,184.036728 
	C815.329163,181.887421 815.197083,179.723526 815.195740,177.566208 
	C815.175476,144.083542 815.181580,110.600853 815.181580,77.118164 
	C815.181580,75.178574 815.181580,73.238983 815.181580,71.019936 
	C813.616333,71.019936 812.725891,70.787537 812.028870,71.056480 
	C806.140869,73.328377 800.188660,75.475471 794.461487,78.107582 
	C790.929626,79.730812 792.096252,82.061195 794.717590,83.661316 
	C800.365723,87.109169 801.889954,92.291321 801.864380,98.543320 
	C801.755188,125.195755 801.825562,151.848892 801.799683,178.501770 
	C801.798035,180.156281 801.617798,181.823044 801.375916,183.462769 
	C800.192749,191.483902 798.384399,193.027451 790.360718,192.986420 
	C784.177917,192.954803 781.180298,190.085175 780.261658,183.082718 
	C779.981506,180.947083 780.033447,178.761414 780.021362,176.598160 
	C779.950562,163.939972 780.185791,151.272766 779.785339,138.625473 
	C779.215942,120.644958 766.750122,110.647141 751.391541,115.546181 
	C740.608765,118.985649 732.161255,125.891541 724.845581,134.267151 
	C723.863098,135.392014 723.705933,137.237686 723.166565,138.749557 
	C724.643250,139.238617 726.107605,140.084244 727.599426,140.135757 
	C730.024658,140.219513 732.467834,139.783600 735.032471,139.555557 
	C735.242188,136.421310 735.030396,133.693085 735.703796,131.204407 
	C736.358337,128.785507 737.339478,125.797173 739.189270,124.478355 
	C745.693054,119.841286 759.169678,123.288124 762.074402,130.730316 
	C764.184326,136.136337 764.678955,142.260651 765.239258,148.127182 
	C765.396057,149.768738 763.647827,152.410095 762.060242,153.258850 
	C755.182739,156.935730 748.041260,160.118698 740.340271,163.841171 
M991.387695,198.061066 
	C995.423584,195.196640 999.459412,192.332199 1003.456482,189.495300 
	C1007.407959,199.395645 1010.264954,200.963867 1021.565857,199.286865 
	C1022.058594,199.213745 1022.560242,199.171158 1023.058167,199.167557 
	C1038.029541,199.059372 1053.000977,198.966797 1067.972168,198.843018 
	C1069.664062,198.829025 1071.354614,198.644897 1073.045776,198.539688 
	C1073.168579,197.897415 1073.291382,197.255157 1073.414185,196.612900 
	C1071.674927,196.072189 1069.970093,195.261520 1068.190796,195.035004 
	C1057.412354,193.662704 1055.279419,191.726501 1054.811768,181.098862 
	C1054.438843,172.620163 1054.450073,164.112259 1054.647339,155.625626 
	C1054.755005,150.998230 1055.190918,146.295258 1056.201904,141.788605 
	C1058.673340,130.772583 1067.889404,122.380547 1078.405029,132.599136 
	C1079.082397,133.257370 1080.500244,133.694687 1081.403198,133.488449 
	C1085.906860,132.459763 1090.476807,125.327530 1089.543579,121.095039 
	C1088.434204,116.064430 1083.121704,112.858696 1077.299927,115.055481 
	C1072.510498,116.862724 1067.949585,119.929626 1064.086426,123.342667 
	C1060.624146,126.401443 1058.251709,130.693771 1054.742188,135.303772 
	C1055.040283,129.114944 1055.228394,123.873314 1055.566406,118.641373 
	C1055.809082,114.886787 1054.511597,113.719505 1050.879272,115.226898 
	C1045.665527,117.390572 1040.360352,119.333115 1035.124634,121.445381 
	C1033.878296,121.948227 1032.752319,122.749626 1030.840576,123.824318 
	C1032.994873,125.538467 1034.685059,126.422775 1035.713379,127.800995 
	C1037.635376,130.377075 1040.564331,133.201309 1040.641357,135.989532 
	C1041.087646,152.132416 1041.078247,168.303040 1040.563965,184.443268 
	C1040.472290,187.319565 1037.906616,191.676193 1035.427002,192.644592 
	C1025.235229,196.624786 1018.584045,191.690796 1018.202942,180.738220 
	C1018.104553,177.909409 1018.195679,175.074326 1018.182617,172.242203 
	C1018.128967,160.582443 1018.463318,148.904327 1017.920288,137.267242 
	C1017.058960,118.810738 1003.758850,110.382133 986.459351,116.691139 
	C977.247314,120.050667 970.240601,126.315956 963.790405,133.320862 
	C962.453308,134.773010 961.922424,136.967621 960.246704,140.407257 
	C965.334045,139.991714 969.149048,140.234024 972.491394,139.092407 
	C973.590637,138.716934 973.695190,134.774506 973.858032,132.435547 
	C974.336182,125.569420 976.531921,123.274216 983.362976,122.909882 
	C995.528992,122.261017 1001.319092,126.847893 1003.209717,138.859634 
	C1003.672485,141.799271 1003.462952,144.840942 1003.859924,147.795731 
	C1004.293762,151.023895 1002.738586,152.520828 1000.018921,153.787338 
	C988.571594,159.118179 977.247070,164.713516 965.777771,169.995285 
	C962.814941,171.359711 961.598999,173.291794 961.327026,176.398529 
	C959.904541,192.646179 972.524292,206.833511 991.387695,198.061066 
M904.508423,196.121613 
	C898.482788,193.884399 891.855835,192.600891 886.534729,189.246170 
	C862.495422,174.090363 851.598450,145.033768 858.661560,117.061195 
	C863.455627,98.074921 873.456482,83.545044 892.547363,76.513672 
	C913.843384,68.670120 934.280457,76.506889 942.705505,96.043045 
	C944.553833,100.329033 945.610535,104.956406 947.031860,109.426559 
	C947.856689,100.930122 947.726746,92.530281 947.924988,84.138191 
	C947.997437,81.071663 947.064636,79.391960 944.237000,77.991127 
	C930.784546,71.326637 916.551270,68.860542 901.710938,69.847832 
	C873.357300,71.734123 851.148743,83.696350 839.359314,110.534927 
	C830.703552,130.239746 831.643372,150.057953 842.622681,168.928925 
	C851.797180,184.697937 866.267456,193.409088 883.359131,197.887390 
	C902.718567,202.959839 921.923706,202.212357 940.440857,193.950974 
	C942.218567,193.157837 944.257141,191.467117 944.846313,189.739960 
	C947.943726,180.659668 950.650940,171.444672 953.385193,162.244202 
	C953.728577,161.088776 953.432129,159.743195 953.432129,158.485718 
	C951.853516,159.150925 951.361694,159.944809 950.932861,160.771347 
	C947.421021,167.540436 944.548462,174.743439 940.283752,180.997803 
	C931.991943,193.158127 920.149109,198.345886 904.508423,196.121613 
M1232.818970,132.499969 
	C1232.818970,151.478195 1232.739258,170.457291 1232.946777,189.433228 
	C1232.966919,191.267700 1234.317871,194.087387 1235.809814,194.755447 
	C1256.925171,204.210709 1277.115356,203.246445 1295.525879,188.201904 
	C1313.496216,173.517044 1316.824097,146.290878 1303.199951,127.492027 
	C1293.955811,114.736771 1276.989624,111.063667 1260.051392,118.194450 
	C1255.555786,120.087044 1251.112183,122.103073 1245.906982,124.385986 
	C1245.906982,106.091568 1245.906982,88.686440 1245.906982,70.004471 
	C1237.721313,73.269012 1230.429688,76.176949 1222.479126,79.347694 
	C1224.098755,81.058533 1224.640991,81.973862 1225.444092,82.425026 
	C1231.413696,85.778755 1233.069092,90.992790 1232.900024,97.541069 
	C1232.607788,108.853851 1232.818848,120.179634 1232.818970,132.499969 
M1206.135986,119.254364 
	C1189.243896,109.195892 1173.981079,117.023705 1158.180664,124.390991 
	C1158.180664,121.972359 1158.180664,120.355667 1158.180664,118.738976 
	C1158.180420,104.256676 1158.207642,89.774300 1158.164307,75.292130 
	C1158.149902,70.482903 1157.317383,70.010292 1152.846558,71.832207 
	C1148.086426,73.772026 1143.289795,75.624138 1138.556641,77.627182 
	C1137.338989,78.142532 1136.300537,79.081154 1133.956665,80.637375 
	C1146.352295,85.649895 1144.871094,95.447144 1144.844604,104.803787 
	C1144.771484,130.605377 1144.819336,156.407318 1144.819336,182.209122 
	C1144.819336,193.632065 1144.819336,193.632080 1155.319580,197.704407 
	C1180.169434,207.341919 1209.815918,194.915863 1220.234741,170.495941 
	C1227.884766,152.565216 1221.820312,129.725586 1206.135986,119.254364 
M601.536072,199.858551 
	C617.700256,199.601486 631.303772,193.834290 639.969116,179.819214 
	C649.113342,165.029510 648.970276,149.062836 640.635132,134.249069 
	C631.952209,118.817169 617.167786,112.629868 599.799316,113.481140 
	C574.801086,114.706345 557.037354,131.769058 556.141296,154.718521 
	C555.143433,180.274612 574.188599,199.607544 601.536072,199.858551 
M693.977844,176.279816 
	C692.711670,179.633224 691.445496,182.986633 689.937805,186.979660 
	C689.104065,185.664978 688.564453,185.066666 688.302917,184.364700 
	C682.061035,167.607239 675.812805,150.851929 669.649231,134.065552 
	C667.176697,127.331558 668.911194,124.194511 675.775635,122.089653 
	C676.798157,121.776115 677.597961,120.736313 678.500793,120.032501 
	C677.630493,119.492393 676.764343,118.489754 675.889343,118.482040 
	C664.081360,118.377899 652.272095,118.412178 640.463196,118.412178 
	C640.200806,118.918472 639.938416,119.424774 639.676025,119.931068 
	C640.750488,120.662010 641.751038,121.857895 642.912476,122.042709 
	C647.725342,122.808563 650.586853,125.579079 652.273438,129.987076 
	C661.508789,154.124359 670.859009,178.218231 679.935486,202.414902 
	C680.748779,204.583069 680.463013,207.573547 679.691284,209.843384 
	C677.931213,215.020309 675.434753,219.941223 673.451477,225.049225 
	C670.122437,233.623062 668.262512,234.376266 660.643127,229.847168 
	C656.707214,227.507584 653.206421,228.814926 651.977295,233.287750 
	C650.824280,237.483292 651.700623,241.336823 655.375244,243.901474 
	C659.343506,246.671051 663.791443,246.656906 667.354431,243.451630 
	C669.996765,241.074615 672.379333,237.988678 673.798462,234.746231 
	C679.321167,222.127777 684.499817,209.355728 689.645630,196.576065 
	C697.648010,176.701889 705.396362,156.724625 713.515564,136.898849 
	C716.178284,130.396942 719.567932,124.186089 727.688904,122.879234 
	C728.412354,122.762825 728.904541,121.209282 730.125000,119.405655 
	C723.558838,119.405655 718.263977,119.405655 712.969055,119.405655 
	C707.725037,119.405655 702.481018,119.405655 697.237000,119.405655 
	C697.047058,119.848801 696.857117,120.291946 696.667175,120.735085 
	C697.387268,121.492447 698.018616,122.788025 698.841309,122.923637 
	C706.801392,124.235847 708.687134,128.358383 706.423645,136.527802 
	C702.787842,149.649857 698.284424,162.531525 693.977844,176.279816 
M1379.167847,186.033844 
	C1369.127441,189.829956 1359.614258,188.769150 1350.765869,182.714355 
	C1337.875610,173.893799 1334.956909,157.878418 1337.410156,144.018372 
	C1337.589600,143.004257 1340.005127,141.744766 1341.417480,141.697922 
	C1348.567871,141.460785 1355.730469,141.586456 1362.888794,141.585999 
	C1371.832642,141.585419 1380.776367,141.585861 1389.840454,141.585861 
	C1390.778931,134.726501 1388.412231,129.352585 1384.826416,124.458199 
	C1377.638794,114.647964 1361.223999,111.392036 1347.936157,116.983643 
	C1329.458862,124.759026 1319.101685,142.995529 1321.160156,164.129791 
	C1322.867920,181.663452 1334.199219,195.708817 1349.919067,199.777023 
	C1365.402588,203.784088 1381.056152,197.223724 1391.255127,182.478729 
	C1392.652710,180.458298 1394.182617,178.499603 1391.011963,177.289642 
	C1387.194092,180.250748 1383.564453,183.065826 1379.167847,186.033844 
M1124.101196,183.036057 
	C1124.073242,163.704773 1124.039673,144.373505 1124.019409,125.042229 
	C1124.007690,113.815140 1124.006470,113.782829 1113.330200,117.377396 
	C1108.101074,119.138008 1102.921021,121.044411 1096.434692,123.339081 
	C1099.689941,125.581787 1101.604248,127.052406 1103.661255,128.284805 
	C1107.421387,130.537537 1109.379028,133.792709 1109.382324,138.140427 
	C1109.393188,152.637787 1109.577393,167.140381 1109.246948,181.630753 
	C1109.026611,191.293472 1107.369385,192.776535 1097.995605,195.142487 
	C1096.779785,195.449356 1095.784790,196.631363 1094.687500,197.408020 
	C1094.945557,197.888962 1095.203491,198.369888 1095.461548,198.850830 
	C1108.941284,198.850830 1122.421265,198.881470 1135.900146,198.777267 
	C1136.738892,198.770798 1137.569336,197.705765 1138.403687,197.133209 
	C1137.435303,196.457397 1136.551514,195.404892 1135.485107,195.164963 
	C1126.374512,193.115219 1125.279541,192.088196 1124.101196,183.036057 
M1106.744629,84.915306 
	C1107.766724,89.266792 1110.544800,92.367416 1114.920044,91.958672 
	C1117.932617,91.677231 1121.439453,89.883278 1123.478516,87.634613 
	C1126.298584,84.524536 1125.386841,80.483887 1122.837524,77.186584 
	C1120.328369,73.941292 1116.793579,73.091797 1113.061646,74.255547 
	C1108.343262,75.726936 1106.483521,79.430473 1106.744629,84.915306 
z"/>
<path fill="#F3BE44" opacity="1.000000" stroke="none" 
	d="
M395.063446,279.339539 
	C396.720337,279.249207 398.377197,279.079681 400.034088,279.079651 
	C802.881836,279.068268 1205.729614,279.068634 1608.577393,279.069855 
	C1609.410400,279.069855 1610.243286,279.086639 1611.649902,279.312561 
	C1612.405762,279.726044 1612.617432,279.882629 1612.910400,280.327576 
	C1613.022217,281.094177 1613.081909,281.532654 1613.090332,282.439056 
	C1613.084229,319.277985 1613.129150,355.648987 1613.124512,392.475677 
	C1613.074707,395.859711 1613.074707,398.788025 1613.074707,402.034790 
	C1610.149536,402.034790 1608.010010,402.032532 1605.870483,402.035095 
	C1570.254639,402.078094 1534.638672,402.121704 1498.557373,402.093018 
	C1471.074951,402.070374 1444.058105,402.119873 1416.575928,402.094482 
	C1326.218140,402.013214 1236.325562,402.002319 1146.432983,402.006714 
	C1136.281372,402.007202 1126.129761,402.093750 1115.514160,402.090546 
	C942.253906,402.036316 769.457581,402.029388 596.661316,402.067810 
	C595.107483,402.068146 593.553772,402.675842 592.000000,403.000000 
	C588.968872,403.000000 585.937744,403.000000 582.182617,402.674072 
	C576.327148,402.233795 571.195679,402.018127 566.064270,402.021576 
	C534.701050,402.042664 503.337799,402.113434 471.510132,402.115997 
	C454.028503,402.109680 437.011261,402.154999 419.529480,402.139069 
	C411.067383,401.967377 403.069794,401.856995 395.077820,401.296936 
	C395.076752,360.344696 395.070099,319.842133 395.063446,279.339539 
M557.409729,362.378876 
	C560.973572,362.885956 564.537415,363.393066 568.233337,363.918945 
	C568.233337,344.689209 568.233337,326.619415 568.233337,308.442871 
	C565.477417,308.442871 563.068359,308.442871 560.037109,308.442871 
	C560.037109,322.698059 560.037109,336.658264 560.037109,350.618469 
	C552.845398,339.131500 546.556580,327.513611 540.455688,315.797821 
	C535.995239,307.232208 536.105469,307.174835 526.300659,308.664917 
	C526.300659,326.825897 526.300659,345.012878 526.300659,363.247620 
	C528.696899,363.247620 530.763306,363.247620 533.416382,363.247620 
	C533.416382,349.263519 533.416382,335.597137 533.416382,321.930756 
	C533.855896,321.798706 534.295349,321.666656 534.734863,321.534607 
	C542.171753,334.923248 549.608643,348.311890 557.409729,362.378876 
M882.172485,363.208771 
	C884.260742,363.208771 886.348999,363.208771 889.021851,363.208771 
	C889.021851,348.392609 889.021851,333.924530 889.021851,319.456421 
	C896.586060,331.674103 903.186523,344.075409 909.721130,356.511444 
	C913.832886,364.336517 914.604553,364.739471 923.645386,362.979858 
	C923.645386,344.769135 923.645386,326.558441 923.645386,308.478271 
	C920.860413,308.478271 918.461731,308.478271 915.377686,308.478271 
	C915.377686,322.570374 915.377686,336.325592 915.377686,350.080811 
	C908.038269,338.595490 901.802551,326.931854 895.683228,315.207397 
	C891.613892,307.410522 890.893433,306.998688 881.664795,308.769531 
	C881.592834,309.353180 881.442749,309.996033 881.444641,310.638428 
	C881.495178,327.951599 881.561279,345.264771 882.172485,363.208771 
M1267.923706,339.262482 
	C1267.941040,337.599274 1268.033203,335.932953 1267.964355,334.273346 
	C1267.164673,314.990509 1249.950439,303.457458 1231.896484,310.090942 
	C1221.491821,313.913879 1214.792236,326.303101 1216.284790,339.029327 
	C1217.277588,347.494415 1219.394409,355.506439 1227.250488,360.333313 
	C1245.360474,371.460266 1264.908813,361.703918 1267.923706,339.262482 
M1353.094482,349.200439 
	C1346.816772,337.485657 1340.567505,325.755493 1334.250244,314.062042 
	C1330.594360,307.294861 1329.428345,306.876282 1321.281494,308.870850 
	C1321.281494,326.957886 1321.281494,345.038727 1321.281494,363.220886 
	C1323.654297,363.220886 1325.730347,363.220886 1328.301514,363.220886 
	C1328.301514,348.881744 1328.301514,334.860229 1328.301514,320.838715 
	C1336.064941,333.076874 1343.046997,345.462799 1349.923950,357.906860 
	C1353.481079,364.343658 1353.683594,364.513184 1361.756104,362.949799 
	C1361.756104,344.751923 1361.756104,326.552063 1361.756104,308.387024 
	C1359.387695,308.387024 1357.445923,308.387024 1354.989014,308.387024 
	C1354.989014,310.389526 1354.989014,312.181824 1354.988892,313.974121 
	C1354.988647,325.637421 1355.002075,337.300751 1354.960327,348.963898 
	C1354.957275,349.826050 1355.564209,352.531219 1353.094482,349.200439 
M799.838318,360.870728 
	C799.838318,353.592529 799.838318,346.314331 799.838318,339.134552 
	C809.881226,337.714111 811.485779,338.524811 815.213318,346.606689 
	C817.637878,351.863495 820.025146,357.137512 822.300293,362.121490 
	C825.071228,362.121490 827.587402,362.121490 830.808960,362.121490 
	C826.007568,352.651031 821.552246,343.863220 817.070862,335.023956 
	C816.926636,335.096588 817.635803,334.727570 818.354919,334.379242 
	C824.165039,331.565033 826.932068,327.164856 826.491455,321.431000 
	C826.022827,315.330902 823.119202,310.991821 816.755188,309.844330 
	C808.899963,308.427979 800.816895,308.275360 792.703613,307.565369 
	C792.703613,326.588226 792.703613,344.317627 792.703613,362.820862 
	C795.274780,362.408173 797.446350,362.059631 799.838318,360.870728 
M988.134216,329.482697 
	C983.763000,340.665039 979.391785,351.847382 974.954590,363.198364 
	C983.160645,363.983795 983.156067,363.982117 985.635132,357.193054 
	C986.483276,354.870239 987.360962,352.558167 988.305603,350.025665 
	C996.029602,350.025665 1003.681580,349.891693 1011.319763,350.155121 
	C1012.620117,350.199982 1014.378784,351.684631 1015.030090,352.961060 
	C1016.742981,356.318207 1017.962280,359.927216 1019.234009,363.078491 
	C1022.100098,363.078491 1024.604126,363.078491 1027.431763,363.078491 
	C1025.810059,359.169800 1024.404053,355.818359 1023.026978,352.455109 
	C1017.445801,338.824707 1011.804077,325.218353 1006.350098,311.537231 
	C1005.099426,308.399933 1002.969604,308.083984 1000.079895,308.047699 
	C997.278320,308.012543 996.091309,308.942108 995.172791,311.652435 
	C993.207092,317.452606 990.679016,323.062195 988.134216,329.482697 
M1449.144897,323.088867 
	C1447.622314,319.248871 1445.845215,315.485504 1444.658081,311.544495 
	C1443.717163,308.421570 1441.807373,308.104553 1439.051270,308.053436 
	C1436.181763,308.000244 1434.565186,308.752777 1433.480103,311.634735 
	C1429.392090,322.492981 1425.016113,333.242676 1420.776733,344.044312 
	C1418.288696,350.383698 1415.855225,356.744446 1413.316772,363.303375 
	C1421.247803,363.793060 1421.238770,363.789581 1423.825195,357.074066 
	C1424.301392,355.837128 1425.138306,354.686523 1425.365356,353.416748 
	C1425.895874,350.450623 1427.667847,349.863098 1430.367676,349.971619 
	C1434.851929,350.151855 1439.348755,350.020447 1443.840210,350.020447 
	C1452.267700,350.020386 1452.267700,350.020447 1455.494995,358.015442 
	C1458.005249,364.234253 1458.969604,364.682251 1465.740601,362.686249 
	C1460.298218,349.718811 1454.860840,336.763428 1449.144897,323.088867 
M724.495117,308.102692 
	C719.363342,308.102692 714.231506,308.102692 708.742004,308.102692 
	C708.742004,326.748474 708.742004,344.944763 708.742004,363.238098 
	C718.809143,363.238098 728.525208,363.238098 738.342651,363.238098 
	C738.342651,360.754089 738.342651,358.661682 738.342651,356.069183 
	C730.838928,356.069183 723.595581,356.069183 716.263916,356.069183 
	C716.263916,350.007965 716.263916,344.458618 716.263916,338.334351 
	C723.191467,338.334351 729.759277,338.334351 736.300537,338.334351 
	C736.300537,335.658661 736.300537,333.570099 736.300537,330.981079 
	C729.416016,330.981079 722.841431,330.981079 716.211792,330.981079 
	C716.211792,325.740051 716.211792,321.009094 716.211792,315.698822 
	C723.730774,315.698822 730.947815,315.698822 738.269775,315.698822 
	C738.269775,312.879120 738.269775,310.647552 738.269775,308.102722 
	C733.777954,308.102722 729.633362,308.102722 724.495117,308.102692 
M1081.394653,346.497681 
	C1081.394653,352.091400 1081.394653,357.685120 1081.394653,363.232117 
	C1084.618408,363.232117 1087.039307,363.232117 1090.018066,363.232117 
	C1090.018066,347.308563 1090.018066,331.747833 1090.018066,315.689972 
	C1095.814209,315.689972 1101.053223,315.689972 1106.646362,315.689972 
	C1106.513184,312.913849 1106.405518,310.669800 1106.294434,308.355377 
	C1092.350342,308.355377 1078.915405,308.355377 1065.372559,308.355377 
	C1065.372559,310.955750 1065.372559,313.303162 1065.372559,316.104675 
	C1070.872070,316.104675 1075.964478,316.104675 1081.394775,316.104675 
	C1081.394775,326.210785 1081.394775,335.854736 1081.394653,346.497681 
M633.810852,353.464935 
	C633.810852,356.714874 633.810852,359.964844 633.810852,363.220581 
	C636.949219,363.220581 639.358215,363.220581 642.185181,363.220581 
	C642.185181,347.320770 642.185181,331.757721 642.185181,315.734070 
	C647.846008,315.734070 653.094116,315.734070 658.524536,315.734070 
	C658.524536,313.045929 658.524536,310.832977 658.524536,308.474976 
	C644.657776,308.474976 631.125916,308.474976 617.516663,308.474976 
	C617.516663,311.026978 617.516663,313.240082 617.516663,316.040680 
	C623.091187,316.040680 628.304871,316.040680 633.810791,316.040680 
	C633.810791,328.579315 633.810791,340.526550 633.810852,353.464935 
M1515.793579,356.285645 
	C1515.793579,358.570648 1515.793579,360.855682 1515.793579,363.271423 
	C1526.087524,363.271423 1535.822510,363.271423 1545.567749,363.271423 
	C1545.567749,360.876831 1545.567749,358.781647 1545.567749,356.026550 
	C1537.936523,356.026550 1530.570190,356.026550 1522.880615,356.026550 
	C1522.880615,339.780670 1522.880615,324.196350 1522.880615,308.379272 
	C1520.428467,308.379272 1518.334351,308.379272 1515.793823,308.379272 
	C1515.793823,324.108734 1515.793823,339.721222 1515.793579,356.285645 
M1157.668945,363.689758 
	C1159.435059,363.689758 1161.201172,363.689758 1162.999878,363.689758 
	C1162.999878,344.887360 1162.999878,326.682251 1162.999878,308.544983 
	C1160.214111,308.544983 1157.799561,308.544983 1155.048462,308.544983 
	C1155.048462,326.317444 1155.025146,343.769592 1155.122437,361.221039 
	C1155.126953,362.037842 1156.208252,362.848572 1157.668945,363.689758 
M469.198242,308.396545 
	C467.255890,308.396545 465.313538,308.396545 463.257935,308.396545 
	C463.257935,326.970856 463.257935,345.159698 463.257935,363.309570 
	C465.690063,363.309570 467.751617,363.309570 469.841125,363.309570 
	C469.841125,344.971832 469.841125,327.007935 469.198242,308.396545 
z"/>
<path fill="#365575" opacity="1.000000" stroke="none" 
	d="
M1615.000000,41.531345 
	C1614.333496,40.543499 1613.121704,39.098595 1613.090454,37.628574 
	C1612.906250,28.968466 1613.061035,20.301912 1612.978882,11.638694 
	C1612.873169,0.477814 1614.481445,2.011672 1603.590820,2.007575 
	C1506.454346,1.971041 1409.317749,1.989901 1312.181274,1.992849 
	C1006.775940,2.002118 701.370544,2.011562 395.488403,1.770048 
	C395.007690,1.346105 395.003845,1.173052 395.000000,1.000000 
	C801.666687,1.000000 1208.333374,1.000000 1615.000000,1.000000 
	C1615.000000,14.405252 1615.000000,27.733967 1615.000000,41.531345 
z"/>
<path fill="#234475" opacity="1.000000" stroke="none" 
	d="
M394.531342,1.000000 
	C395.003845,1.173052 395.007690,1.346105 395.021851,1.778904 
	C395.032104,2.038651 394.696899,2.084456 394.026062,2.045159 
	C265.396149,1.998677 137.437057,1.991346 9.477982,1.984676 
	C1.981475,1.984285 1.983106,1.986770 1.979916,9.564146 
	C1.955015,68.711105 1.929437,127.858070 1.678051,187.003738 
	C1.452034,187.002441 1.000000,187.000000 1.000000,187.000000 
	C1.000000,125.046783 1.000000,63.093563 1.000000,1.000000 
	C132.020859,1.000000 263.041779,1.000000 394.531342,1.000000 
z"/>
<path fill="#6F6739" opacity="1.000000" stroke="none" 
	d="
M592.467834,403.000000 
	C593.553772,402.675842 595.107483,402.068146 596.661316,402.067810 
	C769.457581,402.029388 942.253906,402.036316 1115.521484,402.305298 
	C1115.992798,402.569946 1116.000000,403.000000 1116.000000,403.000000 
	C941.645203,403.000000 767.290466,403.000000 592.467834,403.000000 
z"/>
<path fill="#415C77" opacity="1.000000" stroke="none" 
	d="
M1613.133789,221.057129 
	C1613.091064,183.753983 1613.043701,146.450836 1613.007812,109.147690 
	C1612.992554,93.326424 1612.962524,77.504913 1613.052734,61.684162 
	C1613.063354,59.831707 1613.798340,57.983372 1614.598633,56.066559 
	C1615.000000,110.354225 1615.000000,164.708450 1614.757080,219.646774 
	C1614.054077,220.506287 1613.593994,220.781723 1613.133789,221.057129 
z"/>
<path fill="#797044" opacity="1.000000" stroke="none" 
	d="
M1116.467773,403.000000 
	C1116.000000,403.000000 1115.992798,402.569946 1115.985474,402.355164 
	C1126.129761,402.093750 1136.281372,402.007202 1146.432983,402.006714 
	C1236.325562,402.002319 1326.218140,402.013214 1416.564087,402.302002 
	C1417.017456,402.584442 1417.000000,403.000000 1417.000000,403.000000 
	C1316.978516,403.000000 1216.957153,403.000000 1116.467773,403.000000 
z"/>
<path fill="#6E612B" opacity="1.000000" stroke="none" 
	d="
M1613.174194,392.019958 
	C1613.129150,355.648987 1613.084229,319.277985 1613.292480,282.254944 
	C1614.030518,281.068604 1614.515259,280.534302 1615.000000,280.000000 
	C1615.000000,317.020905 1615.000000,354.041779 1614.695801,391.518677 
	C1613.985718,391.989746 1613.579956,392.004852 1613.174194,392.019958 
z"/>
<path fill="#294674" opacity="1.000000" stroke="none" 
	d="
M1.000000,187.468658 
	C1.000000,187.000000 1.452034,187.002441 1.707758,187.471252 
	C1.973891,195.589111 1.989976,203.238174 1.993815,210.887238 
	C2.025783,274.574127 2.055491,338.260986 1.814469,401.962097 
	C1.362037,401.984222 1.181018,401.992096 1.000000,402.000000 
	C1.000000,330.645782 1.000000,259.291534 1.000000,187.468658 
z"/>
<path fill="#575E56" opacity="1.000000" stroke="none" 
	d="
M395.072235,401.746582 
	C403.069794,401.856995 411.067383,401.967377 419.531128,402.338959 
	C419.997345,402.600128 420.000000,403.000000 420.000000,403.000000 
	C364.979095,403.000000 309.958221,403.000000 254.470306,402.787109 
	C254.003296,402.574188 254.006012,402.148376 254.472229,402.101135 
	C301.353760,402.024261 347.769073,401.994598 394.404083,401.901184 
	C394.623779,401.837402 395.072235,401.746582 395.072235,401.746582 
z"/>
<path fill="#375478" opacity="1.000000" stroke="none" 
	d="
M1.000000,402.500000 
	C1.181018,401.992096 1.362037,401.984222 2.274292,401.981445 
	C26.437248,401.990845 49.868984,401.979553 73.300682,402.003204 
	C103.876305,402.034088 134.451889,402.092590 165.020081,402.354401 
	C165.012665,402.569580 165.000000,403.000000 165.000000,403.000000 
	C110.333336,403.000000 55.666668,403.000000 1.000000,402.500000 
z"/>
<path fill="#494D44" opacity="1.000000" stroke="none" 
	d="
M1613.124512,392.475677 
	C1613.579956,392.004852 1613.985718,391.989746 1614.695801,391.987335 
	C1615.000000,395.653992 1615.000000,399.307983 1615.000000,403.000000 
	C1576.645752,403.000000 1538.291504,403.000000 1499.473389,402.791260 
	C1499.009521,402.582520 1499.022827,402.165131 1499.022827,402.165131 
	C1534.638672,402.121704 1570.254639,402.078094 1605.870483,402.035095 
	C1608.010010,402.032532 1610.149536,402.034790 1613.074707,402.034790 
	C1613.074707,398.788025 1613.074707,395.859711 1613.124512,392.475677 
z"/>
<path fill="#747663" opacity="1.000000" stroke="none" 
	d="
M1615.000000,279.531342 
	C1614.515259,280.534302 1614.030518,281.068604 1613.343750,281.786987 
	C1613.081909,281.532654 1613.022217,281.094177 1612.953125,280.079773 
	C1612.934082,279.336365 1612.924194,279.168884 1612.914307,279.001434 
	C1612.972290,259.995361 1613.030396,240.989288 1613.111084,221.520172 
	C1613.593994,220.781723 1614.054077,220.506287 1614.757080,220.115433 
	C1615.000000,239.687561 1615.000000,259.375122 1615.000000,279.531342 
z"/>
<path fill="#6C6638" opacity="1.000000" stroke="none" 
	d="
M471.974548,402.167664 
	C503.337799,402.113434 534.701050,402.042664 566.064270,402.021576 
	C571.195679,402.018127 576.327148,402.233795 581.729309,402.674072 
	C545.645752,403.000000 509.291534,403.000000 472.463226,402.791870 
	C471.989136,402.583771 471.974548,402.167664 471.974548,402.167664 
z"/>
<path fill="#4D606C" opacity="1.000000" stroke="none" 
	d="
M165.468658,403.000000 
	C165.000000,403.000000 165.012665,402.569580 165.485168,402.316467 
	C195.307114,402.091705 224.656555,402.120056 254.006012,402.148376 
	C254.006012,402.148376 254.003296,402.574188 254.001648,402.787109 
	C224.645767,403.000000 195.291550,403.000000 165.468658,403.000000 
z"/>
<path fill="#5B5B41" opacity="1.000000" stroke="none" 
	d="
M1498.557373,402.093018 
	C1499.022827,402.165131 1499.009521,402.582520 1499.004761,402.791260 
	C1471.979126,403.000000 1444.958130,403.000000 1417.468628,403.000000 
	C1417.000000,403.000000 1417.017456,402.584442 1417.029297,402.376923 
	C1444.058105,402.119873 1471.074951,402.070374 1498.557373,402.093018 
z"/>
<path fill="#595735" opacity="1.000000" stroke="none" 
	d="
M471.510132,402.116028 
	C471.974548,402.167664 471.989136,402.583771 471.994568,402.791870 
	C454.979095,403.000000 437.958221,403.000000 420.468658,403.000000 
	C420.000000,403.000000 419.997345,402.600128 419.995697,402.400238 
	C437.011261,402.154999 454.028503,402.109680 471.510132,402.116028 
z"/>
<path fill="#081552" opacity="1.000000" stroke="none" 
	d="
M254.472229,402.101166 
	C224.656555,402.120056 195.307114,402.091705 165.492569,402.101288 
	C134.451889,402.092590 103.876305,402.034088 73.300682,402.003204 
	C49.868984,401.979553 26.437248,401.990845 2.545705,401.967224 
	C2.055491,338.260986 2.025783,274.574127 1.993815,210.887238 
	C1.989976,203.238174 1.973891,195.589111 1.933775,187.472534 
	C1.929437,127.858070 1.955015,68.711105 1.979916,9.564146 
	C1.983106,1.986770 1.981475,1.984285 9.477982,1.984676 
	C137.437057,1.991346 265.396149,1.998677 393.858612,2.021216 
	C394.312225,3.365981 394.218964,4.695390 394.218872,6.024806 
	C394.212280,95.733124 394.212982,185.441437 394.216766,275.149750 
	C394.216827,276.147797 394.265594,277.145844 394.258484,279.077423 
	C394.211639,320.662292 394.198029,361.313599 394.184387,401.964935 
	C347.769073,401.994598 301.353760,402.024261 254.472229,402.101166 
M88.469688,282.195709 
	C89.463531,290.110352 90.300896,298.050446 91.578506,305.919006 
	C91.845520,307.563477 93.424324,309.734894 94.926613,310.329437 
	C124.459770,322.017914 154.154526,333.301788 183.614319,345.169617 
	C192.195648,348.626617 200.225189,351.604919 208.959869,346.250000 
	C210.353027,345.395905 212.000473,344.946014 213.548309,344.356415 
	C243.000366,333.137482 272.477722,321.983765 301.854279,310.570618 
	C303.651794,309.872253 305.626190,307.262421 305.884277,305.324341 
	C309.651733,277.034058 313.140594,248.706650 316.819183,219.406158 
	C301.112732,230.544449 286.077667,241.206619 270.736237,252.086044 
	C273.353851,254.044647 275.646271,255.616089 277.770905,257.388611 
	C280.063873,259.301544 282.345642,261.266785 284.376862,263.447174 
	C290.296265,269.801361 291.553619,277.540558 287.414551,282.809326 
	C283.718201,287.514526 279.025879,291.260712 272.852661,291.376068 
	C257.568054,291.661652 242.274551,291.469818 226.919006,291.469818 
	C226.919006,258.194702 226.919006,225.000946 226.919006,191.377625 
	C257.412994,191.377625 287.509430,191.377625 317.750946,191.377625 
	C318.440247,181.563126 319.100037,172.168747 319.782288,162.455048 
	C238.880371,162.455048 158.348450,162.455048 77.382790,162.455048 
	C78.039894,172.148163 78.676559,181.539795 79.359398,191.612610 
	C109.792427,191.612610 139.993881,191.612610 170.063934,191.612610 
	C170.063934,225.362000 170.063934,258.410339 170.063934,291.821472 
	C159.516327,291.821472 149.381317,291.894928 139.248108,291.791992 
	C133.776291,291.736389 128.231247,291.871063 122.856171,291.037231 
	C115.658607,289.920685 110.221519,285.632507 107.814796,278.707336 
	C105.636932,272.440704 109.178101,267.258057 113.201706,263.011993 
	C117.077026,258.922424 121.775314,255.612640 126.177422,251.905182 
	C111.316887,241.391922 96.476089,230.892624 80.540535,219.618820 
	C83.279343,241.183701 85.826889,261.242584 88.469688,282.195709 
M249.199326,127.380081 
	C241.666489,124.083382 234.133667,120.786682 226.091324,117.266991 
	C231.659058,109.677330 236.873459,102.569305 242.334930,95.124489 
	C227.686218,80.840828 213.284042,66.797546 198.501877,52.383743 
	C185.461380,65.120041 172.718048,77.531357 160.029861,89.998802 
	C158.287643,91.710709 156.819611,93.701660 155.174011,95.622513 
	C160.469833,102.860588 165.640961,109.928207 170.997940,117.249863 
	C157.033188,123.444221 143.751846,129.382385 130.405380,135.170395 
	C129.283737,135.656815 127.387032,135.643387 126.421577,135.002182 
	C117.372864,128.992554 108.448792,122.795273 99.198296,116.453163 
	C105.320290,109.456383 111.160286,102.781891 117.191750,95.888573 
	C100.309700,83.380440 84.076813,71.353287 66.887726,58.617664 
	C69.766731,88.927711 72.496582,117.667450 75.244713,146.599609 
	C157.659653,146.599609 239.585144,146.599609 321.897491,146.599609 
	C324.634705,117.721329 327.363861,88.928024 330.215302,58.844780 
	C312.882843,71.662018 296.683258,83.641502 279.999420,95.979088 
	C286.157074,103.009041 292.006195,109.686745 297.980103,116.506943 
	C288.953552,122.629242 280.339447,128.600906 271.546936,134.297104 
	C270.217285,135.158524 267.819733,135.364014 266.322845,134.797775 
	C260.746368,132.688400 255.339432,130.130890 249.199326,127.380081 
z"/>
<path fill="#F6F9FB" opacity="1.000000" stroke="none" 
	d="
M1437.039673,153.955933 
	C1440.349731,152.855423 1441.610718,150.937317 1441.164185,147.783829 
	C1440.515625,143.201370 1440.581299,138.444321 1439.365601,134.030762 
	C1436.738037,124.490959 1424.060791,119.301819 1415.473145,124.192993 
	C1413.604980,125.256989 1412.124756,127.863075 1411.510742,130.052017 
	C1410.721802,132.864136 1410.987915,135.972275 1410.770752,139.410767 
	C1407.490112,139.766342 1404.217651,140.399841 1400.947266,140.390442 
	C1398.146973,140.382416 1396.859863,138.313446 1398.356079,135.933167 
	C1403.929443,127.066658 1423.440063,112.337746 1435.854614,114.532326 
	C1446.176880,116.357018 1453.179810,123.290100 1453.891479,135.155029 
	C1454.668335,148.105957 1454.386597,161.119980 1454.585083,174.106201 
	C1454.646362,178.100616 1454.515381,182.120316 1454.924194,186.081818 
	C1455.520264,191.858124 1459.687622,194.752625 1466.810181,194.800873 
	C1472.851440,194.841797 1476.653320,192.057312 1476.793091,186.073364 
	C1477.177612,169.598465 1477.066650,153.111481 1477.097778,136.629181 
	C1477.107056,131.707077 1473.849976,128.803726 1470.187744,126.338211 
	C1466.821045,124.071709 1467.432373,122.694427 1470.895996,121.453667 
	C1476.367188,119.493805 1481.811279,117.455215 1487.236816,115.372047 
	C1490.758545,114.019852 1492.295776,114.929459 1491.778076,118.859726 
	C1491.398560,121.741737 1491.254517,124.654732 1491.004639,127.563889 
	C1497.848389,123.814590 1504.148560,119.856232 1510.880371,116.871559 
	C1514.713989,115.171837 1519.240234,114.441017 1523.476440,114.355423 
	C1535.382812,114.114845 1543.773193,120.929604 1544.826538,132.889236 
	C1545.948242,145.625458 1545.588013,158.492844 1545.854614,171.303375 
	C1545.941284,175.467133 1545.866943,179.636215 1546.038086,183.795792 
	C1546.336792,191.048676 1548.450562,193.328171 1555.658081,194.904160 
	C1557.325562,195.268784 1558.867554,196.207718 1560.467285,196.882355 
	C1560.261353,197.422974 1560.055420,197.963577 1559.849487,198.504196 
	C1545.983887,198.504196 1532.118408,198.504196 1518.252808,198.504196 
	C1518.020020,198.090729 1517.787354,197.677246 1517.554565,197.263779 
	C1518.727661,196.529755 1519.811890,195.430527 1521.088013,195.120316 
	C1530.190918,192.907516 1532.072388,190.725815 1532.124390,181.408600 
	C1532.187622,170.076691 1532.303467,158.740494 1532.051880,147.413803 
	C1531.960693,143.310715 1531.508301,138.999268 1530.120850,135.182755 
	C1526.290283,124.645752 1510.968384,120.378807 1499.832031,126.167023 
	C1494.363281,129.009460 1491.478638,132.460693 1491.814819,139.353165 
	C1492.495850,153.318665 1491.969360,167.340866 1492.035278,181.339264 
	C1492.082031,191.278320 1493.725708,193.130234 1503.264893,195.157593 
	C1504.416870,195.402435 1505.358643,196.636246 1506.397827,197.411682 
	C1505.306641,197.893860 1504.221313,198.777542 1503.123169,198.793991 
	C1495.125732,198.913895 1487.123169,198.733917 1479.127197,198.898209 
	C1472.318359,199.038116 1465.507812,199.388565 1458.713623,199.867661 
	C1450.336304,200.458374 1442.803101,199.796951 1441.114746,190.242386 
	C1435.171143,193.569687 1429.777710,197.705597 1423.682739,199.765732 
	C1411.445068,203.902161 1400.064697,195.644318 1398.887695,182.705093 
	C1397.982910,172.758850 1398.352417,172.215851 1407.382568,167.999176 
	C1417.174438,163.426880 1426.914307,158.742813 1437.039673,153.955933 
M1415.628418,170.617645 
	C1416.127197,175.154968 1415.908813,179.929596 1417.311279,184.167892 
	C1418.961792,189.155930 1423.549683,190.642700 1428.694336,190.189835 
	C1434.003052,189.722519 1439.803345,187.677338 1440.525513,182.724365 
	C1441.812988,173.894012 1440.887695,164.740997 1440.887695,155.235428 
	C1435.329224,158.231583 1430.456909,160.713379 1425.733765,163.452408 
	C1422.356567,165.410980 1419.179321,167.714493 1415.628418,170.617645 
z"/>
<path fill="#F8FAFC" opacity="1.000000" stroke="none" 
	d="
M473.923981,71.840103 
	C485.982880,72.528595 497.715576,72.266815 509.084351,74.174355 
	C524.013306,76.679260 533.231201,86.683777 534.158569,98.777496 
	C535.232422,112.782455 528.679260,124.088783 515.925903,130.238800 
	C514.614990,130.870972 513.309143,131.513855 511.455597,132.417709 
	C519.152710,144.187332 526.340759,155.896744 534.252563,167.094772 
	C544.149353,181.102249 556.561951,192.101120 573.726379,196.555466 
	C573.982788,196.622009 574.149353,197.034531 574.914612,197.955917 
	C573.475952,198.643814 572.169373,199.848694 570.971130,199.749222 
	C561.882019,198.994644 552.759216,198.340851 543.755432,196.951843 
	C535.136475,195.622208 529.126160,189.520645 524.338562,182.998337 
	C516.724487,172.625351 509.481567,161.864441 503.283722,150.605881 
	C498.778137,142.421280 493.231689,137.730316 483.800385,137.992767 
	C481.499969,138.056778 479.190430,137.792160 476.181549,137.643997 
	C476.181549,143.068100 476.135437,148.178009 476.192017,153.286789 
	C476.284180,161.608536 476.258301,169.937729 476.625885,178.248566 
	C477.003662,186.789276 480.452148,190.764999 488.842987,192.916382 
	C492.214996,193.780960 495.694458,194.232742 499.053436,195.138062 
	C500.288330,195.470886 501.316742,196.569809 502.439331,197.319290 
	C502.249634,197.701981 502.059906,198.084686 501.870178,198.467377 
	C480.694397,198.467377 459.518585,198.467377 438.342773,198.467377 
	C438.125092,198.143158 437.907379,197.818954 437.689697,197.494736 
	C438.695740,196.705429 439.590149,195.579910 440.732361,195.200699 
	C442.763306,194.526413 444.995117,194.475052 447.053772,193.863205 
	C455.913849,191.229950 459.398834,187.122620 459.941864,177.841278 
	C460.544189,167.546448 460.880524,157.228882 461.036255,146.916733 
	C461.292480,129.949600 461.323212,112.978928 461.407623,96.009537 
	C461.415833,94.353401 461.181458,92.690132 460.980347,91.039841 
	C459.848053,81.746544 456.553009,78.215683 447.420990,76.523087 
	C446.118011,76.281586 444.729218,76.373627 443.485413,75.979263 
	C442.271820,75.594460 441.193085,74.784225 440.055145,74.160751 
	C441.196808,73.585121 442.321838,72.550018 443.482849,72.507874 
	C451.466034,72.218102 459.456757,72.137299 467.444977,71.986099 
	C469.442047,71.948303 471.438934,71.898987 473.923981,71.840103 
M506.563141,82.874420 
	C498.158630,76.946457 488.835632,74.510262 478.446564,75.048637 
	C478.446564,94.899857 478.446564,114.278236 478.446564,134.960602 
	C485.024689,133.479843 491.276093,132.679779 497.100647,130.653000 
	C518.598267,123.172409 523.583069,99.168228 506.563141,82.874420 
z"/>
<path fill="#F8FAFC" opacity="1.000000" stroke="none" 
	d="
M740.667969,163.661224 
	C748.041260,160.118698 755.182739,156.935730 762.060242,153.258850 
	C763.647827,152.410095 765.396057,149.768738 765.239258,148.127182 
	C764.678955,142.260651 764.184326,136.136337 762.074402,130.730316 
	C759.169678,123.288124 745.693054,119.841286 739.189270,124.478355 
	C737.339478,125.797173 736.358337,128.785507 735.703796,131.204407 
	C735.030396,133.693085 735.242188,136.421310 735.032471,139.555557 
	C732.467834,139.783600 730.024658,140.219513 727.599426,140.135757 
	C726.107605,140.084244 724.643250,139.238617 723.166565,138.749542 
	C723.705933,137.237686 723.863098,135.392014 724.845581,134.267151 
	C732.161255,125.891541 740.608765,118.985649 751.391541,115.546181 
	C766.750122,110.647141 779.215942,120.644958 779.785339,138.625473 
	C780.185791,151.272766 779.950562,163.939972 780.021362,176.598160 
	C780.033447,178.761414 779.981506,180.947083 780.261658,183.082718 
	C781.180298,190.085175 784.177917,192.954803 790.360718,192.986420 
	C798.384399,193.027451 800.192749,191.483902 801.375916,183.462769 
	C801.617798,181.823044 801.798035,180.156281 801.799683,178.501770 
	C801.825562,151.848892 801.755188,125.195755 801.864380,98.543320 
	C801.889954,92.291321 800.365723,87.109169 794.717590,83.661316 
	C792.096252,82.061195 790.929626,79.730812 794.461487,78.107582 
	C800.188660,75.475471 806.140869,73.328377 812.028870,71.056480 
	C812.725891,70.787537 813.616333,71.019936 815.181580,71.019936 
	C815.181580,73.238983 815.181580,75.178574 815.181580,77.118164 
	C815.181580,110.600853 815.175476,144.083542 815.195740,177.566208 
	C815.197083,179.723526 815.329163,181.887421 815.526062,184.036728 
	C816.228088,191.699600 817.746460,193.324020 825.255371,194.965500 
	C826.906555,195.326477 828.474854,196.067200 830.081299,196.633057 
	C829.981140,197.225677 829.880981,197.818298 829.780823,198.410934 
	C828.098572,198.558105 826.416870,198.826477 824.734131,198.832932 
	C813.240295,198.876984 801.745300,198.787018 790.252747,198.917404 
	C786.448242,198.960571 782.654968,199.701294 778.847229,199.815887 
	C770.491028,200.067413 767.574890,197.729965 765.560974,189.543915 
	C761.045898,192.535904 756.746765,195.929779 751.975464,198.418472 
	C744.876160,202.121414 737.510864,202.325943 730.954041,197.053864 
	C723.584412,191.128220 721.977844,182.974701 723.425720,174.114578 
	C723.658691,172.688507 725.434448,171.136719 726.881775,170.357574 
	C731.266479,167.997040 735.840210,165.987473 740.667969,163.661224 
M765.411804,157.967346 
	C765.137878,154.619629 763.274902,156.395569 762.033752,157.036682 
	C757.178894,159.544464 752.407959,162.214005 747.564148,164.743713 
	C739.544006,168.932236 738.782715,170.303329 739.870605,179.136887 
	C740.761108,186.366974 745.619141,190.588440 752.587036,190.186844 
	C760.869507,189.709503 765.429871,185.315323 765.433838,177.798782 
	C765.437195,171.491516 765.432129,165.184265 765.411804,157.967346 
z"/>
<path fill="#F7F9FC" opacity="1.000000" stroke="none" 
	d="
M991.041077,198.227539 
	C972.524292,206.833511 959.904541,192.646179 961.327026,176.398529 
	C961.598999,173.291794 962.814941,171.359711 965.777771,169.995285 
	C977.247070,164.713516 988.571594,159.118179 1000.018921,153.787338 
	C1002.738586,152.520828 1004.293762,151.023895 1003.859924,147.795731 
	C1003.462952,144.840942 1003.672485,141.799271 1003.209717,138.859634 
	C1001.319092,126.847893 995.528992,122.261017 983.362976,122.909882 
	C976.531921,123.274216 974.336182,125.569420 973.858032,132.435547 
	C973.695190,134.774506 973.590637,138.716934 972.491394,139.092407 
	C969.149048,140.234024 965.334045,139.991714 960.246704,140.407257 
	C961.922424,136.967621 962.453308,134.773010 963.790405,133.320862 
	C970.240601,126.315956 977.247314,120.050667 986.459351,116.691139 
	C1003.758850,110.382133 1017.058960,118.810738 1017.920288,137.267242 
	C1018.463318,148.904327 1018.128967,160.582443 1018.182617,172.242203 
	C1018.195679,175.074326 1018.104553,177.909409 1018.202942,180.738220 
	C1018.584045,191.690796 1025.235229,196.624786 1035.427002,192.644592 
	C1037.906616,191.676193 1040.472290,187.319565 1040.563965,184.443268 
	C1041.078247,168.303040 1041.087646,152.132416 1040.641357,135.989532 
	C1040.564331,133.201309 1037.635376,130.377075 1035.713379,127.800995 
	C1034.685059,126.422775 1032.994873,125.538467 1030.840576,123.824318 
	C1032.752319,122.749626 1033.878296,121.948227 1035.124634,121.445381 
	C1040.360352,119.333115 1045.665527,117.390572 1050.879272,115.226898 
	C1054.511597,113.719505 1055.809082,114.886787 1055.566406,118.641373 
	C1055.228394,123.873314 1055.040283,129.114944 1054.742188,135.303772 
	C1058.251709,130.693771 1060.624146,126.401443 1064.086426,123.342667 
	C1067.949585,119.929626 1072.510498,116.862724 1077.299927,115.055481 
	C1083.121704,112.858696 1088.434204,116.064430 1089.543579,121.095039 
	C1090.476807,125.327530 1085.906860,132.459763 1081.403198,133.488449 
	C1080.500244,133.694687 1079.082397,133.257370 1078.405029,132.599136 
	C1067.889404,122.380547 1058.673340,130.772583 1056.201904,141.788605 
	C1055.190918,146.295258 1054.755005,150.998230 1054.647339,155.625626 
	C1054.450073,164.112259 1054.438843,172.620163 1054.811768,181.098862 
	C1055.279419,191.726501 1057.412354,193.662704 1068.190796,195.035004 
	C1069.970093,195.261520 1071.674927,196.072189 1073.414185,196.612900 
	C1073.291382,197.255157 1073.168579,197.897415 1073.045776,198.539688 
	C1071.354614,198.644897 1069.664062,198.829025 1067.972168,198.843018 
	C1053.000977,198.966797 1038.029541,199.059372 1023.058167,199.167557 
	C1022.560242,199.171158 1022.058594,199.213745 1021.565857,199.286865 
	C1010.264954,200.963867 1007.407959,199.395645 1003.456482,189.495300 
	C999.459412,192.332199 995.423584,195.196640 991.041077,198.227539 
M1003.833801,164.579834 
	C1003.833801,161.712463 1003.833801,158.845093 1003.833801,155.075027 
	C996.763611,158.883606 990.756042,162.024338 984.841187,165.330719 
	C977.808960,169.261703 976.922791,171.243393 978.121155,179.303604 
	C979.191711,186.504013 984.254639,190.781433 991.101257,190.269730 
	C999.135986,189.669205 1003.830566,184.978943 1003.833618,177.546661 
	C1003.835205,173.550674 1003.833740,169.554672 1003.833801,164.579834 
z"/>
<path fill="#F7F9FC" opacity="1.000000" stroke="none" 
	d="
M904.937500,196.147446 
	C920.149109,198.345886 931.991943,193.158127 940.283752,180.997803 
	C944.548462,174.743439 947.421021,167.540436 950.932861,160.771347 
	C951.361694,159.944809 951.853516,159.150925 953.432129,158.485718 
	C953.432129,159.743195 953.728577,161.088776 953.385193,162.244202 
	C950.650940,171.444672 947.943726,180.659668 944.846313,189.739960 
	C944.257141,191.467117 942.218567,193.157837 940.440857,193.950974 
	C921.923706,202.212357 902.718567,202.959839 883.359131,197.887390 
	C866.267456,193.409088 851.797180,184.697937 842.622681,168.928925 
	C831.643372,150.057953 830.703552,130.239746 839.359314,110.534927 
	C851.148743,83.696350 873.357300,71.734123 901.710938,69.847832 
	C916.551270,68.860542 930.784546,71.326637 944.237000,77.991127 
	C947.064636,79.391960 947.997437,81.071663 947.924988,84.138191 
	C947.726746,92.530281 947.856689,100.930122 947.031860,109.426559 
	C945.610535,104.956406 944.553833,100.329033 942.705505,96.043045 
	C934.280457,76.506889 913.843384,68.670120 892.547363,76.513672 
	C873.456482,83.545044 863.455627,98.074921 858.661560,117.061195 
	C851.598450,145.033768 862.495422,174.090363 886.534729,189.246170 
	C891.855835,192.600891 898.482788,193.884399 904.937500,196.147446 
z"/>
<path fill="#F8FAFC" opacity="1.000000" stroke="none" 
	d="
M1232.818848,131.999969 
	C1232.818848,120.179634 1232.607788,108.853851 1232.900024,97.541069 
	C1233.069092,90.992790 1231.413696,85.778755 1225.444092,82.425026 
	C1224.640991,81.973862 1224.098755,81.058533 1222.479126,79.347694 
	C1230.429688,76.176949 1237.721313,73.269012 1245.906982,70.004471 
	C1245.906982,88.686440 1245.906982,106.091568 1245.906982,124.385986 
	C1251.112183,122.103073 1255.555786,120.087044 1260.051392,118.194450 
	C1276.989624,111.063667 1293.955811,114.736771 1303.199951,127.492027 
	C1316.824097,146.290878 1313.496216,173.517044 1295.525879,188.201904 
	C1277.115356,203.246445 1256.925171,204.210709 1235.809814,194.755447 
	C1234.317871,194.087387 1232.966919,191.267700 1232.946777,189.433228 
	C1232.739258,170.457291 1232.818970,151.478195 1232.818848,131.999969 
M1262.826538,123.959335 
	C1261.681152,124.122612 1260.521362,124.218193 1259.392700,124.459663 
	C1248.212646,126.851562 1248.036621,126.858749 1248.059937,138.092896 
	C1248.086914,151.024063 1247.384277,164.089630 1248.974365,176.850632 
	C1250.911987,192.401245 1265.472778,199.012329 1279.833740,192.312256 
	C1290.658936,187.261810 1295.237793,178.002243 1296.598145,166.942886 
	C1299.577271,142.725403 1286.262207,123.214363 1262.826538,123.959335 
z"/>
<path fill="#F9FAFC" opacity="1.000000" stroke="none" 
	d="
M1206.438354,119.464966 
	C1221.820312,129.725586 1227.884766,152.565216 1220.234741,170.495941 
	C1209.815918,194.915863 1180.169434,207.341919 1155.319580,197.704407 
	C1144.819336,193.632080 1144.819336,193.632065 1144.819336,182.209122 
	C1144.819336,156.407318 1144.771484,130.605377 1144.844604,104.803787 
	C1144.871094,95.447144 1146.352295,85.649895 1133.956665,80.637375 
	C1136.300537,79.081154 1137.338989,78.142532 1138.556641,77.627182 
	C1143.289795,75.624138 1148.086426,73.772026 1152.846558,71.832207 
	C1157.317383,70.010292 1158.149902,70.482903 1158.164307,75.292130 
	C1158.207642,89.774300 1158.180420,104.256676 1158.180664,118.738976 
	C1158.180664,120.355667 1158.180664,121.972359 1158.180664,124.390991 
	C1173.981079,117.023705 1189.243896,109.195892 1206.438354,119.464966 
M1201.133179,135.461563 
	C1190.971558,123.898323 1177.583862,120.751244 1163.303589,126.856087 
	C1161.911621,127.451134 1160.385864,129.600769 1160.307251,131.101334 
	C1159.732788,142.068878 1158.912720,153.081314 1159.393555,164.025848 
	C1159.708130,171.188339 1160.609741,179.016342 1163.819092,185.215515 
	C1170.371704,197.872986 1190.467529,197.757965 1200.581543,185.861267 
	C1211.435181,173.094864 1211.875854,150.017456 1201.133179,135.461563 
z"/>
<path fill="#F6F9FB" opacity="1.000000" stroke="none" 
	d="
M601.072754,199.858521 
	C574.188599,199.607544 555.143433,180.274612 556.141296,154.718521 
	C557.037354,131.769058 574.801086,114.706345 599.799316,113.481140 
	C617.167786,112.629868 631.952209,118.817169 640.635132,134.249069 
	C648.970276,149.062836 649.113342,165.029510 639.969116,179.819214 
	C631.303772,193.834290 617.700256,199.601486 601.072754,199.858521 
M629.174438,164.581711 
	C630.691101,155.324631 629.701965,146.233429 626.284912,137.607819 
	C622.208130,127.316872 615.567383,119.618088 603.491150,118.806526 
	C592.193054,118.047256 584.097534,123.285133 579.416260,133.121231 
	C570.685547,151.465988 571.390137,169.640015 583.021790,186.568466 
	C591.866028,199.440277 609.293396,200.183945 619.597473,188.558578 
	C625.391663,182.021469 628.230042,174.108704 629.174438,164.581711 
z"/>
<path fill="#F3F6FA" opacity="1.000000" stroke="none" 
	d="
M694.062744,175.897308 
	C698.284424,162.531525 702.787842,149.649857 706.423645,136.527802 
	C708.687134,128.358383 706.801392,124.235847 698.841309,122.923637 
	C698.018616,122.788025 697.387268,121.492447 696.667175,120.735085 
	C696.857117,120.291946 697.047058,119.848801 697.237000,119.405655 
	C702.481018,119.405655 707.725037,119.405655 712.969055,119.405655 
	C718.263977,119.405655 723.558838,119.405655 730.125000,119.405655 
	C728.904541,121.209282 728.412354,122.762825 727.688904,122.879234 
	C719.567932,124.186089 716.178284,130.396942 713.515564,136.898849 
	C705.396362,156.724625 697.648010,176.701889 689.645630,196.576065 
	C684.499817,209.355728 679.321167,222.127777 673.798462,234.746231 
	C672.379333,237.988678 669.996765,241.074615 667.354431,243.451630 
	C663.791443,246.656906 659.343506,246.671051 655.375244,243.901474 
	C651.700623,241.336823 650.824280,237.483292 651.977295,233.287750 
	C653.206421,228.814926 656.707214,227.507584 660.643127,229.847168 
	C668.262512,234.376266 670.122437,233.623062 673.451477,225.049225 
	C675.434753,219.941223 677.931213,215.020309 679.691284,209.843384 
	C680.463013,207.573547 680.748779,204.583069 679.935486,202.414902 
	C670.859009,178.218231 661.508789,154.124359 652.273438,129.987076 
	C650.586853,125.579079 647.725342,122.808563 642.912476,122.042709 
	C641.751038,121.857895 640.750488,120.662010 639.676025,119.931068 
	C639.938416,119.424774 640.200806,118.918472 640.463196,118.412178 
	C652.272095,118.412178 664.081360,118.377899 675.889343,118.482040 
	C676.764343,118.489754 677.630493,119.492393 678.500793,120.032501 
	C677.597961,120.736313 676.798157,121.776115 675.775635,122.089653 
	C668.911194,124.194511 667.176697,127.331558 669.649231,134.065552 
	C675.812805,150.851929 682.061035,167.607239 688.302917,184.364700 
	C688.564453,185.066666 689.104065,185.664978 689.937805,186.979660 
	C691.445496,182.986633 692.711670,179.633224 694.062744,175.897308 
z"/>
<path fill="#F5F8FB" opacity="1.000000" stroke="none" 
	d="
M1379.551392,185.957367 
	C1383.564453,183.065826 1387.194092,180.250748 1391.011963,177.289642 
	C1394.182617,178.499603 1392.652710,180.458298 1391.255127,182.478729 
	C1381.056152,197.223724 1365.402588,203.784088 1349.919067,199.777023 
	C1334.199219,195.708817 1322.867920,181.663452 1321.160156,164.129791 
	C1319.101685,142.995529 1329.458862,124.759026 1347.936157,116.983643 
	C1361.223999,111.392036 1377.638794,114.647964 1384.826416,124.458199 
	C1388.412231,129.352585 1390.778931,134.726501 1389.840454,141.585861 
	C1380.776367,141.585861 1371.832642,141.585419 1362.888794,141.585999 
	C1355.730469,141.586456 1348.567871,141.460785 1341.417480,141.697922 
	C1340.005127,141.744766 1337.589600,143.004257 1337.410156,144.018372 
	C1334.956909,157.878418 1337.875610,173.893799 1350.765869,182.714355 
	C1359.614258,188.769150 1369.127441,189.829956 1379.551392,185.957367 
M1351.459717,136.961609 
	C1358.317017,136.651474 1365.174316,136.341324 1372.087158,136.028671 
	C1370.592529,125.531593 1363.349976,117.498688 1356.031616,117.610580 
	C1347.527100,117.740616 1339.503906,126.279198 1338.147461,136.979980 
	C1342.285645,136.979980 1346.381714,136.979980 1351.459717,136.961609 
z"/>
<path fill="#F6F9FB" opacity="1.000000" stroke="none" 
	d="
M1124.137573,183.481262 
	C1125.279541,192.088196 1126.374512,193.115219 1135.485107,195.164963 
	C1136.551514,195.404892 1137.435303,196.457397 1138.403687,197.133209 
	C1137.569336,197.705765 1136.738892,198.770798 1135.900146,198.777267 
	C1122.421265,198.881470 1108.941284,198.850830 1095.461548,198.850830 
	C1095.203491,198.369888 1094.945557,197.888962 1094.687500,197.408020 
	C1095.784790,196.631363 1096.779785,195.449356 1097.995605,195.142487 
	C1107.369385,192.776535 1109.026611,191.293472 1109.246948,181.630753 
	C1109.577393,167.140381 1109.393188,152.637787 1109.382324,138.140427 
	C1109.379028,133.792709 1107.421387,130.537537 1103.661255,128.284805 
	C1101.604248,127.052406 1099.689941,125.581787 1096.434692,123.339081 
	C1102.921021,121.044411 1108.101074,119.138008 1113.330200,117.377396 
	C1124.006470,113.782829 1124.007690,113.815140 1124.019409,125.042229 
	C1124.039673,144.373505 1124.073242,163.704773 1124.137573,183.481262 
z"/>
<path fill="#F6F8FB" opacity="1.000000" stroke="none" 
	d="
M1106.630127,84.561356 
	C1106.483521,79.430473 1108.343262,75.726936 1113.061646,74.255547 
	C1116.793579,73.091797 1120.328369,73.941292 1122.837524,77.186584 
	C1125.386841,80.483887 1126.298584,84.524536 1123.478516,87.634613 
	C1121.439453,89.883278 1117.932617,91.677231 1114.920044,91.958672 
	C1110.544800,92.367416 1107.766724,89.266792 1106.630127,84.561356 
z"/>
<path fill="#D4B054" opacity="1.000000" stroke="none" 
	d="
M394.404083,401.901184 
	C394.198029,361.313599 394.211639,320.662292 394.302124,279.548889 
	C394.378998,279.086792 394.724579,279.204010 394.894012,279.271790 
	C395.070099,319.842133 395.076752,360.344696 395.077820,401.296936 
	C395.072235,401.746582 394.623779,401.837402 394.404083,401.901184 
z"/>
<path fill="#D4B054" opacity="1.000000" stroke="none" 
	d="
M1612.677002,279.019836 
	C1612.924194,279.168884 1612.934082,279.336365 1612.901123,279.751587 
	C1612.617432,279.882629 1612.405762,279.726044 1612.109131,279.367249 
	C1611.994629,279.204926 1612.439941,279.038239 1612.677002,279.019836 
z"/>
<path fill="#141E51" opacity="1.000000" stroke="none" 
	d="
M557.227661,362.039673 
	C549.608643,348.311890 542.171753,334.923248 534.734863,321.534607 
	C534.295349,321.666656 533.855896,321.798706 533.416382,321.930756 
	C533.416382,335.597137 533.416382,349.263519 533.416382,363.247620 
	C530.763306,363.247620 528.696899,363.247620 526.300659,363.247620 
	C526.300659,345.012878 526.300659,326.825897 526.300659,308.664917 
	C536.105469,307.174835 535.995239,307.232208 540.455688,315.797821 
	C546.556580,327.513611 552.845398,339.131500 560.037109,350.618469 
	C560.037109,336.658264 560.037109,322.698059 560.037109,308.442871 
	C563.068359,308.442871 565.477417,308.442871 568.233337,308.442871 
	C568.233337,326.619415 568.233337,344.689209 568.233337,363.918945 
	C564.537415,363.393066 560.973572,362.885956 557.227661,362.039673 
z"/>
<path fill="#141E51" opacity="1.000000" stroke="none" 
	d="
M881.898621,362.893341 
	C881.561279,345.264771 881.495178,327.951599 881.444641,310.638428 
	C881.442749,309.996033 881.592834,309.353180 881.664795,308.769531 
	C890.893433,306.998688 891.613892,307.410522 895.683228,315.207397 
	C901.802551,326.931854 908.038269,338.595490 915.377686,350.080811 
	C915.377686,336.325592 915.377686,322.570374 915.377686,308.478271 
	C918.461731,308.478271 920.860413,308.478271 923.645386,308.478271 
	C923.645386,326.558441 923.645386,344.769135 923.648621,362.981171 
	C914.604553,364.739471 913.832886,364.336517 909.721130,356.511444 
	C903.186523,344.075409 896.586060,331.674103 889.021851,319.456421 
	C889.021851,333.924530 889.021851,348.392609 889.021851,363.208771 
	C886.348999,363.208771 884.260742,363.208771 881.898621,362.893341 
z"/>
<path fill="#151E51" opacity="1.000000" stroke="none" 
	d="
M1267.900146,339.718506 
	C1264.908813,361.703918 1245.360474,371.460266 1227.250488,360.333313 
	C1219.394409,355.506439 1217.277588,347.494415 1216.284790,339.029327 
	C1214.792236,326.303101 1221.491821,313.913879 1231.896484,310.090942 
	C1249.950439,303.457458 1267.164673,314.990509 1267.964355,334.273346 
	C1268.033203,335.932953 1267.941040,337.599274 1267.900146,339.718506 
M1253.201782,318.261749 
	C1244.908325,311.067078 1234.388550,312.338226 1228.553833,321.489105 
	C1223.560059,329.321106 1223.661621,337.695862 1226.647583,346.253265 
	C1228.902100,352.714600 1233.431396,356.249603 1240.136841,357.041809 
	C1247.288574,357.886780 1253.059448,355.218597 1256.568359,349.065613 
	C1261.466431,340.477051 1260.857300,325.269745 1253.201782,318.261749 
z"/>
<path fill="#0E1952" opacity="1.000000" stroke="none" 
	d="
M1353.249634,349.514038 
	C1355.564209,352.531219 1354.957275,349.826050 1354.960327,348.963898 
	C1355.002075,337.300751 1354.988647,325.637421 1354.988892,313.974121 
	C1354.989014,312.181824 1354.989014,310.389526 1354.989014,308.387024 
	C1357.445923,308.387024 1359.387695,308.387024 1361.756104,308.387024 
	C1361.756104,326.552063 1361.756104,344.751923 1361.756104,362.949799 
	C1353.683594,364.513184 1353.481079,364.343658 1349.923950,357.906860 
	C1343.046997,345.462799 1336.064941,333.076874 1328.301514,320.838715 
	C1328.301514,334.860229 1328.301514,348.881744 1328.301514,363.220886 
	C1325.730347,363.220886 1323.654297,363.220886 1321.281494,363.220886 
	C1321.281494,345.038727 1321.281494,326.957886 1321.281494,308.870850 
	C1329.428345,306.876282 1330.594360,307.294861 1334.250244,314.062042 
	C1340.567505,325.755493 1346.816772,337.485657 1353.249634,349.514038 
z"/>
<path fill="#192151" opacity="1.000000" stroke="none" 
	d="
M799.728088,361.290924 
	C797.446350,362.059631 795.274780,362.408173 792.703613,362.820862 
	C792.703613,344.317627 792.703613,326.588226 792.703613,307.565369 
	C800.816895,308.275360 808.899963,308.427979 816.755188,309.844330 
	C823.119202,310.991821 826.022827,315.330902 826.491455,321.431000 
	C826.932068,327.164856 824.165039,331.565033 818.354919,334.379242 
	C817.635803,334.727570 816.926636,335.096588 817.070862,335.023956 
	C821.552246,343.863220 826.007568,352.651031 830.808960,362.121490 
	C827.587402,362.121490 825.071228,362.121490 822.300293,362.121490 
	C820.025146,357.137512 817.637878,351.863495 815.213318,346.606689 
	C811.485779,338.524811 809.881226,337.714111 799.838318,339.134552 
	C799.838318,346.314331 799.838318,353.592529 799.728088,361.290924 
M811.331909,331.237274 
	C815.612488,329.884796 817.636597,326.840576 816.868286,322.537415 
	C816.095947,318.211823 812.770813,316.297546 808.624268,315.975800 
	C805.871643,315.762207 803.088989,315.935303 800.282471,315.935303 
	C800.282471,321.606232 800.282471,326.782135 800.282471,332.302734 
	C804.003540,332.066650 807.299500,331.857544 811.331909,331.237274 
z"/>
<path fill="#141D51" opacity="1.000000" stroke="none" 
	d="
M988.257690,329.116272 
	C990.679016,323.062195 993.207092,317.452606 995.172791,311.652435 
	C996.091309,308.942108 997.278320,308.012543 1000.079895,308.047699 
	C1002.969604,308.083984 1005.099426,308.399933 1006.350098,311.537231 
	C1011.804077,325.218353 1017.445801,338.824707 1023.026978,352.455109 
	C1024.404053,355.818359 1025.810059,359.169800 1027.431763,363.078491 
	C1024.604126,363.078491 1022.100098,363.078491 1019.234009,363.078491 
	C1017.962280,359.927216 1016.742981,356.318207 1015.030090,352.961060 
	C1014.378784,351.684631 1012.620117,350.199982 1011.319763,350.155121 
	C1003.681580,349.891693 996.029602,350.025665 988.305603,350.025665 
	C987.360962,352.558167 986.483276,354.870239 985.635132,357.193054 
	C983.156067,363.982117 983.160645,363.983795 974.954590,363.198364 
	C979.391785,351.847382 983.763000,340.665039 988.257690,329.116272 
M992.973694,334.534210 
	C991.860718,337.392639 990.747803,340.251068 989.538879,343.355957 
	C996.910706,343.355957 1003.544067,343.355957 1010.836975,343.355957 
	C1007.054626,334.417389 1003.543396,326.119568 999.633118,316.878632 
	C997.180298,323.258545 995.159790,328.513977 992.973694,334.534210 
z"/>
<path fill="#121C51" opacity="1.000000" stroke="none" 
	d="
M1449.284180,323.448486 
	C1454.860840,336.763428 1460.298218,349.718811 1465.740601,362.686249 
	C1458.969604,364.682251 1458.005249,364.234253 1455.494995,358.015442 
	C1452.267700,350.020447 1452.267700,350.020386 1443.840210,350.020447 
	C1439.348755,350.020447 1434.851929,350.151855 1430.367676,349.971619 
	C1427.667847,349.863098 1425.895874,350.450623 1425.365356,353.416748 
	C1425.138306,354.686523 1424.301392,355.837128 1423.825195,357.074066 
	C1421.238770,363.789581 1421.247803,363.793060 1413.316772,363.303375 
	C1415.855225,356.744446 1418.288696,350.383698 1420.776733,344.044312 
	C1425.016113,333.242676 1429.392090,322.492981 1433.480103,311.634735 
	C1434.565186,308.752777 1436.181763,308.000244 1439.051270,308.053436 
	C1441.807373,308.104553 1443.717163,308.421570 1444.658081,311.544495 
	C1445.845215,315.485504 1447.622314,319.248871 1449.284180,323.448486 
M1446.538452,334.056580 
	C1444.173218,328.677368 1441.807983,323.298126 1438.961914,316.825531 
	C1435.337524,326.414581 1432.133911,334.890106 1428.883667,343.489380 
	C1436.333984,343.489380 1443.011597,343.489380 1450.078613,343.489380 
	C1448.894653,340.286285 1447.873169,337.522797 1446.538452,334.056580 
z"/>
<path fill="#1E2551" opacity="1.000000" stroke="none" 
	d="
M724.991943,308.102722 
	C729.633362,308.102722 733.777954,308.102722 738.269775,308.102722 
	C738.269775,310.647552 738.269775,312.879120 738.269775,315.698822 
	C730.947815,315.698822 723.730774,315.698822 716.211792,315.698822 
	C716.211792,321.009094 716.211792,325.740051 716.211792,330.981079 
	C722.841431,330.981079 729.416016,330.981079 736.300537,330.981079 
	C736.300537,333.570099 736.300537,335.658661 736.300537,338.334351 
	C729.759277,338.334351 723.191467,338.334351 716.263916,338.334351 
	C716.263916,344.458618 716.263916,350.007965 716.263916,356.069183 
	C723.595581,356.069183 730.838928,356.069183 738.342651,356.069183 
	C738.342651,358.661682 738.342651,360.754089 738.342651,363.238098 
	C728.525208,363.238098 718.809143,363.238098 708.742004,363.238098 
	C708.742004,344.944763 708.742004,326.748474 708.742004,308.102692 
	C714.231506,308.102692 719.363342,308.102692 724.991943,308.102722 
z"/>
<path fill="#1B2251" opacity="1.000000" stroke="none" 
	d="
M1081.394775,345.998199 
	C1081.394775,335.854736 1081.394775,326.210785 1081.394775,316.104675 
	C1075.964478,316.104675 1070.872070,316.104675 1065.372559,316.104675 
	C1065.372559,313.303162 1065.372559,310.955750 1065.372559,308.355377 
	C1078.915405,308.355377 1092.350342,308.355377 1106.294434,308.355377 
	C1106.405518,310.669800 1106.513184,312.913849 1106.646362,315.689972 
	C1101.053223,315.689972 1095.814209,315.689972 1090.018066,315.689972 
	C1090.018066,331.747833 1090.018066,347.308563 1090.018066,363.232117 
	C1087.039307,363.232117 1084.618408,363.232117 1081.394653,363.232117 
	C1081.394653,357.685120 1081.394653,352.091400 1081.394775,345.998199 
z"/>
<path fill="#111B52" opacity="1.000000" stroke="none" 
	d="
M633.810791,352.969360 
	C633.810791,340.526550 633.810791,328.579315 633.810791,316.040680 
	C628.304871,316.040680 623.091187,316.040680 617.516663,316.040680 
	C617.516663,313.240082 617.516663,311.026978 617.516663,308.474976 
	C631.125916,308.474976 644.657776,308.474976 658.524536,308.474976 
	C658.524536,310.832977 658.524536,313.045929 658.524536,315.734070 
	C653.094116,315.734070 647.846008,315.734070 642.185181,315.734070 
	C642.185181,331.757721 642.185181,347.320770 642.185181,363.220581 
	C639.358215,363.220581 636.949219,363.220581 633.810852,363.220581 
	C633.810852,359.964844 633.810852,356.714874 633.810791,352.969360 
z"/>
<path fill="#121C51" opacity="1.000000" stroke="none" 
	d="
M1515.793701,355.809692 
	C1515.793823,339.721222 1515.793823,324.108734 1515.793823,308.379272 
	C1518.334351,308.379272 1520.428467,308.379272 1522.880615,308.379272 
	C1522.880615,324.196350 1522.880615,339.780670 1522.880615,356.026550 
	C1530.570190,356.026550 1537.936523,356.026550 1545.567749,356.026550 
	C1545.567749,358.781647 1545.567749,360.876831 1545.567749,363.271423 
	C1535.822510,363.271423 1526.087524,363.271423 1515.793579,363.271423 
	C1515.793579,360.855682 1515.793579,358.570648 1515.793701,355.809692 
z"/>
<path fill="#0E1952" opacity="1.000000" stroke="none" 
	d="
M1157.228516,363.675964 
	C1156.208252,362.848572 1155.126953,362.037842 1155.122437,361.221039 
	C1155.025146,343.769592 1155.048462,326.317444 1155.048462,308.544983 
	C1157.799561,308.544983 1160.214111,308.544983 1162.999878,308.544983 
	C1162.999878,326.682251 1162.999878,344.887360 1162.999878,363.689758 
	C1161.201172,363.689758 1159.435059,363.689758 1157.228516,363.675964 
z"/>
<path fill="#0B1752" opacity="1.000000" stroke="none" 
	d="
M469.519684,308.720276 
	C469.841125,327.007935 469.841125,344.971832 469.841125,363.309570 
	C467.751617,363.309570 465.690063,363.309570 463.257935,363.309570 
	C463.257935,345.159698 463.257935,326.970856 463.257935,308.396545 
	C465.313538,308.396545 467.255890,308.396545 469.519684,308.720276 
z"/>
<path fill="#FAFAFB" opacity="1.000000" stroke="none" 
	d="
M88.422058,281.748596 
	C85.826889,261.242584 83.279343,241.183701 80.540535,219.618820 
	C96.476089,230.892624 111.316887,241.391922 126.177422,251.905182 
	C121.775314,255.612640 117.077026,258.922424 113.201706,263.011993 
	C109.178101,267.258057 105.636932,272.440704 107.814796,278.707336 
	C110.221519,285.632507 115.658607,289.920685 122.856171,291.037231 
	C128.231247,291.871063 133.776291,291.736389 139.248108,291.791992 
	C149.381317,291.894928 159.516327,291.821472 170.063934,291.821472 
	C170.063934,258.410339 170.063934,225.362000 170.063934,191.612610 
	C139.993881,191.612610 109.792427,191.612610 79.359398,191.612610 
	C78.676559,181.539795 78.039894,172.148163 77.382790,162.455048 
	C158.348450,162.455048 238.880371,162.455048 319.782288,162.455048 
	C319.100037,172.168747 318.440247,181.563126 317.750946,191.377625 
	C287.509430,191.377625 257.412994,191.377625 226.919006,191.377625 
	C226.919006,225.000946 226.919006,258.194702 226.919006,291.469818 
	C242.274551,291.469818 257.568054,291.661652 272.852661,291.376068 
	C279.025879,291.260712 283.718201,287.514526 287.414551,282.809326 
	C291.553619,277.540558 290.296265,269.801361 284.376862,263.447174 
	C282.345642,261.266785 280.063873,259.301544 277.770905,257.388611 
	C275.646271,255.616089 273.353851,254.044647 270.736237,252.086044 
	C286.077667,241.206619 301.112732,230.544449 316.819183,219.406158 
	C313.140594,248.706650 309.651733,277.034058 305.884277,305.324341 
	C305.626190,307.262421 303.651794,309.872253 301.854279,310.570618 
	C272.477722,321.983765 243.000366,333.137482 213.548309,344.356415 
	C212.000473,344.946014 210.353027,345.395905 208.959869,346.250000 
	C200.225189,351.604919 192.195648,348.626617 183.614319,345.169617 
	C154.154526,333.301788 124.459770,322.017914 94.926613,310.329437 
	C93.424324,309.734894 91.845520,307.563477 91.578506,305.919006 
	C90.300896,298.050446 89.463531,290.110352 88.422058,281.748596 
z"/>
<path fill="#FAFAFB" opacity="1.000000" stroke="none" 
	d="
M249.534088,127.560806 
	C255.339432,130.130890 260.746368,132.688400 266.322845,134.797775 
	C267.819733,135.364014 270.217285,135.158524 271.546936,134.297104 
	C280.339447,128.600906 288.953552,122.629242 297.980103,116.506943 
	C292.006195,109.686745 286.157074,103.009041 279.999420,95.979088 
	C296.683258,83.641502 312.882843,71.662018 330.215302,58.844780 
	C327.363861,88.928024 324.634705,117.721329 321.897491,146.599609 
	C239.585144,146.599609 157.659653,146.599609 75.244713,146.599609 
	C72.496582,117.667450 69.766731,88.927711 66.887726,58.617664 
	C84.076813,71.353287 100.309700,83.380440 117.191750,95.888573 
	C111.160286,102.781891 105.320290,109.456383 99.198296,116.453163 
	C108.448792,122.795273 117.372864,128.992554 126.421577,135.002182 
	C127.387032,135.643387 129.283737,135.656815 130.405380,135.170395 
	C143.751846,129.382385 157.033188,123.444221 170.997940,117.249863 
	C165.640961,109.928207 160.469833,102.860588 155.174011,95.622513 
	C156.819611,93.701660 158.287643,91.710709 160.029861,89.998802 
	C172.718048,77.531357 185.461380,65.120041 198.501877,52.383743 
	C213.284042,66.797546 227.686218,80.840828 242.334930,95.124489 
	C236.873459,102.569305 231.659058,109.677330 226.091324,117.266991 
	C234.133667,120.786682 241.666489,124.083382 249.534088,127.560806 
z"/>
<path fill="#3271B6" opacity="1.000000" stroke="none" 
	d="
M1415.770630,170.240875 
	C1419.179321,167.714493 1422.356567,165.410980 1425.733765,163.452408 
	C1430.456909,160.713379 1435.329224,158.231583 1440.887695,155.235428 
	C1440.887695,164.740997 1441.812988,173.894012 1440.525513,182.724365 
	C1439.803345,187.677338 1434.003052,189.722519 1428.694336,190.189835 
	C1423.549683,190.642700 1418.961792,189.155930 1417.311279,184.167892 
	C1415.908813,179.929596 1416.127197,175.154968 1415.770630,170.240875 
z"/>
<path fill="#3272B6" opacity="1.000000" stroke="none" 
	d="
M506.863525,83.074875 
	C523.583069,99.168228 518.598267,123.172409 497.100647,130.653000 
	C491.276093,132.679779 485.024689,133.479843 478.446564,134.960602 
	C478.446564,114.278236 478.446564,94.899857 478.446564,75.048637 
	C488.835632,74.510262 498.158630,76.946457 506.863525,83.074875 
z"/>
<path fill="#3171B5" opacity="1.000000" stroke="none" 
	d="
M765.421265,158.422180 
	C765.432129,165.184265 765.437195,171.491516 765.433838,177.798782 
	C765.429871,185.315323 760.869507,189.709503 752.587036,190.186844 
	C745.619141,190.588440 740.761108,186.366974 739.870605,179.136887 
	C738.782715,170.303329 739.544006,168.932236 747.564148,164.743713 
	C752.407959,162.214005 757.178894,159.544464 762.033752,157.036682 
	C763.274902,156.395569 765.137878,154.619629 765.421265,158.422180 
z"/>
<path fill="#3674B7" opacity="1.000000" stroke="none" 
	d="
M1003.833740,165.069260 
	C1003.833740,169.554672 1003.835205,173.550674 1003.833618,177.546661 
	C1003.830566,184.978943 999.135986,189.669205 991.101257,190.269730 
	C984.254639,190.781433 979.191711,186.504013 978.121155,179.303604 
	C976.922791,171.243393 977.808960,169.261703 984.841187,165.330719 
	C990.756042,162.024338 996.763611,158.883606 1003.833801,155.075027 
	C1003.833801,158.845093 1003.833801,161.712463 1003.833740,165.069260 
z"/>
<path fill="#3170B5" opacity="1.000000" stroke="none" 
	d="
M1263.275024,123.916077 
	C1286.262207,123.214363 1299.577271,142.725403 1296.598145,166.942886 
	C1295.237793,178.002243 1290.658936,187.261810 1279.833740,192.312256 
	C1265.472778,199.012329 1250.911987,192.401245 1248.974365,176.850632 
	C1247.384277,164.089630 1248.086914,151.024063 1248.059937,138.092896 
	C1248.036621,126.858749 1248.212646,126.851562 1259.392700,124.459663 
	C1260.521362,124.218193 1261.681152,124.122612 1263.275024,123.916077 
z"/>
<path fill="#3171B5" opacity="1.000000" stroke="none" 
	d="
M1201.332764,135.766663 
	C1211.875854,150.017456 1211.435181,173.094864 1200.581543,185.861267 
	C1190.467529,197.757965 1170.371704,197.872986 1163.819092,185.215515 
	C1160.609741,179.016342 1159.708130,171.188339 1159.393555,164.025848 
	C1158.912720,153.081314 1159.732788,142.068878 1160.307251,131.101334 
	C1160.385864,129.600769 1161.911621,127.451134 1163.303589,126.856087 
	C1177.583862,120.751244 1190.971558,123.898323 1201.332764,135.766663 
z"/>
<path fill="#3170B5" opacity="1.000000" stroke="none" 
	d="
M629.149536,165.026154 
	C628.230042,174.108704 625.391663,182.021469 619.597473,188.558578 
	C609.293396,200.183945 591.866028,199.440277 583.021790,186.568466 
	C571.390137,169.640015 570.685547,151.465988 579.416260,133.121231 
	C584.097534,123.285133 592.193054,118.047256 603.491150,118.806526 
	C615.567383,119.618088 622.208130,127.316872 626.284912,137.607819 
	C629.701965,146.233429 630.691101,155.324631 629.149536,165.026154 
z"/>
<path fill="#3272B6" opacity="1.000000" stroke="none" 
	d="
M1350.968750,136.970795 
	C1346.381714,136.979980 1342.285645,136.979980 1338.147461,136.979980 
	C1339.503906,126.279198 1347.527100,117.740616 1356.031616,117.610580 
	C1363.349976,117.498688 1370.592529,125.531593 1372.087158,136.028671 
	C1365.174316,136.341324 1358.317017,136.651474 1350.968750,136.970795 
z"/>
<path fill="#F2BD44" opacity="1.000000" stroke="none" 
	d="
M1253.466431,318.526245 
	C1260.857300,325.269745 1261.466431,340.477051 1256.568359,349.065613 
	C1253.059448,355.218597 1247.288574,357.886780 1240.136841,357.041809 
	C1233.431396,356.249603 1228.902100,352.714600 1226.647583,346.253265 
	C1223.661621,337.695862 1223.560059,329.321106 1228.553833,321.489105 
	C1234.388550,312.338226 1244.908325,311.067078 1253.466431,318.526245 
z"/>
<path fill="#F1BD44" opacity="1.000000" stroke="none" 
	d="
M810.963684,331.442871 
	C807.299500,331.857544 804.003540,332.066650 800.282471,332.302734 
	C800.282471,326.782135 800.282471,321.606232 800.282471,315.935303 
	C803.088989,315.935303 805.871643,315.762207 808.624268,315.975800 
	C812.770813,316.297546 816.095947,318.211823 816.868286,322.537415 
	C817.636597,326.840576 815.612488,329.884796 810.963684,331.442871 
z"/>
<path fill="#EDBA44" opacity="1.000000" stroke="none" 
	d="
M993.056519,334.151825 
	C995.159790,328.513977 997.180298,323.258545 999.633118,316.878632 
	C1003.543396,326.119568 1007.054626,334.417389 1010.836975,343.355957 
	C1003.544067,343.355957 996.910706,343.355957 989.538879,343.355957 
	C990.747803,340.251068 991.860718,337.392639 993.056519,334.151825 
z"/>
<path fill="#E6B545" opacity="1.000000" stroke="none" 
	d="
M1446.695068,334.407959 
	C1447.873169,337.522797 1448.894653,340.286285 1450.078613,343.489380 
	C1443.011597,343.489380 1436.333984,343.489380 1428.883667,343.489380 
	C1432.133911,334.890106 1435.337524,326.414581 1438.961914,316.825531 
	C1441.807983,323.298126 1444.173218,328.677368 1446.695068,334.407959 
z"/>
</svg>