<?xml version="1.0" standalone="no"?>
<!DOCTYPE svg PUBLIC "-//W3C//DTD SVG 20010904//EN"
 "http://www.w3.org/TR/2001/REC-SVG-20010904/DTD/svg10.dtd">
<svg version="1.0" xmlns="http://www.w3.org/2000/svg"
 width="768.000000pt" height="768.000000pt" viewBox="0 0 768.000000 768.000000"
 preserveAspectRatio="xMidYMid meet">

<g transform="translate(0.000000,768.000000) scale(0.100000,-0.100000)"
fill="#0D214D" stroke="none">
<path d="M0 3840 l0 -3840 3840 0 3840 0 0 3840 0 3840 -3840 0 -3840 0 0
-3840z m6366 2045 c129 -76 132 -266 7 -346 l-47 -29 -2483 0 c-2418 0 -2485
1 -2521 19 -20 10 -45 27 -54 38 -28 31 -58 105 -58 146 0 41 36 121 67 149
55 50 -97 47 2567 48 l2479 0 43 -25z m-55 -1845 c80 -22 140 -89 154 -171 14
-80 -36 -169 -119 -211 l-41 -21 -2470 2 c-2449 1 -2470 2 -2510 21 -153 76
-148 293 8 366 l52 24 2445 0 c1607 0 2457 -4 2481 -10z m11 -1870 c21 -6 52
-23 69 -37 37 -32 79 -115 79 -158 0 -38 -40 -123 -71 -152 -62 -57 120 -53
-2564 -53 -2446 0 -2466 0 -2505 20 -160 82 -157 296 5 371 39 18 127 19 2495
19 1659 0 2467 -3 2492 -10z"/>
</g>
</svg>
