<svg width="185" height="61" viewBox="0 0 185 61" fill="none" xmlns="http://www.w3.org/2000/svg">
<mask id="mask0_127_4605" style="mask-type:luminance" maskUnits="userSpaceOnUse" x="15" y="2" width="157" height="56">
<path d="M171.119 2.95215H15.0391V57.0597H171.119V2.95215Z" fill="white"/>
</mask>
<g mask="url(#mask0_127_4605)">
<path d="M35.4596 55.2753C31.3834 50.8127 28.3368 54.4343 22.2363 54.4732C22.2363 54.4732 26.4827 58.9539 35.4596 55.2753Z" fill="white"/>
</g>
<path d="M31.0569 51.3044C27.6927 46.2847 24.1393 49.4122 18.1016 48.5424C18.1016 48.5424 21.6308 53.6052 31.0569 51.3044Z" fill="white"/>
<path d="M28.0672 47.4957C25.7164 42.3164 21.9341 44.6748 16.4609 42.9385C16.4609 42.9385 18.9587 48.1832 28.0672 47.4957Z" fill="white"/>
<path d="M24.65 43.0555C23.5231 37.9259 19.653 39.33 15.043 36.7109C15.043 36.7109 16.2898 41.9283 24.65 43.0555Z" fill="white"/>
<path d="M23.1915 38.113C22.8162 33.3684 19.1674 34.1501 15.3535 31.2285C15.3535 31.2285 15.8255 36.0668 23.1915 38.113Z" fill="white"/>
<path d="M22.6233 32.9195C22.48 28.1624 18.7978 28.765 15.1309 25.6611C15.1309 25.6611 15.3662 30.5166 22.6233 32.9195Z" fill="white"/>
<path d="M22.2661 28.4724C22.6948 23.975 19.1554 24.1082 16.0697 20.752C16.0697 20.752 15.7168 25.3518 22.2661 28.4724Z" fill="white"/>
<path d="M22.5456 23.9233C23.6003 20.1542 20.5621 19.7261 18.4457 16.3926C18.4457 16.3926 17.4393 20.2609 22.5456 23.9233Z" fill="white"/>
<path d="M23.8896 19.7088C24.9996 16.116 22.0921 15.6271 20.1454 12.3711C20.1454 12.3711 19.0795 16.0608 23.8896 19.7088Z" fill="white"/>
<path d="M24.4227 16.2457C25.7927 13.3863 23.4289 12.6199 22.2081 9.66406C22.2081 9.66406 20.8627 12.6097 24.4227 16.2457Z" fill="white"/>
<path d="M25.7082 13.6097C27.4047 11.3005 25.4347 10.2243 24.8469 7.39551C24.8469 7.39551 23.1583 9.78498 25.7082 13.6097Z" fill="white"/>
<path d="M27.0783 10.6862C29.0338 9.09224 27.5927 7.74094 27.7164 5.20117C27.7164 5.20117 25.7492 6.86559 27.0783 10.6862Z" fill="white"/>
<path d="M29.3988 8.62777C31.5585 7.32333 30.3214 5.78369 30.8 3.28613C30.8 3.28613 28.6194 4.65877 29.3988 8.62777Z" fill="white"/>
<path d="M44.5904 19.5683H42.0508C41.7578 19.5683 41.6602 19.4709 41.6602 19.1786V6.3174C41.6602 5.92773 41.8555 5.92773 42.0508 5.92773H44.5904C46.7394 5.92773 47.5207 7.33052 47.5207 9.59104C47.5207 10.799 47.384 11.4814 46.9152 12.1633C46.8371 12.2802 46.7785 12.3581 46.7785 12.4166C46.7785 12.475 46.8176 12.5529 46.9152 12.7088C47.3449 13.4691 47.5207 14.3459 47.5207 15.6712C47.5207 18.5941 46.5436 19.5683 44.5904 19.5683ZM45.567 9.33776C45.5475 8.46055 45.4694 7.66174 44.5904 7.66174H44.0045C43.6138 7.66174 43.6138 7.66174 43.6138 8.05187V11.1696C43.6138 11.5598 43.6138 11.5598 44.0045 11.5598H44.5904C45.4108 11.5598 45.5475 10.8189 45.567 10.0201V9.33776ZM44.5904 17.8343C45.567 17.8343 45.567 16.8402 45.567 15.8465V15.2815C45.567 14.2874 45.567 13.2938 44.5904 13.2938H44.0045C43.6138 13.2938 43.6138 13.2938 43.6138 13.664V17.4442C43.6138 17.8343 43.6138 17.8343 44.0045 17.8343H44.5904Z" fill="white"/>
<path d="M49.1406 19.1786V6.3174C49.1406 6.02515 49.2383 5.92773 49.5313 5.92773H53.653C53.946 5.92773 54.0436 6.02515 54.0436 6.3174V7.36995C54.0436 7.6622 53.946 7.76008 53.653 7.76008H51.4845C51.0938 7.76008 51.0938 7.76008 51.0938 8.14975V11.0727C51.0938 11.4628 51.0938 11.4628 51.4845 11.4628H53.653C53.946 11.4628 54.0436 11.5602 54.0436 11.8525V12.905C54.0436 13.1973 53.946 13.2947 53.653 13.2947H51.4845C51.0938 13.2947 51.0938 13.2947 51.0938 13.6844V17.3477C51.0938 17.7378 51.0938 17.7378 51.4845 17.7378H53.653C53.946 17.7378 54.0436 17.8352 54.0436 18.1275V19.18C54.0436 19.4723 53.946 19.5697 53.653 19.5697H49.5313C49.3359 19.5683 49.1406 19.5683 49.1406 19.1786Z" fill="white"/>
<path d="M55.7973 8.92846C55.7973 7.17498 56.7744 5.86914 58.7276 5.86914C60.818 5.86914 61.6384 7.27193 61.6384 9.37704C61.6384 9.66929 61.5407 9.82515 61.2477 9.82515H60.0949C59.8019 9.82515 59.7042 9.72774 59.7042 9.43549C59.7042 8.48035 59.6066 7.66206 58.7272 7.66206C57.7505 7.66206 57.7505 8.6172 57.7505 9.00686C57.7505 9.98102 58.4537 11.0526 59.4694 12.1636C60.6027 13.391 61.6379 14.8527 61.6379 16.5677C61.6379 18.3212 60.6608 19.6271 58.7076 19.6271C56.6172 19.6271 55.7969 18.2243 55.7969 16.1192C55.7969 15.8269 55.8945 15.671 56.1875 15.671H57.3404C57.6334 15.671 57.731 15.7685 57.731 16.0607C57.731 17.0158 57.8287 17.8341 58.7076 17.8341C59.6847 17.8341 59.6847 16.879 59.6847 16.4898C59.6847 15.5152 58.9815 14.4046 57.9654 13.2936C56.833 12.0657 55.7973 10.6434 55.7973 8.92846Z" fill="white"/>
<path d="M62.9277 5.92773H68.007C68.3 5.92773 68.3977 6.02515 68.3977 6.3174V7.36995C68.3977 7.6622 68.3 7.76008 68.007 7.76008H66.8346C66.444 7.76008 66.444 7.76008 66.444 8.14975V19.1791C66.444 19.5687 66.2487 19.5687 66.0533 19.5687H64.881C64.6856 19.5687 64.4903 19.5687 64.4903 19.1791V8.14928C64.4903 7.75962 64.4903 7.75962 64.1192 7.75962H62.9277C62.5371 7.75962 62.5371 7.56432 62.5371 7.36949V6.31693C62.5371 6.12257 62.5371 5.92773 62.9277 5.92773Z" fill="white"/>
<path d="M77.2247 15.8464C77.2247 16.821 77.2247 17.8341 78.2018 17.8341C79.1784 17.8341 79.1784 16.84 79.1784 15.8464V15.2814C79.1784 14.9887 79.276 14.8912 79.569 14.8912H80.7414C81.0344 14.8912 81.132 14.9887 81.132 15.2814V15.7295C81.132 18.6524 80.1554 19.6266 78.2018 19.6266C76.2481 19.6266 75.2715 18.6714 75.2715 15.7295V9.76624C75.2715 6.82382 76.2481 5.86914 78.2018 5.86914C80.1554 5.86914 81.132 6.84376 81.132 9.76624V10.2144C81.132 10.5071 81.0344 10.6045 80.7414 10.6045H79.569C79.276 10.6045 79.1784 10.5071 79.1784 10.2144V9.64934C79.1784 8.65524 79.1784 7.66159 78.2018 7.66159C77.2247 7.66159 77.2247 8.67518 77.2247 9.64934V15.8464Z" fill="white"/>
<path d="M87.5373 13.9757L88.553 19.1591C88.6116 19.4709 88.4749 19.5683 88.3186 19.5683H87.0881C86.8342 19.5683 86.717 19.5683 86.6584 19.276L85.7208 14.4822H85.0958C84.7052 14.4822 84.7052 14.4822 84.7052 14.8719V19.1786C84.7052 19.5683 84.5098 19.5683 84.3145 19.5683H83.1426C82.9473 19.5683 82.752 19.5683 82.752 19.1786V6.3174C82.752 6.02515 82.8496 5.92773 83.1426 5.92773H85.6822C87.6359 5.92773 88.6125 6.90236 88.6125 9.82484V10.5851C88.6116 12.3581 88.2409 13.4107 87.5373 13.9757ZM84.7047 12.3581C84.7047 12.7482 84.7047 12.7482 85.0953 12.7482H85.6813C86.6579 12.7482 86.6579 11.7541 86.6579 10.7605V9.64949C86.6579 8.65538 86.6579 7.66174 85.6813 7.66174H85.0953C84.7047 7.66174 84.7047 7.66174 84.7047 8.05187V12.3581Z" fill="white"/>
<path d="M94.53 5.92773H95.7023C95.9953 5.92773 96.093 6.02515 96.093 6.3174V15.6712C96.093 18.5941 95.1159 19.5683 93.1627 19.5683C91.209 19.5683 90.2324 18.6131 90.2324 15.6712V6.3174C90.2324 6.02515 90.3301 5.92773 90.6231 5.92773H91.795C92.088 5.92773 92.1856 6.02515 92.1856 6.3174V15.8465C92.1856 16.8212 92.1856 17.8343 93.1627 17.8343C94.1393 17.8343 94.1393 16.8402 94.1393 15.8465V6.3174C94.1388 6.02515 94.2365 5.92773 94.53 5.92773Z" fill="white"/>
<path d="M97.7129 19.1786V6.3174C97.7129 6.02515 97.8106 5.92773 98.1035 5.92773H99.2759C99.5689 5.92773 99.6666 6.02515 99.6666 6.3174V19.1791C99.6666 19.5687 99.4712 19.5687 99.2759 19.5687H98.1035C97.9082 19.5683 97.7129 19.5683 97.7129 19.1786Z" fill="white"/>
<path d="M100.993 8.92846C100.993 7.17498 101.97 5.86914 103.924 5.86914C106.014 5.86914 106.835 7.27193 106.835 9.37704C106.835 9.66929 106.737 9.82515 106.444 9.82515H105.291C104.998 9.82515 104.9 9.72774 104.9 9.43549C104.9 8.48035 104.803 7.66206 103.923 7.66206C102.946 7.66206 102.946 8.6172 102.946 9.00686C102.946 9.98102 103.65 11.0526 104.665 12.1636C105.798 13.391 106.834 14.8527 106.834 16.5677C106.834 18.3212 105.857 19.6271 103.903 19.6271C101.813 19.6271 100.992 18.2243 100.992 16.1192C100.992 15.8269 101.09 15.671 101.383 15.671H102.536C102.829 15.671 102.927 15.7685 102.927 16.0607C102.927 17.0158 103.024 17.8341 103.904 17.8341C104.881 17.8341 104.881 16.879 104.881 16.4898C104.881 15.5152 104.177 14.4046 103.162 13.2936C102.029 12.0657 100.993 10.6434 100.993 8.92846Z" fill="white"/>
<path d="M108.162 19.1786V6.3174C108.162 6.02515 108.26 5.92773 108.553 5.92773H112.675C112.968 5.92773 113.066 6.02515 113.066 6.3174V7.36995C113.066 7.6622 112.968 7.76008 112.675 7.76008H110.506C110.116 7.76008 110.116 7.76008 110.116 8.14975V11.0727C110.116 11.4628 110.116 11.4628 110.506 11.4628H112.675C112.968 11.4628 113.066 11.5602 113.066 11.8525V12.905C113.066 13.1973 112.968 13.2947 112.675 13.2947H110.506C110.116 13.2947 110.116 13.2947 110.116 13.6844V17.3477C110.116 17.7378 110.116 17.7378 110.506 17.7378H112.675C112.968 17.7378 113.066 17.8352 113.066 18.1275V19.18C113.066 19.4723 112.968 19.5697 112.675 19.5697H108.553C108.357 19.5683 108.162 19.5683 108.162 19.1786Z" fill="white"/>
<path d="M119.041 19.1786V6.3174C119.041 6.02515 119.139 5.92773 119.432 5.92773H120.604C120.897 5.92773 120.995 6.02515 120.995 6.3174V17.2104C120.995 17.6195 120.995 17.6195 121.405 17.6195H123.554C123.847 17.6195 123.945 17.7174 123.945 18.0096V19.1791C123.945 19.4713 123.847 19.5687 123.554 19.5687H119.432C119.139 19.5683 119.041 19.4709 119.041 19.1786Z" fill="white"/>
<path d="M125.271 19.1786V6.3174C125.271 6.02515 125.369 5.92773 125.663 5.92773H126.835C127.128 5.92773 127.226 6.02515 127.226 6.3174V19.1791C127.226 19.5687 127.03 19.5687 126.835 19.5687H125.663C125.467 19.5683 125.271 19.5683 125.271 19.1786Z" fill="white"/>
<path d="M133.339 19.3345L130.956 12.6504C130.917 12.514 130.8 12.5529 130.8 12.6504V19.1786C130.8 19.4709 130.702 19.5683 130.409 19.5683H129.237C128.943 19.5683 128.846 19.4709 128.846 19.1786V6.3174C128.846 6.02515 128.943 5.92773 129.237 5.92773H130.311C130.526 5.92773 130.624 5.9667 130.702 6.18102L133.086 12.9431C133.125 13.06 133.242 13.0405 133.242 12.9431V6.3174C133.242 6.02515 133.339 5.92773 133.632 5.92773H134.805C135.098 5.92773 135.195 6.02515 135.195 6.3174V19.1791C135.195 19.4713 135.098 19.5687 134.805 19.5687H133.73C133.554 19.5683 133.418 19.5293 133.339 19.3345Z" fill="white"/>
<path d="M136.814 19.1786V6.3174C136.814 6.02515 136.912 5.92773 137.206 5.92773H141.327C141.62 5.92773 141.718 6.02515 141.718 6.3174V7.36995C141.718 7.6622 141.62 7.76008 141.327 7.76008H139.159C138.768 7.76008 138.768 7.76008 138.768 8.14975V11.0727C138.768 11.4628 138.768 11.4628 139.159 11.4628H141.327C141.62 11.4628 141.718 11.5602 141.718 11.8525V12.905C141.718 13.1973 141.62 13.2947 141.327 13.2947H139.159C138.768 13.2947 138.768 13.2947 138.768 13.6844V17.3477C138.768 17.7378 138.768 17.7378 139.159 17.7378H141.327C141.62 17.7378 141.718 17.8352 141.718 18.1275V19.18C141.718 19.4723 141.62 19.5697 141.327 19.5697H137.206C137.01 19.5683 136.814 19.5683 136.814 19.1786Z" fill="white"/>
<path d="M39.377 37.0394V24.1777C39.377 23.8855 39.4746 23.7881 39.7676 23.7881H40.9395C41.2325 23.7881 41.3302 23.8855 41.3302 24.1777V37.0394C41.3302 37.4291 41.1348 37.4291 40.9395 37.4291H39.7676C39.5723 37.4291 39.377 37.4291 39.377 37.0394Z" fill="white"/>
<path d="M47.444 37.1953L45.0606 30.5107C45.0216 30.3743 44.9044 30.4133 44.9044 30.5107V37.0394C44.9044 37.3317 44.8067 37.4291 44.5137 37.4291H43.3418C43.0488 37.4291 42.9512 37.3317 42.9512 37.0394V24.1777C42.9512 23.8855 43.0488 23.7881 43.3418 23.7881H44.4161C44.6309 23.7881 44.7286 23.8271 44.8067 24.0414L47.1901 30.8034C47.2292 30.9203 47.3464 30.9008 47.3464 30.8034V24.1777C47.3464 23.8855 47.444 23.7881 47.737 23.7881H48.9089C49.2019 23.7881 49.2996 23.8855 49.2996 24.1777V37.0394C49.2996 37.3317 49.2019 37.4291 48.9089 37.4291H47.8347C47.6589 37.4291 47.5221 37.3901 47.444 37.1953Z" fill="white"/>
<path d="M55.3731 23.7881H60.4523C60.7453 23.7881 60.843 23.8855 60.843 24.1777V25.2303C60.843 25.5226 60.7453 25.6204 60.4523 25.6204H59.2799C58.8893 25.6204 58.8893 25.6204 58.8893 26.0101V37.0399C58.8893 37.4296 58.694 37.4296 58.4987 37.4296H57.3263C57.131 37.4296 56.9356 37.4296 56.9356 37.0399V26.0096C56.9356 25.62 56.9356 25.62 56.5645 25.62H55.3731C54.9824 25.62 54.9824 25.4247 54.9824 25.2298V24.1773C54.9824 23.9829 54.9824 23.7881 55.3731 23.7881Z" fill="white"/>
<path d="M66.0768 37.0394V31.5438C66.0768 31.1541 66.0768 31.1541 65.6862 31.1541H64.5138C64.1231 31.1541 64.1231 31.1541 64.1231 31.5438V37.0394C64.1231 37.4291 63.9278 37.4291 63.7325 37.4291H62.5606C62.3652 37.4291 62.1699 37.4291 62.1699 37.0394V24.1777C62.1699 23.8855 62.2676 23.7881 62.5606 23.7881H63.7325C64.0255 23.7881 64.1231 23.8855 64.1231 24.1777V28.9326C64.1231 29.3227 64.1231 29.3227 64.5138 29.3227H65.6862C66.0768 29.3227 66.0768 29.3227 66.0768 28.9326V24.1777C66.0768 23.8855 66.1745 23.7881 66.4674 23.7881H67.6398C67.9328 23.7881 68.0305 23.8855 68.0305 24.1777V37.0394C68.0305 37.4291 67.8352 37.4291 67.6398 37.4291H66.4674C66.2726 37.4291 66.0768 37.4291 66.0768 37.0394Z" fill="white"/>
<path d="M69.6504 37.0394V24.1777C69.6504 23.8855 69.7481 23.7881 70.041 23.7881H74.1628C74.4557 23.7881 74.5534 23.8855 74.5534 24.1777V25.2303C74.5534 25.5226 74.4557 25.6204 74.1628 25.6204H71.9942C71.6036 25.6204 71.6036 25.6204 71.6036 26.0101V28.933C71.6036 29.3232 71.6036 29.3232 71.9942 29.3232H74.1628C74.4557 29.3232 74.5534 29.4206 74.5534 29.7128V30.7654C74.5534 31.0576 74.4557 31.155 74.1628 31.155H71.9942C71.6036 31.155 71.6036 31.1551 71.6036 31.5447V35.208C71.6036 35.5981 71.6036 35.5981 71.9942 35.5981H74.1628C74.4557 35.5981 74.5534 35.6956 74.5534 35.9878V37.0404C74.5534 37.3326 74.4557 37.43 74.1628 37.43H70.041C69.8457 37.4291 69.6504 37.4291 69.6504 37.0394Z" fill="white"/>
<path d="M82.4825 33.7067C82.4825 34.6814 82.4825 35.6945 83.4596 35.6945C84.4362 35.6945 84.4362 34.7004 84.4362 33.7067V33.1417C84.4362 32.849 84.5338 32.7516 84.8268 32.7516H85.9992C86.2922 32.7516 86.3898 32.849 86.3898 33.1417V33.5898C86.3898 36.5128 85.4132 37.4869 83.4596 37.4869C81.5059 37.4869 80.5293 36.5318 80.5293 33.5898V27.6266C80.5293 24.6842 81.5059 23.7295 83.4596 23.7295C85.4132 23.7295 86.3898 24.7041 86.3898 27.6266V28.0747C86.3898 28.3674 86.2922 28.4648 85.9992 28.4648H84.8268C84.5338 28.4648 84.4362 28.3674 84.4362 28.0747V27.5097C84.4362 26.5156 84.4362 25.5219 83.4596 25.5219C82.4825 25.5219 82.4825 26.5355 82.4825 27.5097V33.7067Z" fill="white"/>
<path d="M92.6792 37.4291C92.4253 37.4291 92.3081 37.4291 92.2495 37.1369L92.0737 36.0843C91.9956 35.6946 91.9956 35.6946 91.644 35.6946H89.9057C89.515 35.6946 89.5346 35.6946 89.4564 36.0843L89.2806 37.1369C89.2221 37.4291 89.1049 37.4291 88.8509 37.4291H87.6786C87.4832 37.4291 87.2879 37.4291 87.3465 37.0979L89.808 24.1388C89.8666 23.8465 89.9252 23.7881 90.2377 23.7881H91.2929C91.6054 23.7881 91.664 23.8465 91.7226 24.1388L94.1837 37.0979C94.2427 37.4291 94.0469 37.4291 93.8516 37.4291H92.6792ZM89.8861 33.4731C89.8275 33.8627 89.8275 33.8627 90.2182 33.8627H91.3125C91.7031 33.8627 91.7031 33.8627 91.6445 33.4731L90.8437 28.7377C90.8242 28.6403 90.707 28.6403 90.6874 28.7377L89.8861 33.4731Z" fill="white"/>
<path d="M100.316 31.8365L101.332 37.02C101.39 37.3317 101.254 37.4291 101.097 37.4291H99.8668C99.6129 37.4291 99.4957 37.4291 99.4371 37.1369L98.4991 32.3431H97.8741C97.483 32.3431 97.483 32.3431 97.483 32.7327V37.0394C97.483 37.4291 97.2876 37.4291 97.0923 37.4291H95.9199C95.7246 37.4291 95.5293 37.4291 95.5293 37.0394V24.1777C95.5293 23.8855 95.627 23.7881 95.9199 23.7881H98.4596C100.413 23.7881 101.39 24.7627 101.39 27.6852V28.4455C101.39 30.2185 101.019 31.271 100.316 31.8365ZM97.483 30.2185C97.483 30.6086 97.483 30.6086 97.8741 30.6086H98.46C99.4371 30.6086 99.4371 29.6145 99.4371 28.6208V27.5098C99.4371 26.5157 99.4371 25.5221 98.46 25.5221H97.8741C97.483 25.5221 97.483 25.5221 97.483 25.9122V30.2185Z" fill="white"/>
<path d="M103.01 37.0394V24.1777C103.01 23.8855 103.107 23.7881 103.401 23.7881H104.573C104.866 23.7881 104.964 23.8855 104.964 24.1777V37.0394C104.964 37.4291 104.769 37.4291 104.573 37.4291H103.401C103.205 37.4291 103.01 37.4291 103.01 37.0394Z" fill="white"/>
<path d="M109.515 37.4291H106.975C106.682 37.4291 106.584 37.3317 106.584 37.0394V24.1777C106.584 23.7881 106.779 23.7881 106.975 23.7881H109.515C111.663 23.7881 112.445 25.1909 112.445 27.4514C112.445 28.6593 112.308 29.3417 111.839 30.0236C111.761 30.1405 111.702 30.2185 111.702 30.2769C111.702 30.3354 111.741 30.4133 111.839 30.5692C112.269 31.3295 112.445 32.2067 112.445 33.5315C112.445 36.4545 111.468 37.4291 109.515 37.4291ZM110.491 27.1981C110.472 26.3209 110.394 25.5221 109.515 25.5221H108.928C108.538 25.5221 108.538 25.5221 108.538 25.9122V29.03C108.538 29.4201 108.538 29.4201 108.928 29.4201H109.515C110.335 29.4201 110.472 28.6793 110.491 27.8805V27.1981ZM109.515 35.6946C110.491 35.6946 110.491 34.7005 110.491 33.7069V33.1419C110.491 32.1478 110.491 31.1541 109.515 31.1541H108.928C108.538 31.1541 108.538 31.1541 108.538 31.5243V35.3045C108.538 35.6946 108.538 35.6946 108.928 35.6946H109.515Z" fill="white"/>
<path d="M116.995 37.4291H114.455C114.162 37.4291 114.064 37.3317 114.064 37.0394V24.1777C114.064 23.7881 114.26 23.7881 114.455 23.7881H116.995C119.144 23.7881 119.925 25.1909 119.925 27.4514C119.925 28.6593 119.788 29.3417 119.32 30.0236C119.241 30.1405 119.183 30.2185 119.183 30.2769C119.183 30.3354 119.222 30.4133 119.32 30.5692C119.749 31.3295 119.925 32.2067 119.925 33.5315C119.925 36.4545 118.948 37.4291 116.995 37.4291ZM117.972 27.1981C117.952 26.3209 117.874 25.5221 116.995 25.5221H116.409C116.018 25.5221 116.018 25.5221 116.018 25.9122V29.03C116.018 29.4201 116.018 29.4201 116.409 29.4201H116.995C117.816 29.4201 117.952 28.6793 117.972 27.8805V27.1981ZM116.995 35.6946C117.972 35.6946 117.972 34.7005 117.972 33.7069V33.1419C117.972 32.1478 117.972 31.1541 116.995 31.1541H116.409C116.018 31.1541 116.018 31.1541 116.018 31.5243V35.3045C116.018 35.6946 116.018 35.6946 116.409 35.6946H116.995Z" fill="white"/>
<path d="M121.545 37.0394V24.1777C121.545 23.8855 121.643 23.7881 121.936 23.7881H126.058C126.351 23.7881 126.448 23.8855 126.448 24.1777V25.2303C126.448 25.5226 126.351 25.6204 126.058 25.6204H123.889C123.499 25.6204 123.499 25.6204 123.499 26.0101V28.933C123.499 29.3232 123.499 29.3232 123.889 29.3232H126.058C126.351 29.3232 126.448 29.4206 126.448 29.7128V30.7654C126.448 31.0576 126.351 31.155 126.058 31.155H123.889C123.499 31.155 123.499 31.1551 123.499 31.5447V35.208C123.499 35.5981 123.499 35.5981 123.889 35.5981H126.058C126.351 35.5981 126.448 35.6956 126.448 35.9878V37.0404C126.448 37.3326 126.351 37.43 126.058 37.43H121.936C121.74 37.4291 121.545 37.4291 121.545 37.0394Z" fill="white"/>
<path d="M133.129 37.4291C132.875 37.4291 132.758 37.4291 132.7 37.1369L132.524 36.0843C132.446 35.6946 132.446 35.6946 132.094 35.6946H130.355C129.965 35.6946 129.984 35.6946 129.906 36.0843L129.73 37.1369C129.672 37.4291 129.554 37.4291 129.3 37.4291H128.128C127.932 37.4291 127.737 37.4291 127.796 37.0979L130.257 24.1388C130.316 23.8465 130.374 23.7881 130.687 23.7881H131.742C132.055 23.7881 132.113 23.8465 132.172 24.1388L134.633 37.0979C134.692 37.4291 134.497 37.4291 134.301 37.4291H133.129ZM130.336 33.4731C130.277 33.8627 130.277 33.8627 130.668 33.8627H131.762C132.153 33.8627 132.153 33.8627 132.094 33.4731L131.293 28.7377C131.274 28.6403 131.157 28.6403 131.137 28.7377L130.336 33.4731Z" fill="white"/>
<path d="M140.472 37.1953L138.089 30.5107C138.05 30.3743 137.933 30.4133 137.933 30.5107V37.0394C137.933 37.3317 137.835 37.4291 137.542 37.4291H136.37C136.076 37.4291 135.979 37.3317 135.979 37.0394V24.1777C135.979 23.8855 136.076 23.7881 136.37 23.7881H137.444C137.659 23.7881 137.757 23.8271 137.835 24.0414L140.218 30.8034C140.257 30.9203 140.375 30.9008 140.375 30.8034V24.1777C140.375 23.8855 140.472 23.7881 140.765 23.7881H141.938C142.231 23.7881 142.328 23.8855 142.328 24.1777V37.0394C142.328 37.3317 142.231 37.4291 141.938 37.4291H140.863C140.687 37.4291 140.55 37.3901 140.472 37.1953Z" fill="white"/>
<path d="M44.5222 46.2049V46.9383H40.9492V46.4262C42.7829 44.5651 43.5656 43.6582 43.5656 42.909C43.5656 42.3969 43.2889 42.0336 42.688 42.0336C42.1267 42.0336 41.7631 42.2071 41.3836 42.4437L41.0436 41.8843C41.4943 41.5531 42.016 41.3086 42.7118 41.3086C43.8655 41.3086 44.4036 41.9474 44.4036 42.8853C44.4036 43.8632 43.7316 44.7228 42.2611 46.2049H44.5222Z" fill="white"/>
<path d="M50.2935 46.197V46.9383H47.9854V46.197H48.7918V42.3963L48.1119 42.8459L47.7324 42.2549L48.9104 41.4189H49.6061V46.1974L50.2935 46.197Z" fill="white"/>
<path d="M62.1198 41.4184L60.4437 44.9351V46.9377H59.6136V44.9426L57.9297 41.418H58.8389L60.0322 44.083L61.2101 41.418H62.1198V41.4184Z" fill="white"/>
<path d="M68.6255 46.1964V46.9377H65.4004V41.418H68.5702V42.1667H66.2221V43.7597H68.1828V44.4931H66.2221V46.1964H68.6255Z" fill="white"/>
<path d="M76.6888 46.9373H75.7796L75.3211 45.4468C74.7044 45.5493 74.0878 45.5493 73.4711 45.4468L73.0126 46.9373H72.1113L74.0004 41.418H74.783L76.6888 46.9373ZM75.1239 44.7844L74.3887 42.4028L73.6613 44.7844C74.1515 44.879 74.6333 44.879 75.1239 44.7844Z" fill="white"/>
<path d="M84.0106 46.3305V46.9693C83.2437 47.0876 82.8484 47.0324 82.4294 46.1964L81.71 44.8006C81.3859 44.8006 81.0854 44.777 80.7929 44.6902V46.9377H79.9707V41.418H81.9309C83.0061 41.418 83.686 42.0878 83.686 42.9715V43.255C83.686 43.9332 83.2591 44.5009 82.5555 44.706L83.2749 46.0387C83.4888 46.433 83.7813 46.3936 84.0106 46.3305ZM80.7934 43.9568C81.1491 44.0514 81.497 44.0756 81.9002 44.0756C82.5248 44.0756 82.8568 43.6734 82.8568 43.1529V43.0662C82.8568 42.5373 82.5248 42.1671 81.9318 42.1671H80.7934V43.9568Z" fill="white"/>
<path d="M89.3047 46.2999C90.032 46.2999 90.451 45.9451 90.451 45.4403C90.451 44.8647 90.0636 44.6123 89.3363 44.5019C88.4192 44.3683 87.7235 43.9503 87.7235 42.8542C87.7235 41.9552 88.3323 41.3164 89.4391 41.3164C90.1427 41.3164 90.6091 41.5293 91.0672 41.8605L90.7114 42.4599C90.3241 42.2233 89.9683 42.0582 89.4465 42.0582C88.8061 42.0582 88.5215 42.3894 88.5215 42.8305C88.5215 43.4535 88.9168 43.6349 89.573 43.7453C90.411 43.8794 91.2644 44.2264 91.2644 45.3782C91.2644 46.3324 90.6082 47.05 89.3275 47.05C88.6006 47.05 87.9756 46.8056 87.5645 46.498L87.9044 45.8834C88.2848 46.1102 88.7671 46.2999 89.3047 46.2999Z" fill="white"/>
<path d="M103.421 46.3305V46.9693C102.654 47.0876 102.259 47.0324 101.84 46.1964L101.121 44.8006C100.796 44.8006 100.496 44.777 100.203 44.6902V46.9377H99.3809V41.418H101.342C102.417 41.418 103.096 42.0878 103.096 42.9715V43.255C103.096 43.9332 102.669 44.5009 101.966 44.706L102.685 46.0387C102.899 46.433 103.191 46.3936 103.421 46.3305ZM100.203 43.9568C100.559 44.0514 100.907 44.0756 101.31 44.0756C101.934 44.0756 102.266 43.6734 102.266 43.1529V43.0662C102.266 42.5373 101.934 42.1671 101.342 42.1671H100.204L100.203 43.9568Z" fill="white"/>
<path d="M110.369 41.418L110.361 46.9373H109.61L109.54 46.4799C109.255 46.7874 108.797 47.0481 108.235 47.0481C107.176 47.0481 106.67 46.504 106.67 45.4V41.418H107.5V45.2896C107.5 46.0146 107.769 46.3226 108.393 46.3226C108.891 46.3226 109.334 46.0072 109.54 45.6922V41.4184L110.369 41.418Z" fill="white"/>
<path d="M118.033 41.418V46.9373H117.251L114.982 43.0657L115.005 46.9373H114.191V41.418H114.966L117.235 45.3053L117.219 41.418H118.033Z" fill="white"/>
<path d="M125.141 41.418V46.9373H124.358L122.089 43.0657L122.113 46.9373H121.299V41.418H122.073L124.342 45.3053L124.327 41.418H125.141Z" fill="white"/>
<path d="M129.228 41.418V46.9373H128.406V41.418H129.228Z" fill="white"/>
<path d="M136.334 41.418V46.9373H135.551L133.283 43.0657L133.306 46.9373H132.492V41.418H133.267L135.536 45.3053L135.52 41.418H136.334Z" fill="white"/>
<path d="M143.292 43.9726V47.0167H142.675L142.541 46.4883C142.209 46.8037 141.75 47.0482 141.197 47.0482C140.161 47.0482 139.561 46.3779 139.561 45.298V43.0662C139.561 41.9937 140.351 41.3076 141.442 41.3076C142.256 41.3076 142.73 41.5363 143.165 41.8675L142.817 42.4511C142.438 42.2066 142.098 42.041 141.442 42.041C140.825 42.041 140.39 42.4511 140.39 43.1687V45.1876C140.39 45.9126 140.754 46.3153 141.354 46.3153C141.781 46.3153 142.2 46.1181 142.469 45.7554V44.6828H141.378V43.9731L143.292 43.9726Z" fill="white"/>
<path d="M40.1895 51.4013L40.268 50.834H43.1276L43.049 51.4013H41.9366L41.4228 55.0558H40.788L41.3019 51.4013H40.1895Z" fill="white"/>
<path d="M44.6162 51.8594L44.5921 52.4142C44.2172 52.4142 43.8424 52.5951 43.5945 52.8669L43.2862 55.056H42.6816L43.123 51.9201H43.6429L43.6489 52.294C43.9089 52.0343 44.2777 51.8594 44.6162 51.8594Z" fill="white"/>
<path d="M46.9354 55.056L46.9415 54.7485C46.7118 54.9595 46.349 55.1163 45.9923 55.1163C45.4119 55.1163 45.0371 54.8872 45.0371 54.3565C45.0371 53.5484 45.5329 53.3067 46.3188 53.3067C46.5727 53.3067 46.8206 53.3369 47.0624 53.3916L47.1108 53.0418C47.1773 52.5594 47.008 52.3905 46.5546 52.3905C46.1737 52.3905 45.8472 52.5111 45.6235 52.6257L45.4905 52.1915C45.7747 52.0343 46.216 51.8594 46.7118 51.8594C47.4977 51.8594 47.8302 52.2393 47.7274 52.981L47.4312 55.056H46.9354ZM46.1556 54.6278C46.4699 54.6278 46.7601 54.4711 46.9415 54.2419L47.0019 53.8137C46.7722 53.7655 46.5364 53.7414 46.2946 53.7414C45.8593 53.7414 45.6598 53.8559 45.6598 54.2535C45.6598 54.5314 45.8593 54.6278 46.1556 54.6278Z" fill="white"/>
<path d="M51.1065 51.9199L49.5407 55.0558H48.9603L48.2832 51.9199H48.918L49.3654 54.3261L50.4717 51.9199H51.1065Z" fill="white"/>
<path d="M53.7485 53.1142L53.6699 53.675H51.7413L51.7232 53.8198C51.6567 54.3384 51.8562 54.5917 52.2854 54.5917C52.6663 54.5917 52.9807 54.471 53.2648 54.3143L53.4402 54.7359C53.1258 54.947 52.7147 55.1158 52.2068 55.1158C51.427 55.1158 51.0098 54.6455 51.1186 53.8615L51.2275 53.1137C51.3363 52.3358 51.8864 51.8594 52.6663 51.8594C53.4462 51.8598 53.8573 52.3362 53.7485 53.1142ZM52.5938 52.385C52.1645 52.385 51.8985 52.6443 51.8139 53.1629L51.8018 53.2353H53.1318L53.1439 53.1629C53.2286 52.6498 53.0235 52.385 52.5938 52.385Z" fill="white"/>
<path d="M54.8496 50.5332H55.4542L54.8194 55.0561H54.2148L54.8496 50.5332Z" fill="white"/>
<path d="M61.4807 55.0558H60.9426L60.5738 53.3914L59.7214 55.0558H59.1773L58.4941 50.834H59.1531L59.5824 54.3076L60.3804 52.6853L59.9572 50.834H60.5376L60.7552 51.9918L61.3114 50.834H61.8857L60.9608 52.6376L61.3054 54.308L62.6959 50.8344H63.3367L61.4807 55.0558Z" fill="white"/>
<path d="M65.7915 53.1132L65.7129 53.674H63.7843L63.7662 53.8188C63.6997 54.3374 63.8992 54.5907 64.3284 54.5907C64.7093 54.5907 65.0237 54.4701 65.3078 54.3133L65.4831 54.7349C65.1688 54.946 64.7577 55.1149 64.2498 55.1149C63.4699 55.1149 63.0528 54.6445 63.1616 53.8605L63.2704 53.1127C63.3792 52.3348 63.9294 51.8584 64.7093 51.8584C65.4887 51.8589 65.9003 52.3353 65.7915 53.1132ZM64.6363 52.384C64.207 52.384 63.941 52.6433 63.8564 53.1619L63.8443 53.2343H65.1743L65.1864 53.1619C65.2715 52.6489 65.0655 52.384 64.6363 52.384Z" fill="white"/>
<path d="M69.4497 53.1142L69.3711 53.675H67.4425L67.4244 53.8198C67.3579 54.3384 67.5574 54.5917 67.9866 54.5917C68.3675 54.5917 68.6819 54.471 68.966 54.3143L69.1413 54.7359C68.827 54.947 68.4159 55.1158 67.908 55.1158C67.1281 55.1158 66.711 54.6455 66.8198 53.8615L66.9286 53.1137C67.0374 52.3358 67.5876 51.8594 68.3675 51.8594C69.1474 51.8598 69.5585 52.3362 69.4497 53.1142ZM68.2949 52.385C67.8657 52.385 67.5997 52.6443 67.5151 53.1629L67.503 53.2353H68.833L68.8451 53.1629C68.9297 52.6498 68.7237 52.385 68.2949 52.385Z" fill="white"/>
<path d="M72.5882 54.5973L72.5096 55.0797C71.9111 55.1702 71.6572 55.1159 71.4093 54.4892L71.0949 53.6992L70.6475 54.139L70.5206 55.0561H69.916L70.5508 50.5332H71.1554L70.7685 53.3133L72.1831 51.9202H72.9147L71.5725 53.2284L72.0501 54.3746C72.171 54.6701 72.4068 54.646 72.5882 54.5973Z" fill="white"/>
<path d="M73.5176 50.5332H74.1222L73.4874 55.0561H72.8828L73.5176 50.5332Z" fill="white"/>
<path d="M75.7725 54.6332H75.7785L75.1014 55.9659H74.4787L75.0349 54.9287L74.3457 51.9199H74.9805L75.44 54.2175L76.5342 51.9199H77.169L75.7725 54.6332Z" fill="white"/>
<path d="M82.8491 54.5915V55.0799C82.2627 55.1704 81.9604 55.1282 81.64 54.4894L81.0898 53.4215C80.8419 53.4215 80.6122 53.4034 80.3885 53.3371V55.0558H79.7598V50.834H81.2591C82.0818 50.834 82.6012 51.3466 82.6012 52.0225V52.2396C82.6012 52.7582 82.2748 53.1924 81.7367 53.3496L82.2868 54.3683C82.4501 54.6699 82.6738 54.6392 82.8491 54.5915ZM80.388 52.7763C80.6601 52.8486 80.9261 52.8667 81.2344 52.8667C81.712 52.8667 81.966 52.5592 81.966 52.1612V52.0948C81.966 51.6908 81.712 51.4073 81.2586 51.4073H80.388V52.7763Z" fill="white"/>
<path d="M83.8231 53.8198C83.8231 54.3384 84.065 54.5917 84.4942 54.5917C84.8751 54.5917 85.1713 54.471 85.4313 54.3143L85.667 54.7359C85.3829 54.947 84.996 55.1159 84.4881 55.1159C83.7083 55.1159 83.2246 54.6455 83.2246 53.8615V53.1137C83.2246 52.3358 83.7083 51.8594 84.4881 51.8594C85.268 51.8594 85.7456 52.3358 85.7456 53.1137V53.6746H83.8231V53.8198ZM85.1471 53.2348V53.1624C85.1471 52.6498 84.9174 52.3845 84.4881 52.3845C84.0589 52.3845 83.8171 52.6438 83.8171 53.1624V53.2348H85.1471Z" fill="white"/>
<path d="M89.4384 52.9816V55.0565H88.9427L88.9004 54.749C88.7009 54.96 88.3623 55.1168 88.0056 55.1168C87.3648 55.1168 86.9355 54.8515 86.9355 54.2123C86.9355 53.5067 87.3829 53.3077 88.0782 53.3077C88.3321 53.3077 88.586 53.3378 88.8339 53.3926V53.0428C88.8339 52.5604 88.6344 52.3915 88.1809 52.3915C87.8001 52.3915 87.4917 52.5121 87.2862 52.6267L87.0927 52.1925C87.3527 52.0352 87.7698 51.8604 88.2656 51.8604C89.0515 51.8599 89.4384 52.2398 89.4384 52.9816ZM88.8339 54.248V53.8138C88.5921 53.7655 88.3563 53.7414 88.1144 53.7414C87.7396 53.7414 87.5462 53.8319 87.5462 54.1816C87.5462 54.5193 87.7759 54.6279 88.1024 54.6279C88.4167 54.6284 88.6827 54.4716 88.8339 54.248Z" fill="white"/>
<path d="M92.6902 50.5332V55.0561H92.2126L92.1703 54.7666C91.9587 54.9777 91.6564 55.1164 91.2937 55.1164C90.5677 55.1164 90.1934 54.646 90.1934 53.862V53.066C90.1934 52.2881 90.5561 51.8595 91.2634 51.8595C91.5415 51.8595 91.8136 51.9021 92.0856 52.0227V50.5332H92.6902ZM92.0856 54.2178V52.553C91.8499 52.4384 91.608 52.4022 91.3662 52.4022C90.9672 52.4022 90.7858 52.6439 90.7858 53.1384V53.7957C90.7858 54.3143 90.9551 54.5857 91.3843 54.5857C91.7108 54.5857 91.9466 54.453 92.0856 54.2178Z" fill="white"/>
<path d="M94.0458 53.8198C94.0458 54.3384 94.2881 54.5917 94.7169 54.5917C95.0977 54.5917 95.394 54.471 95.6539 54.3143L95.8902 54.7359C95.606 54.947 95.2191 55.1159 94.7113 55.1159C93.9309 55.1159 93.4473 54.6455 93.4473 53.8615V53.1137C93.4473 52.3358 93.9309 51.8594 94.7113 51.8594C95.4912 51.8594 95.9688 52.3358 95.9688 53.1137V53.6746H94.0458V53.8198ZM95.3698 53.2348V53.1624C95.3698 52.6498 95.1401 52.3845 94.7108 52.3845C94.2811 52.3845 94.0397 52.6438 94.0397 53.1624V53.2348H95.3698Z" fill="white"/>
<path d="M98.0909 52.8609V55.056H97.4863V51.9201H98.0058L98.0667 52.294C98.2899 52.0343 98.635 51.8594 98.9731 51.8594L99.0215 52.4142C98.6471 52.4146 98.3085 52.5956 98.0909 52.8609Z" fill="white"/>
<path d="M100.46 54.6153C100.889 54.6153 101.101 54.4163 101.101 54.1811C101.101 53.8977 100.883 53.8012 100.417 53.7228C99.8914 53.6323 99.3836 53.5178 99.3836 52.764C99.3836 52.2393 99.7403 51.8594 100.508 51.8594C101.004 51.8594 101.33 52.0101 101.644 52.2337L101.415 52.6438C101.143 52.481 100.888 52.3604 100.526 52.3604C100.127 52.3604 99.9821 52.5292 99.9821 52.7528C99.9821 53.0905 100.248 53.1388 100.665 53.2051C101.185 53.2895 101.693 53.4162 101.699 54.164C101.706 54.7007 101.27 55.1168 100.484 55.1168C99.976 55.1168 99.571 54.9479 99.2812 54.7429L99.511 54.3208C99.7709 54.4891 100.079 54.6153 100.46 54.6153Z" fill="white"/>
<path d="M102.983 51.245C102.861 51.1847 102.795 51.0641 102.795 50.9258C102.795 50.6605 102.977 50.5459 103.188 50.5459C103.406 50.5459 103.593 50.6605 103.593 50.9319C103.593 51.2575 103.412 51.6615 102.862 51.8364L102.717 51.559C102.831 51.4862 102.965 51.3776 102.983 51.245Z" fill="white"/>
<path d="M106.93 55.1407C106.114 55.1407 105.516 54.6161 105.516 53.7964V52.0958C105.516 51.2752 106.114 50.751 106.93 50.751C107.474 50.751 107.783 50.9138 108.109 51.155L107.843 51.6013C107.56 51.4264 107.354 51.3118 106.93 51.3118C106.465 51.3118 106.15 51.6375 106.15 52.1742V53.7115C106.15 54.2663 106.47 54.5799 106.93 54.5799C107.354 54.5799 107.56 54.4653 107.843 54.2904L108.109 54.7367C107.783 54.9784 107.474 55.1407 106.93 55.1407Z" fill="white"/>
<path d="M111.17 52.9997V55.0565H110.571V53.0785C110.571 52.6077 110.426 52.3966 110.015 52.3966C109.737 52.3966 109.471 52.5896 109.314 52.7946V55.0561H108.709V50.5332H109.314V52.2273C109.531 52.0102 109.827 51.8595 110.136 51.8595C110.867 51.8599 111.17 52.2579 111.17 52.9997Z" fill="white"/>
<path d="M113.182 51.8604C113.962 51.8604 114.439 52.3312 114.439 53.1147V53.8625C114.439 54.6464 113.956 55.1168 113.182 55.1168C112.402 55.1168 111.918 54.6464 111.918 53.8625V53.1147C111.918 52.3312 112.402 51.8604 113.182 51.8604ZM113.182 54.5866C113.605 54.5866 113.841 54.3152 113.841 53.7966V53.1815C113.841 52.6629 113.605 52.3915 113.182 52.3915C112.753 52.3915 112.516 52.6629 112.516 53.1815V53.7966C112.516 54.3152 112.753 54.5866 113.182 54.5866Z" fill="white"/>
<path d="M115.491 51.414C115.255 51.414 115.092 51.2878 115.092 51.0401C115.092 50.7924 115.255 50.6602 115.491 50.6602C115.721 50.6602 115.889 50.7928 115.889 51.0401C115.889 51.2873 115.721 51.414 115.491 51.414ZM115.799 55.0569H115.194V51.921H115.799V55.0569Z" fill="white"/>
<path d="M119.332 54.5856C119.713 54.5856 119.937 54.471 120.197 54.3143L120.439 54.7359C120.154 54.947 119.822 55.1159 119.314 55.1159C118.534 55.1159 118.057 54.6394 118.057 53.8615V53.1137C118.057 52.3358 118.534 51.8594 119.314 51.8594C119.834 51.8594 120.124 52.0162 120.439 52.2453L120.191 52.6614C119.919 52.4926 119.731 52.3901 119.332 52.3901C118.891 52.3901 118.655 52.6614 118.655 53.1861V53.7891C118.655 54.3143 118.89 54.5856 119.332 54.5856Z" fill="white"/>
<path d="M121.702 53.8198C121.702 54.3384 121.944 54.5917 122.373 54.5917C122.754 54.5917 123.05 54.471 123.31 54.3143L123.546 54.7359C123.262 54.947 122.875 55.1159 122.367 55.1159C121.587 55.1159 121.104 54.6455 121.104 53.8615V53.1137C121.104 52.3358 121.587 51.8594 122.367 51.8594C123.147 51.8594 123.625 52.3358 123.625 53.1137V53.6746H121.702V53.8198ZM123.027 53.2348V53.1624C123.027 52.6498 122.797 52.3845 122.367 52.3845C121.938 52.3845 121.696 52.6438 121.696 53.1624V53.2348H123.027Z" fill="white"/>
<path d="M129.524 55.0558H128.829L128.478 53.916C128.006 53.9944 127.535 53.9944 127.063 53.916L126.713 55.0558H126.023L127.468 50.834H128.067L129.524 55.0558ZM128.326 53.4095L127.764 51.5878L127.208 53.4095C127.583 53.4814 127.952 53.4814 128.326 53.4095Z" fill="white"/>
<path d="M133.491 51.9199L132.433 55.0558H131.852L131.435 53.6446L130.976 55.0558H130.402L129.344 51.9199H129.979L130.698 54.3261L131.182 52.7702L130.928 51.9199H131.569L132.155 54.3201L132.857 51.9199H133.491Z" fill="white"/>
<path d="M136.968 52.9816V55.0565H136.472L136.43 54.749C136.23 54.96 135.892 55.1168 135.535 55.1168C134.894 55.1168 134.465 54.8515 134.465 54.2123C134.465 53.5067 134.912 53.3077 135.607 53.3077C135.861 53.3077 136.115 53.3378 136.363 53.3926V53.0428C136.363 52.5604 136.164 52.3915 135.71 52.3915C135.329 52.3915 135.022 52.5121 134.815 52.6267L134.622 52.1925C134.882 52.0352 135.299 51.8604 135.795 51.8604C136.581 51.8599 136.968 52.2398 136.968 52.9816ZM136.364 54.248V53.8138C136.121 53.7655 135.886 53.7414 135.644 53.7414C135.269 53.7414 135.076 53.8319 135.076 54.1816C135.076 54.5193 135.305 54.6279 135.632 54.6279C135.946 54.6284 136.212 54.4716 136.364 54.248Z" fill="white"/>
<path d="M138.353 52.8609V55.056H137.748V51.9201H138.268L138.328 52.294C138.552 52.0343 138.897 51.8594 139.235 51.8594L139.284 52.4142C138.909 52.4146 138.571 52.5956 138.353 52.8609Z" fill="white"/>
<path d="M142.083 50.5332V55.0561H141.605L141.563 54.7666C141.351 54.9777 141.049 55.1164 140.686 55.1164C139.96 55.1164 139.586 54.646 139.586 53.862V53.066C139.586 52.2881 139.948 51.8595 140.656 51.8595C140.934 51.8595 141.207 51.9021 141.478 52.0227V50.5332H142.083ZM141.478 54.2178V52.553C141.243 52.4384 141.001 52.4022 140.759 52.4022C140.36 52.4022 140.178 52.6439 140.178 53.1384V53.7957C140.178 54.3143 140.348 54.5857 140.777 54.5857C141.104 54.5857 141.339 54.453 141.478 54.2178Z" fill="white"/>
<path d="M143.907 54.6153C144.337 54.6153 144.548 54.4163 144.548 54.1811C144.548 53.8977 144.331 53.8012 143.865 53.7228C143.339 53.6323 142.831 53.5178 142.831 52.764C142.831 52.2393 143.188 51.8594 143.955 51.8594C144.451 51.8594 144.778 52.0101 145.092 52.2337L144.862 52.6438C144.59 52.481 144.336 52.3604 143.973 52.3604C143.575 52.3604 143.429 52.5292 143.429 52.7528C143.429 53.0905 143.695 53.1388 144.113 53.2051C144.633 53.2895 145.141 53.4162 145.147 54.164C145.153 54.7007 144.718 55.1168 143.932 55.1168C143.424 55.1168 143.019 54.9479 142.729 54.7429L142.958 54.3208C143.218 54.4891 143.527 54.6153 143.907 54.6153Z" fill="white"/>
<mask id="mask1_127_4605" style="mask-type:luminance" maskUnits="userSpaceOnUse" x="15" y="2" width="157" height="56">
<path d="M171.119 2.95215H15.0391V57.0597H171.119V2.95215Z" fill="white"/>
</mask>
<g mask="url(#mask1_127_4605)">
<path d="M150.699 55.2753C154.775 50.8127 157.822 54.4343 163.922 54.4732C163.922 54.4732 159.677 58.9539 150.699 55.2753Z" fill="white"/>
</g>
<path d="M155.102 51.3044C158.466 46.2847 162.019 49.4122 168.057 48.5424C168.057 48.5424 164.527 53.6052 155.102 51.3044Z" fill="white"/>
<path d="M158.092 47.4957C160.443 42.3164 164.225 44.6748 169.699 42.9385C169.699 42.9385 167.201 48.1832 158.092 47.4957Z" fill="white"/>
<path d="M161.51 43.0555C162.637 37.9259 166.507 39.33 171.117 36.7109C171.117 36.7109 169.87 41.9283 161.51 43.0555Z" fill="white"/>
<path d="M162.967 38.113C163.342 33.3684 166.991 34.1501 170.805 31.2285C170.805 31.2285 170.333 36.0668 162.967 38.113Z" fill="white"/>
<path d="M163.535 32.9195C163.678 28.1624 167.361 28.765 171.028 25.6611C171.028 25.6611 170.792 30.5166 163.535 32.9195Z" fill="white"/>
<path d="M163.891 28.4724C163.462 23.975 167.002 24.1082 170.087 20.752C170.087 20.752 170.44 25.3518 163.891 28.4724Z" fill="white"/>
<path d="M163.613 23.9233C162.558 20.1542 165.596 19.7261 167.713 16.3926C167.713 16.3926 168.719 20.2609 163.613 23.9233Z" fill="white"/>
<path d="M162.268 19.7088C161.159 16.116 164.066 15.6271 166.013 12.3711C166.013 12.3711 167.079 16.0608 162.268 19.7088Z" fill="white"/>
<path d="M161.737 16.2457C160.367 13.3863 162.73 12.6199 163.951 9.66406C163.951 9.66406 165.297 12.6097 161.737 16.2457Z" fill="white"/>
<path d="M160.449 13.6097C158.753 11.3005 160.723 10.2243 161.311 7.39551C161.311 7.39551 163 9.78498 160.449 13.6097Z" fill="white"/>
<path d="M159.081 10.6862C157.126 9.09224 158.567 7.74094 158.444 5.20117C158.444 5.20117 160.41 6.86559 159.081 10.6862Z" fill="white"/>
<path d="M156.761 8.62777C154.601 7.32333 155.838 5.78369 155.359 3.28613C155.359 3.28613 157.54 4.65877 156.761 8.62777Z" fill="white"/>
</svg>
