<svg width="185" height="61" viewBox="0 0 185 61" fill="none" xmlns="http://www.w3.org/2000/svg">
<path d="M20.8894 54.6248C17.1755 50.5639 14.3996 53.8594 8.8418 53.8946C8.8418 53.8946 12.7105 57.9722 20.8894 54.6248Z" fill="white"/>
<path d="M16.8781 51.0114C13.813 46.4435 10.5753 49.2895 5.07422 48.4981C5.07422 48.4981 8.29004 53.1049 16.8781 51.0114Z" fill="white"/>
<path d="M14.1529 47.5451C12.0109 42.832 8.56532 44.978 3.57812 43.3984C3.57812 43.3984 5.85408 48.1709 14.1529 47.5451Z" fill="white"/>
<path d="M11.0398 43.5055C10.013 38.8379 6.48697 40.1154 2.28711 37.7324C2.28711 37.7324 3.42323 42.4794 11.0398 43.5055Z" fill="white"/>
<path d="M9.71161 39.0079C9.36934 34.6906 6.04516 35.4017 2.57031 32.7432C2.57031 32.7432 3.00048 37.1459 9.71161 39.0079Z" fill="white"/>
<path d="M9.19365 34.2816C9.06344 29.9526 5.7081 30.5014 2.36719 27.6768C2.36719 27.6768 2.58157 32.0948 9.19365 34.2816Z" fill="white"/>
<path d="M8.86946 30.235C9.2601 26.1426 6.03498 26.2637 3.22375 23.21C3.22375 23.21 2.90194 27.3956 8.86946 30.235Z" fill="white"/>
<path d="M9.12334 26.0952C10.0846 22.6657 7.31616 22.276 5.38806 19.2422C5.38806 19.2422 4.47052 22.7626 9.12334 26.0952Z" fill="white"/>
<path d="M10.3489 22.2602C11.3599 18.9907 8.71142 18.5458 6.93726 15.583C6.93726 15.583 5.96623 18.9401 10.3489 22.2602Z" fill="white"/>
<path d="M10.8325 19.1089C12.0811 16.5069 9.92702 15.8097 8.81509 13.1201C8.81509 13.1201 7.58922 15.8 10.8325 19.1089Z" fill="white"/>
<path d="M12.0049 16.7104C13.5507 14.609 11.7556 13.6298 11.2204 11.0557C11.2204 11.0557 9.68153 13.2299 12.0049 16.7104Z" fill="white"/>
<path d="M13.2522 14.0505C15.0338 12.5999 13.721 11.3706 13.8335 9.05957C13.8335 9.05957 12.0412 10.5742 13.2522 14.0505Z" fill="white"/>
<path d="M15.3664 12.177C17.3345 10.9899 16.2067 9.58898 16.643 7.31641C16.643 7.31641 14.6558 8.56519 15.3664 12.177Z" fill="white"/>
<path d="M165.098 54.6258C168.812 50.5649 171.587 53.8604 177.145 53.8956C177.145 53.8956 173.276 57.9732 165.098 54.6258Z" fill="white"/>
<path d="M169.109 50.3175C172.175 45.8224 175.413 48.6229 180.913 47.844C180.913 47.844 177.697 52.378 169.109 50.3175Z" fill="white"/>
<path d="M171.832 46.907C173.974 42.269 177.42 44.3807 182.407 42.8262C182.407 42.8262 180.131 47.523 171.832 46.907Z" fill="white"/>
<path d="M174.947 42.9307C175.974 38.3373 179.5 39.5944 183.7 37.249C183.7 37.249 182.564 41.9213 174.947 42.9307Z" fill="white"/>
<path d="M176.275 38.5049C176.618 34.2557 179.942 34.9562 183.417 32.3398C183.417 32.3398 182.987 36.6721 176.275 38.5049Z" fill="white"/>
<path d="M176.793 33.8535C176.923 29.5932 180.279 30.1331 183.619 27.3535C183.619 27.3535 183.405 31.701 176.793 33.8535Z" fill="white"/>
<path d="M177.118 29.8718C176.728 25.8448 179.952 25.9635 182.764 22.958C182.764 22.958 183.085 27.0773 177.118 29.8718Z" fill="white"/>
<path d="M176.865 25.7977C175.903 22.4224 178.672 22.0393 180.6 19.0537C180.6 19.0537 181.517 22.518 176.865 25.7977Z" fill="white"/>
<path d="M175.639 22.0231C174.628 18.8056 177.277 18.3677 179.051 15.4521C179.051 15.4521 180.022 18.7559 175.639 22.0231Z" fill="white"/>
<path d="M175.155 18.922C173.906 16.3613 176.06 15.6753 177.172 13.0283C177.172 13.0283 178.398 15.666 175.155 18.922Z" fill="white"/>
<path d="M173.981 16.5618C172.436 14.4938 174.231 13.5299 174.766 10.9971C174.766 10.9971 176.305 13.137 173.981 16.5618Z" fill="white"/>
<path d="M172.735 13.9443C170.954 12.5169 172.267 11.3067 172.154 9.03223C172.154 9.03223 173.946 10.5227 172.735 13.9443Z" fill="white"/>
<path d="M170.621 12.1C168.653 10.9315 169.78 9.5528 169.344 7.31641C169.344 7.31641 171.331 8.5457 170.621 12.1Z" fill="white"/>
<path d="M25.036 25.4526H22.1541C21.8216 25.4526 21.7109 25.3422 21.7109 25.0105V10.4162C21.7109 9.97363 21.9328 9.97363 22.1541 9.97363H25.036C27.4748 9.97363 28.3611 11.5662 28.3611 14.131C28.3611 15.5022 28.2063 16.276 27.6738 17.0497C27.585 17.1824 27.5185 17.271 27.5185 17.3373C27.5185 17.4037 27.5631 17.4918 27.6738 17.669C28.1616 18.5314 28.3611 19.5264 28.3611 21.0303C28.3616 24.3471 27.2534 25.4526 25.036 25.4526ZM26.1447 13.8434C26.1224 12.8483 26.034 11.9414 25.036 11.9414H24.371C23.9274 11.9414 23.9274 11.9414 23.9274 12.384V15.922C23.9274 16.3641 23.9274 16.3641 24.371 16.3641H25.036C25.9671 16.3641 26.1224 15.5236 26.1447 14.6171V13.8434ZM25.036 23.4843C26.1447 23.4843 26.1447 22.3566 26.1447 21.2289V20.5873C26.1447 19.4596 26.1447 18.3319 25.036 18.3319H24.371C23.9274 18.3319 23.9274 18.3319 23.9274 18.7522V23.0422C23.9274 23.4843 23.9274 23.4843 24.371 23.4843H25.036Z" fill="white"/>
<path d="M30.4004 25.0105V10.4162C30.4004 10.0845 30.5111 9.97363 30.8436 9.97363H35.521C35.8536 9.97363 35.9647 10.0845 35.9647 10.4162V11.6102C35.9647 11.9419 35.8536 12.0523 35.521 12.0523H33.0605C32.6168 12.0523 32.6168 12.0523 32.6168 12.4949V15.8116C32.6168 16.2537 32.6168 16.2537 33.0605 16.2537H35.521C35.8536 16.2537 35.9647 16.3641 35.9647 16.6958V17.8898C35.9647 18.2215 35.8536 18.3324 35.521 18.3324H33.0605C32.6168 18.3324 32.6168 18.3324 32.6168 18.7745V22.9318C32.6168 23.3739 32.6168 23.3739 33.0605 23.3739H35.521C35.8536 23.3739 35.9647 23.4843 35.9647 23.8164V25.0105C35.9647 25.3422 35.8536 25.4526 35.521 25.4526H30.8436C30.6222 25.4526 30.4004 25.4526 30.4004 25.0105Z" fill="white"/>
<path d="M37.7617 13.3789C37.7617 11.3884 38.8704 9.90723 41.0868 9.90723C43.459 9.90723 44.3901 11.4993 44.3901 13.8874C44.3901 14.219 44.2794 14.3962 43.9469 14.3962H42.6392C42.3066 14.3962 42.1955 14.2854 42.1955 13.9537C42.1955 12.8701 42.0848 11.9414 41.0873 11.9414C39.9791 11.9414 39.9791 13.025 39.9791 13.4671C39.9791 14.5725 40.7771 15.7888 41.93 17.0492C43.2158 18.4423 44.3905 20.1011 44.3905 22.0466C44.3905 24.0367 43.2823 25.5184 41.0654 25.5184C38.6937 25.5184 37.7622 23.9263 37.7622 21.5378C37.7622 21.2061 37.8729 21.0293 38.2058 21.0293H39.5136C39.8461 21.0293 39.9568 21.1397 39.9568 21.4719C39.9568 22.5551 40.0674 23.4838 41.065 23.4838C42.1736 23.4838 42.1736 22.4006 42.1736 21.958C42.1736 20.8526 41.3756 19.5918 40.2228 18.3318C38.9364 16.9393 37.7617 15.3249 37.7617 13.3789Z" fill="white"/>
<path d="M46.4515 9.97363H52.2153C52.5478 9.97363 52.659 10.0845 52.659 10.4162V11.6102C52.659 11.9419 52.5483 12.0523 52.2153 12.0523H50.8853C50.4416 12.0523 50.4416 12.0523 50.4416 12.4949V25.0105C50.4416 25.4526 50.2198 25.4526 49.9984 25.4526H48.6684C48.4465 25.4526 48.2252 25.4526 48.2252 25.0105V12.4949C48.2252 12.0523 48.2252 12.0523 47.8038 12.0523H46.4515C46.0078 12.0523 46.0078 11.831 46.0078 11.6102V10.4162C46.0083 10.1949 46.0083 9.97363 46.4515 9.97363Z" fill="white"/>
<path d="M63.1825 20.3002H62.5175C62.0738 20.3002 62.0739 20.3002 62.0739 20.7427V25.0105C62.0739 25.3422 61.9408 25.4526 61.6307 25.4526H60.3006C59.9458 25.4526 59.8574 25.3422 59.8574 25.0105V10.4162C59.8574 10.0845 59.9681 9.97363 60.3006 9.97363H63.1825C65.3994 9.97363 66.5076 11.0795 66.5076 14.3963V15.8998C66.5076 19.1947 65.399 20.3002 63.1825 20.3002ZM62.0739 17.9344C62.0739 18.3324 62.0738 18.3324 62.5175 18.3324H63.1825C64.2907 18.3324 64.2907 17.2047 64.2907 16.077V14.1973C64.2907 13.0696 64.2907 11.9419 63.1825 11.9419H62.5175C62.0738 11.9419 62.0739 11.9419 62.0739 12.3844V17.9344Z" fill="white"/>
<path d="M73.9773 19.1061L75.1301 24.9882C75.1966 25.3422 75.0418 25.4526 74.8641 25.4526H73.4676C73.1792 25.4526 73.0467 25.4526 72.9802 25.1209L71.9162 19.6809H71.207C70.7633 19.6809 70.7633 19.6809 70.7633 20.123V25.01C70.7633 25.4521 70.5415 25.4521 70.3201 25.4521H68.9901C68.7682 25.4521 68.5469 25.4521 68.5469 25.01V10.4162C68.5469 10.0845 68.6576 9.97363 68.9901 9.97363H71.872C74.0889 9.97363 75.1971 11.0795 75.1971 14.3963V15.2587C75.1962 17.271 74.7753 18.4651 73.9773 19.1061ZM70.7628 17.271C70.7628 17.7131 70.7628 17.7131 71.2065 17.7131H71.8715C72.9797 17.7131 72.9797 16.5854 72.9797 15.4577V14.1973C72.9797 13.0696 72.9797 11.9419 71.8715 11.9419H71.2065C70.7628 11.9419 70.7628 11.9419 70.7628 12.3844V17.271Z" fill="white"/>
<path d="M77.2363 25.0105V10.4162C77.2363 10.0845 77.347 9.97363 77.6795 9.97363H79.0096C79.3421 9.97363 79.4528 10.0845 79.4528 10.4162V25.0105C79.4528 25.4526 79.2309 25.4526 79.0096 25.4526H77.6795C77.4577 25.4526 77.2363 25.4526 77.2363 25.0105Z" fill="white"/>
<path d="M88.7082 9.97363C88.93 9.97363 89.1519 9.97363 89.0854 10.3498L86.2923 25.055C86.2258 25.3867 86.1593 25.453 85.8044 25.453H84.6074C84.2526 25.453 84.186 25.3867 84.1195 25.055L81.3265 10.3498C81.26 9.97363 81.4813 9.97363 81.7036 9.97363H83.0337C83.322 9.97363 83.455 9.97363 83.5215 10.3053L85.1175 19.8358C85.1394 19.9462 85.2724 19.9462 85.2947 19.8358L86.8908 10.3053C86.9573 9.97363 87.0903 9.97363 87.3786 9.97363H88.7082Z" fill="white"/>
<path d="M95.5119 25.4526C95.224 25.4526 95.091 25.4526 95.024 25.1209L94.8245 23.9268C94.7362 23.4843 94.7362 23.4843 94.3367 23.4843H92.364C91.9203 23.4843 91.9426 23.4843 91.8538 23.9268L91.6543 25.1209C91.5878 25.4526 91.4548 25.4526 91.1664 25.4526H89.8364C89.6146 25.4526 89.3928 25.4526 89.4593 25.0763L92.2523 10.3716C92.3188 10.04 92.3853 9.97363 92.7397 9.97363H93.9367C94.2916 9.97363 94.3576 10.04 94.4246 10.3716L97.2177 25.0763C97.2842 25.4526 97.0623 25.4526 96.8405 25.4526H95.5119ZM92.3421 20.9635C92.2756 21.4061 92.2756 21.4061 92.7188 21.4061H93.9605C94.4037 21.4061 94.4037 21.4061 94.3372 20.9635L93.4284 15.5904C93.4061 15.48 93.2731 15.48 93.2513 15.5904L92.3421 20.9635Z" fill="white"/>
<path d="M98.2451 9.97363H104.009C104.342 9.97363 104.453 10.0845 104.453 10.4162V11.6102C104.453 11.9419 104.342 12.0523 104.009 12.0523H102.679C102.236 12.0523 102.236 12.0523 102.236 12.4949V25.0105C102.236 25.4526 102.014 25.4526 101.792 25.4526H100.463C100.241 25.4526 100.019 25.4526 100.019 25.0105V12.4949C100.019 12.0523 100.019 12.0523 99.5984 12.0523H98.246C97.8028 12.0523 97.8028 11.831 97.8028 11.6102V10.4162C97.8019 10.1949 97.8019 9.97363 98.2451 9.97363Z" fill="white"/>
<path d="M106.336 25.0105V10.4162C106.336 10.0845 106.447 9.97363 106.78 9.97363H111.457C111.79 9.97363 111.9 10.0845 111.9 10.4162V11.6102C111.9 11.9419 111.79 12.0523 111.457 12.0523H108.996C108.553 12.0523 108.553 12.0523 108.553 12.4949V15.8116C108.553 16.2537 108.553 16.2537 108.996 16.2537H111.457C111.79 16.2537 111.9 16.3641 111.9 16.6958V17.8898C111.9 18.2215 111.79 18.3324 111.457 18.3324H108.996C108.553 18.3324 108.553 18.3324 108.553 18.7745V22.9318C108.553 23.3739 108.553 23.3739 108.996 23.3739H111.457C111.79 23.3739 111.9 23.4843 111.9 23.8164V25.0105C111.9 25.3422 111.79 25.4526 111.457 25.4526H106.78C106.558 25.4526 106.336 25.4526 106.336 25.0105Z" fill="white"/>
<path d="M119.436 25.0105V10.4162C119.436 10.0845 119.546 9.97363 119.879 9.97363H121.209C121.542 9.97363 121.652 10.0845 121.652 10.4162V25.0105C121.652 25.4526 121.431 25.4526 121.209 25.4526H119.879C119.657 25.4526 119.436 25.4526 119.436 25.0105Z" fill="white"/>
<path d="M123.537 13.3789C123.537 11.3884 124.646 9.90723 126.862 9.90723C129.234 9.90723 130.165 11.4993 130.165 13.8874C130.165 14.219 130.055 14.3962 129.722 14.3962H128.415C128.082 14.3962 127.971 14.2854 127.971 13.9537C127.971 12.8701 127.861 11.9414 126.863 11.9414C125.754 11.9414 125.754 13.025 125.754 13.4671C125.754 14.5725 126.552 15.7888 127.705 17.0492C128.991 18.4423 130.165 20.1011 130.165 22.0466C130.165 24.0367 129.057 25.5184 126.84 25.5184C124.468 25.5184 123.537 23.9263 123.537 21.5378C123.537 21.2061 123.648 21.0293 123.98 21.0293H125.288C125.621 21.0293 125.732 21.1397 125.732 21.4719C125.732 22.5551 125.842 23.4838 126.84 23.4838C127.949 23.4838 127.949 22.4006 127.949 21.958C127.949 20.8526 127.151 19.5918 125.998 18.3318C124.712 16.9393 123.537 15.3249 123.537 13.3789Z" fill="white"/>
<path d="M132.049 25.0105V10.4162C132.049 10.0845 132.16 9.97363 132.492 9.97363H133.822C134.155 9.97363 134.266 10.0845 134.266 10.4162V22.7769C134.266 23.2412 134.266 23.2412 134.731 23.2412H137.169C137.502 23.2412 137.613 23.3516 137.613 23.6833V25.01C137.613 25.3417 137.502 25.4521 137.169 25.4521H132.492C132.16 25.4526 132.049 25.3422 132.049 25.0105Z" fill="white"/>
<path d="M145.238 25.4526C144.95 25.4526 144.817 25.4526 144.75 25.1209L144.551 23.9268C144.462 23.4843 144.462 23.4843 144.063 23.4843H142.09C141.647 23.4843 141.669 23.4843 141.58 23.9268L141.38 25.1209C141.314 25.4526 141.181 25.4526 140.893 25.4526H139.563C139.341 25.4526 139.12 25.4526 139.186 25.0763L141.979 10.3716C142.046 10.04 142.112 9.97363 142.467 9.97363H143.664C144.018 9.97363 144.085 10.04 144.151 10.3716L146.945 25.0763C147.012 25.4526 146.79 25.4526 146.568 25.4526H145.238ZM142.068 20.9635C142.001 21.4061 142.001 21.4061 142.445 21.4061H143.686C144.13 21.4061 144.13 21.4061 144.064 20.9635L143.154 15.5904C143.133 15.48 143 15.48 142.977 15.5904L142.068 20.9635Z" fill="white"/>
<path d="M153.95 25.1872L151.246 17.6027C151.201 17.4482 151.068 17.4923 151.068 17.6027V25.0105C151.068 25.3422 150.958 25.4526 150.625 25.4526H149.295C148.962 25.4526 148.852 25.3422 148.852 25.0105V10.4162C148.852 10.0845 148.962 9.97363 149.295 9.97363H150.514C150.758 9.97363 150.869 10.0182 150.958 10.2612L153.662 17.9344C153.706 18.067 153.839 18.0448 153.839 17.9344V10.4162C153.839 10.0845 153.95 9.97363 154.282 9.97363H155.612C155.945 9.97363 156.056 10.0845 156.056 10.4162V25.0105C156.056 25.3422 155.945 25.4526 155.612 25.4526H154.394C154.194 25.4526 154.038 25.4085 153.95 25.1872Z" fill="white"/>
<path d="M158.273 10.4162C158.273 10.0845 158.384 9.97363 158.717 9.97363H161.599C163.816 9.97363 164.924 11.0795 164.924 14.3963V21.0299C164.924 24.3467 163.815 25.4526 161.599 25.4526H158.717C158.384 25.4526 158.273 25.3422 158.273 25.0105V10.4162ZM160.934 11.9419C160.491 11.9419 160.491 11.9419 160.491 12.3844V23.0204C160.491 23.4848 160.491 23.4848 160.934 23.4848H161.599C162.708 23.4848 162.708 22.3571 162.708 21.2293V14.1973C162.708 13.0696 162.708 11.9419 161.599 11.9419H160.934Z" fill="white"/>
<path d="M25.7214 31.9776V32.2374C25.7214 33.4541 25.0039 34.2325 23.784 34.2325H22.4475V36.2458H21.5234V29.9824H23.7836C25.0039 29.9824 25.7214 30.7608 25.7214 31.9776ZM24.7886 32.1028C24.7886 31.2618 24.4207 30.8323 23.7394 30.8323H22.448V33.3822H23.7394C24.4123 33.3822 24.7886 32.9527 24.7886 32.1028Z" fill="white"/>
<path d="M32.5579 35.4043V36.2449H28.8984V29.9824H32.4951V30.8323H29.8309V32.6396H32.0552V33.4718H29.8309V35.4043H32.5579Z" fill="white"/>
<path d="M40.2745 35.556V36.2806C39.4044 36.4147 38.9561 36.352 38.4808 35.4038L37.6646 33.8201C37.2968 33.8201 36.9559 33.7928 36.6243 33.6944V36.2444H35.6914V29.9824H37.9157C39.1356 29.9824 39.9071 30.7432 39.9071 31.7452V32.0671C39.9071 32.8362 39.4225 33.4806 38.6245 33.7135L39.4406 35.2253C39.6825 35.6724 40.014 35.6279 40.2745 35.556ZM36.6238 32.8631C37.0275 32.9708 37.4219 32.9977 37.8795 32.9977C38.5882 32.9977 38.9644 32.5412 38.9644 31.9507V31.8523C38.9644 31.253 38.5877 30.8323 37.9153 30.8323H36.6238V32.8631Z" fill="white"/>
<path d="M44.2063 30.8323V32.8543H46.4307V33.6949H44.2063V36.2449H43.2734V29.9824H46.879V30.8323H44.2063Z" fill="white"/>
<path d="M53.638 35.4043V36.2449H49.9785V29.9824H53.5752V30.8323H50.9114V32.6396H53.1357V33.4718H50.9114V35.4043H53.638Z" fill="white"/>
<path d="M58.7531 36.3704C57.5421 36.3704 56.6543 35.592 56.6543 34.3752V31.8526C56.6543 30.6358 57.5421 29.8574 58.7531 29.8574C59.5604 29.8574 60.018 30.0991 60.5021 30.4568L60.1073 31.1187C59.6855 30.8594 59.3809 30.6892 58.7526 30.6892C58.062 30.6892 57.5956 31.1725 57.5956 31.9686V34.25C57.5956 35.0729 58.0708 35.5382 58.7526 35.5382C59.3809 35.5382 59.6855 35.3679 60.1073 35.1086L60.5021 35.7706C60.018 36.1292 59.5609 36.3704 58.7531 36.3704Z" fill="white"/>
<path d="M67.6508 30.8234H66.0004V36.2453H65.0587V30.8234H63.4082V29.9824H67.6508V30.8234Z" fill="white"/>
<path d="M78.9734 31.9776V34.2502C78.9734 35.4669 78.22 36.2453 76.9909 36.2453H74.7754V29.9824H76.9909C78.22 29.9824 78.9734 30.7608 78.9734 31.9776ZM78.0405 32.094C78.0405 31.2711 77.6727 30.8323 76.9909 30.8323H75.7083V35.3955H76.9909C77.6634 35.3955 78.0405 34.9659 78.0405 34.1337V32.094Z" fill="white"/>
<path d="M86.932 36.2453H85.9005L85.3801 34.554C84.6806 34.6704 83.9807 34.6704 83.2813 34.554L82.7609 36.2453H81.7383L83.8817 29.9824H84.7699L86.932 36.2453ZM85.1564 33.8025L84.3221 31.1008L83.4971 33.8025C84.0528 33.9101 84.5997 33.9101 85.1564 33.8025Z" fill="white"/>
<path d="M93.4666 29.9824L91.565 33.9732V36.2453H90.6233V33.9816L88.7129 29.9824H89.7444L91.0991 33.0065L92.4356 29.9824H93.4666Z" fill="white"/>
<path d="M105.26 36.2453H104.228L103.708 34.554C103.008 34.6704 102.308 34.6704 101.609 34.554L101.089 36.2453H100.066L102.21 29.9824H103.098L105.26 36.2453ZM103.484 33.8025L102.65 31.1008L101.825 33.8025C102.38 33.9101 102.927 33.9101 103.484 33.8025Z" fill="white"/>
<path d="M111.442 30.8234H109.791V36.2453H108.85V30.8234H107.199V29.9824H111.442V30.8234Z" fill="white"/>
<path d="M120.632 36.3704C119.421 36.3704 118.533 35.592 118.533 34.3752V31.8526C118.533 30.6358 119.421 29.8574 120.632 29.8574C121.439 29.8574 121.897 30.0991 122.381 30.4568L121.987 31.1187C121.565 30.8594 121.26 30.6892 120.632 30.6892C119.942 30.6892 119.475 31.1725 119.475 31.9686V34.25C119.475 35.0729 119.951 35.5382 120.632 35.5382C121.26 35.5382 121.565 35.3679 121.987 35.1086L122.381 35.7706C121.897 36.1292 121.44 36.3704 120.632 36.3704Z" fill="white"/>
<path d="M129.676 31.8526V34.3664C129.676 35.6105 128.698 36.3704 127.487 36.3704C126.277 36.3704 125.299 35.6101 125.299 34.3664V31.8526C125.299 30.6177 126.277 29.8574 127.487 29.8574C128.698 29.8574 129.676 30.6177 129.676 31.8526ZM126.231 31.969V34.2504C126.231 35.091 126.796 35.5298 127.487 35.5298C128.177 35.5298 128.734 35.0914 128.734 34.2504V31.969C128.734 31.1373 128.178 30.6984 127.487 30.6984C126.796 30.6984 126.231 31.1368 126.231 31.969Z" fill="white"/>
<path d="M134.978 36.3704C133.767 36.3704 132.879 35.592 132.879 34.3752V31.8526C132.879 30.6358 133.767 29.8574 134.978 29.8574C135.785 29.8574 136.243 30.0991 136.727 30.4568L136.332 31.1187C135.911 30.8594 135.606 30.6892 134.978 30.6892C134.288 30.6892 133.821 31.1725 133.821 31.9686V34.25C133.821 35.0729 134.296 35.5382 134.978 35.5382C135.606 35.5382 135.911 35.3679 136.332 35.1086L136.727 35.7706C136.243 36.1292 135.785 36.3704 134.978 36.3704Z" fill="white"/>
<path d="M144.022 31.8526V34.3664C144.022 35.6105 143.044 36.3704 141.833 36.3704C140.623 36.3704 139.645 35.6101 139.645 34.3664V31.8526C139.645 30.6177 140.623 29.8574 141.833 29.8574C143.044 29.8574 144.022 30.6177 144.022 31.8526ZM140.577 31.969V34.2504C140.577 35.091 141.142 35.5298 141.833 35.5298C142.524 35.5298 143.08 35.0914 143.08 34.2504V31.969C143.08 31.1373 142.524 30.6984 141.833 30.6984C141.142 30.6984 140.577 31.1368 140.577 31.969Z" fill="white"/>
<path d="M149.324 36.3704C148.113 36.3704 147.225 35.592 147.225 34.3752V31.8526C147.225 30.6358 148.113 29.8574 149.324 29.8574C150.131 29.8574 150.588 30.0991 151.073 30.4568L150.678 31.1187C150.257 30.8594 149.952 30.6892 149.324 30.6892C148.633 30.6892 148.167 31.1725 148.167 31.9686V34.25C148.167 35.0729 148.642 35.5382 149.324 35.5382C149.952 35.5382 150.257 35.3679 150.678 35.1086L151.073 35.7706C150.588 36.1292 150.131 36.3704 149.324 36.3704Z" fill="white"/>
<path d="M159.094 36.2453H158.062L157.542 34.554C156.842 34.6704 156.143 34.6704 155.443 34.554L154.923 36.2453H153.9L156.044 29.9824H156.932L159.094 36.2453ZM157.318 33.8025L156.483 31.1008L155.658 33.8025C156.214 33.9101 156.761 33.9101 157.318 33.8025Z" fill="white"/>
<path d="M165.636 29.9824L163.735 33.9732V36.2453H162.793V33.9816L160.883 29.9824H161.914L163.269 33.0065L164.605 29.9824H165.636Z" fill="white"/>
<path d="M76.9166 44.7668V45.554H73.7324V45.0201C75.1322 43.6238 75.894 42.7276 75.894 42.1111C75.894 41.6936 75.6675 41.4468 75.235 41.4468C74.7755 41.4468 74.4528 41.5841 74.1026 41.7826L73.7594 41.1736C74.171 40.8859 74.6653 40.667 75.2689 40.667C76.3121 40.667 76.8129 41.2283 76.8129 42.0907C76.8129 42.8774 76.36 43.5756 75.1727 44.7668H76.9166Z" fill="white"/>
<path d="M79.3861 40.667C80.333 40.667 80.978 41.2487 80.978 42.2001V44.1169C80.978 45.0683 80.333 45.6505 79.3861 45.6505C78.4463 45.6505 77.8008 45.0683 77.8008 44.1169V42.2001C77.8008 41.2487 78.4458 40.667 79.3861 40.667ZM79.3861 44.8559C79.8117 44.8559 80.0791 44.5817 80.0791 44.0343V42.2822C80.0791 41.7414 79.8112 41.4607 79.3861 41.4607C78.9746 41.4607 78.6997 41.7409 78.6997 42.2822V44.0343C78.6997 44.5817 78.9741 44.8559 79.3861 44.8559Z" fill="white"/>
<path d="M85.0079 44.6434V45.554H81.7483V44.938C82.9835 43.7402 83.8276 42.741 83.8276 42.1524C83.8276 41.7692 83.6011 41.5702 83.2509 41.5702C82.8189 41.5702 82.4892 41.7075 82.1185 41.8916L81.7344 41.1801C82.1669 40.8855 82.6952 40.667 83.2988 40.667C84.3693 40.667 84.9111 41.2283 84.9111 42.1315C84.9111 42.8709 84.5544 43.5282 83.4425 44.6434H85.0079Z" fill="white"/>
<path d="M87.4926 40.667C88.4669 40.667 89.1324 41.2557 89.1324 42.214V44.103C89.1324 45.0609 88.4669 45.65 87.4926 45.65C86.5249 45.65 85.8594 45.0609 85.8594 44.103V42.214C85.8598 41.2557 86.5253 40.667 87.4926 40.667ZM87.4926 44.7329C87.8424 44.7329 88.0688 44.4931 88.0688 44.0209V42.2962C88.0688 41.8309 87.8424 41.5846 87.4926 41.5846C87.1564 41.5846 86.9229 41.8309 86.9229 42.2962V44.0209C86.9234 44.4931 87.1564 44.7329 87.4926 44.7329Z" fill="white"/>
<path d="M94.105 43.0488V43.952H91.916V43.0488H94.105Z" fill="white"/>
<path d="M100.212 44.6434V45.554H96.9529V44.938C98.1881 43.7402 99.0322 42.741 99.0322 42.1524C99.0322 41.7692 98.8062 41.5702 98.456 41.5702C98.0235 41.5702 97.6942 41.7075 97.3236 41.8916L96.9395 41.1801C97.3719 40.8855 97.8998 40.667 98.5039 40.667C99.5744 40.667 100.117 41.2283 100.117 42.1315C100.117 42.8709 99.7595 43.5282 98.648 44.6434H100.212Z" fill="white"/>
<path d="M102.696 40.667C103.67 40.667 104.336 41.2557 104.336 42.214V44.103C104.336 45.0609 103.67 45.65 102.696 45.65C101.728 45.65 101.062 45.0609 101.062 44.103V42.214C101.062 41.2557 101.728 40.667 102.696 40.667ZM102.696 44.7329C103.046 44.7329 103.272 44.4931 103.272 44.0209V42.2962C103.272 41.8309 103.046 41.5846 102.696 41.5846C102.36 41.5846 102.126 41.8309 102.126 42.2962V44.0209C102.127 44.4931 102.36 44.7329 102.696 44.7329Z" fill="white"/>
<path d="M107.661 44.7668V45.554H104.477V45.0201C105.877 43.6238 106.638 42.7276 106.638 42.1111C106.638 41.6936 106.412 41.4468 105.979 41.4468C105.52 41.4468 105.197 41.5841 104.847 41.7826L104.504 41.1736C104.916 40.8859 105.409 40.667 106.014 40.667C107.056 40.667 107.557 41.2283 107.557 42.0907C107.557 42.8774 107.104 43.5756 105.917 44.7668H107.661Z" fill="white"/>
<path d="M111.695 44.0822V44.1916C111.695 45.0271 111.132 45.6501 110.089 45.6501C109.485 45.6501 108.991 45.4655 108.572 45.1774L108.868 44.5275C109.224 44.7191 109.554 44.8629 110.006 44.8629C110.466 44.8629 110.747 44.5892 110.747 44.1439C110.747 43.6238 110.501 43.3775 110.02 43.3775H109.52V42.7072H110.062C110.501 42.7072 110.707 42.4535 110.7 42.0568C110.693 41.6871 110.501 41.4408 110.089 41.4408C109.623 41.4408 109.3 41.5368 108.936 41.701L108.689 41.0924C109.115 40.8322 109.547 40.668 110.151 40.668C111.16 40.668 111.599 41.2706 111.599 42.0234C111.599 42.3519 111.469 42.742 111.132 42.9953C111.475 43.1859 111.695 43.699 111.695 44.0822Z" fill="white"/>
<path d="M33.9121 50.2659L34.0009 49.6221H37.2465L37.1572 50.2659H35.8946L35.3119 54.414H34.5911L35.1743 50.2664L33.9121 50.2659Z" fill="white"/>
<path d="M39.1682 50.7861L39.1407 51.4156C38.7152 51.4156 38.2897 51.6207 38.0083 51.9287L37.6586 54.4133H36.9727L37.4735 50.8539H38.0637L38.0706 51.2783C38.3655 50.9847 38.784 50.7861 39.1682 50.7861Z" fill="white"/>
<path d="M41.5662 54.4137L41.5732 54.0644C41.3123 54.3042 40.9007 54.4819 40.4961 54.4819C39.8372 54.4819 39.4121 54.2217 39.4121 53.6195C39.4121 52.7024 39.9744 52.4288 40.8668 52.4288C41.1551 52.4288 41.4365 52.4631 41.7109 52.5248L41.7657 52.1277C41.8411 51.5803 41.649 51.3887 41.1342 51.3887C40.7022 51.3887 40.3315 51.5256 40.0776 51.6555L39.9265 51.1628C40.2487 50.9847 40.7501 50.7861 41.3123 50.7861C42.2043 50.7861 42.5819 51.2175 42.4652 52.059L42.1289 54.4137H41.5662ZM40.6812 53.9276C41.0379 53.9276 41.3676 53.7494 41.5732 53.4897L41.642 53.0035C41.3811 52.9492 41.1137 52.9214 40.8389 52.9214C40.345 52.9214 40.1185 53.0513 40.1185 53.5031C40.1185 53.8181 40.3445 53.9276 40.6812 53.9276Z" fill="white"/>
<path d="M46.5894 50.8545L44.8125 54.4139H44.1535L43.3848 50.8545H44.1051L44.613 53.5858L45.8686 50.8545H46.5894Z" fill="white"/>
<path d="M50.0059 52.2098L49.9167 52.8462H47.7277L47.7072 53.0105C47.6319 53.5991 47.8583 53.8867 48.3457 53.8867C48.7777 53.8867 49.1349 53.7494 49.4572 53.5718L49.6562 54.0505C49.2995 54.2903 48.8326 54.4819 48.2564 54.4819C47.3714 54.4819 46.898 53.9484 47.0213 53.0582L47.145 52.2098C47.2687 51.327 47.8928 50.7861 48.7782 50.7861C49.6627 50.7857 50.1292 51.327 50.0059 52.2098ZM48.695 51.3818C48.2076 51.3818 47.9058 51.6759 47.81 52.2645L47.796 52.3466H49.3056L49.3195 52.2645C49.4158 51.6824 49.1823 51.3818 48.695 51.3818Z" fill="white"/>
<path d="M51.5426 49.2803H52.229L51.5087 54.4136H50.8223L51.5426 49.2803Z" fill="white"/>
<path d="M58.0675 54.4135H57.4569L57.0383 52.5246L56.0706 54.4135H55.453L54.6777 49.6221H55.4255L55.9129 53.5646L56.8188 51.7235L56.3384 49.6221H56.9974L57.2443 50.9363L57.8754 49.6221H58.5274L57.4778 51.6687L57.8689 53.5646L59.4473 49.6221H60.1746L58.0675 54.4135Z" fill="white"/>
<path d="M63.1661 52.2098L63.0768 52.8462H60.8878L60.8674 53.0105C60.792 53.5991 61.0185 53.8867 61.5059 53.8867C61.9379 53.8867 62.2951 53.7494 62.6173 53.5718L62.8164 54.0505C62.4597 54.2903 61.9928 54.4819 61.4166 54.4819C60.5316 54.4819 60.0582 53.9484 60.1814 53.0582L60.3051 52.2098C60.4288 51.327 61.0529 50.7861 61.9384 50.7861C62.8229 50.7857 63.2893 51.327 63.1661 52.2098ZM61.8551 51.3818C61.3678 51.3818 61.0659 51.6759 60.9701 52.2645L60.9562 52.3466H62.4657L62.4797 52.2645C62.576 51.6824 62.3425 51.3818 61.8551 51.3818Z" fill="white"/>
<path d="M67.1153 52.2098L67.026 52.8462H64.837L64.8166 53.0105C64.7412 53.5991 64.9677 53.8867 65.4551 53.8867C65.8871 53.8867 66.2443 53.7494 66.5666 53.5718L66.7656 54.0505C66.4089 54.2903 65.942 54.4819 65.3658 54.4819C64.4808 54.4819 64.0074 53.9484 64.1306 53.0582L64.2543 52.2098C64.378 51.327 65.0021 50.7861 65.8876 50.7861C66.7726 50.7857 67.239 51.327 67.1153 52.2098ZM65.8048 51.3818C65.3174 51.3818 65.0156 51.6759 64.9198 52.2645L64.9059 52.3466H66.4154L66.4294 52.2645C66.5252 51.6824 66.2917 51.3818 65.8048 51.3818Z" fill="white"/>
<path d="M70.971 53.8946L70.8817 54.442C70.2028 54.545 69.914 54.4833 69.6326 53.7717L69.2759 52.8745L68.7681 53.3741L68.6239 54.4146H67.9375L68.6579 49.2812H69.3443L68.9053 52.4366L70.5111 50.8557H71.3417L69.8182 52.341L70.3604 53.6418C70.4976 53.9762 70.7655 53.9493 70.971 53.8946Z" fill="white"/>
<path d="M72.3239 49.2803H73.0103L72.2899 54.4136H71.6035L72.3239 49.2803Z" fill="white"/>
<path d="M75.1784 53.9352H75.1853L74.4166 55.4484H73.7097L74.3408 54.2711L73.5586 50.8555H74.279L74.8007 53.4634L76.0424 50.8555H76.7628L75.1784 53.9352Z" fill="white"/>
<path d="M82.3229 53.8866V54.4404C81.6574 54.5434 81.3142 54.4952 80.9505 53.7701L80.326 52.5585C80.0446 52.5585 79.7837 52.5381 79.5303 52.4629V54.4135H78.8164V49.6221H80.518C81.4514 49.6221 82.0415 50.2042 82.0415 50.9706V51.2169C82.0415 51.8056 81.6709 52.2982 81.0603 52.4764L81.6848 53.6333C81.8699 53.9752 82.1238 53.9408 82.3229 53.8866ZM79.5303 51.8265C79.8391 51.9086 80.1409 51.929 80.491 51.929C81.0333 51.929 81.3212 51.5801 81.3212 51.1278V51.0527C81.3212 50.5944 81.0328 50.2724 80.518 50.2724H79.5298V51.8265H79.5303Z" fill="white"/>
<path d="M83.7981 53.0105C83.7981 53.5991 84.0725 53.8867 84.5599 53.8867C84.9924 53.8867 85.3286 53.7494 85.6234 53.5718L85.8913 54.0505C85.5686 54.2903 85.1295 54.4819 84.5534 54.4819C83.6684 54.4819 83.1191 53.9484 83.1191 53.0582V52.2098C83.1191 51.327 83.6684 50.7861 84.5534 50.7861C85.4383 50.7861 85.9806 51.327 85.9806 52.2098V52.8462H83.7986L83.7981 53.0105ZM85.3012 52.3466V52.2645C85.3012 51.6824 85.0403 51.3818 84.5534 51.3818C84.0664 51.3818 83.7916 51.6759 83.7916 52.2645V52.3466H85.3012Z" fill="white"/>
<path d="M89.8034 52.0595V54.4142H89.2407L89.1928 54.0649C88.9663 54.3047 88.5822 54.4824 88.1771 54.4824C87.4498 54.4824 86.9629 54.1813 86.9629 53.4558C86.9629 52.6547 87.4707 52.4288 88.2599 52.4288C88.5482 52.4288 88.8361 52.4631 89.1175 52.5248V52.1277C89.1175 51.5803 88.891 51.3887 88.3766 51.3887C87.9441 51.3887 87.5944 51.5256 87.361 51.6555L87.1415 51.1628C87.4368 50.9847 87.9102 50.7861 88.4729 50.7861C89.3639 50.7861 89.8034 51.2175 89.8034 52.0595ZM89.117 53.4966V53.004C88.8426 52.9497 88.5747 52.9219 88.3004 52.9219C87.8748 52.9219 87.6553 53.0248 87.6553 53.4215C87.6553 53.8046 87.9162 53.928 88.2864 53.928C88.6436 53.928 88.9454 53.7499 89.117 53.4966Z" fill="white"/>
<path d="M93.7891 49.2803V54.4141H93.2468L93.1985 54.0857C92.958 54.3255 92.6153 54.4823 92.2037 54.4823C91.3801 54.4823 90.9551 53.9488 90.9551 53.0586V52.1554C90.9551 51.2727 91.3666 50.7865 92.1693 50.7865C92.4851 50.7865 92.7939 50.8348 93.1027 50.9711V49.2803H93.7891ZM93.1027 53.4627V51.5737C92.8348 51.4438 92.5604 51.4025 92.286 51.4025C91.8331 51.4025 91.6271 51.6762 91.6271 52.2375V52.9835C91.6271 53.5726 91.8191 53.8802 92.3065 53.8802C92.6772 53.8797 92.9446 53.7294 93.1027 53.4627Z" fill="white"/>
<path d="M95.6208 53.0105C95.6208 53.5991 95.8952 53.8867 96.3826 53.8867C96.8151 53.8867 97.1509 53.7494 97.4462 53.5718L97.7136 54.0505C97.3913 54.2903 96.9518 54.4819 96.3756 54.4819C95.4902 54.4819 94.9414 53.9484 94.9414 53.0582V52.2098C94.9414 51.327 95.4902 50.7861 96.3756 50.7861C97.2606 50.7861 97.8024 51.327 97.8024 52.2098V52.8462H95.6208V53.0105ZM97.1234 52.3466V52.2645C97.1234 51.6824 96.8625 51.3818 96.3761 51.3818C95.8887 51.3818 95.6139 51.6759 95.6139 52.2645V52.3466H97.1234Z" fill="white"/>
<path d="M99.62 51.9222V54.4137H98.9336V50.8543H99.5242L99.5926 51.2788C99.8465 50.9842 100.238 50.7861 100.622 50.7861L100.677 51.4156C100.251 51.4156 99.8669 51.6207 99.62 51.9222Z" fill="white"/>
<path d="M102.796 53.9141C103.283 53.9141 103.523 53.6882 103.523 53.4215C103.523 53.1 103.276 52.9901 102.748 52.9014C102.151 52.7985 101.575 52.6686 101.575 51.8127C101.575 51.2175 101.979 50.7861 102.851 50.7861C103.413 50.7861 103.784 50.9573 104.14 51.2106L103.879 51.6759C103.571 51.4912 103.283 51.3544 102.871 51.3544C102.418 51.3544 102.253 51.546 102.253 51.7993C102.253 52.1824 102.555 52.2372 103.029 52.3123C103.619 52.4083 104.195 52.5521 104.202 53.4011C104.209 54.0101 103.715 54.4824 102.822 54.4824C102.246 54.4824 101.786 54.2908 101.457 54.0579L101.718 53.5792C102.014 53.7703 102.363 53.9141 102.796 53.9141Z" fill="white"/>
<path d="M105.173 50.0881C105.036 50.0199 104.96 49.8831 104.96 49.7254C104.96 49.4243 105.166 49.2939 105.406 49.2939C105.653 49.2939 105.866 49.4238 105.866 49.7319C105.866 50.1016 105.66 50.5599 105.036 50.7589L104.871 50.4439C105.001 50.3613 105.152 50.2384 105.173 50.0881Z" fill="white"/>
<path d="M110.244 54.5094C109.318 54.5094 108.639 53.9138 108.639 52.9828V51.0526C108.639 50.1215 109.318 49.5264 110.244 49.5264C110.862 49.5264 111.212 49.711 111.582 49.9847L111.281 50.4912C110.958 50.2927 110.725 50.1628 110.244 50.1628C109.716 50.1628 109.36 50.5325 109.36 51.1416V52.8872C109.36 53.5167 109.723 53.8725 110.244 53.8725C110.724 53.8725 110.958 53.7426 111.281 53.5441L111.582 54.0506C111.212 54.3243 110.862 54.5094 110.244 54.5094Z" fill="white"/>
<path d="M115.348 52.0798V54.4136H114.668V52.1684C114.668 51.635 114.504 51.3951 114.037 51.3951C113.721 51.3951 113.42 51.6141 113.241 51.847V54.4136H112.555V49.2803H113.241V51.2035C113.488 50.9572 113.824 50.786 114.174 50.786C115.005 50.7856 115.348 51.2374 115.348 52.0798Z" fill="white"/>
<path d="M117.928 50.7852C118.813 50.7852 119.355 51.3191 119.355 52.2088V53.0573C119.355 53.9475 118.806 54.4809 117.928 54.4809C117.043 54.4809 116.494 53.9475 116.494 53.0573V52.2088C116.494 51.3196 117.043 50.7852 117.928 50.7852ZM117.928 53.8788C118.408 53.8788 118.676 53.5713 118.676 52.9821V52.284C118.676 51.6953 118.408 51.3873 117.928 51.3873C117.441 51.3873 117.174 51.6953 117.174 52.284V52.9821C117.174 53.5713 117.441 53.8788 117.928 53.8788Z" fill="white"/>
<path d="M120.844 50.2797C120.576 50.2797 120.391 50.1359 120.391 49.8552C120.391 49.5751 120.576 49.4238 120.844 49.4238C121.105 49.4238 121.297 49.5746 121.297 49.8552C121.297 50.1359 121.104 50.2797 120.844 50.2797ZM121.193 54.4138H120.507V50.8545H121.193V54.4138Z" fill="white"/>
<path d="M123.727 53.8793C124.159 53.8793 124.413 53.7494 124.708 53.5718L124.983 54.0505C124.66 54.2903 124.283 54.4819 123.706 54.4819C122.821 54.4819 122.279 53.941 122.279 53.0582V52.2098C122.279 51.327 122.821 50.7861 123.706 50.7861C124.297 50.7861 124.626 50.9643 124.983 51.224L124.701 51.6967C124.392 51.5052 124.18 51.3887 123.727 51.3887C123.226 51.3887 122.959 51.6967 122.959 52.2919V52.9766C122.958 53.5718 123.226 53.8793 123.727 53.8793Z" fill="white"/>
<path d="M126.609 53.0105C126.609 53.5991 126.884 53.8867 127.371 53.8867C127.803 53.8867 128.139 53.7494 128.434 53.5718L128.702 54.0505C128.38 54.2903 127.94 54.4819 127.364 54.4819C126.478 54.4819 125.93 53.9484 125.93 53.0582V52.2098C125.93 51.327 126.478 50.7861 127.364 50.7861C128.249 50.7861 128.791 51.327 128.791 52.2098V52.8462H126.609V53.0105ZM128.112 52.3466V52.2645C128.112 51.6824 127.851 51.3818 127.364 51.3818C126.877 51.3818 126.602 51.6759 126.602 52.2645V52.3466H128.112Z" fill="white"/>
<path d="M135.291 54.4135H134.502L134.104 53.1198C133.569 53.2088 133.034 53.2088 132.499 53.1198L132.101 54.4135H131.318L132.959 49.6221H133.638L135.291 54.4135ZM133.932 52.5445L133.294 50.4775L132.663 52.5445C133.089 52.6267 133.507 52.6267 133.932 52.5445Z" fill="white"/>
<path d="M140.176 50.8545L138.975 54.4139H138.317L137.843 52.8121L137.322 54.4139H136.67L135.469 50.8545H136.19L137.006 53.5858L137.555 51.8198L137.267 50.8545H137.994L138.66 53.5789L139.456 50.8545H140.176Z" fill="white"/>
<path d="M143.745 52.0595V54.4142H143.183L143.134 54.0649C142.908 54.3047 142.524 54.4824 142.119 54.4824C141.392 54.4824 140.904 54.1813 140.904 53.4558C140.904 52.6547 141.412 52.4288 142.201 52.4288C142.489 52.4288 142.778 52.4631 143.059 52.5248V52.1277C143.059 51.5803 142.833 51.3887 142.318 51.3887C141.885 51.3887 141.535 51.5256 141.302 51.6555L141.082 51.1628C141.377 50.9847 141.851 50.7861 142.413 50.7861C143.306 50.7861 143.745 51.2175 143.745 52.0595ZM143.059 53.4966V53.004C142.784 52.9497 142.517 52.9219 142.242 52.9219C141.817 52.9219 141.597 53.0248 141.597 53.4215C141.597 53.8046 141.858 53.928 142.228 53.928C142.586 53.928 142.887 53.7499 143.059 53.4966Z" fill="white"/>
<path d="M145.632 51.9222V54.4137H144.945V50.8543H145.536L145.604 51.2788C145.858 50.9842 146.249 50.7861 146.633 50.7861L146.688 51.4156C146.263 51.4156 145.879 51.6207 145.632 51.9222Z" fill="white"/>
<path d="M150.325 49.2803V54.4141H149.782L149.735 54.0857C149.494 54.3255 149.151 54.4823 148.739 54.4823C147.916 54.4823 147.49 53.9488 147.49 53.0586V52.1554C147.49 51.2727 147.902 50.7865 148.704 50.7865C149.02 50.7865 149.329 50.8348 149.638 50.9711V49.2803H150.325ZM149.639 53.4627V51.5737C149.371 51.4438 149.097 51.4025 148.822 51.4025C148.369 51.4025 148.164 51.6762 148.164 52.2375V52.9835C148.164 53.5726 148.356 53.8802 148.843 53.8802C149.213 53.8797 149.481 53.7294 149.639 53.4627Z" fill="white"/>
<path d="M152.712 53.9141C153.199 53.9141 153.439 53.6882 153.439 53.4215C153.439 53.1 153.192 52.9901 152.664 52.9014C152.067 52.7985 151.491 52.6686 151.491 51.8127C151.491 51.2175 151.895 50.7861 152.767 50.7861C153.33 50.7861 153.7 50.9573 154.056 51.2106L153.795 51.6759C153.487 51.4912 153.199 51.3544 152.787 51.3544C152.334 51.3544 152.169 51.546 152.169 51.7993C152.169 52.1824 152.471 52.2372 152.945 52.3123C153.535 52.4083 154.111 52.5521 154.118 53.4011C154.125 54.0101 153.631 54.4824 152.738 54.4824C152.162 54.4824 151.702 54.2908 151.373 54.0579L151.634 53.5792C151.93 53.7703 152.279 53.9141 152.712 53.9141Z" fill="white"/>
</svg>
