<svg width="185" height="61" viewBox="0 0 185 61" fill="none" xmlns="http://www.w3.org/2000/svg">
<mask id="mask0_127_4738" style="mask-type:luminance" maskUnits="userSpaceOnUse" x="14" y="3" width="157" height="55">
<path d="M170.539 3.44629H14.459V57.5539H170.539V3.44629Z" fill="white"/>
</mask>
<g mask="url(#mask0_127_4738)">
<path d="M34.8795 55.7694C30.8033 51.3068 27.7568 54.9284 21.6562 54.9674C21.6562 54.9674 25.9026 59.448 34.8795 55.7694Z" fill="white"/>
</g>
<path d="M30.4749 51.7985C27.1107 46.7788 23.5573 49.9063 17.5195 49.0365C17.5195 49.0365 21.0488 54.0994 30.4749 51.7985Z" fill="white"/>
<path d="M27.4871 47.9898C25.1363 42.8105 21.354 45.1689 15.8809 43.4326C15.8809 43.4326 18.3782 48.6773 27.4871 47.9898Z" fill="white"/>
<path d="M24.0679 43.5501C22.9411 38.4205 19.071 39.8247 14.4609 37.2061C14.4609 37.2061 15.7077 42.4229 24.0679 43.5501Z" fill="white"/>
<path d="M22.6114 38.6072C22.2361 33.8626 18.5873 34.6442 14.7734 31.7227C14.7734 31.7227 15.2455 36.5605 22.6114 38.6072Z" fill="white"/>
<path d="M22.0432 33.4137C21.9 28.6565 18.2177 29.2591 14.5508 26.1553C14.5508 26.1553 14.7861 31.0103 22.0432 33.4137Z" fill="white"/>
<path d="M21.686 28.9665C22.1148 24.4692 18.5753 24.6023 15.4897 21.2461C15.4897 21.2461 15.1367 25.846 21.686 28.9665Z" fill="white"/>
<path d="M21.9655 24.4174C23.0202 20.6484 19.982 20.2202 17.8656 16.8867C17.8656 16.8867 16.8592 20.7551 21.9655 24.4174Z" fill="white"/>
<path d="M23.3095 20.203C24.4196 16.6102 21.5121 16.1212 19.5654 12.8652C19.5654 12.8652 18.4995 16.5545 23.3095 20.203Z" fill="white"/>
<path d="M23.8428 16.7398C25.2128 13.8804 22.849 13.1141 21.6282 10.1582C21.6282 10.1582 20.2828 13.1034 23.8428 16.7398Z" fill="white"/>
<path d="M25.1284 14.1039C26.8249 11.7946 24.855 10.7184 24.2672 7.88965C24.2672 7.88965 22.5781 10.2791 25.1284 14.1039Z" fill="white"/>
<path d="M26.4963 11.1803C28.4518 9.58638 27.0106 8.23509 27.1343 5.69531C27.1343 5.69531 25.1672 7.35973 26.4963 11.1803Z" fill="white"/>
<path d="M28.8187 9.12191C30.9784 7.81747 29.7414 6.27783 30.2199 3.78027C30.2199 3.78027 28.0393 5.15291 28.8187 9.12191Z" fill="white"/>
<path d="M59.0572 20.0595H56.5176C56.2246 20.0595 56.127 19.9621 56.127 19.6698V6.80861C56.127 6.41895 56.3223 6.41895 56.5176 6.41895H59.0572C61.2062 6.41895 61.9875 7.82173 61.9875 10.0822C61.9875 11.2902 61.8508 11.9726 61.382 12.6545C61.3039 12.7714 61.2453 12.8493 61.2453 12.9078C61.2453 12.9662 61.2844 13.0442 61.382 13.2C61.8117 13.9603 61.9875 14.8371 61.9875 16.1624C61.9875 19.0853 61.0109 20.0595 59.0572 20.0595ZM60.0338 9.82897C60.0143 8.95176 59.9362 8.15295 59.0572 8.15295H58.4713C58.0806 8.15295 58.0806 8.15295 58.0806 8.54308V11.6608C58.0806 12.051 58.0806 12.051 58.4713 12.051H59.0572C59.8776 12.051 60.0143 11.3102 60.0338 10.5113V9.82897ZM59.0572 18.3255C60.0338 18.3255 60.0338 17.3314 60.0338 16.3377V15.7727C60.0338 14.7786 60.0338 13.785 59.0572 13.785H58.4713C58.0806 13.785 58.0806 13.785 58.0806 14.1552V17.9354C58.0806 18.3255 58.0806 18.3255 58.4713 18.3255H59.0572Z" fill="white"/>
<path d="M63.6074 19.6698V6.80861C63.6074 6.51636 63.7051 6.41895 63.9981 6.41895H68.1198C68.4128 6.41895 68.5104 6.51636 68.5104 6.80861V7.86116C68.5104 8.15341 68.4128 8.25129 68.1198 8.25129H65.9513C65.5606 8.25129 65.5606 8.25129 65.5606 8.64096V11.5639C65.5606 11.954 65.5606 11.954 65.9513 11.954H68.1198C68.4128 11.954 68.5104 12.0514 68.5104 12.3437V13.3962C68.5104 13.6885 68.4128 13.7859 68.1198 13.7859H65.9513C65.5606 13.7859 65.5606 13.7859 65.5606 14.1756V17.8389C65.5606 18.229 65.5606 18.229 65.9513 18.229H68.1198C68.4128 18.229 68.5104 18.3264 68.5104 18.6187V19.6712C68.5104 19.9635 68.4128 20.0609 68.1198 20.0609H63.9981C63.8027 20.0595 63.6074 20.0595 63.6074 19.6698Z" fill="white"/>
<path d="M70.2641 9.41968C70.2641 7.66619 71.2412 6.36035 73.1944 6.36035C75.2848 6.36035 76.1052 7.76314 76.1052 9.86825C76.1052 10.1605 76.0075 10.3164 75.7145 10.3164H74.5617C74.2687 10.3164 74.171 10.2189 74.171 9.9267C74.171 8.97156 74.0734 8.15327 73.194 8.15327C72.2174 8.15327 72.2173 9.10841 72.2173 9.49807C72.2173 10.4722 72.9205 11.5438 73.9362 12.6548C75.0695 13.8823 76.1047 15.344 76.1047 17.0589C76.1047 18.8124 75.1276 20.1183 73.1744 20.1183C71.084 20.1183 70.2637 18.7155 70.2637 16.6104C70.2637 16.3181 70.3613 16.1622 70.6543 16.1622H71.8072C72.1002 16.1622 72.1978 16.2597 72.1978 16.5519C72.1978 17.5071 72.2955 18.3253 73.1744 18.3253C74.1515 18.3253 74.1515 17.3702 74.1515 16.981C74.1515 16.0064 73.4483 14.8958 72.4322 13.7848C71.2993 12.5569 70.2641 11.1347 70.2641 9.41968Z" fill="white"/>
<path d="M77.3926 6.41895H82.4719C82.7649 6.41895 82.8625 6.51636 82.8625 6.80861V7.86116C82.8625 8.15341 82.7649 8.25129 82.4719 8.25129H81.2995C80.9088 8.25129 80.9088 8.25129 80.9088 8.64096V19.6703C80.9088 20.06 80.7135 20.06 80.5182 20.06H79.3458C79.1505 20.06 78.9552 20.06 78.9552 19.6703V8.64049C78.9552 8.25083 78.9552 8.25083 78.5841 8.25083H77.3926C77.002 8.25083 77.002 8.05553 77.002 7.8607V6.80815C77.002 6.61378 77.002 6.41895 77.3926 6.41895Z" fill="white"/>
<path d="M91.691 16.3376C91.691 17.3122 91.691 18.3253 92.6681 18.3253C93.6447 18.3253 93.6447 17.3312 93.6447 16.3376V15.7726C93.6447 15.4799 93.7424 15.3825 94.0358 15.3825H95.2082C95.5012 15.3825 95.5988 15.4799 95.5988 15.7726V16.2207C95.5988 19.1436 94.6218 20.1178 92.6686 20.1178C90.7149 20.1178 89.7383 19.1627 89.7383 16.2207V10.2575C89.7383 7.31503 90.7149 6.36035 92.6686 6.36035C94.6218 6.36035 95.5988 7.33497 95.5988 10.2575V10.7056C95.5988 10.9983 95.5012 11.0957 95.2082 11.0957H94.0358C93.7424 11.0957 93.6447 10.9983 93.6447 10.7056V10.1406C93.6447 9.14645 93.6447 8.1528 92.6681 8.1528C91.691 8.1528 91.691 9.16639 91.691 10.1406V16.3376Z" fill="white"/>
<path d="M102.004 14.4674L103.019 19.6508C103.078 19.9625 102.941 20.06 102.785 20.06H101.554C101.3 20.06 101.183 20.06 101.125 19.7677L100.187 14.9739H99.5616C99.1705 14.9739 99.1705 14.9739 99.1705 15.3636V19.6703C99.1705 20.06 98.9751 20.06 98.7798 20.06H97.6074C97.4121 20.06 97.2168 20.06 97.2168 19.6703V6.80861C97.2168 6.51636 97.3145 6.41895 97.6074 6.41895H100.147C102.101 6.41895 103.077 7.39357 103.077 10.316V11.0764C103.077 12.8493 102.707 13.9019 102.004 14.4674ZM99.1705 12.8493C99.1705 13.2395 99.1705 13.2395 99.5616 13.2395H100.148C101.125 13.2395 101.125 12.2453 101.125 11.2517V10.1407C101.125 9.14659 101.125 8.15295 100.148 8.15295H99.5616C99.1705 8.15295 99.1705 8.15295 99.1705 8.54308V12.8493Z" fill="white"/>
<path d="M108.997 6.41895H110.17C110.463 6.41895 110.56 6.51636 110.56 6.80861V16.1624C110.56 19.0853 109.583 20.0595 107.63 20.0595C105.676 20.0595 104.699 19.1044 104.699 16.1624V6.80861C104.699 6.51636 104.797 6.41895 105.09 6.41895H106.262C106.556 6.41895 106.653 6.51636 106.653 6.80861V16.3377C106.653 17.3124 106.653 18.3255 107.63 18.3255C108.607 18.3255 108.607 17.3314 108.607 16.3377V6.80861C108.606 6.51636 108.704 6.41895 108.997 6.41895Z" fill="white"/>
<path d="M112.18 19.6698V6.80861C112.18 6.51636 112.277 6.41895 112.57 6.41895H113.743C114.036 6.41895 114.133 6.51636 114.133 6.80861V19.6703C114.133 20.06 113.938 20.06 113.743 20.06H112.57C112.375 20.0595 112.18 20.0595 112.18 19.6698Z" fill="white"/>
<path d="M115.46 9.41968C115.46 7.66619 116.437 6.36035 118.391 6.36035C120.481 6.36035 121.301 7.76314 121.301 9.86825C121.301 10.1605 121.204 10.3164 120.911 10.3164H119.758C119.465 10.3164 119.367 10.2189 119.367 9.9267C119.367 8.97156 119.27 8.15327 118.39 8.15327C117.413 8.15327 117.413 9.10841 117.413 9.49807C117.413 10.4722 118.117 11.5438 119.132 12.6548C120.265 13.8823 121.3 15.344 121.3 17.0589C121.3 18.8124 120.323 20.1183 118.37 20.1183C116.28 20.1183 115.459 18.7155 115.459 16.6104C115.459 16.3181 115.557 16.1622 115.85 16.1622H117.003C117.296 16.1622 117.394 16.2597 117.394 16.5519C117.394 17.5071 117.491 18.3253 118.371 18.3253C119.348 18.3253 119.348 17.3702 119.348 16.981C119.348 16.0064 118.644 14.8958 117.628 13.7848C116.496 12.5569 115.46 11.1347 115.46 9.41968Z" fill="white"/>
<path d="M123.838 19.6698V6.80861C123.838 6.51636 123.936 6.41895 124.229 6.41895H128.351C128.644 6.41895 128.741 6.51636 128.741 6.80861V7.86116C128.741 8.15341 128.644 8.25129 128.351 8.25129H126.182C125.792 8.25129 125.792 8.25129 125.792 8.64096V11.5639C125.792 11.954 125.792 11.954 126.182 11.954H128.351C128.644 11.954 128.741 12.0514 128.741 12.3437V13.3962C128.741 13.6885 128.644 13.7859 128.351 13.7859H126.182C125.792 13.7859 125.792 13.7859 125.792 14.1756V17.8389C125.792 18.229 125.792 18.229 126.182 18.229H128.351C128.644 18.229 128.741 18.3264 128.741 18.6187V19.6712C128.741 19.9635 128.644 20.0609 128.351 20.0609H124.229C124.033 20.0595 123.838 20.0595 123.838 19.6698Z" fill="white"/>
<path d="M52.543 37.5331V24.6719C52.543 24.3796 52.6406 24.2822 52.9336 24.2822H54.1055C54.3985 24.2822 54.4962 24.3796 54.4962 24.6719V35.5648C54.4962 35.974 54.4962 35.974 54.9064 35.974H57.0553C57.3483 35.974 57.446 36.0719 57.446 36.3641V37.5336C57.446 37.8258 57.3483 37.9232 57.0553 37.9232H52.9336C52.6406 37.9228 52.543 37.8254 52.543 37.5331Z" fill="white"/>
<path d="M58.7734 37.5331V24.6719C58.7734 24.3796 58.8711 24.2822 59.1641 24.2822H60.336C60.629 24.2822 60.7266 24.3796 60.7266 24.6719V37.5331C60.7266 37.9228 60.5313 37.9228 60.336 37.9228H59.1641C58.9688 37.9228 58.7734 37.9228 58.7734 37.5331Z" fill="white"/>
<path d="M66.8405 37.689L64.4571 31.0049C64.4181 30.8685 64.3009 30.9074 64.3009 31.0049V37.5331C64.3009 37.8254 64.2032 37.9228 63.9102 37.9228H62.7383C62.4453 37.9228 62.3477 37.8254 62.3477 37.5331V24.6719C62.3477 24.3796 62.4453 24.2822 62.7383 24.2822H63.8126C64.0274 24.2822 64.1251 24.3212 64.2032 24.5355L66.5866 31.2976C66.6256 31.4145 66.7428 31.395 66.7428 31.2976V24.6719C66.7428 24.3796 66.8405 24.2822 67.1335 24.2822H68.3054C68.5984 24.2822 68.696 24.3796 68.696 24.6719V37.5331C68.696 37.8254 68.5984 37.9228 68.3054 37.9228H67.2311C67.0553 37.9228 66.9186 37.8838 66.8405 37.689Z" fill="white"/>
<path d="M70.3164 37.5331V24.6719C70.3164 24.3796 70.4141 24.2822 70.7071 24.2822H74.8288C75.1218 24.2822 75.2194 24.3796 75.2194 24.6719V25.7244C75.2194 26.0167 75.1218 26.1146 74.8288 26.1146H72.6603C72.2696 26.1146 72.2696 26.1146 72.2696 26.5042V29.4272C72.2696 29.8173 72.2696 29.8173 72.6603 29.8173H74.8288C75.1218 29.8173 75.2194 29.9147 75.2194 30.207V31.2595C75.2194 31.5518 75.1218 31.6492 74.8288 31.6492H72.6603C72.2696 31.6492 72.2696 31.6492 72.2696 32.0389V35.7022C72.2696 36.0923 72.2696 36.0923 72.6603 36.0923H74.8288C75.1218 36.0923 75.2194 36.1897 75.2194 36.4819V37.5345C75.2194 37.8268 75.1218 37.9242 74.8288 37.9242H70.7071C70.5113 37.9228 70.3164 37.9228 70.3164 37.5331Z" fill="white"/>
<path d="M85.565 37.9811C83.6114 37.9811 82.6348 37.0259 82.6348 34.084V28.1207C82.6348 25.1783 83.6114 24.2236 85.565 24.2236C87.5187 24.2236 88.4953 25.1983 88.4953 28.1207V34.0835C88.4953 37.0065 87.5187 37.9811 85.565 37.9811ZM85.565 26.0161C84.588 26.0161 84.588 27.0297 84.588 28.0038V34.2004C84.588 35.175 84.588 36.1882 85.565 36.1882C86.5416 36.1882 86.5416 35.1941 86.5416 34.2004V28.0038C86.5416 27.0102 86.5416 26.0161 85.565 26.0161Z" fill="white"/>
<path d="M95.9571 24.2822C96.1524 24.2822 96.3477 24.2822 96.2891 24.6134L93.8276 37.5725C93.769 37.8648 93.7104 37.9232 93.3979 37.9232H92.3427C92.0302 37.9232 91.9716 37.8648 91.913 37.5725L89.452 24.6134C89.3934 24.2822 89.5887 24.2822 89.784 24.2822H90.9564C91.2103 24.2822 91.3275 24.2822 91.3861 24.5745L92.7924 32.9731C92.812 33.0705 92.9292 33.0705 92.9487 32.9731L94.355 24.5745C94.4141 24.2822 94.5312 24.2822 94.7852 24.2822H95.9571Z" fill="white"/>
<path d="M98.457 37.5321V24.6709C98.457 24.3787 98.5552 24.2812 98.8481 24.2812H102.97C103.263 24.2812 103.361 24.3787 103.361 24.6709V25.7235C103.361 26.0157 103.263 26.1136 102.97 26.1136H100.801C100.411 26.1136 100.411 26.1136 100.411 26.5033V29.4262C100.411 29.8163 100.411 29.8163 100.801 29.8163H102.97C103.263 29.8163 103.361 29.9137 103.361 30.206V31.2586C103.361 31.5508 103.263 31.6482 102.97 31.6482H100.801C100.411 31.6482 100.411 31.6482 100.411 32.0379V35.7012C100.411 36.0913 100.411 36.0913 100.801 36.0913H102.97C103.263 36.0913 103.361 36.1887 103.361 36.481V37.5335C103.361 37.8258 103.263 37.9232 102.97 37.9232H98.8481C98.6524 37.9218 98.457 37.9218 98.457 37.5321Z" fill="white"/>
<path d="M109.768 32.3292L110.783 37.5126C110.842 37.8244 110.705 37.9218 110.549 37.9218H109.318C109.064 37.9218 108.947 37.9218 108.889 37.6296L107.951 32.8358H107.325C106.935 32.8358 106.935 32.8358 106.935 33.2254V37.5321C106.935 37.9218 106.739 37.9218 106.544 37.9218H105.372C105.176 37.9218 104.98 37.9218 104.98 37.5321V24.6709C104.98 24.3787 105.079 24.2812 105.372 24.2812H107.911C109.864 24.2812 110.841 25.2559 110.841 28.1783V28.9387C110.842 30.7116 110.471 31.7642 109.768 32.3292ZM106.935 30.7116C106.935 31.1018 106.935 31.1018 107.325 31.1018H107.912C108.889 31.1018 108.889 30.1076 108.889 29.114V28.003C108.889 27.0089 108.889 26.0153 107.912 26.0153H107.325C106.935 26.0153 106.935 26.0153 106.935 26.4054V30.7116Z" fill="white"/>
<path d="M117.325 37.9223C117.071 37.9223 116.954 37.9223 116.895 37.63L116.719 36.5775C116.641 36.1878 116.641 36.1878 116.289 36.1878H114.551C114.16 36.1878 114.18 36.1878 114.101 36.5775L113.926 37.63C113.867 37.9223 113.75 37.9223 113.495 37.9223H112.324C112.128 37.9223 111.932 37.9223 111.991 37.591L114.453 24.6319C114.512 24.3397 114.57 24.2812 114.882 24.2812H115.938C116.25 24.2812 116.309 24.3397 116.368 24.6319L118.829 37.591C118.888 37.9223 118.692 37.9223 118.497 37.9223H117.325ZM114.531 33.9667C114.473 34.3564 114.473 34.3564 114.864 34.3564H115.957C116.348 34.3564 116.348 34.3564 116.29 33.9667L115.489 29.2314C115.469 29.134 115.352 29.134 115.332 29.2314L114.531 33.9667Z" fill="white"/>
<path d="M120.176 37.5321V24.6709C120.176 24.3787 120.273 24.2812 120.566 24.2812H121.739C122.032 24.2812 122.13 24.3787 122.13 24.6709V35.5639C122.13 35.973 122.13 35.973 122.54 35.973H124.689C124.982 35.973 125.08 36.0709 125.08 36.3631V37.5326C125.08 37.8248 124.982 37.9223 124.689 37.9223H120.567C120.273 37.9218 120.176 37.8244 120.176 37.5321Z" fill="white"/>
<path d="M127.715 37.5331V24.6719C127.715 24.3796 127.813 24.2822 128.106 24.2822H129.278C129.571 24.2822 129.669 24.3796 129.669 24.6719V35.5648C129.669 35.974 129.669 35.974 130.08 35.974H132.228C132.521 35.974 132.619 36.0719 132.619 36.3641V37.5336C132.619 37.8258 132.521 37.9232 132.228 37.9232H128.106C127.813 37.9228 127.715 37.8254 127.715 37.5331Z" fill="white"/>
<path d="M43.9402 46.699V47.4324H40.3672V46.9203C42.2009 45.0592 42.9836 44.1523 42.9836 43.4031C42.9836 42.891 42.7069 42.5278 42.106 42.5278C41.5447 42.5278 41.181 42.7013 40.8015 42.9379L40.4616 42.3784C40.9122 42.0472 41.434 41.8027 42.1297 41.8027C43.2835 41.8027 43.8216 42.4415 43.8216 43.3795C43.8216 44.3574 43.1496 45.2169 41.6791 46.699H43.9402Z" fill="white"/>
<path d="M49.7114 46.6911V47.4324H47.4034V46.6911H48.2098V42.8905L47.5299 43.34L47.1504 42.749L48.3284 41.9131H49.0241V46.6916L49.7114 46.6911Z" fill="white"/>
<path d="M61.5378 41.9126L59.8617 45.4293V47.4319H59.0316V45.4367L57.3477 41.9121H58.2568L59.4501 44.5771L60.6281 41.9121L61.5378 41.9126Z" fill="white"/>
<path d="M68.0435 46.6901V47.4314H64.8184V41.9121H67.9881V42.6608H65.6401V44.2538H67.6008V44.9872H65.6401V46.6906L68.0435 46.6901Z" fill="white"/>
<path d="M76.1048 47.4324H75.1957L74.7371 45.9419C74.1205 46.0445 73.5038 46.0445 72.8871 45.9419L72.4286 47.4324H71.5273L73.4164 41.9131H74.1991L76.1048 47.4324ZM74.5399 45.2795L73.8047 42.8979L73.0774 45.2795C73.5675 45.3741 74.0493 45.3741 74.5399 45.2795Z" fill="white"/>
<path d="M83.4266 46.8252V47.4639C82.6597 47.5822 82.2644 47.527 81.8454 46.6911L81.126 45.2953C80.8019 45.2953 80.5014 45.2716 80.2089 45.1849V47.4324H79.3867V41.9131H81.3469C82.4221 41.9131 83.102 42.5829 83.102 43.4666V43.7501C83.102 44.4283 82.6751 44.9961 81.9715 45.2011L82.6909 46.5339C82.9048 46.9277 83.1973 46.8883 83.4266 46.8252ZM80.2094 44.4515C80.5652 44.5461 80.913 44.5702 81.3162 44.5702C81.9408 44.5702 82.2728 44.168 82.2728 43.6476V43.5608C82.2728 43.032 81.9408 42.6618 81.3478 42.6618H80.2094V44.4515Z" fill="white"/>
<path d="M88.7207 46.7941C89.448 46.7941 89.867 46.4392 89.867 45.9345C89.867 45.3588 89.4797 45.1065 88.7523 44.996C87.8352 44.8625 87.1395 44.4445 87.1395 43.3483C87.1395 42.4493 87.7483 41.8105 88.8551 41.8105C89.5587 41.8105 90.0252 42.0235 90.4832 42.3547L90.1275 42.954C89.7401 42.7174 89.3843 42.5523 88.8625 42.5523C88.2222 42.5523 87.9375 42.8835 87.9375 43.3247C87.9375 43.9477 88.3328 44.129 88.989 44.2395C89.827 44.3735 90.6804 44.7205 90.6804 45.8723C90.6804 46.8265 90.0242 47.5442 88.7435 47.5442C88.0166 47.5442 87.3916 47.2997 86.9805 46.9921L87.3204 46.3775C87.7008 46.6048 88.1831 46.7941 88.7207 46.7941Z" fill="white"/>
<path d="M102.841 46.8252V47.4639C102.074 47.5822 101.679 47.527 101.26 46.6911L100.541 45.2953C100.216 45.2953 99.9155 45.2716 99.623 45.1849V47.4324H98.8008V41.9131H100.761C101.837 41.9131 102.517 42.5829 102.517 43.4666V43.7501C102.517 44.4283 102.09 44.9961 101.386 45.2011L102.105 46.5339C102.318 46.9277 102.611 46.8883 102.841 46.8252ZM99.623 44.4515C99.9792 44.5461 100.327 44.5702 100.73 44.5702C101.354 44.5702 101.687 44.168 101.687 43.6476V43.5608C101.687 43.032 101.354 42.6618 100.762 42.6618H99.6235L99.623 44.4515Z" fill="white"/>
<path d="M109.789 41.9131L109.782 47.4324H109.031L108.96 46.975C108.675 47.2826 108.217 47.5433 107.655 47.5433C106.596 47.5433 106.09 46.9991 106.09 45.8951V41.9131H106.92V45.7847C106.92 46.5097 107.189 46.8177 107.813 46.8177C108.311 46.8177 108.754 46.5023 108.96 46.1873V41.9135L109.789 41.9131Z" fill="white"/>
<path d="M117.45 41.9131V47.4324H116.667L114.398 43.5608L114.422 47.4324H113.607V41.9131H114.382L116.651 45.8004L116.635 41.9131H117.45Z" fill="white"/>
<path d="M124.557 41.9131V47.4324H123.774L121.505 43.5608L121.529 47.4324H120.715V41.9131H121.49L123.759 45.8004L123.742 41.9131H124.557Z" fill="white"/>
<path d="M128.644 41.9131V47.4324H127.822V41.9131H128.644Z" fill="white"/>
<path d="M135.752 41.9121V47.4314H134.969L132.7 43.5598L132.724 47.4314H131.91V41.9121H132.684L134.953 45.7995L134.938 41.9121H135.752Z" fill="white"/>
<path d="M142.708 44.4668V47.5108H142.091L141.957 46.9824C141.625 47.2979 141.167 47.5423 140.614 47.5423C139.577 47.5423 138.977 46.872 138.977 45.7921V43.5603C138.977 42.4878 139.767 41.8018 140.858 41.8018C141.672 41.8018 142.147 42.0305 142.582 42.3617L142.234 42.9452C141.854 42.7008 141.514 42.5352 140.858 42.5352C140.242 42.5352 139.807 42.9452 139.807 43.6629V45.6817C139.807 46.4067 140.17 46.8094 140.771 46.8094C141.198 46.8094 141.617 46.6122 141.885 46.2495V45.177H140.794V44.4672L142.708 44.4668Z" fill="white"/>
<path d="M39.6094 51.8955L39.688 51.3281H42.5476L42.469 51.8955H41.3566L40.8427 55.5499H40.2079L40.7218 51.8955H39.6094Z" fill="white"/>
<path d="M44.0362 52.3535L44.012 52.9083C43.6372 52.9083 43.2623 53.0892 43.0145 53.3611L42.7061 55.5501H42.1016L42.5429 52.4143H43.0628L43.0689 52.7882C43.3288 52.5284 43.6976 52.3535 44.0362 52.3535Z" fill="white"/>
<path d="M46.3573 55.5501L46.3634 55.2426C46.1336 55.4537 45.7709 55.6105 45.4142 55.6105C44.8338 55.6105 44.459 55.3813 44.459 54.8506C44.459 54.0425 44.9547 53.8008 45.7407 53.8008C45.9946 53.8008 46.2425 53.831 46.4843 53.8857L46.5326 53.536C46.5991 53.0535 46.4299 52.8847 45.9764 52.8847C45.5956 52.8847 45.2691 53.0053 45.0454 53.1199L44.9124 52.6857C45.1966 52.5284 45.6379 52.3535 46.1336 52.3535C46.9196 52.3535 47.2521 52.7334 47.1493 53.4752L46.8531 55.5501H46.3573ZM45.5774 55.122C45.8918 55.122 46.182 54.9652 46.3634 54.736L46.4238 54.3079C46.1941 54.2596 45.9583 54.2355 45.7165 54.2355C45.2812 54.2355 45.0817 54.3501 45.0817 54.7476C45.0817 55.0255 45.2812 55.122 45.5774 55.122Z" fill="white"/>
<path d="M50.5284 52.4141L48.9626 55.5499H48.3822L47.7051 52.4141H48.3399L48.7873 54.8202L49.8936 52.4141H50.5284Z" fill="white"/>
<path d="M53.1704 53.6083L53.0918 54.1692H51.1632L51.1451 54.3139C51.0786 54.8325 51.2781 55.0858 51.7073 55.0858C52.0882 55.0858 52.4026 54.9652 52.6867 54.8084L52.862 55.2301C52.5477 55.4411 52.1366 55.61 51.6287 55.61C50.8488 55.61 50.4317 55.1396 50.5405 54.3556L50.6493 53.6079C50.7582 52.8299 51.3083 52.3535 52.0882 52.3535C52.8681 52.354 53.2792 52.8309 53.1704 53.6083ZM52.0156 52.8791C51.5864 52.8791 51.3204 53.1384 51.2358 53.657L51.2237 53.7294H52.5537L52.5658 53.657C52.6504 53.144 52.4449 52.8791 52.0156 52.8791Z" fill="white"/>
<path d="M54.2715 51.0273H54.8761L54.2413 55.5502H53.6367L54.2715 51.0273Z" fill="white"/>
<path d="M60.8987 55.5499H60.3606L59.9918 53.8855L59.1394 55.5499H58.5953L57.9121 51.3281H58.5711L59.0003 54.8017L59.7984 53.1795L59.3752 51.3281H59.9555L60.1732 52.486L60.7294 51.3281H61.3037L60.3787 53.1317L60.7233 54.8022L62.1138 51.3286H62.7547L60.8987 55.5499Z" fill="white"/>
<path d="M65.2094 53.6073L65.1308 54.1682H63.2023L63.1841 54.3129C63.1176 54.8315 63.3171 55.0848 63.7464 55.0848C64.1273 55.0848 64.4416 54.9642 64.7258 54.8074L64.9011 55.2291C64.5867 55.4402 64.1756 55.609 63.6678 55.609C62.8879 55.609 62.4707 55.1386 62.5796 54.3547L62.6884 53.6069C62.7972 52.8289 63.3474 52.3525 64.1273 52.3525C64.9067 52.353 65.3182 52.8299 65.2094 53.6073ZM64.0542 52.8781C63.625 52.8781 63.359 53.1374 63.2744 53.6561L63.2623 53.7284H64.5923L64.6044 53.6561C64.6895 53.143 64.4835 52.8781 64.0542 52.8781Z" fill="white"/>
<path d="M68.8696 53.6083L68.791 54.1692H66.8624L66.8443 54.3139C66.7778 54.8325 66.9773 55.0858 67.4065 55.0858C67.7874 55.0858 68.1018 54.9652 68.3859 54.8084L68.5613 55.2301C68.2469 55.4411 67.8358 55.61 67.3279 55.61C66.5481 55.61 66.1309 55.1396 66.2397 54.3556L66.3486 53.6079C66.4574 52.8299 67.0075 52.3535 67.7874 52.3535C68.5668 52.354 68.9784 52.8309 68.8696 53.6083ZM67.7144 52.8791C67.2852 52.8791 67.0192 53.1384 66.9345 53.657L66.9224 53.7294H68.2525L68.2646 53.657C68.3497 53.144 68.1436 52.8791 67.7144 52.8791Z" fill="white"/>
<path d="M72.0081 55.0914L71.9295 55.5739C71.331 55.6643 71.0771 55.6101 70.8292 54.9834L70.5148 54.1934L70.0675 54.6331L69.9405 55.5502H69.3359L69.9707 51.0273H70.5753L70.1884 53.8074L71.6031 52.4144H72.3346L70.9924 53.7225L71.4701 54.8688C71.5905 55.1638 71.8267 55.1397 72.0081 55.0914Z" fill="white"/>
<path d="M72.9375 51.0273H73.5421L72.9073 55.5502H72.3027L72.9375 51.0273Z" fill="white"/>
<path d="M75.1924 55.1283H75.1984L74.5213 56.461H73.8986L74.4548 55.4238L73.7656 52.415H74.4004L74.8599 54.7127L75.9541 52.415H76.5889L75.1924 55.1283Z" fill="white"/>
<path d="M82.271 55.0856V55.5741C81.6845 55.6645 81.3823 55.6223 81.0618 54.9835L80.5117 53.9157C80.2638 53.9157 80.0341 53.8976 79.8104 53.8312V55.5499H79.1816V51.3281H80.681C81.5036 51.3281 82.0231 51.8407 82.0231 52.5166V52.7337C82.0231 53.2523 81.6966 53.6865 81.1586 53.8438L81.7087 54.8625C81.872 55.164 82.0956 55.1338 82.271 55.0856ZM79.8099 53.2704C80.082 53.3428 80.348 53.3609 80.6563 53.3609C81.1339 53.3609 81.3878 53.0533 81.3878 52.6553V52.589C81.3878 52.1849 81.1339 51.9015 80.6805 51.9015H79.8099V53.2704Z" fill="white"/>
<path d="M83.2431 54.3139C83.2431 54.8325 83.4849 55.0858 83.9141 55.0858C84.295 55.0858 84.5912 54.9652 84.8512 54.8084L85.087 55.2301C84.8028 55.4411 84.4159 55.61 83.9081 55.61C83.1282 55.61 82.6445 55.1396 82.6445 54.3556V53.6079C82.6445 52.8299 83.1282 52.3535 83.9081 52.3535C84.688 52.3535 85.1656 52.8299 85.1656 53.6079V54.1687H83.2431V54.3139ZM84.5675 53.7289V53.6566C84.5675 53.144 84.3378 52.8786 83.9085 52.8786C83.4793 52.8786 83.2375 53.1379 83.2375 53.6566V53.7289H84.5675Z" fill="white"/>
<path d="M88.8564 53.4757V55.5507H88.3607L88.3184 55.2431C88.1188 55.4542 87.7803 55.611 87.4236 55.611C86.7828 55.611 86.3535 55.3456 86.3535 54.7064C86.3535 54.0008 86.8009 53.8018 87.4961 53.8018C87.7501 53.8018 88.004 53.832 88.2518 53.8867V53.5369C88.2518 53.0545 88.0523 52.8856 87.5989 52.8856C87.218 52.8856 86.9097 53.0063 86.7042 53.1208L86.5107 52.6866C86.7707 52.5294 87.1878 52.3545 87.6836 52.3545C88.4695 52.354 88.8564 52.7344 88.8564 53.4757ZM88.2518 54.7426V54.3084C88.01 54.2601 87.7742 54.236 87.5324 54.236C87.1576 54.236 86.9641 54.3265 86.9641 54.6762C86.9641 55.0139 87.1939 55.1225 87.5203 55.1225C87.8352 55.1225 88.1007 54.9657 88.2518 54.7426Z" fill="white"/>
<path d="M92.1082 51.0273V55.5502H91.6306L91.5883 55.2608C91.3767 55.4718 91.0744 55.6105 90.7116 55.6105C89.9857 55.6105 89.6113 55.1402 89.6113 54.3562V53.5602C89.6113 52.7822 89.9741 52.3536 90.6814 52.3536C90.9595 52.3536 91.2316 52.3963 91.5036 52.5169V51.0273H92.1082ZM91.5036 54.712V53.0471C91.2678 52.9325 91.026 52.8963 90.7842 52.8963C90.3852 52.8963 90.2038 53.138 90.2038 53.6325V54.2898C90.2038 54.8085 90.3731 55.0798 90.8023 55.0798C91.1288 55.0798 91.3646 54.9472 91.5036 54.712Z" fill="white"/>
<path d="M93.4633 54.3139C93.4633 54.8325 93.7056 55.0858 94.1344 55.0858C94.5152 55.0858 94.8115 54.9652 95.0719 54.8084L95.3077 55.2301C95.0235 55.4411 94.6366 55.61 94.1288 55.61C93.3489 55.61 92.8652 55.1396 92.8652 54.3556V53.6079C92.8652 52.8299 93.3494 52.3535 94.1288 52.3535C94.9082 52.3535 95.3863 52.8299 95.3863 53.6079V54.1687H93.4633V54.3139ZM94.7873 53.7289V53.6566C94.7873 53.144 94.5576 52.8786 94.1283 52.8786C93.6991 52.8786 93.4572 53.1379 93.4572 53.6566V53.7289H94.7873Z" fill="white"/>
<path d="M97.5074 53.355V55.5501H96.9023V52.4143H97.4227L97.4827 52.7882C97.7064 52.5284 98.0515 52.3535 98.39 52.3535L98.4384 52.9083C98.0631 52.9088 97.725 53.0892 97.5074 53.355Z" fill="white"/>
<path d="M99.8781 55.1095C100.308 55.1095 100.519 54.9105 100.519 54.6753C100.519 54.3918 100.301 54.2953 99.8358 54.2169C99.3098 54.1265 98.802 54.0119 98.802 53.2581C98.802 52.7334 99.1587 52.3535 99.9265 52.3535C100.422 52.3535 100.749 52.5043 101.063 52.7279L100.833 53.1379C100.561 52.9751 100.307 52.8545 99.9446 52.8545C99.5456 52.8545 99.4001 53.0234 99.4001 53.247C99.4001 53.5847 99.6661 53.6329 100.084 53.6992C100.604 53.7837 101.111 53.9103 101.118 54.6581C101.124 55.1948 100.688 55.6109 99.9028 55.6109C99.3949 55.6109 98.9899 55.4421 98.6992 55.237L98.929 54.8149C99.1889 54.9828 99.4972 55.1095 99.8781 55.1095Z" fill="white"/>
<path d="M102.4 51.7381C102.279 51.6778 102.213 51.5572 102.213 51.419C102.213 51.1536 102.395 51.0391 102.606 51.0391C102.824 51.0391 103.011 51.1536 103.011 51.425C103.011 51.7507 102.83 52.1547 102.28 52.3296L102.135 52.0522C102.25 51.9798 102.382 51.8708 102.4 51.7381Z" fill="white"/>
<path d="M106.349 55.6349C105.532 55.6349 104.934 55.1102 104.934 54.2905V52.5899C104.934 51.7693 105.532 51.2451 106.349 51.2451C106.893 51.2451 107.201 51.4079 107.527 51.6492L107.262 52.0954C106.977 51.9205 106.771 51.806 106.349 51.806C105.883 51.806 105.568 52.1316 105.568 52.6683V54.2056C105.568 54.7604 105.889 55.074 106.349 55.074C106.771 55.074 106.977 54.9594 107.262 54.7846L107.527 55.2308C107.201 55.472 106.893 55.6349 106.349 55.6349Z" fill="white"/>
<path d="M110.586 53.4934V55.5502H109.988V53.5722C109.988 53.1014 109.842 52.8903 109.431 52.8903C109.153 52.8903 108.887 53.0833 108.73 53.2883V55.5498H108.125V51.0273H108.73V52.7215C108.948 52.5044 109.244 52.3536 109.552 52.3536C110.284 52.3536 110.586 52.7521 110.586 53.4934Z" fill="white"/>
<path d="M112.599 52.3535C113.379 52.3535 113.857 52.8244 113.857 53.6079V54.3556C113.857 55.1396 113.373 55.61 112.599 55.61C111.819 55.61 111.336 55.1396 111.336 54.3556V53.6079C111.336 52.8244 111.819 52.3535 112.599 52.3535ZM112.599 55.0798C113.023 55.0798 113.258 54.8084 113.258 54.2898V53.6747C113.258 53.156 113.023 52.8847 112.599 52.8847C112.17 52.8847 111.934 53.156 111.934 53.6747V54.2898C111.934 54.8084 112.17 55.0798 112.599 55.0798Z" fill="white"/>
<path d="M114.908 51.9071C114.673 51.9071 114.51 51.781 114.51 51.5332C114.51 51.2855 114.673 51.1533 114.908 51.1533C115.138 51.1533 115.307 51.286 115.307 51.5332C115.307 51.7805 115.138 51.9071 114.908 51.9071ZM115.217 55.55H114.612V52.4142H115.217V55.55Z" fill="white"/>
<path d="M118.748 55.0798C119.129 55.0798 119.353 54.9652 119.612 54.8084L119.855 55.2301C119.571 55.4411 119.238 55.61 118.73 55.61C117.95 55.61 117.473 55.1336 117.473 54.3556V53.6079C117.473 52.8299 117.95 52.3535 118.73 52.3535C119.25 52.3535 119.54 52.5103 119.855 52.7395L119.607 53.1556C119.335 52.9867 119.148 52.8842 118.748 52.8842C118.307 52.8842 118.071 53.1556 118.071 53.6802V54.2833C118.071 54.8084 118.306 55.0798 118.748 55.0798Z" fill="white"/>
<path d="M121.118 54.3139C121.118 54.8325 121.36 55.0858 121.789 55.0858C122.17 55.0858 122.466 54.9652 122.726 54.8084L122.962 55.2301C122.678 55.4411 122.291 55.61 121.784 55.61C121.003 55.61 120.52 55.1396 120.52 54.3556V53.6079C120.52 52.8299 121.003 52.3535 121.784 52.3535C122.563 52.3535 123.041 52.8299 123.041 53.6079V54.1687H121.118V54.3139ZM122.442 53.7289V53.6566C122.442 53.144 122.212 52.8786 121.784 52.8786C121.354 52.8786 121.112 53.1379 121.112 53.6566V53.7289H122.442Z" fill="white"/>
<path d="M128.942 55.5499H128.247L127.896 54.4102C127.424 54.4886 126.953 54.4886 126.481 54.4102L126.131 55.5499H125.441L126.886 51.3281H127.485L128.942 55.5499ZM127.745 53.9036L127.182 52.0819L126.626 53.9036C127.001 53.9755 127.37 53.9755 127.745 53.9036Z" fill="white"/>
<path d="M132.908 52.4141L131.85 55.5499H131.27L130.853 54.1388L130.394 55.5499H129.819L128.762 52.4141H129.396L130.116 54.8202L130.599 53.2644L130.346 52.4141H130.986L131.573 54.8142L132.274 52.4141H132.908Z" fill="white"/>
<path d="M136.39 53.4757V55.5507H135.894L135.852 55.2431C135.652 55.4542 135.314 55.611 134.957 55.611C134.316 55.611 133.887 55.3456 133.887 54.7064C133.887 54.0008 134.334 53.8018 135.029 53.8018C135.283 53.8018 135.537 53.832 135.785 53.8867V53.5369C135.785 53.0545 135.585 52.8856 135.132 52.8856C134.752 52.8856 134.443 53.0063 134.237 53.1208L134.044 52.6866C134.304 52.5294 134.721 52.3545 135.216 52.3545C136.003 52.354 136.39 52.7344 136.39 53.4757ZM135.785 54.7426V54.3084C135.543 54.2601 135.307 54.236 135.066 54.236C134.69 54.236 134.497 54.3265 134.497 54.6762C134.497 55.0139 134.727 55.1225 135.053 55.1225C135.368 55.1225 135.634 54.9657 135.785 54.7426Z" fill="white"/>
<path d="M137.775 53.355V55.5501H137.17V52.4143H137.69L137.75 52.7882C137.974 52.5284 138.319 52.3535 138.657 52.3535L138.706 52.9083C138.331 52.9088 137.992 53.0892 137.775 53.355Z" fill="white"/>
<path d="M141.505 51.0273V55.5502H141.027L140.985 55.2608C140.773 55.4718 140.471 55.6105 140.108 55.6105C139.382 55.6105 139.008 55.1402 139.008 54.3562V53.5602C139.008 52.7822 139.371 52.3536 140.078 52.3536C140.356 52.3536 140.628 52.3963 140.901 52.5169V51.0273H141.505ZM140.9 54.712V53.0471C140.664 52.9325 140.422 52.8963 140.181 52.8963C139.782 52.8963 139.6 53.138 139.6 53.6325V54.2898C139.6 54.8085 139.769 55.0798 140.199 55.0798C140.525 55.0798 140.762 54.9472 140.9 54.712Z" fill="white"/>
<path d="M143.331 55.1095C143.76 55.1095 143.972 54.9105 143.972 54.6753C143.972 54.3918 143.754 54.2953 143.289 54.2169C142.763 54.1265 142.255 54.0119 142.255 53.2581C142.255 52.7334 142.611 52.3535 143.38 52.3535C143.875 52.3535 144.202 52.5043 144.516 52.7279L144.286 53.1379C144.014 52.9751 143.76 52.8545 143.398 52.8545C142.998 52.8545 142.853 53.0234 142.853 53.247C142.853 53.5847 143.119 53.6329 143.537 53.6992C144.056 53.7837 144.564 53.9103 144.571 54.6581C144.577 55.1948 144.141 55.6109 143.355 55.6109C142.848 55.6109 142.443 55.4421 142.152 55.237L142.382 54.8149C142.642 54.9828 142.95 55.1095 143.331 55.1095Z" fill="white"/>
<mask id="mask1_127_4738" style="mask-type:luminance" maskUnits="userSpaceOnUse" x="14" y="3" width="157" height="55">
<path d="M170.539 3.44629H14.459V57.5539H170.539V3.44629Z" fill="white"/>
</mask>
<g mask="url(#mask1_127_4738)">
<path d="M150.117 55.7694C154.193 51.3068 157.24 54.9284 163.34 54.9674C163.34 54.9674 159.095 59.448 150.117 55.7694Z" fill="white"/>
</g>
<path d="M154.523 51.7985C157.888 46.7788 161.441 49.9063 167.479 49.0365C167.479 49.0365 163.949 54.0994 154.523 51.7985Z" fill="white"/>
<path d="M157.512 47.9898C159.863 42.8105 163.645 45.1689 169.118 43.4326C169.118 43.4326 166.621 48.6773 157.512 47.9898Z" fill="white"/>
<path d="M160.93 43.5496C162.057 38.42 165.927 39.8242 170.537 37.2051C170.537 37.2051 169.29 42.4224 160.93 43.5496Z" fill="white"/>
<path d="M162.387 38.6072C162.762 33.8626 166.411 34.6442 170.225 31.7227C170.225 31.7227 169.753 36.5605 162.387 38.6072Z" fill="white"/>
<path d="M162.955 33.4137C163.098 28.6565 166.781 29.2591 170.447 26.1553C170.447 26.1553 170.212 31.0103 162.955 33.4137Z" fill="white"/>
<path d="M163.313 28.9665C162.884 24.4692 166.424 24.6023 169.509 21.2461C169.509 21.2461 169.862 25.846 163.313 28.9665Z" fill="white"/>
<path d="M163.033 24.4174C161.977 20.6484 165.016 20.2202 167.133 16.8867C167.133 16.8867 168.139 20.7551 163.033 24.4174Z" fill="white"/>
<path d="M161.688 20.203C160.579 16.6102 163.486 16.1212 165.433 12.8652C165.433 12.8652 166.499 16.5545 161.688 20.203Z" fill="white"/>
<path d="M161.157 16.7398C159.787 13.8804 162.15 13.1141 163.371 10.1582C163.371 10.1582 164.717 13.1034 161.157 16.7398Z" fill="white"/>
<path d="M159.869 14.1039C158.173 11.7946 160.143 10.7184 160.731 7.88965C160.731 7.88965 162.42 10.2791 159.869 14.1039Z" fill="white"/>
<path d="M158.501 11.1803C156.546 9.58638 157.987 8.23509 157.863 5.69531C157.863 5.69531 159.83 7.35973 158.501 11.1803Z" fill="white"/>
<path d="M156.181 9.12191C154.021 7.81747 155.258 6.27783 154.779 3.78027C154.779 3.78027 156.96 5.15291 156.181 9.12191Z" fill="white"/>
</svg>
