<svg width="205" height="41" viewBox="0 0 205 41" fill="none" xmlns="http://www.w3.org/2000/svg">
<path d="M19.3112 3.65881C19.6854 2.50717 21.3146 2.50718 21.6888 3.65881L24.8219 13.3014C24.9892 13.8165 25.4692 14.1652 26.0107 14.1652H36.1496C37.3605 14.1652 37.8639 15.7147 36.8843 16.4264L28.6818 22.3859C28.2437 22.7042 28.0604 23.2684 28.2277 23.7834L31.3608 33.426C31.735 34.5777 30.4169 35.5353 29.4372 34.8236L21.2347 28.8641C20.7966 28.5458 20.2034 28.5458 19.7653 28.8641L11.5628 34.8236C10.5831 35.5353 9.26503 34.5777 9.63922 33.426L12.7723 23.7834C12.9396 23.2684 12.7563 22.7042 12.3182 22.3859L4.11571 16.4264C3.13607 15.7147 3.63954 14.1652 4.85045 14.1652H14.9893C15.5308 14.1652 16.0108 13.8165 16.1781 13.3014L19.3112 3.65881Z" fill="#E69335"/>
<path d="M60.3112 3.65881C60.6854 2.50717 62.3146 2.50718 62.6888 3.65881L65.8219 13.3014C65.9892 13.8165 66.4692 14.1652 67.0107 14.1652H77.1496C78.3605 14.1652 78.8639 15.7147 77.8843 16.4264L69.6818 22.3859C69.2437 22.7042 69.0604 23.2684 69.2277 23.7834L72.3608 33.426C72.735 34.5777 71.4169 35.5353 70.4372 34.8236L62.2347 28.8641C61.7966 28.5458 61.2034 28.5458 60.7653 28.8641L52.5628 34.8236C51.5831 35.5353 50.265 34.5777 50.6392 33.426L53.7723 23.7834C53.9396 23.2684 53.7563 22.7042 53.3182 22.3859L45.1157 16.4264C44.1361 15.7147 44.6395 14.1652 45.8504 14.1652H55.9893C56.5308 14.1652 57.0108 13.8165 57.1781 13.3014L60.3112 3.65881Z" fill="#E69335"/>
<path d="M101.311 3.65881C101.685 2.50717 103.315 2.50718 103.689 3.65881L106.822 13.3014C106.989 13.8165 107.469 14.1652 108.011 14.1652H118.15C119.36 14.1652 119.864 15.7147 118.884 16.4264L110.682 22.3859C110.244 22.7042 110.06 23.2684 110.228 23.7834L113.361 33.426C113.735 34.5777 112.417 35.5353 111.437 34.8236L103.235 28.8641C102.797 28.5458 102.203 28.5458 101.765 28.8641L93.5628 34.8236C92.5831 35.5353 91.265 34.5777 91.6392 33.426L94.7723 23.7834C94.9396 23.2684 94.7563 22.7042 94.3182 22.3859L86.1157 16.4264C85.1361 15.7147 85.6395 14.1652 86.8504 14.1652H96.9893C97.5308 14.1652 98.0108 13.8165 98.1781 13.3014L101.311 3.65881Z" fill="#E69335"/>
<path d="M142.311 3.65881C142.685 2.50717 144.315 2.50718 144.689 3.65881L147.822 13.3014C147.989 13.8165 148.469 14.1652 149.011 14.1652H159.15C160.36 14.1652 160.864 15.7147 159.884 16.4264L151.682 22.3859C151.244 22.7042 151.06 23.2684 151.228 23.7834L154.361 33.426C154.735 34.5777 153.417 35.5353 152.437 34.8236L144.235 28.8641C143.797 28.5458 143.203 28.5458 142.765 28.8641L134.563 34.8236C133.583 35.5353 132.265 34.5777 132.639 33.426L135.772 23.7834C135.94 23.2684 135.756 22.7042 135.318 22.3859L127.116 16.4264C126.136 15.7147 126.64 14.1652 127.85 14.1652H137.989C138.531 14.1652 139.011 13.8165 139.178 13.3014L142.311 3.65881Z" fill="#E69335"/>
<path d="M183.311 3.65881C183.685 2.50717 185.315 2.50718 185.689 3.65881L188.822 13.3014C188.989 13.8165 189.469 14.1652 190.011 14.1652H200.15C201.36 14.1652 201.864 15.7147 200.884 16.4264L192.682 22.3859C192.244 22.7042 192.06 23.2684 192.228 23.7834L195.361 33.426C195.735 34.5777 194.417 35.5353 193.437 34.8236L185.235 28.8641C184.797 28.5458 184.203 28.5458 183.765 28.8641L175.563 34.8236C174.583 35.5353 173.265 34.5777 173.639 33.426L176.772 23.7834C176.94 23.2684 176.756 22.7042 176.318 22.3859L168.116 16.4264C167.136 15.7147 167.64 14.1652 168.85 14.1652H178.989C179.531 14.1652 180.011 13.8165 180.178 13.3014L183.311 3.65881Z" fill="url(#paint0_linear_127_4463)"/>
<defs>
<linearGradient id="paint0_linear_127_4463" x1="168" y1="41" x2="187" y2="41" gradientUnits="userSpaceOnUse">
<stop offset="0.585" stop-color="#E69335"/>
<stop offset="0.9999" stop-color="#E69335"/>
<stop offset="1" stop-color="#D6D6D6"/>
</linearGradient>
</defs>
</svg>
