<svg width="18" height="18" viewBox="0 0 18 18" fill="none" xmlns="http://www.w3.org/2000/svg">
<g clip-path="url(#clip0_22_604)">
<path d="M8.99969 16.215C8.88921 16.2147 8.78196 16.1777 8.69469 16.11C5.91469 13.95 3.99969 12.09 2.65969 10.255C0.94969 7.91 0.559689 5.745 1.49969 3.82C2.16969 2.445 4.09469 1.32 6.34469 1.975C7.41746 2.28487 8.35343 2.9494 8.99969 3.86C9.64595 2.9494 10.5819 2.28487 11.6547 1.975C13.8997 1.33 15.8297 2.445 16.4997 3.82C17.4397 5.745 17.0497 7.91 15.3397 10.255C13.9997 12.09 12.0847 13.95 9.30469 16.11C9.21741 16.1777 9.11016 16.2147 8.99969 16.215ZM5.06469 2.79C4.52932 2.76917 3.99838 2.89453 3.52886 3.15263C3.05935 3.41073 2.66899 3.79182 2.39969 4.255C1.62469 5.84501 1.97469 7.615 3.46969 9.66C5.05847 11.7093 6.9189 13.5327 8.99969 15.08C11.0802 13.5342 12.9406 11.7125 14.5297 9.665C16.0297 7.615 16.3747 5.84501 15.5997 4.26C15.0997 3.26 13.5997 2.465 11.9297 2.935C11.3942 3.09326 10.8978 3.36186 10.4724 3.72354C10.047 4.08522 9.70202 4.53196 9.45969 5.035C9.42202 5.12671 9.35794 5.20515 9.27559 5.26035C9.19323 5.31555 9.09633 5.34502 8.99719 5.34502C8.89805 5.34502 8.80115 5.31555 8.71879 5.26035C8.63644 5.20515 8.57236 5.12671 8.53469 5.035C8.29418 4.5307 7.9498 4.08292 7.52413 3.72101C7.09847 3.35911 6.60112 3.09125 6.06469 2.935C5.73968 2.84061 5.40313 2.79181 5.06469 2.79Z" fill="white"/>
</g>
<defs>
<clipPath id="clip0_22_604">
<rect width="18" height="18" fill="white"/>
</clipPath>
</defs>
</svg>

