<svg width="18" height="18" viewBox="0 0 18 18" fill="none" xmlns="http://www.w3.org/2000/svg">
<path d="M8.07719 13.725C6.96022 13.725 5.86833 13.3938 4.93961 12.7732C4.01088 12.1527 3.28703 11.2706 2.85958 10.2387C2.43213 9.20675 2.3203 8.07123 2.53821 6.97572C2.75612 5.88021 3.29399 4.87393 4.0838 4.08411C4.87362 3.29429 5.87991 2.75642 6.97542 2.53851C8.07092 2.3206 9.20645 2.43244 10.2384 2.85989C11.2703 3.28733 12.1524 4.01119 12.7729 4.93991C13.3935 5.86864 13.7247 6.96053 13.7247 8.0775C13.7247 8.81914 13.5786 9.55351 13.2948 10.2387C13.011 10.9239 12.595 11.5465 12.0706 12.0709C11.5462 12.5953 10.9236 13.0113 10.2384 13.2951C9.55321 13.5789 8.81883 13.725 8.07719 13.725ZM8.07719 3.5625C7.18717 3.5625 6.31714 3.82642 5.57712 4.32088C4.8371 4.81535 4.26033 5.51815 3.91973 6.34042C3.57914 7.16269 3.49002 8.06749 3.66366 8.9404C3.83729 9.81332 4.26587 10.6151 4.89521 11.2445C5.52455 11.8738 6.32637 12.3024 7.19928 12.476C8.0722 12.6497 8.977 12.5605 9.79926 12.22C10.6215 11.8794 11.3243 11.3026 11.8188 10.5626C12.3133 9.82254 12.5772 8.95251 12.5772 8.06249C12.5772 6.86902 12.1031 5.72443 11.2592 4.88051C10.4153 4.0366 9.27066 3.5625 8.07719 3.5625Z" fill="white"/>
<path d="M16.3322 17C16.2444 17.0004 16.1574 16.9833 16.0763 16.9496C15.9952 16.916 15.9216 16.8664 15.8599 16.804L12.1794 13.1239C12.0613 12.9972 11.997 12.8296 12.0001 12.6565C12.0032 12.4834 12.0733 12.3182 12.1958 12.1957C12.3182 12.0733 12.4834 12.0032 12.6566 12.0001C12.8297 11.997 12.9973 12.0613 13.124 12.1794L16.8045 15.8594C16.9297 15.9847 17 16.1546 17 16.3317C17 16.5088 16.9297 16.6787 16.8045 16.804C16.7428 16.8664 16.6693 16.916 16.5882 16.9496C16.507 16.9833 16.42 17.0004 16.3322 17Z" fill="white"/>
</svg>
