<svg width="390" height="24" viewBox="0 0 390 24" fill="none" xmlns="http://www.w3.org/2000/svg">
<path d="M66 11.9999C66 6.47705 61.5229 1.9999 56 1.9999C50.4771 1.9999 46 6.47705 46 11.9999C46 16.9912 49.6569 21.1282 54.4375 21.8784V14.8905H51.8984V11.9999H54.4375V9.79678C54.4375 7.29053 55.9304 5.90615 58.2146 5.90615C59.3087 5.90615 60.4531 6.10146 60.4531 6.10146V8.5624H59.1921C57.9499 8.5624 57.5625 9.33324 57.5625 10.1241V11.9999H60.3359L59.8926 14.8905H57.5625V21.8784C62.3431 21.1282 66 16.9912 66 11.9999Z" fill="white"/>
<path d="M102.051 2L110.16 13.0326L102 22H103.838L110.979 14.1466L116.751 22H123L114.437 10.3485L122.03 2H120.196L113.617 9.23127L108.303 2H102.051ZM104.753 3.37459H107.625L120.301 20.6221H117.43L104.753 3.37459Z" fill="white"/>
<path fill-rule="evenodd" clip-rule="evenodd" d="M175.595 4.7598C176.542 5.01334 177.286 5.75766 177.54 6.70481C177.998 8.41982 178 12.0002 178 12.0002C178 12.0002 178 15.5805 177.54 17.2955C177.286 18.2427 176.542 18.987 175.595 19.2405C173.88 19.7005 167 19.7005 167 19.7005C167 19.7005 160.12 19.7005 158.405 19.2405C157.458 18.987 156.714 18.2427 156.46 17.2955C156 15.5805 156 12.0002 156 12.0002C156 12.0002 156 8.41982 156.46 6.70481C156.714 5.75766 157.458 5.01334 158.405 4.7598C160.12 4.2998 167 4.2998 167 4.2998C167 4.2998 173.88 4.2998 175.595 4.7598ZM170.513 12.0005L164.798 15.3001V8.70081L170.513 12.0005Z" fill="white"/>
<path fill-rule="evenodd" clip-rule="evenodd" d="M222 2C219.284 2 218.944 2.01133 217.877 2.06C216.813 2.10867 216.085 2.278 215.449 2.52533C214.783 2.776 214.178 3.16933 213.678 3.67867C213.169 4.17809 212.776 4.78233 212.525 5.44933C212.279 6.08533 212.109 6.81333 212.06 7.878C212.012 8.944 212 9.28333 212 12C212 14.7167 212.011 15.056 212.06 16.1227C212.109 17.1873 212.278 17.9147 212.525 18.5507C212.776 19.2173 213.169 19.822 213.679 20.322C214.178 20.8305 214.782 21.2241 215.449 21.4753C216.085 21.722 216.813 21.8913 217.877 21.94C218.944 21.9887 219.284 22 222 22C224.716 22 225.056 21.9887 226.123 21.94C227.187 21.8913 227.915 21.722 228.551 21.4747C229.217 21.224 229.822 20.8307 230.322 20.3213C230.831 19.8219 231.224 19.2177 231.475 18.5507C231.722 17.9147 231.891 17.1873 231.94 16.1227C231.989 15.056 232 14.716 232 12C232 9.284 231.989 8.944 231.94 7.87733C231.891 6.81267 231.722 6.08533 231.475 5.44933C231.224 4.78204 230.83 4.17755 230.321 3.678C229.822 3.16948 229.218 2.77591 228.551 2.52467C227.915 2.27867 227.187 2.10867 226.122 2.06C225.056 2.012 224.717 2 222 2ZM222 3.802C224.67 3.802 224.987 3.812 226.041 3.86C227.016 3.90467 227.545 4.06667 227.898 4.20467C228.365 4.38533 228.698 4.60267 229.048 4.952C229.398 5.302 229.615 5.63533 229.795 6.102C229.933 6.45467 230.095 6.984 230.14 7.95867C230.188 9.01333 230.198 9.33 230.198 12C230.198 14.67 230.188 14.9867 230.14 16.0413C230.095 17.016 229.933 17.5453 229.795 17.898C229.635 18.3324 229.38 18.7253 229.048 19.048C228.725 19.38 228.332 19.6354 227.898 19.7953C227.545 19.9327 227.016 20.0953 226.041 20.14C224.987 20.188 224.671 20.198 222 20.198C219.329 20.198 219.013 20.188 217.959 20.14C216.984 20.0953 216.455 19.9333 216.102 19.7953C215.668 19.6353 215.275 19.3799 214.952 19.048C214.62 18.7253 214.365 18.3323 214.205 17.898C214.067 17.5453 213.905 17.016 213.86 16.0413C213.812 14.9867 213.802 14.67 213.802 12C213.802 9.33 213.812 9.01333 213.86 7.95867C213.905 6.984 214.067 6.45467 214.205 6.102C214.385 5.63533 214.603 5.302 214.952 4.952C215.275 4.62003 215.668 4.36465 216.102 4.20467C216.455 4.06733 216.984 3.90467 217.959 3.86C219.013 3.812 219.33 3.802 222 3.802Z" fill="black"/>
<path fill-rule="evenodd" clip-rule="evenodd" d="M222 15.3367C221.562 15.3367 221.128 15.2504 220.723 15.0827C220.318 14.915 219.95 14.6692 219.641 14.3594C219.331 14.0495 219.085 13.6817 218.917 13.2769C218.75 12.8721 218.663 12.4382 218.663 12C218.663 11.5618 218.75 11.1279 218.917 10.7231C219.085 10.3183 219.331 9.95046 219.641 9.64062C219.95 9.33078 220.318 9.08501 220.723 8.91732C221.128 8.74964 221.562 8.66333 222 8.66333C222.885 8.66333 223.734 9.01487 224.359 9.64062C224.985 10.2664 225.337 11.1151 225.337 12C225.337 12.8849 224.985 13.7336 224.359 14.3594C223.734 14.9851 222.885 15.3367 222 15.3367ZM222 6.86C220.637 6.86 219.329 7.40153 218.365 8.36547C217.402 9.32941 216.86 10.6368 216.86 12C216.86 13.3632 217.402 14.6706 218.365 15.6345C219.329 16.5985 220.637 17.14 222 17.14C223.363 17.14 224.671 16.5985 225.635 15.6345C226.598 14.6706 227.14 13.3632 227.14 12C227.14 10.6368 226.598 9.32941 225.635 8.36547C224.671 7.40153 223.363 6.86 222 6.86ZM228.635 6.76667C228.635 7.0889 228.507 7.39794 228.279 7.6258C228.052 7.85366 227.743 7.98167 227.42 7.98167C227.098 7.98167 226.789 7.85366 226.561 7.6258C226.333 7.39794 226.205 7.0889 226.205 6.76667C226.205 6.44443 226.333 6.13539 226.561 5.90753C226.789 5.67968 227.098 5.55167 227.42 5.55167C227.743 5.55167 228.052 5.67968 228.279 5.90753C228.507 6.13539 228.635 6.44443 228.635 6.76667Z" fill="black"/>
<path d="M226.064 3.36052L226.064 3.36052C227.093 3.40766 227.676 3.58086 228.079 3.73873C228.61 3.94433 229.002 4.19981 229.401 4.59811L229.402 4.59845C229.801 4.998 230.056 5.39028 230.261 5.92079M226.064 3.36052L229.795 6.102M226.064 3.36052C224.998 3.31199 224.672 3.302 222 3.302C219.328 3.302 219.002 3.31199 217.936 3.36052L217.936 3.36052M226.064 3.36052L217.936 3.36052M230.261 5.92079C230.261 5.92102 230.262 5.92125 230.262 5.92148L229.795 6.102M230.261 5.92079C230.261 5.92072 230.261 5.92064 230.261 5.92056L229.795 6.102M230.261 5.92079C230.418 6.32353 230.592 6.90635 230.639 7.93578L230.639 7.93593C230.688 9.00218 230.698 9.32793 230.698 12C230.698 14.6721 230.688 14.9978 230.639 16.0641L230.639 16.0642C230.592 17.0895 230.42 17.6721 230.263 18.0756M229.795 6.102C229.933 6.45467 230.095 6.984 230.14 7.95867C230.188 9.01333 230.198 9.33 230.198 12C230.198 14.67 230.188 14.9867 230.14 16.0413C230.095 17.016 229.933 17.5453 229.795 17.898M230.263 18.0756C230.263 18.074 230.264 18.0725 230.264 18.0709L229.795 17.898M230.263 18.0756C230.262 18.0772 230.262 18.0787 230.261 18.0802L229.795 17.898M230.263 18.0756C230.078 18.576 229.783 19.0289 229.402 19.4015M229.795 17.898C229.635 18.3324 229.38 18.7253 229.048 19.048M229.048 19.048L229.407 19.3965C229.405 19.3982 229.403 19.3999 229.402 19.4015M229.048 19.048C228.725 19.38 228.332 19.6354 227.898 19.7953M229.048 19.048L229.397 19.4065C229.398 19.4049 229.4 19.4032 229.402 19.4015M229.402 19.4015C229.029 19.7836 228.576 20.0778 228.075 20.2629M227.898 19.7953L228.079 20.2613C228.078 20.2618 228.077 20.2624 228.075 20.2629M227.898 19.7953C227.545 19.9327 227.016 20.0953 226.041 20.14L216.102 19.7953M227.898 19.7953L228.071 20.2645C228.072 20.264 228.074 20.2635 228.075 20.2629M228.075 20.2629C227.673 20.4193 227.09 20.5925 226.064 20.6395L226.064 20.6395C224.998 20.688 224.673 20.698 222 20.698C219.327 20.698 219.002 20.688 217.936 20.6395L217.936 20.6395C216.91 20.5925 216.328 20.4202 215.924 20.2627M215.924 20.2627C215.926 20.2633 215.928 20.2639 215.929 20.2645L216.102 19.7953M215.924 20.2627C215.923 20.2621 215.921 20.2615 215.92 20.261L216.102 19.7953M215.924 20.2627L216.102 19.7953M217.936 3.36052C216.91 3.40754 216.327 3.58069 215.925 3.7371C215.423 3.92264 214.969 4.21782 214.596 4.60112C214.199 4.99939 213.944 5.39088 213.739 5.92064L217.936 3.36052ZM222 2.5C219.286 2.5 218.955 2.51134 217.9 2.55948L222 2.5ZM222 2.5C224.714 2.5 225.045 2.51199 226.099 2.55948L222 2.5ZM212.991 18.3694C212.766 17.7901 212.606 17.1171 212.559 16.0999L217.9 21.4405C216.883 21.394 216.21 21.234 215.63 21.0091L215.626 21.0074C215.027 20.7818 214.484 20.4283 214.035 19.9716L214.035 19.9716L214.029 19.9652C213.572 19.5162 213.218 18.9733 212.993 18.3747L212.993 18.3747L212.991 18.3694ZM228.369 21.0087C227.79 21.234 227.117 21.394 226.1 21.4405L231.441 16.0999C231.394 17.117 231.234 17.7902 231.009 18.3699L231.007 18.3744C230.782 18.9734 230.428 19.5161 229.972 19.9646L229.972 19.9645L229.965 19.9711C229.516 20.4284 228.973 20.7816 228.375 21.0067L228.375 21.0066L228.369 21.0087ZM231.009 5.63056C231.234 6.20994 231.394 6.88294 231.441 7.90012L226.099 2.55949C227.116 2.60598 227.79 2.76662 228.37 2.991L228.37 2.99102L228.374 2.99257C228.973 3.2182 229.516 3.57166 229.965 4.02835L229.965 4.02841L229.971 4.03474C230.428 4.48334 230.781 5.02617 231.007 5.6254L231.007 5.62541L231.009 5.63056ZM215.631 2.99134C216.21 2.76602 216.883 2.60598 217.9 2.55948L212.559 7.90049C212.606 6.88376 212.767 6.20977 212.991 5.62971L212.991 5.62971L212.993 5.62558C213.218 5.02656 213.572 4.48391 214.028 4.0354L214.028 4.03546L214.035 4.02894C214.484 3.57159 215.027 3.21842 215.625 2.99334L215.625 2.99337L215.631 2.99134ZM214.598 19.4016C214.6 19.4032 214.602 19.4049 214.603 19.4065L214.952 19.048L214.593 19.3965C214.595 19.3982 214.597 19.3999 214.598 19.4016ZM213.737 18.0753C213.738 18.0767 213.738 18.078 213.739 18.0794L214.205 17.898L213.736 18.0709C213.736 18.0724 213.737 18.0738 213.737 18.0753ZM212.5 12C212.5 9.28612 212.512 8.95539 212.559 7.90065L212.559 16.0998C212.511 15.0447 212.5 14.7143 212.5 12ZM222 21.5C219.286 21.5 218.955 21.4887 217.9 21.4405H226.1C225.045 21.4887 224.714 21.5 222 21.5ZM231.5 12C231.5 14.7136 231.489 15.0447 231.441 16.0998V7.90017C231.489 8.95535 231.5 9.28641 231.5 12ZM220.532 15.5446C220.997 15.7374 221.496 15.8367 222 15.8367C223.018 15.8367 223.993 15.4324 224.713 14.7129C225.432 13.9934 225.837 13.0175 225.837 12C225.837 10.9825 225.432 10.0066 224.713 9.28707C223.993 8.56755 223.018 8.16333 222 8.16333C221.496 8.16333 220.997 8.26257 220.532 8.45538C220.066 8.64819 219.643 8.9308 219.287 9.28707C218.931 9.64333 218.648 10.0663 218.455 10.5318C218.263 10.9973 218.163 11.4962 218.163 12C218.163 12.5038 218.263 13.0027 218.455 13.4682C218.648 13.9337 218.931 14.3567 219.287 14.7129C219.643 15.0692 220.066 15.3518 220.532 15.5446ZM218.719 8.71902C219.589 7.84886 220.769 7.36 222 7.36C223.231 7.36 224.411 7.84886 225.281 8.71902C226.151 9.58919 226.64 10.7694 226.64 12C226.64 13.2306 226.151 14.4108 225.281 15.281C224.411 16.1511 223.231 16.64 222 16.64C220.769 16.64 219.589 16.1511 218.719 15.281C217.849 14.4108 217.36 13.2306 217.36 12C217.36 10.7694 217.849 9.58919 218.719 8.71902ZM228.135 6.76667C228.135 6.9563 228.06 7.13816 227.926 7.27225C227.792 7.40634 227.61 7.48167 227.42 7.48167C227.231 7.48167 227.049 7.40634 226.915 7.27225C226.781 7.13816 226.705 6.9563 226.705 6.76667C226.705 6.57704 226.781 6.39517 226.915 6.26109C227.049 6.127 227.231 6.05167 227.42 6.05167C227.61 6.05167 227.792 6.127 227.926 6.26109C228.06 6.39517 228.135 6.57703 228.135 6.76667Z" stroke="white"/>
<path d="M282.822 5.1344C282.089 4.29394 281.648 3.19805 281.648 2H280.729C280.966 3.3095 281.745 4.43326 282.822 5.1344Z" fill="white"/>
<path d="M274.322 11.9048C272.73 11.9048 271.436 13.2004 271.436 14.7931C271.436 15.903 272.067 16.8688 272.986 17.3517C272.642 16.8781 272.438 16.2977 272.438 15.6661C272.438 14.0734 273.733 12.7778 275.324 12.7778C275.621 12.7778 275.909 12.8288 276.178 12.9124V9.40192C275.899 9.36473 275.616 9.34149 275.324 9.34149C275.273 9.34149 275.227 9.34614 275.175 9.34614V12.0394C274.902 11.9558 274.619 11.9048 274.322 11.9048Z" fill="white"/>
<path d="M285.425 6.67608V9.34614C283.643 9.34614 281.991 8.77501 280.646 7.80911V14.7977C280.646 18.2851 277.811 21.127 274.322 21.127C272.976 21.127 271.723 20.6998 270.698 19.98C271.853 21.2198 273.5 22 275.324 22C278.808 22 281.648 19.1627 281.648 15.6707V8.68211C282.993 9.64801 284.645 10.2191 286.427 10.2191V6.78293C286.079 6.78293 285.745 6.74574 285.425 6.67608Z" fill="white"/>
<path d="M280.646 14.7977V7.80911C281.991 8.77501 283.643 9.34614 285.425 9.34614V6.67608C284.394 6.45788 283.49 5.90063 282.822 5.1344C281.745 4.43326 280.97 3.3095 280.724 2H278.21L278.205 15.7775C278.149 17.3192 276.878 18.5591 275.324 18.5591C274.359 18.5591 273.51 18.0808 272.981 17.3564C272.062 16.8688 271.431 15.9076 271.431 14.7977C271.431 13.205 272.726 11.9094 274.317 11.9094C274.614 11.9094 274.902 11.9605 275.171 12.0441V9.35079C271.756 9.42509 269 12.2298 269 15.6707C269 17.3331 269.645 18.847 270.698 19.98C271.723 20.6998 272.976 21.127 274.322 21.127C277.806 21.127 280.646 18.2851 280.646 14.7977Z" fill="white"/>
<path d="M324 12C324 16.2692 326.676 19.9142 330.442 21.3483C330.35 20.5675 330.252 19.28 330.462 18.3767C330.643 17.6 331.63 13.4283 331.63 13.4283C331.63 13.4283 331.332 12.8325 331.332 11.95C331.332 10.5667 332.134 9.53333 333.133 9.53333C333.983 9.53333 334.393 10.1708 334.393 10.935C334.393 11.7892 333.849 13.0658 333.568 14.25C333.334 15.2408 334.066 16.0492 335.043 16.0492C336.812 16.0492 338.172 14.1833 338.172 11.49C338.172 9.10583 336.459 7.44 334.013 7.44C331.182 7.44 329.519 9.56417 329.519 11.76C329.519 12.6158 329.848 13.5325 330.26 14.0317C330.295 14.0694 330.32 14.1155 330.332 14.1655C330.344 14.2156 330.343 14.2679 330.329 14.3175C330.253 14.6325 330.085 15.3083 330.052 15.4467C330.008 15.6283 329.908 15.6675 329.719 15.5792C328.476 15.0008 327.699 13.1833 327.699 11.7233C327.699 8.5825 329.98 5.69917 334.276 5.69917C337.729 5.69917 340.413 8.16 340.413 11.4483C340.413 14.8792 338.251 17.6408 335.247 17.6408C334.238 17.6408 333.291 17.1158 332.966 16.4967C332.966 16.4967 332.467 18.3983 332.346 18.8633C332.111 19.7667 331.459 20.91 331.055 21.5592C331.987 21.8458 332.975 22 334 22C339.522 22 344 17.5225 344 12C344 6.4775 339.522 2 334 2C328.478 2 324 6.4775 324 12Z" fill="white"/>
</svg>
