<svg width="36" height="39" viewBox="0 0 36 39" fill="none" xmlns="http://www.w3.org/2000/svg">
<path d="M17.2679 0.376899C17.478 0.219305 17.7406 -0.200946 18.0033 0.114243C19.8982 1.90407 21.8456 3.64136 23.6354 5.53625C22.9 6.48181 22.1608 7.3786 21.4779 8.32417C21.7931 8.58683 22.2133 8.69189 22.5848 8.84948C24.112 9.53239 25.6917 10.1665 27.2151 10.8494C28.4796 9.9564 29.7929 9.11214 31.0574 8.27164C30.2694 7.3786 29.4252 6.53434 28.6897 5.64131C30.8998 4.00908 33.0573 2.37685 35.3199 0.853437C35.0573 4.59068 34.637 8.38046 34.2656 12.1177C23.2114 12.1177 12.2136 12.1177 1.15944 12.1177C0.791724 8.32792 0.476536 4.53815 0 0.800906C2.31514 2.32807 4.52521 4.06537 6.79157 5.64506C6.0036 6.5381 5.21187 7.43489 4.4239 8.27539C5.68841 9.16843 7.0017 10.0127 8.26621 10.8532C10.2136 10.0127 12.1085 9.16843 14.0559 8.32792C13.373 7.32607 12.5813 6.43304 11.8459 5.48747C13.6357 3.74643 15.478 2.06166 17.2679 0.376899Z" fill="#0D214D"/>
<path d="M1.47852 14.1665C12.3225 14.1665 23.2153 14.1665 34.0593 14.1665C33.9542 15.3785 33.8492 16.6392 33.7441 17.8512C29.6392 17.8512 25.5867 17.8512 21.4818 17.8512C21.4818 22.2188 21.4818 26.5902 21.4818 30.9578C23.2191 30.9578 25.0089 30.9578 26.7462 30.9578C27.2715 30.9053 27.8006 31.0104 28.2733 30.8002C29.0613 30.485 29.8005 29.7984 29.9581 28.9054C29.748 27.4307 28.4309 26.4851 27.2752 25.7985C29.3803 24.4814 31.4327 23.0106 33.4327 21.5885C32.9074 25.4833 32.4871 29.3781 31.958 33.273C27.2227 35.0628 22.4311 36.8001 17.6957 38.5899C12.9604 36.8001 8.16878 35.0628 3.43344 33.273C2.96065 29.3781 2.48787 25.5358 2.01133 21.641C4.06382 23.0631 6.06377 24.534 8.16878 25.851C7.16693 26.4814 6.06376 27.2731 5.64351 28.4813C5.32832 29.1643 5.80111 29.956 6.32642 30.3762C6.79921 30.6914 7.32827 31.0591 7.90612 31.0066C9.90607 31.0591 11.9586 31.0066 14.011 31.0591C14.011 26.6915 14.011 22.3201 14.011 17.9525C9.90607 17.9525 5.85364 17.9525 1.74868 17.9525C1.74117 16.643 1.58358 15.431 1.47852 14.1665Z" fill="#0D214D"/>
</svg>
