<svg width="412" height="168" viewBox="0 0 412 168" fill="none" xmlns="http://www.w3.org/2000/svg">
<path d="M10.778 147.061H14.4287V127.791H10.778V125.461H20.9651C25.8326 125.461 30.9434 125.739 30.9434 131.896C30.9434 135.304 28.9617 137.6 25.5197 137.913V137.983C27.1885 138.157 28.0577 138.887 28.5792 139.896C29.1355 140.939 29.3789 142.191 29.9004 143.548L30.9087 147.061H33.6901V149.426H28.3706L26.7713 144.104C25.4849 139.826 25.0677 138.957 20.5478 138.957H17.6969V147.061H21.3475V149.426H10.778V147.061ZM17.6621 136.626H20.3392C23.9551 136.626 27.5014 136.626 27.5014 131.896C27.5014 127.791 23.5379 127.791 20.3392 127.791H17.6621V136.626Z" fill="white"/>
<path d="M43.599 132.313C49.0228 132.313 52.3605 135.583 52.3605 141.043C52.3605 146.504 49.0228 149.774 43.599 149.774C38.1752 149.774 34.6984 146.504 34.6984 141.043C34.6984 135.583 38.1752 132.313 43.599 132.313ZM43.599 147.443C47.3887 147.443 49.1271 144.522 49.1271 141.078C49.1271 137.635 47.3539 134.713 43.599 134.713C39.844 134.713 37.9318 137.635 37.9318 141.078C37.9318 144.522 39.844 147.443 43.599 147.443Z" fill="white"/>
<path d="M73.1517 135.026H71.309L64.4597 150.991C63.2429 153.844 62.4432 155.826 59.0359 155.826C58.2711 155.826 57.5062 155.722 56.7413 155.617V153.357C57.2975 153.391 57.8886 153.496 58.5144 153.496C61.0525 153.496 61.1568 151.409 62.1651 149.426L55.6635 135.061H53.8208V132.73H62.1651V135.061H58.9316L63.7296 146.261L68.4581 135.061H65.2246V132.73H73.117L73.1517 135.026Z" fill="white"/>
<path d="M86.5374 145.948H86.4678C85.7377 148.591 83.5473 149.774 80.8702 149.774C77.5325 149.774 74.2991 148.348 74.2991 144.591C74.2991 139.513 79.2709 139.2 83.304 139.2H86.5374V138.191C86.5374 135.513 85.1467 134.644 82.5043 134.644C80.2444 134.644 78.3669 135.13 78.1583 137.496H74.9249C75.1335 133.635 78.506 132.278 82.1219 132.278C86.0854 132.278 89.5622 133.113 89.5622 137.461V147.026H92.4827V149.391H86.5374V145.948ZM81.2179 147.444C84.9033 147.444 86.5374 144.765 86.5374 141.565H83.9993C81.8437 141.565 77.4977 141.565 77.4977 144.626C77.5325 146.817 79.4447 147.444 81.2179 147.444Z" fill="white"/>
<path d="M94.5688 147.061H97.4545V127.791H94.5688V125.461H100.479V147.096H103.365V149.426H94.5688V147.061Z" fill="white"/>
<path d="M137.646 134.017H134.865C134.448 129.67 131.875 127.409 127.633 127.409C122.14 127.409 118.906 130.678 118.906 137.426C118.906 143.2 121.827 147.444 127.633 147.444C131.179 147.444 134.309 145.218 134.309 141.287H137.751C137.751 147.374 132.953 149.774 127.633 149.774C119.636 149.774 115.464 145.113 115.464 137.426C115.464 129.739 119.636 125.078 127.633 125.078C129.789 125.078 133.405 126.087 134.795 128.418H134.865V125.461H137.646V134.017Z" fill="white"/>
<path d="M152.492 145.948H152.423C151.692 148.591 149.502 149.774 146.825 149.774C143.487 149.774 140.254 148.348 140.254 144.591C140.254 139.513 145.226 139.2 149.259 139.2H152.492V138.191C152.492 135.513 151.101 134.644 148.459 134.644C146.199 134.644 144.322 135.13 144.113 137.496H140.88C141.088 133.635 144.461 132.278 148.077 132.278C152.04 132.278 155.517 133.113 155.517 137.461V147.026H158.437V149.391H152.492V145.948ZM147.207 147.444C150.893 147.444 152.527 144.765 152.527 141.565H149.989C147.833 141.565 143.522 141.565 143.522 144.626C143.487 146.817 145.399 147.444 147.207 147.444Z" fill="white"/>
<path d="M159.967 147.061H162.853V135.026H159.967V132.696H165.878V136.104H165.947C166.469 133.565 168.555 132.313 171.093 132.313C171.649 132.313 172.032 132.348 172.449 132.383V134.852C171.962 134.783 171.336 134.678 170.641 134.678C166.434 134.678 165.878 139.13 165.878 142.539V147.096H169.32V149.461H159.967V147.061Z" fill="white"/>
<path d="M174.396 147.061H177.282V135.026H174.396V132.696H180.306V147.061H183.192V149.426H174.396V147.061ZM180.306 128.87H176.864V125.426H180.306V128.87Z" fill="white"/>
<path d="M185.417 147.061H188.338V127.791H185.417V125.461H191.363V135.757H191.432C192.371 133.6 194.944 132.348 197.238 132.348C202.419 132.348 205.478 135.722 205.478 141.078C205.478 146.435 202.558 149.809 197.238 149.809C194.909 149.809 192.267 148.487 191.432 146.017H191.363V149.426H185.417V147.061ZM197.238 147.444C200.437 147.444 202.245 144.835 202.245 141.078C202.245 137.704 200.472 134.713 197.238 134.713C193.171 134.713 191.363 137.704 191.363 141.078C191.363 144.835 193.24 147.444 197.238 147.444Z" fill="white"/>
<path d="M206.73 147.061H209.651V127.791H206.73V125.461H212.675V135.757H212.745C213.684 133.6 216.257 132.348 218.516 132.348C223.697 132.348 226.756 135.722 226.756 141.078C226.756 146.435 223.836 149.809 218.516 149.809C216.187 149.809 213.545 148.487 212.745 146.017H212.675V149.426H206.73V147.061ZM218.551 147.444C221.75 147.444 223.558 144.835 223.558 141.078C223.558 137.704 221.785 134.713 218.551 134.713C214.483 134.713 212.675 137.704 212.675 141.078C212.675 144.835 214.553 147.444 218.551 147.444Z" fill="white"/>
<path d="M232.493 141.913C232.493 145.774 234.649 147.443 238.578 147.443C240.49 147.443 243.132 146.4 243.306 144.209H246.087C245.983 148.313 241.672 149.774 238.16 149.774C232.737 149.774 229.26 146.504 229.26 141.043C229.26 135.583 232.737 132.313 238.16 132.313C244.106 132.313 246.192 136.522 246.226 141.878L232.493 141.913ZM243.202 139.548C243.028 136.487 241.185 134.678 237.917 134.678C235.031 134.678 232.458 136.487 232.458 139.548H243.202Z" fill="white"/>
<path d="M261.142 145.948H261.072C260.342 148.591 258.152 149.774 255.475 149.774C252.137 149.774 248.904 148.348 248.904 144.591C248.904 139.513 253.875 139.2 257.909 139.2H261.142V138.191C261.142 135.513 259.751 134.644 257.109 134.644C254.849 134.644 252.971 135.13 252.763 137.496H249.529C249.738 133.635 253.111 132.278 256.726 132.278C260.69 132.278 264.167 133.113 264.167 137.461V147.026H267.087V149.391H261.142V145.948ZM255.857 147.444C259.543 147.444 261.177 144.765 261.177 141.565H258.639C256.483 141.565 252.137 141.565 252.137 144.626C252.137 146.817 254.049 147.444 255.857 147.444Z" fill="white"/>
<path d="M268.617 147.061H271.503V135.026H268.617V132.696H274.528V135.757H274.597C275.397 133.635 277.726 132.348 280.195 132.348C284.367 132.348 286.14 134.435 286.14 138.435V147.096H289.026V149.461H280.23V147.096H283.115V139.061C283.115 136.383 282.211 134.713 279.256 134.713C276.023 134.713 274.493 136.974 274.493 139.965V147.096H277.379V149.461H268.582L268.617 147.061Z" fill="white"/>
<path d="M322.646 133.983H319.9C319.622 129.809 317.188 127.409 312.981 127.409C307.488 127.409 304.254 130.678 304.254 137.426C304.254 143.2 307.175 147.443 312.981 147.443C317.396 147.443 320.039 144.209 320.004 139.965H315.936V137.6H326.228V139.965H322.994V149.426H320.004V146.017H319.935C318.544 148.209 315.623 149.809 313.016 149.809C305.019 149.809 300.847 145.148 300.847 137.461C300.847 129.774 305.019 125.113 313.016 125.113C315.449 125.113 318.613 126.261 319.83 128.487H319.9V125.496H322.681L322.646 133.983Z" fill="white"/>
<path d="M328.035 147.061H330.921V135.026H328.035V132.696H333.946V136.104H334.016C334.537 133.565 336.623 132.313 339.161 132.313C339.717 132.313 340.1 132.348 340.517 132.383V134.852C340.03 134.783 339.405 134.678 338.709 134.678C334.502 134.678 333.946 139.13 333.946 142.539V147.096H337.388V149.461H328.035V147.061Z" fill="white"/>
<path d="M350.669 132.313C356.093 132.313 359.431 135.583 359.431 141.043C359.431 146.504 356.093 149.774 350.669 149.774C345.246 149.774 341.769 146.504 341.769 141.043C341.769 135.583 345.246 132.313 350.669 132.313ZM350.669 147.443C354.459 147.443 356.197 144.522 356.197 141.078C356.197 137.635 354.424 134.713 350.669 134.713C346.914 134.713 345.002 137.635 345.002 141.078C345.002 144.522 346.914 147.443 350.669 147.443Z" fill="white"/>
<path d="M378.171 147.061H381.057V149.426H375.146V146.539H375.076C374.416 148.591 372.017 149.809 369.618 149.809C365.307 149.809 363.534 147.652 363.534 143.722V135.061H360.648V132.73H366.558V143.096C366.558 145.774 367.393 147.444 370.418 147.444C373.686 147.444 375.181 145.252 375.181 142.191V135.061H372.295V132.73H378.206V147.061H378.171Z" fill="white"/>
<path d="M381.821 153.113H384.742V135.026H381.821V132.696H387.767V136.035H387.836C388.671 133.878 390.861 132.348 393.643 132.348C398.823 132.348 401.883 135.722 401.883 141.078C401.883 146.435 398.962 149.809 393.643 149.809C391.035 149.809 388.949 148.591 387.836 146.226H387.767V153.148H390.687V155.478H381.821V153.113ZM393.608 147.444C396.806 147.444 398.614 144.835 398.614 141.078C398.614 137.704 396.841 134.713 393.608 134.713C389.54 134.713 387.732 137.704 387.732 141.078C387.732 144.835 389.609 147.444 393.608 147.444Z" fill="white"/>
<path d="M250.955 58.4695C250.955 83.1303 230.963 103.13 206.313 103.13C181.662 103.13 161.706 83.1303 161.706 58.4695C161.706 33.8086 181.662 13.8086 206.313 13.8086C230.963 13.8086 250.955 33.8086 250.955 58.4695Z" fill="#001791"/>
<path d="M206.313 13.8086C230.963 13.8086 250.955 33.8086 250.955 58.4695C250.955 83.1304 230.963 103.13 206.313 103.13C181.662 103.13 161.671 83.1304 161.671 58.4695C161.671 33.8086 181.662 13.8086 206.313 13.8086ZM206.313 12.1738C180.793 12.1738 160.037 32.939 160.037 58.4695C160.037 83.9999 180.793 104.765 206.313 104.765C231.833 104.765 252.589 83.9999 252.589 58.4695C252.589 32.939 231.833 12.1738 206.313 12.1738Z" fill="#D4BA73"/>
<path d="M217.369 40.5913L221.333 44.2087L215.805 49.2869L210.172 44.1043L214.553 40.0696L206.348 32.5217L198.142 40.0696L202.523 44.1043L196.891 49.2869L191.363 44.2087L195.326 40.5913L182.497 34.5043L184.131 51.3391H228.669L230.268 34.5043L217.369 40.5913Z" fill="#D4BA73"/>
<path d="M184.305 54.0173L184.826 59.3043H201.48V78.2608L192.58 74.0173L196.161 70.713L185.417 65.5999L186.565 77.5652L206.313 86.9565L226.061 77.5652L227.208 65.5999L216.465 70.713L220.046 74.0173L211.146 78.2608V59.3043H227.799L228.321 54.0173H184.305Z" fill="#D4BA73"/>
<path d="M245.288 93.6348C247.443 93.6348 249.077 95.2695 249.077 97.4261C249.077 99.5826 247.513 101.322 245.288 101.322C243.063 101.322 241.498 99.5826 241.498 97.4261C241.533 95.2695 243.097 93.6348 245.288 93.6348ZM245.288 101.043C247.339 101.043 248.765 99.4087 248.765 97.4261C248.765 95.4435 247.339 93.913 245.288 93.913C243.271 93.913 241.811 95.4435 241.811 97.4261C241.846 99.4435 243.236 101.043 245.288 101.043ZM243.932 95.5478H245.601C246.4 95.5478 246.818 95.9652 246.818 96.6261C246.818 97.2174 246.435 97.6348 245.844 97.7391L246.852 99.3043H246.505L245.496 97.7739H244.21V99.3043H243.897V95.5478H243.932ZM244.245 95.8261V97.4956H245.601C246.227 97.4956 246.539 97.113 246.539 96.6261C246.539 96.1391 246.227 95.7913 245.601 95.7913H244.245V95.8261Z" fill="#D4BA73"/>
</svg>
