<svg width="300" height="74" viewBox="0 0 300 74" fill="none" xmlns="http://www.w3.org/2000/svg">
<path d="M0.00415039 74H300V0H0.00415039V74Z" fill="#2B6FC0"/>
<path d="M0 74H73.8754V0H0V74Z" fill="#131C49"/>
<path d="M73.8754 74.0001H299.997V51.2322H73.8754V74.0001Z" fill="#FAB60A"/>
<path d="M85.1373 68.1618H86.6192V57.8018H85.1373V68.1618Z" fill="#131C49"/>
<path d="M85.1373 68.1618H86.6192V57.8018H85.1373V68.1618Z" stroke="#131C49" stroke-width="0.428037"/>
<path d="M97.2441 57.8018H99.2589L103.824 66.1438H103.853V57.8018H105.335V68.1618H103.438L98.7551 59.6427H98.726V68.1618H97.2441" fill="#131C49"/>
<path d="M97.2441 57.8018H99.2589L103.824 66.1438H103.853V57.8018H105.335V68.1618H103.438L98.7551 59.6427H98.726V68.1618H97.2441V57.8018Z" stroke="#131C49" stroke-width="0.428037"/>
<path d="M118.023 59.1082H114.807V57.8018H122.719V59.1082H119.504V68.1618H118.023" fill="#131C49"/>
<path d="M118.023 59.1082H114.807V57.8018H122.719V59.1082H119.504V68.1618H118.023V59.1082Z" stroke="#131C49" stroke-width="0.428037"/>
<path d="M132.28 57.8018H138.073V59.1082H133.761V62.1352H137.689V63.4417H133.761V66.8555H138.073V68.1618H132.28" fill="#131C49"/>
<path d="M132.28 57.8018H138.073V59.1082H133.761V62.1352H137.689V63.4417H133.761V66.8555H138.073V68.1618H132.28V57.8018Z" stroke="#131C49" stroke-width="0.428037"/>
<path d="M149.842 62.2539H151.102C152.508 62.2539 153.339 61.6315 153.339 60.6364C153.339 59.7012 152.627 59.1082 151.263 59.1082H149.842V62.2539ZM148.359 57.8018H150.893C152.938 57.8018 154.91 58.1283 154.91 60.6072C154.91 61.8687 153.975 62.7593 152.777 62.9673V62.9964C153.235 63.1751 153.456 63.397 153.782 64.0363L155.739 68.1618H154.049L152.464 64.5695C152.005 63.5603 151.517 63.5603 150.731 63.5603H149.842V68.1618H148.359" fill="#131C49"/>
<path d="M149.842 62.2537H151.102C152.508 62.2537 153.339 61.6312 153.339 60.6362C153.339 59.701 152.627 59.108 151.263 59.108H149.842V62.2537ZM148.359 57.8016H150.893C152.938 57.8016 154.91 58.1281 154.91 60.607C154.91 61.8685 153.975 62.7591 152.777 62.9671V62.9962C153.235 63.1749 153.456 63.3968 153.782 64.0361L155.739 68.1616H154.049L152.464 64.5693C152.005 63.5601 151.517 63.5601 150.731 63.5601H149.842V68.1616H148.359V57.8016Z" stroke="#131C49" stroke-width="0.428037"/>
<path d="M165.492 57.8018H167.507L172.07 66.1438H172.1V57.8018H173.582V68.1618H171.684L167.002 59.6427H166.973V68.1618H165.492" fill="#131C49"/>
<path d="M165.492 57.8018H167.507L172.07 66.1438H172.1V57.8018H173.582V68.1618H171.684L167.002 59.6427H166.973V68.1618H165.492L165.492 57.8018Z" stroke="#131C49" stroke-width="0.428037"/>
<path d="M188.21 59.1975L186.149 64.3321H190.27L188.21 59.1975ZM187.485 57.8018H189.04L193.412 68.1618H191.795L190.745 65.5491H185.676L184.624 68.1618H183.067" fill="#131C49"/>
<path d="M188.21 59.1975L186.149 64.3321H190.27L188.21 59.1975ZM187.485 57.8018H189.04L193.412 68.1618H191.795L190.745 65.5491H185.676L184.624 68.1618H183.067L187.485 57.8018Z" stroke="#131C49" stroke-width="0.428037"/>
<path d="M203.876 59.1082H200.66V57.8018H208.574V59.1082H205.358V68.1618H203.876" fill="#131C49"/>
<path d="M203.876 59.1082H200.66V57.8018H208.574V59.1082H205.358V68.1618H203.876V59.1082Z" stroke="#131C49" stroke-width="0.428037"/>
<path d="M218.061 68.1618H219.54V57.8018H218.061V68.1618Z" fill="#131C49"/>
<path d="M218.061 68.1618H219.54V57.8018H218.061V68.1618Z" stroke="#131C49" stroke-width="0.428037"/>
<path d="M234.627 67.0341C237.013 67.0341 238.036 65.0452 238.036 62.9822C238.036 60.8734 236.909 58.914 234.627 58.9292C232.344 58.914 231.219 60.8734 231.219 62.9822C231.219 65.0452 232.242 67.0341 234.627 67.0341ZM234.627 57.6228C237.768 57.6228 239.604 59.909 239.604 62.9822C239.604 66.1283 237.782 68.3403 234.627 68.3403C231.47 68.3403 229.648 66.1283 229.648 62.9822C229.648 59.909 231.484 57.6228 234.627 57.6228Z" fill="#131C49"/>
<path d="M234.627 67.0341C237.013 67.0341 238.036 65.0452 238.036 62.9822C238.036 60.8734 236.909 58.914 234.627 58.9292C232.344 58.914 231.219 60.8734 231.219 62.9822C231.219 65.0452 232.242 67.0341 234.627 67.0341ZM234.627 57.6228C237.768 57.6228 239.604 59.909 239.604 62.9822C239.604 66.1283 237.782 68.3403 234.627 68.3403C231.47 68.3403 229.648 66.1283 229.648 62.9822C229.648 59.909 231.484 57.6228 234.627 57.6228Z" stroke="#131C49" stroke-width="0.428037"/>
<path d="M249.697 57.8018H251.712L256.277 66.1438H256.308V57.8018H257.79V68.1618H255.892L251.211 59.6427H251.18V68.1618H249.697" fill="#131C49"/>
<path d="M249.697 57.8018H251.712L256.277 66.1438H256.308V57.8018H257.79V68.1618H255.892L251.211 59.6427H251.18V68.1618H249.697V57.8018Z" stroke="#131C49" stroke-width="0.428037"/>
<path d="M272.417 59.1975L270.359 64.3321H274.478L272.417 59.1975ZM271.69 57.8018H273.248L277.618 68.1618H276.004L274.951 65.5491H269.885L268.832 68.1618H267.277" fill="#131C49"/>
<path d="M272.417 59.1975L270.359 64.3321H274.478L272.417 59.1975ZM271.69 57.8018H273.248L277.618 68.1618H276.004L274.951 65.5491H269.885L268.832 68.1618H267.277L271.69 57.8018Z" stroke="#131C49" stroke-width="0.428037"/>
<path d="M287.106 57.8018H288.586V66.8555H292.913V68.1618H287.106" fill="#131C49"/>
<path d="M287.106 57.8018H288.586V66.8555H292.913V68.1618H287.106V57.8018Z" stroke="#131C49" stroke-width="0.428037"/>
<path d="M37.0312 10.5171C39.6772 13.0811 42.6344 15.8012 45.1949 18.4516L42.2026 22.3148V22.5053L50.1363 26.0574L55.4981 22.3672L52.2633 18.7635V18.5039C55.5844 16.1472 58.4379 13.8779 61.6553 11.7126L60.0981 27.8585H13.7866L12.2302 11.7126C15.4469 13.8779 18.3004 16.1472 21.6213 18.5039V18.7635L18.3867 22.3672L23.7483 26.0574L31.6829 22.5053V22.3148L28.6905 18.4516C31.2502 15.8012 34.2075 13.0811 36.8536 10.5171" fill="white"/>
<path d="M59.7435 30.7693L59.276 36.1503L42.1315 36.1435L42.1368 54.7342L50.4866 54.6797C52.3487 54.677 54.3092 52.7133 53.9107 51.4235C53.4614 49.5521 51.7837 48.3051 50.2275 47.3699C50.5388 47.3699 56.2635 43.1423 58.9441 41.3238C58.8229 42.4841 56.9028 57.6777 56.8862 57.9206L37.0998 65.4559H36.7844L16.9988 57.9206C16.9814 57.6777 15.0619 42.4841 14.9409 41.3238C17.6216 43.1423 23.3462 47.3699 23.6576 47.3699C22.1005 48.3051 20.4236 49.5521 19.9736 51.4235C19.5758 52.7133 21.5362 54.677 23.3977 54.6797L31.7481 54.7342L31.7535 36.1435L14.6097 36.1503L14.1422 30.7693" fill="white"/>
<path d="M88.6758 25.6497C91.9925 25.6156 95.8627 24.0929 95.8627 20.2513C95.8627 16.2023 92.3034 14.5749 88.6758 14.6099V25.6497ZM85.6354 21.0816C85.6354 15.7872 85.4625 14.9909 81.5932 14.6447V14.1605L90.023 13.8835C98.7295 13.6064 99.4212 17.8632 99.4212 19.5248C99.4212 22.4314 97.6247 24.0929 95.1367 25.2005L95.3096 25.4424C97.9695 30.1145 101.287 36.0672 106.987 37.2436L106.884 37.7622C103.221 37.5898 100.527 37.6938 98.5225 35.6172C96.2423 33.2291 94.4456 30.1836 93.7196 28.6959C92.3381 25.8228 91.0946 26.654 88.6758 26.2382V31.8104C88.6758 35.6172 88.7447 36.3093 93.4779 36.9667V37.4859H81.3508V36.9667C85.4976 36.4134 85.5316 35.3749 85.6354 31.8104" fill="white"/>
<path d="M111.961 22.5836C108.229 22.5836 106.709 26.4593 106.709 29.6437C106.709 32.8621 108.506 37.0491 112.237 37.0491C115.727 37.0491 117.281 33.0694 117.281 30.0932C117.281 26.9096 115.727 22.5836 111.961 22.5836ZM111.995 37.8106C107.262 37.8106 103.496 34.8001 103.496 29.8858C103.496 25.1098 107.4 21.8215 112.03 21.8215C116.729 21.8215 120.495 24.8677 120.495 29.747C120.495 34.4539 116.556 37.8106 111.995 37.8106Z" fill="white"/>
<path d="M121.594 25.2815C120.972 23.7239 120.834 23.3779 119.106 23.1006V22.5815H126.258V23.1006C123.633 23.2388 124.323 24.8314 125.014 26.5962L128.401 35.387L130.542 29.1573C132.097 24.6584 132.373 23.4468 129.817 23.1006V22.5815H135.863V23.1006C134.342 23.2738 133.86 23.8969 133.202 25.2124L131.752 28.5683L126.431 41.962C125.153 45.1807 124.254 46.2537 122.873 46.2537C121.939 46.2537 121.179 45.4924 121.179 44.5231C121.179 43.7967 121.594 43.1386 122.285 42.8963C122.631 43.1037 123.702 43.8657 124.116 43.8657C124.876 43.8657 125.499 41.9969 125.74 41.4777L126.88 38.8127" fill="white"/>
<path d="M138.157 31.9834C138.019 32.4328 137.915 32.8829 137.915 33.3678C137.915 34.8207 138.745 36.1013 140.334 36.1013C141.267 36.1013 142.199 35.479 142.822 34.8207V29.5955L138.157 31.9834ZM142.822 28.9031C143.097 25.1305 142.131 23.5737 139.4 23.5737C137.017 23.5737 137.26 24.7161 137.26 26.6191L135.532 26.7229C135.255 26.7229 134.736 26.7572 134.736 26.3769C134.736 25.4424 138.537 21.843 141.337 21.843C144.514 21.843 145.481 24.2659 145.481 27.0343V31.949C145.481 34.9939 145.19 36.8969 148.488 36.3783V37.1598C147.175 37.5403 146.035 37.6589 144.998 37.6589C143.547 37.6589 142.995 36.8284 142.822 35.4789C141.716 36.7245 140.196 37.8321 138.433 37.8321C136.223 37.8321 134.978 35.963 134.978 33.8863C134.978 33.3678 135.047 32.8829 135.186 32.3637" fill="white"/>
<path d="M146.897 37.4859V36.6471C149.295 36.3589 149.591 35.8077 149.591 33.4712V18.7607C149.591 17.307 149.626 16.8577 147.898 15.6111V15.2651L151.871 13.7424L152.251 13.8805V33.4712C152.251 36.3093 152.389 36.5857 154.947 36.9667V37.4859" fill="white"/>
<path d="M182.933 31.9834C182.798 32.4328 182.692 32.8829 182.692 33.3678C182.692 34.8207 183.521 36.1013 185.11 36.1013C186.044 36.1013 186.977 35.479 187.599 34.8207V29.5955L182.933 31.9834ZM187.599 28.9031C187.874 25.1305 186.908 23.5737 184.177 23.5737C181.795 23.5737 182.036 24.7161 182.036 26.6191L180.309 26.7229C180.032 26.7229 179.515 26.7572 179.515 26.3769C179.515 25.4424 183.314 21.843 186.113 21.843C189.291 21.843 190.258 24.2659 190.258 27.0343V31.949C190.258 34.9939 189.914 37.0993 193.265 36.3783V37.1598C191.952 37.5403 190.812 37.6589 189.775 37.6589C188.324 37.6589 187.771 36.8284 187.599 35.4789C186.493 36.7245 184.974 37.8321 183.211 37.8321C181 37.8321 179.756 35.963 179.756 33.8863C179.756 33.3678 179.826 32.8829 179.963 32.3637" fill="white"/>
<path d="M177.516 21.0696H176.996C176.34 17.159 174.062 14.3558 169.914 14.3558C163.592 14.3558 160.033 19.5471 160.033 25.4996C160.033 32.3176 165.25 37.0587 170.26 37.0587C174.785 37.0587 176.583 33.7362 178.138 29.9987L178.62 30.2067C178.206 32.3176 177.55 34.3943 176.721 36.4014C174.51 37.4741 172.125 37.8893 169.671 37.8893C162.452 37.8893 156.025 33.7362 156.025 25.9151C156.025 19.7551 160.827 13.5254 169.948 13.5254C172.576 13.5254 175.234 14.0446 177.516 15.3942" fill="white"/>
<path d="M265.029 31.9716C264.894 32.4216 264.79 32.871 264.79 33.3561C264.79 34.8096 265.619 36.0902 267.21 36.0902C268.14 36.0902 269.073 35.4671 269.695 34.8096V29.5835L265.029 31.9716ZM269.695 28.8911C269.973 25.1193 269.004 23.5618 266.275 23.5618C263.894 23.5618 264.133 24.7041 264.133 26.6073L262.406 26.7111C262.129 26.7111 261.611 26.7453 261.611 26.3649C261.611 25.4306 265.412 21.8311 268.21 21.8311C271.389 21.8311 272.356 24.2541 272.356 27.0224V31.9366C272.356 34.9828 271.868 36.9177 275.023 36.7447V37.356C273.71 37.737 272.908 37.6471 271.871 37.6471C270.423 37.6471 269.868 36.8166 269.695 35.467C268.592 36.7126 267.07 37.8201 265.309 37.8201C263.096 37.8201 261.853 35.9511 261.853 33.8752C261.853 33.356 261.923 32.8709 262.059 32.3519" fill="white"/>
<path d="M197.023 33.4595C197.023 36.2975 197.161 36.5748 200.477 36.9551V37.4743H191.841V36.6501C194.166 36.447 194.329 35.8804 194.362 33.1804V26.8496C194.362 25.3959 194.398 24.9464 192.67 23.7002V23.3542L196.78 21.8313L197.161 21.9702L197.023 26.054H197.091C197.85 24.2194 199.788 21.8313 201.964 21.8313C202.931 21.8313 203.726 22.4544 203.726 23.4238C203.726 24.3581 202.723 25.2229 201.928 25.6039C201.342 25.1537 200.477 24.3924 199.718 24.4615C196.78 24.7384 197.023 29.4455 197.023 29.9641" fill="white"/>
<path d="M210.428 16.0664C210.428 17.0355 209.631 17.8318 208.665 17.8318C207.697 17.8318 206.902 17.0355 206.902 16.0664C206.902 15.0977 207.697 14.3022 208.665 14.3022C209.631 14.3022 210.428 15.0977 210.428 16.0664ZM204.796 37.4742V36.955C207.351 36.5747 207.455 36.1594 207.49 33.4594V26.8495C207.49 25.3958 207.524 24.9463 205.382 23.7001V23.354L209.77 21.8312L210.152 21.9701V33.4594C210.152 36.2974 210.288 36.5747 212.846 36.955V37.4742" fill="white"/>
<path d="M216.767 30.449C216.767 33.6675 217.112 36.7478 221.12 36.7478C223.02 36.7478 226.094 35.225 226.094 30.4142C226.094 26.2613 223.333 23.562 219.98 23.562C218.804 23.562 217.837 23.8732 216.767 24.3233V30.449ZM214.106 18.749C214.106 17.2953 214.141 16.8453 212.414 15.5996V15.2536L216.389 13.7307L216.767 13.8689V23.7691C218.459 22.8356 220.568 21.8313 222.535 21.8313C226.373 21.8313 229.031 25.3959 229.031 29.0297C229.031 35.1552 223.4 37.8204 219.602 37.8204C217.527 37.8204 215.973 37.2669 214.106 36.4358" fill="white"/>
<path d="M233.289 30.449C233.289 33.6675 233.636 36.7478 237.642 36.7478C239.543 36.7478 242.616 35.225 242.616 30.4142C242.616 26.2613 239.852 23.562 236.502 23.562C235.326 23.562 234.359 23.8732 233.289 24.3233V30.449ZM230.628 18.749C230.628 17.2953 230.662 16.8453 228.937 15.5996V15.2536L232.908 13.7307L233.289 13.8689V23.7691C234.981 22.8356 237.09 21.8313 239.058 21.8313C242.893 21.8313 245.554 25.3959 245.554 29.0297C245.554 35.1552 239.922 37.8204 236.121 37.8204C234.048 37.8204 232.496 37.2669 230.628 36.4358" fill="white"/>
<path d="M256.948 25.9849C256.64 24.3924 255.67 22.5926 253.839 22.5926C251.872 22.5926 250.696 24.5306 250.316 26.2613L256.948 25.9849ZM250.074 28.6494C249.798 32.2487 252.25 35.6055 256.155 35.6055C257.952 35.6055 259.195 34.8098 260.231 33.4254L260.749 33.8057C259.438 36.0554 257.088 37.8203 254.393 37.8203C250.107 37.8203 247.136 34.2906 247.136 30.1371C247.136 25.673 250.246 21.8313 254.912 21.8313C258.018 21.8313 260.093 23.8041 260.231 26.9185H250.211" fill="white"/>
<path d="M276.545 26.8496C276.545 25.3959 276.578 24.9464 274.85 23.7002V23.3542L278.963 21.8313L279.343 21.9702L279.066 24.4963C281.034 23.0428 282.934 21.8313 285.147 21.8313C289.293 21.8313 289.5 25.2578 289.5 27.2995V33.4595C289.5 36.2975 289.639 36.5748 292.195 36.9551V37.4743H284.144V36.9551C286.702 36.5748 286.805 36.1595 286.842 33.4595V29.4798C286.842 27.0574 286.945 23.6311 282.729 23.6311C281.313 23.6311 280.346 24.0812 279.206 25.1194V33.4595C279.206 36.2975 279.343 36.5748 281.901 36.9551V37.4743H273.85L273.844 36.8435C276.323 36.6515 276.508 36.1595 276.545 33.4595" fill="white"/>
</svg>
