<svg width="35" height="34" viewBox="0 0 35 34" fill="none" xmlns="http://www.w3.org/2000/svg">
<path d="M16.3112 1.65881C16.6854 0.507172 18.3146 0.507175 18.6888 1.65881L21.8219 11.3014C21.9892 11.8165 22.4692 12.1652 23.0107 12.1652H33.1496C34.3605 12.1652 34.8639 13.7147 33.8843 14.4264L25.6818 20.3859C25.2437 20.7042 25.0604 21.2684 25.2277 21.7834L28.3608 31.426C28.735 32.5777 27.4169 33.5353 26.4372 32.8236L18.2347 26.8641C17.7966 26.5458 17.2034 26.5458 16.7653 26.8641L8.56277 32.8236C7.58313 33.5353 6.26503 32.5777 6.63922 31.426L9.7723 21.7834C9.93964 21.2684 9.75632 20.7042 9.31821 20.3859L1.11571 14.4264C0.13607 13.7147 0.639542 12.1652 1.85045 12.1652H11.9893C12.5308 12.1652 13.0108 11.8165 13.1781 11.3014L16.3112 1.65881Z" fill="url(#paint0_linear_22_598)"/>
<defs>
<linearGradient id="paint0_linear_22_598" x1="1" y1="39" x2="20" y2="39" gradientUnits="userSpaceOnUse">
<stop offset="0.585" stop-color="#E69335"/>
<stop offset="0.9999" stop-color="#E69335"/>
<stop offset="1" stop-color="#D6D6D6"/>
</linearGradient>
</defs>
</svg>
