<svg width="398" height="132" viewBox="0 0 398 132" fill="none" xmlns="http://www.w3.org/2000/svg">
<path d="M44.918 117.756C36.932 109.002 30.963 116.106 19.012 116.182C19.012 116.182 27.331 124.972 44.918 117.756Z" fill="white"/>
<path d="M36.2919 109.966C29.7009 100.119 22.7389 106.254 10.9099 104.548C10.9099 104.548 17.8249 114.479 36.2919 109.966Z" fill="white"/>
<path d="M30.4349 102.495C25.8289 92.3349 18.4199 96.9609 7.69592 93.5559C7.69592 93.5559 12.5899 103.844 30.4349 102.495Z" fill="white"/>
<path d="M23.739 93.7861C21.531 83.7241 13.949 86.4781 4.91797 81.3411C4.91797 81.3411 7.36097 91.5741 23.739 93.7861Z" fill="white"/>
<path d="M20.882 84.09C20.146 74.783 12.998 76.316 5.526 70.585C5.526 70.585 6.451 80.076 20.882 84.09Z" fill="white"/>
<path d="M19.769 73.9008C19.489 64.5688 12.274 65.7518 5.08997 59.6628C5.08997 59.6628 5.55096 69.1868 19.769 73.9008Z" fill="white"/>
<path d="M19.072 65.1789C19.912 56.3569 12.977 56.6179 6.93197 50.0349C6.93197 50.0349 6.23997 59.0579 19.072 65.1789Z" fill="white"/>
<path d="M19.6169 56.2549C21.6839 48.8619 15.7309 48.0219 11.5849 41.4819C11.5849 41.4819 9.61192 49.0709 19.6169 56.2549Z" fill="white"/>
<path d="M22.252 47.988C24.426 40.94 18.731 39.981 14.916 33.594C14.916 33.594 12.828 40.831 22.252 47.988Z" fill="white"/>
<path d="M23.294 41.1939C25.979 35.5849 21.347 34.0819 18.956 28.2839C18.956 28.2839 16.32 34.0609 23.294 41.1939Z" fill="white"/>
<path d="M25.8139 36.024C29.1379 31.494 25.2779 29.383 24.1269 23.834C24.1269 23.834 20.8179 28.521 25.8139 36.024Z" fill="white"/>
<path d="M28.497 30.289C32.328 27.162 29.505 24.512 29.747 19.53C29.747 19.53 25.893 22.795 28.497 30.289Z" fill="white"/>
<path d="M33.0439 26.2509C37.2759 23.6919 34.8509 20.6719 35.7889 15.7729C35.7889 15.7729 31.5159 18.4649 33.0439 26.2509Z" fill="white"/>
<path d="M355.009 117.756C362.995 109.002 368.964 116.106 380.915 116.182C380.915 116.182 372.596 124.972 355.009 117.756Z" fill="white"/>
<path d="M363.636 108.469C370.228 98.7789 377.19 104.816 389.018 103.137C389.018 103.137 382.103 112.911 363.636 108.469Z" fill="white"/>
<path d="M369.492 101.117C374.098 91.1191 381.508 95.6711 392.232 92.3201C392.232 92.3201 387.338 102.445 369.492 101.117Z" fill="white"/>
<path d="M376.188 92.5459C378.396 82.6439 385.978 85.3539 395.01 80.2979C395.01 80.2979 392.567 90.3699 376.188 92.5459Z" fill="white"/>
<path d="M379.046 83.0051C379.782 73.8451 386.93 75.3551 394.402 69.7151C394.402 69.7151 393.477 79.0541 379.046 83.0051Z" fill="white"/>
<path d="M380.159 72.9781C380.439 63.7941 387.654 64.9581 394.837 58.9661C394.837 58.9661 394.376 68.3381 380.159 72.9781Z" fill="white"/>
<path d="M380.856 64.394C380.016 55.713 386.949 55.969 392.996 49.49C392.996 49.49 393.687 58.37 380.856 64.394Z" fill="white"/>
<path d="M380.312 55.612C378.244 48.336 384.197 47.51 388.344 41.074C388.344 41.074 390.316 48.542 380.312 55.612Z" fill="white"/>
<path d="M377.676 47.476C375.502 40.54 381.197 39.596 385.012 33.311C385.012 33.311 387.101 40.433 377.676 47.476Z" fill="white"/>
<path d="M376.634 40.79C373.949 35.27 378.581 33.791 380.972 28.085C380.972 28.085 383.608 33.771 376.634 40.79Z" fill="white"/>
<path d="M374.113 35.7021C370.789 31.2441 374.649 29.1661 375.801 23.7061C375.801 23.7061 379.109 28.3191 374.113 35.7021Z" fill="white"/>
<path d="M371.43 30.059C367.6 26.982 370.423 24.373 370.18 19.47C370.18 19.47 374.035 22.683 371.43 30.059Z" fill="white"/>
<path d="M366.885 26.084C362.653 23.565 365.077 20.593 364.139 15.772C364.139 15.772 368.412 18.422 366.885 26.084Z" fill="white"/>
<path d="M53.8349 54.869H47.6379C46.9229 54.869 46.6849 54.631 46.6849 53.916V22.455C46.6849 21.501 47.1619 21.501 47.6379 21.501H53.8349C59.0789 21.501 60.9849 24.934 60.9849 30.463C60.9849 33.419 60.6519 35.087 59.5069 36.755C59.3159 37.041 59.1729 37.232 59.1729 37.375C59.1729 37.518 59.2689 37.708 59.5069 38.09C60.5559 39.949 60.9849 42.094 60.9849 45.336C60.9859 52.486 58.6029 54.869 53.8349 54.869ZM56.2189 29.843C56.1709 27.698 55.9809 25.743 53.8349 25.743H52.4049C51.4509 25.743 51.4509 25.743 51.4509 26.697V34.324C51.4509 35.277 51.4509 35.277 52.4049 35.277H53.8349C55.8369 35.277 56.1709 33.465 56.2189 31.511V29.843ZM53.8349 50.626C56.2189 50.626 56.2189 48.195 56.2189 45.764V44.381C56.2189 41.95 56.2189 39.519 53.8349 39.519H52.4049C51.4509 39.519 51.4509 39.519 51.4509 40.425V49.673C51.4509 50.626 51.4509 50.626 52.4049 50.626H53.8349Z" fill="white"/>
<path d="M65.37 53.916V22.455C65.37 21.74 65.608 21.501 66.323 21.501H76.381C77.096 21.501 77.335 21.74 77.335 22.455V25.029C77.335 25.744 77.096 25.982 76.381 25.982H71.09C70.136 25.982 70.136 25.982 70.136 26.936V34.086C70.136 35.039 70.136 35.039 71.09 35.039H76.381C77.096 35.039 77.335 35.277 77.335 35.992V38.566C77.335 39.281 77.096 39.52 76.381 39.52H71.09C70.136 39.52 70.136 39.52 70.136 40.473V49.435C70.136 50.388 70.136 50.388 71.09 50.388H76.381C77.096 50.388 77.335 50.626 77.335 51.342V53.916C77.335 54.631 77.096 54.869 76.381 54.869H66.323C65.847 54.869 65.37 54.869 65.37 53.916Z" fill="white"/>
<path d="M81.199 28.8419C81.199 24.5509 83.583 21.3579 88.349 21.3579C93.45 21.3579 95.452 24.7899 95.452 29.9379C95.452 30.6529 95.214 31.0349 94.499 31.0349H91.687C90.972 31.0349 90.733 30.7959 90.733 30.0809C90.733 27.7449 90.495 25.7429 88.35 25.7429C85.967 25.7429 85.967 28.0789 85.967 29.0319C85.967 31.4149 87.683 34.0369 90.162 36.7539C92.927 39.7569 95.453 43.3329 95.453 47.5269C95.453 51.8169 93.07 55.0109 88.303 55.0109C83.203 55.0109 81.2 51.5789 81.2 46.4299C81.2 45.7149 81.438 45.3339 82.154 45.3339H84.966C85.681 45.3339 85.919 45.5719 85.919 46.2879C85.919 48.6229 86.157 50.6249 88.302 50.6249C90.686 50.6249 90.686 48.2899 90.686 47.3359C90.686 44.9529 88.97 42.2349 86.491 39.5189C83.725 36.5169 81.199 33.0369 81.199 28.8419Z" fill="white"/>
<path d="M99.8839 21.501H112.278C112.993 21.501 113.232 21.74 113.232 22.455V25.029C113.232 25.744 112.994 25.982 112.278 25.982H109.418C108.464 25.982 108.464 25.982 108.464 26.936V53.916C108.464 54.869 107.987 54.869 107.511 54.869H104.651C104.174 54.869 103.698 54.869 103.698 53.916V26.936C103.698 25.982 103.698 25.982 102.792 25.982H99.8839C98.9299 25.982 98.9299 25.505 98.9299 25.029V22.455C98.9309 21.978 98.9309 21.501 99.8839 21.501Z" fill="white"/>
<path d="M135.861 43.762H134.431C133.477 43.762 133.477 43.762 133.477 44.716V53.916C133.477 54.631 133.191 54.869 132.524 54.869H129.664C128.901 54.869 128.711 54.631 128.711 53.916V22.455C128.711 21.74 128.949 21.501 129.664 21.501H135.861C140.628 21.501 143.011 23.885 143.011 31.035V34.276C143.011 41.379 140.627 43.762 135.861 43.762ZM133.477 38.662C133.477 39.52 133.477 39.52 134.431 39.52H135.861C138.244 39.52 138.244 37.089 138.244 34.658V30.606C138.244 28.175 138.244 25.744 135.861 25.744H134.431C133.477 25.744 133.477 25.744 133.477 26.698V38.662Z" fill="white"/>
<path d="M159.074 41.188L161.553 53.868C161.696 54.631 161.363 54.869 160.981 54.869H157.978C157.358 54.869 157.073 54.869 156.93 54.154L154.642 42.427H153.117C152.163 42.427 152.163 42.427 152.163 43.38V53.915C152.163 54.868 151.686 54.868 151.21 54.868H148.35C147.873 54.868 147.397 54.868 147.397 53.915V22.455C147.397 21.74 147.635 21.501 148.35 21.501H154.547C159.314 21.501 161.697 23.885 161.697 31.035V32.894C161.695 37.232 160.79 39.806 159.074 41.188ZM152.162 37.232C152.162 38.185 152.162 38.185 153.116 38.185H154.546C156.929 38.185 156.929 35.754 156.929 33.323V30.606C156.929 28.175 156.929 25.744 154.546 25.744H153.116C152.162 25.744 152.162 25.744 152.162 26.698V37.232Z" fill="white"/>
<path d="M166.08 53.916V22.455C166.08 21.74 166.318 21.501 167.033 21.501H169.893C170.608 21.501 170.846 21.74 170.846 22.455V53.916C170.846 54.869 170.369 54.869 169.893 54.869H167.033C166.556 54.869 166.08 54.869 166.08 53.916Z" fill="white"/>
<path d="M190.75 21.501C191.227 21.501 191.704 21.501 191.561 22.312L185.555 54.012C185.412 54.727 185.269 54.87 184.506 54.87H181.932C181.169 54.87 181.026 54.727 180.883 54.012L174.877 22.312C174.734 21.501 175.21 21.501 175.688 21.501H178.548C179.168 21.501 179.454 21.501 179.597 22.216L183.029 42.761C183.076 42.999 183.362 42.999 183.41 42.761L186.842 22.216C186.985 21.501 187.271 21.501 187.891 21.501H190.75Z" fill="white"/>
<path d="M205.382 54.869C204.763 54.869 204.477 54.869 204.333 54.154L203.904 51.58C203.714 50.626 203.714 50.626 202.855 50.626H198.613C197.659 50.626 197.707 50.626 197.516 51.58L197.087 54.154C196.944 54.869 196.658 54.869 196.038 54.869H193.178C192.701 54.869 192.224 54.869 192.367 54.058L198.373 22.359C198.516 21.644 198.659 21.501 199.421 21.501H201.995C202.758 21.501 202.9 21.644 203.044 22.359L209.05 54.058C209.193 54.869 208.716 54.869 208.239 54.869H205.382ZM198.566 45.192C198.423 46.146 198.423 46.146 199.376 46.146H202.046C202.999 46.146 202.999 46.146 202.856 45.192L200.902 33.609C200.854 33.371 200.568 33.371 200.521 33.609L198.566 45.192Z" fill="white"/>
<path d="M211.257 21.501H223.652C224.367 21.501 224.605 21.74 224.605 22.455V25.029C224.605 25.744 224.367 25.982 223.652 25.982H220.792C219.839 25.982 219.839 25.982 219.839 26.936V53.916C219.839 54.869 219.362 54.869 218.885 54.869H216.026C215.549 54.869 215.072 54.869 215.072 53.916V26.936C215.072 25.982 215.072 25.982 214.167 25.982H211.259C210.306 25.982 210.306 25.505 210.306 25.029V22.455C210.304 21.978 210.304 21.501 211.257 21.501Z" fill="white"/>
<path d="M228.654 53.916V22.455C228.654 21.74 228.892 21.501 229.608 21.501H239.666C240.381 21.501 240.619 21.74 240.619 22.455V25.029C240.619 25.744 240.381 25.982 239.666 25.982H234.375C233.422 25.982 233.422 25.982 233.422 26.936V34.086C233.422 35.039 233.422 35.039 234.375 35.039H239.666C240.381 35.039 240.619 35.277 240.619 35.992V38.566C240.619 39.281 240.381 39.52 239.666 39.52H234.375C233.422 39.52 233.422 39.52 233.422 40.473V49.435C233.422 50.388 233.422 50.388 234.375 50.388H239.666C240.381 50.388 240.619 50.626 240.619 51.342V53.916C240.619 54.631 240.381 54.869 239.666 54.869H229.608C229.132 54.869 228.654 54.869 228.654 53.916Z" fill="white"/>
<path d="M256.825 53.916V22.455C256.825 21.74 257.063 21.501 257.779 21.501H260.638C261.354 21.501 261.592 21.74 261.592 22.455V53.916C261.592 54.869 261.115 54.869 260.638 54.869H257.779C257.302 54.869 256.825 54.869 256.825 53.916Z" fill="white"/>
<path d="M265.643 28.8419C265.643 24.5509 268.027 21.3579 272.793 21.3579C277.894 21.3579 279.896 24.7899 279.896 29.9379C279.896 30.6529 279.658 31.0349 278.943 31.0349H276.131C275.416 31.0349 275.178 30.7959 275.178 30.0809C275.178 27.7449 274.94 25.7429 272.794 25.7429C270.41 25.7429 270.41 28.0789 270.41 29.0319C270.41 31.4149 272.127 34.0369 274.605 36.7539C277.37 39.7569 279.896 43.3329 279.896 47.5269C279.896 51.8169 277.513 55.0109 272.746 55.0109C267.645 55.0109 265.643 51.5789 265.643 46.4299C265.643 45.7149 265.881 45.3339 266.596 45.3339H269.408C270.124 45.3339 270.362 45.5719 270.362 46.2879C270.362 48.6229 270.6 50.6249 272.745 50.6249C275.129 50.6249 275.129 48.2899 275.129 47.3359C275.129 44.9529 273.413 42.2349 270.934 39.5189C268.169 36.5169 265.643 33.0369 265.643 28.8419Z" fill="white"/>
<path d="M283.946 53.916V22.455C283.946 21.74 284.184 21.501 284.9 21.501H287.759C288.475 21.501 288.713 21.74 288.713 22.455V49.101C288.713 50.102 288.713 50.102 289.714 50.102H294.957C295.672 50.102 295.91 50.34 295.91 51.055V53.915C295.91 54.63 295.672 54.868 294.957 54.868H284.9C284.185 54.869 283.946 54.631 283.946 53.916Z" fill="white"/>
<path d="M312.309 54.869C311.689 54.869 311.403 54.869 311.26 54.154L310.831 51.58C310.64 50.626 310.64 50.626 309.782 50.626H305.539C304.586 50.626 304.634 50.626 304.443 51.58L304.013 54.154C303.87 54.869 303.584 54.869 302.965 54.869H300.105C299.628 54.869 299.152 54.869 299.294 54.058L305.3 22.359C305.444 21.644 305.586 21.501 306.349 21.501H308.923C309.686 21.501 309.829 21.644 309.972 22.359L315.978 54.058C316.122 54.869 315.645 54.869 315.168 54.869H312.309ZM305.492 45.192C305.348 46.146 305.348 46.146 306.302 46.146H308.972C309.925 46.146 309.925 46.146 309.783 45.192L307.828 33.609C307.781 33.371 307.495 33.371 307.447 33.609L305.492 45.192Z" fill="white"/>
<path d="M331.041 54.297L325.226 37.947C325.13 37.614 324.845 37.709 324.845 37.947V53.916C324.845 54.631 324.607 54.869 323.891 54.869H321.032C320.316 54.869 320.078 54.631 320.078 53.916V22.455C320.078 21.74 320.316 21.501 321.032 21.501H323.653C324.177 21.501 324.416 21.597 324.607 22.121L330.422 38.662C330.517 38.948 330.803 38.9 330.803 38.662V22.455C330.803 21.74 331.041 21.501 331.756 21.501H334.616C335.331 21.501 335.569 21.74 335.569 22.455V53.916C335.569 54.631 335.331 54.869 334.616 54.869H331.995C331.565 54.869 331.231 54.774 331.041 54.297Z" fill="white"/>
<path d="M340.335 22.455C340.335 21.74 340.573 21.501 341.289 21.501H347.485C352.253 21.501 354.635 23.885 354.635 31.035V45.335C354.635 52.485 352.252 54.869 347.485 54.869H341.289C340.573 54.869 340.335 54.631 340.335 53.916V22.455ZM346.056 25.744C345.103 25.744 345.103 25.744 345.103 26.698V49.626C345.103 50.627 345.103 50.627 346.056 50.627H347.486C349.87 50.627 349.87 48.196 349.87 45.765V30.606C349.87 28.175 349.87 25.744 347.486 25.744H346.056Z" fill="white"/>
<path d="M55.308 68.935V69.495C55.308 72.118 53.765 73.796 51.142 73.796H48.268V78.136H46.281V64.634H51.141C53.765 64.634 55.308 66.312 55.308 68.935ZM53.302 69.205C53.302 67.392 52.511 66.466 51.046 66.466H48.269V71.963H51.046C52.493 71.963 53.302 71.037 53.302 69.205Z" fill="white"/>
<path d="M70.01 76.322V78.134H62.141V64.634H69.875V66.466H64.146V70.362H68.929V72.156H64.146V76.322H70.01Z" fill="white"/>
<path d="M86.6029 76.649V78.211C84.7319 78.5 83.7679 78.365 82.7459 76.321L80.9909 72.907C80.1999 72.907 79.4669 72.848 78.7539 72.636V78.133H76.7479V64.634H81.5309C84.1539 64.634 85.8129 66.274 85.8129 68.434V69.128C85.8129 70.786 84.7709 72.175 83.0549 72.677L84.8099 75.936C85.3299 76.9 86.0429 76.804 86.6029 76.649ZM78.7529 70.844C79.6209 71.076 80.4689 71.134 81.4529 71.134C82.9769 71.134 83.7859 70.15 83.7859 68.877V68.665C83.7859 67.373 82.9759 66.466 81.5299 66.466H78.7529V70.844Z" fill="white"/>
<path d="M95.0559 66.466V70.825H99.8389V72.637H95.0559V78.134H93.0499V64.634H100.803V66.466H95.0559Z" fill="white"/>
<path d="M115.338 76.322V78.134H107.469V64.634H115.203V66.466H109.475V70.362H114.258V72.156H109.475V76.322H115.338Z" fill="white"/>
<path d="M126.336 78.404C123.732 78.404 121.823 76.726 121.823 74.103V68.665C121.823 66.042 123.732 64.364 126.336 64.364C128.072 64.364 129.056 64.885 130.097 65.656L129.248 67.083C128.341 66.524 127.686 66.157 126.335 66.157C124.85 66.157 123.847 67.199 123.847 68.915V73.833C123.847 75.607 124.869 76.61 126.335 76.61C127.686 76.61 128.341 76.243 129.248 75.684L130.097 77.111C129.056 77.884 128.073 78.404 126.336 78.404Z" fill="white"/>
<path d="M145.471 66.447H141.922V78.135H139.897V66.447H136.348V64.634H145.471V66.447Z" fill="white"/>
<path d="M169.82 68.935V73.834C169.82 76.457 168.2 78.135 165.557 78.135H160.793V64.634H165.557C168.2 64.634 169.82 66.312 169.82 68.935ZM167.814 69.186C167.814 67.412 167.023 66.466 165.557 66.466H162.799V76.303H165.557C167.003 76.303 167.814 75.377 167.814 73.583V69.186Z" fill="white"/>
<path d="M186.932 78.135H184.714L183.595 74.489C182.091 74.74 180.586 74.74 179.082 74.489L177.963 78.135H175.764L180.373 64.634H182.283L186.932 78.135ZM183.114 72.869L181.32 67.045L179.546 72.869C180.741 73.101 181.917 73.101 183.114 72.869Z" fill="white"/>
<path d="M200.984 64.634L196.895 73.237V78.135H194.87V73.255L190.762 64.634H192.98L195.893 71.153L198.767 64.634H200.984Z" fill="white"/>
<path d="M226.339 78.135H224.121L223.003 74.489C221.498 74.74 219.993 74.74 218.489 74.489L217.37 78.135H215.172L219.781 64.634H221.69L226.339 78.135ZM222.521 72.869L220.727 67.045L218.953 72.869C220.147 73.101 221.324 73.101 222.521 72.869Z" fill="white"/>
<path d="M239.634 66.447H236.085V78.135H234.06V66.447H230.511V64.634H239.634V66.447Z" fill="white"/>
<path d="M259.398 78.404C256.794 78.404 254.884 76.726 254.884 74.103V68.665C254.884 66.042 256.793 64.364 259.398 64.364C261.133 64.364 262.118 64.885 263.159 65.656L262.31 67.083C261.404 66.524 260.748 66.157 259.398 66.157C257.913 66.157 256.91 67.199 256.91 68.915V73.833C256.91 75.607 257.932 76.61 259.398 76.61C260.748 76.61 261.404 76.243 262.31 75.684L263.159 77.111C262.118 77.884 261.134 78.404 259.398 78.404Z" fill="white"/>
<path d="M278.845 68.665V74.084C278.845 76.766 276.742 78.404 274.139 78.404C271.536 78.404 269.433 76.765 269.433 74.084V68.665C269.433 66.003 271.536 64.364 274.139 64.364C276.742 64.364 278.845 66.003 278.845 68.665ZM271.438 68.916V73.834C271.438 75.646 272.653 76.592 274.138 76.592C275.623 76.592 276.819 75.647 276.819 73.834V68.916C276.819 67.123 275.624 66.177 274.138 66.177C272.652 66.177 271.438 67.122 271.438 68.916Z" fill="white"/>
<path d="M290.244 78.404C287.64 78.404 285.73 76.726 285.73 74.103V68.665C285.73 66.042 287.639 64.364 290.244 64.364C291.979 64.364 292.964 64.885 294.005 65.656L293.156 67.083C292.25 66.524 291.594 66.157 290.244 66.157C288.759 66.157 287.756 67.199 287.756 68.915V73.833C287.756 75.607 288.778 76.61 290.244 76.61C291.594 76.61 292.25 76.243 293.156 75.684L294.005 77.111C292.964 77.884 291.979 78.404 290.244 78.404Z" fill="white"/>
<path d="M309.69 68.665V74.084C309.69 76.766 307.587 78.404 304.984 78.404C302.381 78.404 300.278 76.765 300.278 74.084V68.665C300.278 66.003 302.381 64.364 304.984 64.364C307.587 64.364 309.69 66.003 309.69 68.665ZM302.284 68.916V73.834C302.284 75.646 303.499 76.592 304.984 76.592C306.469 76.592 307.665 75.647 307.665 73.834V68.916C307.665 67.123 306.47 66.177 304.984 66.177C303.498 66.177 302.284 67.122 302.284 68.916Z" fill="white"/>
<path d="M321.091 78.404C318.487 78.404 316.577 76.726 316.577 74.103V68.665C316.577 66.042 318.487 64.364 321.091 64.364C322.826 64.364 323.81 64.885 324.852 65.656L324.003 67.083C323.097 66.524 322.441 66.157 321.091 66.157C319.606 66.157 318.603 67.199 318.603 68.915V73.833C318.603 75.607 319.625 76.61 321.091 76.61C322.441 76.61 323.097 76.243 324.003 75.684L324.852 77.111C323.81 77.884 322.826 78.404 321.091 78.404Z" fill="white"/>
<path d="M342.1 78.135H339.882L338.763 74.489C337.259 74.74 335.755 74.74 334.25 74.489L333.132 78.135H330.933L335.542 64.634H337.452L342.1 78.135ZM338.281 72.869L336.487 67.045L334.713 72.869C335.909 73.101 337.085 73.101 338.281 72.869Z" fill="white"/>
<path d="M356.167 64.634L352.079 73.237V78.135H350.054V73.255L345.946 64.634H348.164L351.076 71.153L353.95 64.634H356.167Z" fill="white"/>
<path d="M165.396 96.505V98.202H158.549V97.051C161.559 94.041 163.197 92.109 163.197 90.78C163.197 89.88 162.71 89.348 161.78 89.348C160.792 89.348 160.098 89.644 159.345 90.072L158.607 88.759C159.492 88.139 160.555 87.667 161.853 87.667C164.096 87.667 165.173 88.877 165.173 90.736C165.173 92.432 164.199 93.937 161.646 96.505H165.396Z" fill="white"/>
<path d="M170.707 87.667C172.743 87.667 174.13 88.921 174.13 90.972V95.104C174.13 97.155 172.743 98.41 170.707 98.41C168.686 98.41 167.298 97.155 167.298 95.104V90.972C167.298 88.921 168.685 87.667 170.707 87.667ZM170.707 96.697C171.622 96.697 172.197 96.106 172.197 94.926V91.149C172.197 89.983 171.621 89.378 170.707 89.378C169.822 89.378 169.231 89.982 169.231 91.149V94.926C169.231 96.106 169.821 96.697 170.707 96.697Z" fill="white"/>
<path d="M182.793 96.239V98.202H175.784V96.874C178.44 94.292 180.255 92.138 180.255 90.869C180.255 90.043 179.768 89.614 179.015 89.614C178.086 89.614 177.377 89.91 176.58 90.307L175.754 88.773C176.684 88.138 177.82 87.667 179.118 87.667C181.42 87.667 182.585 88.877 182.585 90.824C182.585 92.418 181.818 93.835 179.427 96.239H182.793Z" fill="white"/>
<path d="M188.134 87.667C190.229 87.667 191.66 88.936 191.66 91.002V95.074C191.66 97.139 190.229 98.409 188.134 98.409C186.053 98.409 184.622 97.139 184.622 95.074V91.002C184.623 88.936 186.054 87.667 188.134 87.667ZM188.134 96.432C188.886 96.432 189.373 95.915 189.373 94.897V91.179C189.373 90.176 188.886 89.645 188.134 89.645C187.411 89.645 186.909 90.176 186.909 91.179V94.897C186.91 95.915 187.411 96.432 188.134 96.432Z" fill="white"/>
<path d="M202.356 92.802V94.749H197.649V92.802H202.356Z" fill="white"/>
<path d="M215.487 96.239V98.202H208.478V96.874C211.134 94.292 212.949 92.138 212.949 90.869C212.949 90.043 212.463 89.614 211.71 89.614C210.78 89.614 210.072 89.91 209.275 90.307L208.449 88.773C209.379 88.138 210.514 87.667 211.813 87.667C214.115 87.667 215.281 88.877 215.281 90.824C215.281 92.418 214.513 93.835 212.123 96.239H215.487Z" fill="white"/>
<path d="M220.827 87.667C222.923 87.667 224.354 88.936 224.354 91.002V95.074C224.354 97.139 222.922 98.409 220.827 98.409C218.747 98.409 217.315 97.139 217.315 95.074V91.002C217.315 88.936 218.747 87.667 220.827 87.667ZM220.827 96.432C221.58 96.432 222.067 95.915 222.067 94.897V91.179C222.067 90.176 221.58 89.645 220.827 89.645C220.104 89.645 219.602 90.176 219.602 91.179V94.897C219.603 95.915 220.104 96.432 220.827 96.432Z" fill="white"/>
<path d="M231.503 96.505V98.202H224.656V97.051C227.667 94.041 229.304 92.109 229.304 90.78C229.304 89.88 228.817 89.348 227.887 89.348C226.899 89.348 226.205 89.644 225.452 90.072L224.715 88.759C225.6 88.139 226.662 87.667 227.961 87.667C230.203 87.667 231.28 88.877 231.28 90.736C231.28 92.432 230.306 93.937 227.754 96.505H231.503Z" fill="white"/>
<path d="M240.179 95.0289V95.2649C240.179 97.0659 238.969 98.4089 236.726 98.4089C235.427 98.4089 234.365 98.0109 233.465 97.3899L234.1 95.9889C234.867 96.4019 235.575 96.7119 236.549 96.7119C237.537 96.7119 238.142 96.1219 238.142 95.1619C238.142 94.0409 237.612 93.5099 236.579 93.5099H235.502V92.0649H236.668C237.612 92.0649 238.055 91.5179 238.04 90.6629C238.025 89.8659 237.612 89.3349 236.727 89.3349C235.724 89.3349 235.03 89.542 234.248 89.896L233.717 88.5839C234.631 88.0229 235.561 87.6689 236.86 87.6689C239.029 87.6689 239.973 88.9679 239.973 90.591C239.973 91.299 239.693 92.1399 238.97 92.6859C239.706 93.0969 240.179 94.2029 240.179 95.0289Z" fill="white"/>
<path d="M72.9199 108.358L73.1109 106.97H80.0899L79.8979 108.358H77.1829L75.9299 117.3H74.3799L75.6339 108.359L72.9199 108.358Z" fill="white"/>
<path d="M84.2209 109.479L84.1619 110.836C83.2469 110.836 82.3319 111.278 81.7269 111.942L80.9749 117.298H79.4999L80.5769 109.625H81.8459L81.8609 110.54C82.4949 109.907 83.3949 109.479 84.2209 109.479Z" fill="white"/>
<path d="M89.3789 117.3L89.3939 116.547C88.8329 117.064 87.9479 117.447 87.0779 117.447C85.6609 117.447 84.7469 116.886 84.7469 115.588C84.7469 113.611 85.9559 113.021 87.8749 113.021C88.4949 113.021 89.0999 113.095 89.6899 113.228L89.8079 112.372C89.9699 111.192 89.5569 110.779 88.4499 110.779C87.5209 110.779 86.7239 111.074 86.1779 111.354L85.8529 110.292C86.5459 109.908 87.6239 109.48 88.8329 109.48C90.7509 109.48 91.5629 110.41 91.3119 112.224L90.5889 117.3H89.3789ZM87.4759 116.252C88.2429 116.252 88.9519 115.868 89.3939 115.308L89.5419 114.26C88.9809 114.143 88.4059 114.083 87.8149 114.083C86.7529 114.083 86.2659 114.363 86.2659 115.337C86.2659 116.016 86.7519 116.252 87.4759 116.252Z" fill="white"/>
<path d="M100.179 109.627L96.358 117.3H94.941L93.288 109.627H94.837L95.929 115.515L98.629 109.627H100.179Z" fill="white"/>
<path d="M107.527 112.549L107.335 113.921H102.628L102.584 114.275C102.422 115.544 102.909 116.164 103.957 116.164C104.886 116.164 105.654 115.868 106.347 115.485L106.775 116.517C106.008 117.034 105.004 117.447 103.765 117.447C101.862 117.447 100.844 116.297 101.109 114.378L101.375 112.549C101.641 110.646 102.983 109.48 104.887 109.48C106.789 109.479 107.792 110.646 107.527 112.549ZM104.708 110.764C103.66 110.764 103.011 111.398 102.805 112.667L102.775 112.844H106.021L106.051 112.667C106.258 111.412 105.756 110.764 104.708 110.764Z" fill="white"/>
<path d="M110.831 106.233H112.307L110.758 117.299H109.282L110.831 106.233Z" fill="white"/>
<path d="M124.863 117.3H123.55L122.65 113.228L120.569 117.3H119.241L117.574 106.971H119.182L120.23 115.47L122.178 111.501L121.145 106.971H122.562L123.093 109.804L124.45 106.971H125.852L123.595 111.383L124.436 115.47L127.83 106.971H129.394L124.863 117.3Z" fill="white"/>
<path d="M135.826 112.549L135.634 113.921H130.927L130.883 114.275C130.721 115.544 131.208 116.164 132.256 116.164C133.185 116.164 133.953 115.868 134.646 115.485L135.074 116.517C134.307 117.034 133.303 117.447 132.064 117.447C130.161 117.447 129.143 116.297 129.408 114.378L129.674 112.549C129.94 110.646 131.282 109.48 133.186 109.48C135.088 109.479 136.091 110.646 135.826 112.549ZM133.007 110.764C131.959 110.764 131.31 111.398 131.104 112.667L131.074 112.844H134.32L134.35 112.667C134.557 111.412 134.055 110.764 133.007 110.764Z" fill="white"/>
<path d="M144.317 112.549L144.125 113.921H139.418L139.374 114.275C139.212 115.544 139.699 116.164 140.747 116.164C141.676 116.164 142.444 115.868 143.137 115.485L143.565 116.517C142.798 117.034 141.794 117.447 140.555 117.447C138.652 117.447 137.634 116.297 137.899 114.378L138.165 112.549C138.431 110.646 139.773 109.48 141.677 109.48C143.58 109.479 144.583 110.646 144.317 112.549ZM141.499 110.764C140.451 110.764 139.802 111.398 139.596 112.667L139.566 112.844H142.812L142.842 112.667C143.048 111.412 142.546 110.764 141.499 110.764Z" fill="white"/>
<path d="M152.609 116.179L152.417 117.359C150.957 117.581 150.336 117.448 149.731 115.914L148.964 113.98L147.872 115.057L147.562 117.3H146.086L147.635 106.234H149.111L148.167 113.036L151.62 109.628H153.406L150.13 112.83L151.296 115.634C151.591 116.355 152.167 116.297 152.609 116.179Z" fill="white"/>
<path d="M155.515 106.233H156.991L155.442 117.299H153.966L155.515 106.233Z" fill="white"/>
<path d="M161.653 116.267H161.668L160.015 119.529H158.495L159.852 116.991L158.17 109.628H159.719L160.841 115.25L163.511 109.628H165.06L161.653 116.267Z" fill="white"/>
<path d="M177.021 116.164V117.358C175.59 117.58 174.852 117.476 174.07 115.913L172.727 113.301C172.122 113.301 171.561 113.257 171.016 113.095V117.3H169.481V106.971H173.14C175.147 106.971 176.416 108.226 176.416 109.878V110.409C176.416 111.678 175.619 112.74 174.306 113.124L175.649 115.618C176.047 116.355 176.593 116.281 177.021 116.164ZM171.016 111.723C171.68 111.9 172.329 111.944 173.082 111.944C174.248 111.944 174.867 111.192 174.867 110.217V110.055C174.867 109.067 174.247 108.373 173.14 108.373H171.015V111.723H171.016Z" fill="white"/>
<path d="M180.192 114.275C180.192 115.544 180.782 116.164 181.83 116.164C182.76 116.164 183.483 115.868 184.117 115.485L184.693 116.517C183.999 117.034 183.055 117.447 181.816 117.447C179.913 117.447 178.732 116.297 178.732 114.378V112.549C178.732 110.646 179.913 109.48 181.816 109.48C183.719 109.48 184.885 110.646 184.885 112.549V113.921H180.193L180.192 114.275ZM183.424 112.844V112.667C183.424 111.412 182.863 110.764 181.816 110.764C180.769 110.764 180.178 111.398 180.178 112.667V112.844H183.424Z" fill="white"/>
<path d="M193.104 112.224V117.3H191.894L191.791 116.547C191.304 117.064 190.478 117.447 189.607 117.447C188.043 117.447 186.996 116.798 186.996 115.234C186.996 113.507 188.088 113.02 189.785 113.02C190.405 113.02 191.024 113.094 191.629 113.227V112.371C191.629 111.191 191.142 110.778 190.036 110.778C189.106 110.778 188.354 111.073 187.852 111.353L187.38 110.291C188.015 109.907 189.033 109.479 190.243 109.479C192.159 109.479 193.104 110.409 193.104 112.224ZM191.628 115.322V114.26C191.038 114.143 190.462 114.083 189.872 114.083C188.957 114.083 188.485 114.305 188.485 115.16C188.485 115.986 189.046 116.252 189.842 116.252C190.61 116.252 191.259 115.868 191.628 115.322Z" fill="white"/>
<path d="M201.676 106.233V117.3H200.51L200.406 116.592C199.889 117.109 199.152 117.447 198.267 117.447C196.496 117.447 195.582 116.297 195.582 114.378V112.431C195.582 110.528 196.467 109.48 198.193 109.48C198.872 109.48 199.536 109.584 200.2 109.878V106.233H201.676ZM200.2 115.249V111.177C199.624 110.897 199.034 110.808 198.444 110.808C197.47 110.808 197.027 111.398 197.027 112.608V114.216C197.027 115.486 197.44 116.149 198.488 116.149C199.285 116.148 199.86 115.824 200.2 115.249Z" fill="white"/>
<path d="M205.614 114.275C205.614 115.544 206.204 116.164 207.252 116.164C208.182 116.164 208.904 115.868 209.539 115.485L210.114 116.517C209.421 117.034 208.476 117.447 207.237 117.447C205.333 117.447 204.153 116.297 204.153 114.378V112.549C204.153 110.646 205.333 109.48 207.237 109.48C209.14 109.48 210.305 110.646 210.305 112.549V113.921H205.614V114.275ZM208.845 112.844V112.667C208.845 111.412 208.284 110.764 207.238 110.764C206.19 110.764 205.599 111.398 205.599 112.667V112.844H208.845Z" fill="white"/>
<path d="M214.213 111.929V117.3H212.737V109.627H214.007L214.154 110.542C214.7 109.907 215.541 109.48 216.367 109.48L216.485 110.837C215.57 110.837 214.744 111.279 214.213 111.929Z" fill="white"/>
<path d="M221.044 116.223C222.092 116.223 222.608 115.736 222.608 115.161C222.608 114.468 222.077 114.231 220.94 114.04C219.657 113.818 218.418 113.538 218.418 111.693C218.418 110.41 219.288 109.48 221.162 109.48C222.372 109.48 223.169 109.849 223.935 110.395L223.374 111.398C222.71 111 222.091 110.705 221.205 110.705C220.231 110.705 219.877 111.118 219.877 111.664C219.877 112.49 220.526 112.608 221.545 112.77C222.814 112.977 224.053 113.287 224.067 115.117C224.083 116.43 223.02 117.448 221.101 117.448C219.862 117.448 218.873 117.035 218.165 116.533L218.726 115.501C219.362 115.913 220.114 116.223 221.044 116.223Z" fill="white"/>
<path d="M226.155 107.975C225.86 107.828 225.697 107.533 225.697 107.193C225.697 106.544 226.14 106.263 226.657 106.263C227.188 106.263 227.645 106.543 227.645 107.207C227.645 108.004 227.203 108.992 225.86 109.421L225.506 108.742C225.786 108.564 226.111 108.299 226.155 107.975Z" fill="white"/>
<path d="M237.059 117.507C235.067 117.507 233.606 116.223 233.606 114.216V110.055C233.606 108.048 235.067 106.765 237.059 106.765C238.386 106.765 239.139 107.163 239.936 107.753L239.287 108.845C238.594 108.417 238.092 108.137 237.059 108.137C235.922 108.137 235.156 108.934 235.156 110.247V114.01C235.156 115.367 235.937 116.134 237.059 116.134C238.091 116.134 238.593 115.854 239.287 115.426L239.936 116.518C239.139 117.108 238.386 117.507 237.059 117.507Z" fill="white"/>
<path d="M248.036 112.269V117.3H246.575V112.46C246.575 111.31 246.221 110.793 245.218 110.793C244.539 110.793 243.89 111.265 243.506 111.767V117.3H242.03V106.234H243.506V110.38C244.037 109.849 244.76 109.48 245.513 109.48C247.298 109.479 248.036 110.453 248.036 112.269Z" fill="white"/>
<path d="M253.583 109.479C255.486 109.479 256.651 110.63 256.651 112.548V114.377C256.651 116.296 255.471 117.446 253.583 117.446C251.679 117.446 250.499 116.296 250.499 114.377V112.548C250.499 110.631 251.679 109.479 253.583 109.479ZM253.583 116.148C254.615 116.148 255.19 115.485 255.19 114.215V112.71C255.19 111.441 254.615 110.777 253.583 110.777C252.535 110.777 251.96 111.441 251.96 112.71V114.215C251.96 115.485 252.535 116.148 253.583 116.148Z" fill="white"/>
<path d="M259.854 108.388C259.278 108.388 258.879 108.078 258.879 107.473C258.879 106.869 259.277 106.543 259.854 106.543C260.415 106.543 260.828 106.868 260.828 107.473C260.827 108.078 260.414 108.388 259.854 108.388ZM260.605 117.3H259.129V109.627H260.605V117.3Z" fill="white"/>
<path d="M266.052 116.148C266.982 116.148 267.528 115.868 268.161 115.485L268.752 116.517C268.059 117.034 267.247 117.447 266.007 117.447C264.104 117.447 262.939 116.281 262.939 114.378V112.549C262.939 110.646 264.104 109.48 266.007 109.48C267.277 109.48 267.985 109.864 268.752 110.424L268.147 111.443C267.483 111.03 267.026 110.779 266.052 110.779C264.975 110.779 264.4 111.443 264.4 112.726V114.202C264.399 115.485 264.975 116.148 266.052 116.148Z" fill="white"/>
<path d="M272.247 114.275C272.247 115.544 272.838 116.164 273.886 116.164C274.816 116.164 275.538 115.868 276.173 115.485L276.748 116.517C276.055 117.034 275.11 117.447 273.871 117.447C271.967 117.447 270.787 116.297 270.787 114.378V112.549C270.787 110.646 271.967 109.48 273.871 109.48C275.774 109.48 276.939 110.646 276.939 112.549V113.921H272.247V114.275ZM275.479 112.844V112.667C275.479 111.412 274.918 110.764 273.872 110.764C272.824 110.764 272.233 111.398 272.233 112.667V112.844H275.479Z" fill="white"/>
<path d="M290.919 117.3H289.222L288.367 114.511C287.216 114.703 286.065 114.703 284.914 114.511L284.059 117.3H282.376L285.903 106.971H287.363L290.919 117.3ZM287.997 113.271L286.625 108.815L285.268 113.271C286.183 113.448 287.082 113.448 287.997 113.271Z" fill="white"/>
<path d="M301.423 109.627L298.841 117.3H297.425L296.406 113.847L295.285 117.3H293.883L291.301 109.627H292.851L294.607 115.515L295.788 111.708L295.168 109.627H296.732L298.163 115.5L299.875 109.627H301.423Z" fill="white"/>
<path d="M309.095 112.224V117.3H307.885L307.781 116.547C307.295 117.064 306.469 117.447 305.597 117.447C304.034 117.447 302.986 116.798 302.986 115.234C302.986 113.507 304.078 113.02 305.774 113.02C306.394 113.02 307.014 113.094 307.619 113.227V112.371C307.619 111.191 307.133 110.778 306.025 110.778C305.095 110.778 304.343 111.073 303.841 111.353L303.369 110.291C304.003 109.907 305.021 109.479 306.231 109.479C308.15 109.479 309.095 110.409 309.095 112.224ZM307.619 115.322V114.26C307.029 114.143 306.454 114.083 305.863 114.083C304.948 114.083 304.476 114.305 304.476 115.16C304.476 115.986 305.037 116.252 305.833 116.252C306.602 116.252 307.25 115.868 307.619 115.322Z" fill="white"/>
<path d="M313.151 111.929V117.3H311.675V109.627H312.945L313.092 110.542C313.638 109.907 314.479 109.48 315.305 109.48L315.423 110.837C314.509 110.837 313.683 111.279 313.151 111.929Z" fill="white"/>
<path d="M323.244 106.233V117.3H322.078L321.975 116.592C321.458 117.109 320.72 117.447 319.835 117.447C318.064 117.447 317.149 116.297 317.149 114.378V112.431C317.149 110.528 318.034 109.48 319.76 109.48C320.439 109.48 321.103 109.584 321.767 109.878V106.233H323.244ZM321.769 115.249V111.177C321.194 110.897 320.603 110.808 320.013 110.808C319.039 110.808 318.597 111.398 318.597 112.608V114.216C318.597 115.486 319.01 116.149 320.057 116.149C320.854 116.148 321.429 115.824 321.769 115.249Z" fill="white"/>
<path d="M328.378 116.223C329.426 116.223 329.942 115.736 329.942 115.161C329.942 114.468 329.411 114.231 328.274 114.04C326.991 113.818 325.752 113.538 325.752 111.693C325.752 110.41 326.622 109.48 328.496 109.48C329.706 109.48 330.503 109.849 331.269 110.395L330.708 111.398C330.044 111 329.425 110.705 328.539 110.705C327.565 110.705 327.211 111.118 327.211 111.664C327.211 112.49 327.86 112.608 328.879 112.77C330.148 112.977 331.387 113.287 331.401 115.117C331.417 116.43 330.354 117.448 328.435 117.448C327.196 117.448 326.207 117.035 325.499 116.533L326.06 115.501C326.696 115.913 327.448 116.223 328.378 116.223Z" fill="white"/>
</svg>
