<svg width="398" height="132" viewBox="0 0 398 132" fill="none" xmlns="http://www.w3.org/2000/svg">
<mask id="mask0_22_2263" style="mask-type:luminance" maskUnits="userSpaceOnUse" x="31" y="7" width="336" height="118">
<path d="M366.714 7.4292H31.093V124.069H366.714V7.4292Z" fill="white"/>
</mask>
<g mask="url(#mask0_22_2263)">
<path d="M75.003 120.223C66.238 110.603 59.687 118.41 46.569 118.494C46.569 118.494 55.7 128.153 75.003 120.223Z" fill="white"/>
</g>
<path d="M65.535 111.662C58.301 100.841 50.66 107.583 37.677 105.708C37.677 105.708 45.266 116.622 65.535 111.662Z" fill="white"/>
<path d="M59.108 103.452C54.053 92.2874 45.92 97.3714 34.151 93.6284C34.151 93.6284 39.521 104.934 59.108 103.452Z" fill="white"/>
<path d="M51.758 93.8811C49.335 82.8231 41.013 85.8501 31.1 80.2051C31.1 80.2051 33.781 91.4511 51.758 93.8811Z" fill="white"/>
<path d="M48.6221 83.2262C47.8151 72.9983 39.9691 74.6833 31.7681 68.3853C31.7681 68.3853 32.7831 78.8142 48.6221 83.2262Z" fill="white"/>
<path d="M47.4001 72.0293C47.0921 61.7743 39.1741 63.0733 31.2891 56.3823C31.2891 56.3823 31.7951 66.8483 47.4001 72.0293Z" fill="white"/>
<path d="M46.635 62.4443C47.557 52.7493 39.946 53.0363 33.311 45.8013C33.311 45.8013 32.552 55.7173 46.635 62.4443Z" fill="white"/>
<path d="M47.233 52.6373C49.501 44.5123 42.968 43.5893 38.417 36.4033C38.417 36.4033 36.253 44.7423 47.233 52.6373Z" fill="white"/>
<path d="M50.1251 43.5524C52.5121 35.8074 46.2601 34.7534 42.0741 27.7344C42.0741 27.7344 39.7821 35.6874 50.1251 43.5524Z" fill="white"/>
<path d="M51.27 36.0864C54.216 29.9224 49.133 28.2704 46.508 21.8984C46.508 21.8984 43.615 28.2474 51.27 36.0864Z" fill="white"/>
<path d="M54.036 30.4043C57.684 25.4263 53.448 23.1063 52.184 17.0083C52.184 17.0083 48.552 22.1593 54.036 30.4043Z" fill="white"/>
<path d="M56.98 24.1023C61.185 20.6663 58.086 17.7533 58.352 12.2783C58.352 12.2783 54.122 15.8663 56.98 24.1023Z" fill="white"/>
<path d="M61.9701 19.6644C66.6141 16.8524 63.9541 13.5334 64.9831 8.14941C64.9831 8.14941 60.2941 11.1084 61.9701 19.6644Z" fill="white"/>
<path d="M126.991 43.2424H121.53C120.9 43.2424 120.69 43.0324 120.69 42.4024V14.6774C120.69 13.8374 121.11 13.8374 121.53 13.8374H126.991C131.612 13.8374 133.292 16.8614 133.292 21.7344C133.292 24.3384 132.998 25.8094 131.99 27.2794C131.822 27.5314 131.696 27.6994 131.696 27.8254C131.696 27.9514 131.78 28.1194 131.99 28.4554C132.914 30.0944 133.292 31.9844 133.292 34.8414C133.292 41.1424 131.192 43.2424 126.991 43.2424ZM129.091 21.1884C129.049 19.2974 128.881 17.5754 126.991 17.5754H125.731C124.891 17.5754 124.891 17.5754 124.891 18.4164V25.1374C124.891 25.9784 124.891 25.9784 125.731 25.9784H126.991C128.755 25.9784 129.049 24.3814 129.091 22.6594V21.1884ZM126.991 39.5044C129.091 39.5044 129.091 37.3614 129.091 35.2194V34.0014C129.091 31.8584 129.091 29.7164 126.991 29.7164H125.731C124.891 29.7164 124.891 29.7164 124.891 30.5144V38.6634C124.891 39.5044 124.891 39.5044 125.731 39.5044H126.991Z" fill="white"/>
<path d="M136.775 42.4024V14.6774C136.775 14.0474 136.985 13.8374 137.615 13.8374H146.478C147.108 13.8374 147.318 14.0474 147.318 14.6774V16.9464C147.318 17.5764 147.108 17.7874 146.478 17.7874H141.815C140.975 17.7874 140.975 17.7874 140.975 18.6274V24.9284C140.975 25.7694 140.975 25.7694 141.815 25.7694H146.478C147.108 25.7694 147.318 25.9794 147.318 26.6094V28.8784C147.318 29.5084 147.108 29.7184 146.478 29.7184H141.815C140.975 29.7184 140.975 29.7184 140.975 30.5584V38.4554C140.975 39.2964 140.975 39.2964 141.815 39.2964H146.478C147.108 39.2964 147.318 39.5064 147.318 40.1364V42.4054C147.318 43.0354 147.108 43.2454 146.478 43.2454H137.615C137.195 43.2424 136.775 43.2424 136.775 42.4024Z" fill="white"/>
<path d="M151.091 20.3064C151.091 16.5264 153.192 13.7114 157.392 13.7114C161.887 13.7114 163.651 16.7354 163.651 21.2734C163.651 21.9034 163.441 22.2394 162.811 22.2394H160.332C159.702 22.2394 159.492 22.0294 159.492 21.3994C159.492 19.3404 159.282 17.5764 157.391 17.5764C155.291 17.5764 155.291 19.6354 155.291 20.4754C155.291 22.5754 156.803 24.8854 158.987 27.2804C161.424 29.9264 163.65 33.0774 163.65 36.7744C163.65 40.5544 161.549 43.3694 157.349 43.3694C152.854 43.3694 151.09 40.3454 151.09 35.8074C151.09 35.1774 151.3 34.8414 151.93 34.8414H154.409C155.039 34.8414 155.249 35.0514 155.249 35.6814C155.249 37.7404 155.459 39.5044 157.349 39.5044C159.45 39.5044 159.45 37.4454 159.45 36.6064C159.45 34.5054 157.938 32.1114 155.753 29.7164C153.317 27.0694 151.091 24.0034 151.091 20.3064Z" fill="white"/>
<path d="M166.421 13.8374H177.343C177.973 13.8374 178.183 14.0474 178.183 14.6774V16.9464C178.183 17.5764 177.973 17.7874 177.343 17.7874H174.822C173.982 17.7874 173.982 17.7874 173.982 18.6274V42.4034C173.982 43.2434 173.562 43.2434 173.142 43.2434H170.621C170.201 43.2434 169.781 43.2434 169.781 42.4034V18.6264C169.781 17.7864 169.781 17.7864 168.983 17.7864H166.421C165.581 17.7864 165.581 17.3654 165.581 16.9454V14.6764C165.581 14.2574 165.581 13.8374 166.421 13.8374Z" fill="white"/>
<path d="M197.164 35.2194C197.164 37.3204 197.164 39.5044 199.265 39.5044C201.365 39.5044 201.365 37.3614 201.365 35.2194V34.0014C201.365 33.3704 201.575 33.1604 202.206 33.1604H204.727C205.357 33.1604 205.567 33.3704 205.567 34.0014V34.9674C205.567 41.2684 203.466 43.3684 199.266 43.3684C195.065 43.3684 192.965 41.3094 192.965 34.9674V22.1124C192.965 15.7694 195.065 13.7114 199.266 13.7114C203.466 13.7114 205.567 15.8124 205.567 22.1124V23.0784C205.567 23.7094 205.357 23.9194 204.727 23.9194H202.206C201.575 23.9194 201.365 23.7094 201.365 23.0784V21.8604C201.365 19.7174 201.365 17.5754 199.265 17.5754C197.164 17.5754 197.164 19.7604 197.164 21.8604V35.2194Z" fill="white"/>
<path d="M219.341 31.1874L221.525 42.3614C221.651 43.0334 221.357 43.2434 221.021 43.2434H218.375C217.829 43.2434 217.577 43.2434 217.451 42.6134L215.434 32.2794H214.09C213.249 32.2794 213.249 32.2794 213.249 33.1194V42.4034C213.249 43.2434 212.829 43.2434 212.409 43.2434H209.888C209.468 43.2434 209.048 43.2434 209.048 42.4034V14.6774C209.048 14.0474 209.258 13.8374 209.888 13.8374H215.349C219.55 13.8374 221.65 15.9384 221.65 22.2384V23.8774C221.65 27.6994 220.853 29.9684 219.341 31.1874ZM213.249 27.6994C213.249 28.5404 213.249 28.5404 214.09 28.5404H215.35C217.451 28.5404 217.451 26.3974 217.451 24.2554V21.8604C217.451 19.7174 217.451 17.5754 215.35 17.5754H214.09C213.249 17.5754 213.249 17.5754 213.249 18.4164V27.6994Z" fill="white"/>
<path d="M234.376 13.8374H236.897C237.527 13.8374 237.737 14.0474 237.737 14.6774V34.8414C237.737 41.1424 235.636 43.2424 231.436 43.2424C227.235 43.2424 225.134 41.1834 225.134 34.8414V14.6774C225.134 14.0474 225.344 13.8374 225.975 13.8374H228.495C229.126 13.8374 229.336 14.0474 229.336 14.6774V35.2194C229.336 37.3204 229.336 39.5044 231.437 39.5044C233.537 39.5044 233.537 37.3614 233.537 35.2194V14.6774C233.535 14.0474 233.745 13.8374 234.376 13.8374Z" fill="white"/>
<path d="M241.22 42.4024V14.6774C241.22 14.0474 241.43 13.8374 242.06 13.8374H244.581C245.211 13.8374 245.421 14.0474 245.421 14.6774V42.4034C245.421 43.2434 245.001 43.2434 244.581 43.2434H242.06C241.64 43.2424 241.22 43.2424 241.22 42.4024Z" fill="white"/>
<path d="M248.274 20.3064C248.274 16.5264 250.375 13.7114 254.576 13.7114C259.071 13.7114 260.835 16.7354 260.835 21.2734C260.835 21.9034 260.625 22.2394 259.995 22.2394H257.516C256.886 22.2394 256.676 22.0294 256.676 21.3994C256.676 19.3404 256.466 17.5764 254.575 17.5764C252.474 17.5764 252.474 19.6354 252.474 20.4754C252.474 22.5754 253.987 24.8854 256.17 27.2804C258.607 29.9264 260.833 33.0774 260.833 36.7744C260.833 40.5544 258.732 43.3694 254.532 43.3694C250.037 43.3694 248.272 40.3454 248.272 35.8074C248.272 35.1774 248.483 34.8414 249.113 34.8414H251.592C252.222 34.8414 252.432 35.0514 252.432 35.6814C252.432 37.7404 252.642 39.5044 254.533 39.5044C256.634 39.5044 256.634 37.4454 256.634 36.6064C256.634 34.5054 255.121 32.1114 252.937 29.7164C250.501 27.0694 248.274 24.0034 248.274 20.3064Z" fill="white"/>
<path d="M266.291 42.4024V14.6774C266.291 14.0474 266.501 13.8374 267.132 13.8374H275.995C276.625 13.8374 276.835 14.0474 276.835 14.6774V16.9464C276.835 17.5764 276.625 17.7874 275.995 17.7874H271.332C270.492 17.7874 270.492 17.7874 270.492 18.6274V24.9284C270.492 25.7694 270.492 25.7694 271.332 25.7694H275.995C276.625 25.7694 276.835 25.9794 276.835 26.6094V28.8784C276.835 29.5084 276.625 29.7184 275.995 29.7184H271.332C270.492 29.7184 270.492 29.7184 270.492 30.5584V38.4554C270.492 39.2964 270.492 39.2964 271.332 39.2964H275.995C276.625 39.2964 276.835 39.5064 276.835 40.1364V42.4054C276.835 43.0354 276.625 43.2454 275.995 43.2454H267.132C266.711 43.2424 266.291 43.2424 266.291 42.4024Z" fill="white"/>
<path d="M112.987 80.9102V53.1852C112.987 52.5552 113.197 52.3452 113.827 52.3452H116.347C116.977 52.3452 117.187 52.5552 117.187 53.1852V76.6672C117.187 77.5492 117.187 77.5492 118.069 77.5492H122.69C123.32 77.5492 123.53 77.7602 123.53 78.3902V80.9112C123.53 81.5412 123.32 81.7512 122.69 81.7512H113.827C113.197 81.7502 112.987 81.5402 112.987 80.9102Z" fill="white"/>
<path d="M126.384 80.9102V53.1852C126.384 52.5552 126.594 52.3452 127.224 52.3452H129.744C130.374 52.3452 130.584 52.5552 130.584 53.1852V80.9102C130.584 81.7502 130.164 81.7502 129.744 81.7502H127.224C126.804 81.7502 126.384 81.7502 126.384 80.9102Z" fill="white"/>
<path d="M143.731 81.2462L138.606 66.8372C138.522 66.5432 138.27 66.6272 138.27 66.8372V80.9102C138.27 81.5402 138.06 81.7502 137.43 81.7502H134.91C134.28 81.7502 134.07 81.5402 134.07 80.9102V53.1852C134.07 52.5552 134.28 52.3452 134.91 52.3452H137.22C137.682 52.3452 137.892 52.4292 138.06 52.8912L143.185 67.4682C143.269 67.7202 143.521 67.6782 143.521 67.4682V53.1852C143.521 52.5552 143.731 52.3452 144.361 52.3452H146.881C147.511 52.3452 147.721 52.5552 147.721 53.1852V80.9102C147.721 81.5402 147.511 81.7502 146.881 81.7502H144.571C144.193 81.7502 143.899 81.6662 143.731 81.2462Z" fill="white"/>
<path d="M151.206 80.9102V53.1852C151.206 52.5552 151.416 52.3452 152.046 52.3452H160.909C161.539 52.3452 161.749 52.5552 161.749 53.1852V55.4542C161.749 56.0842 161.539 56.2952 160.909 56.2952H156.246C155.406 56.2952 155.406 56.2952 155.406 57.1352V63.4362C155.406 64.2772 155.406 64.2772 156.246 64.2772H160.909C161.539 64.2772 161.749 64.4872 161.749 65.1172V67.3862C161.749 68.0162 161.539 68.2262 160.909 68.2262H156.246C155.406 68.2262 155.406 68.2262 155.406 69.0662V76.9632C155.406 77.8042 155.406 77.8042 156.246 77.8042H160.909C161.539 77.8042 161.749 78.0142 161.749 78.6442V80.9132C161.749 81.5432 161.539 81.7532 160.909 81.7532H152.046C151.625 81.7502 151.206 81.7502 151.206 80.9102Z" fill="white"/>
<path d="M183.991 81.8762C179.79 81.8762 177.69 79.8172 177.69 73.4752V60.6202C177.69 54.2772 179.79 52.2192 183.991 52.2192C188.192 52.2192 190.292 54.3202 190.292 60.6202V73.4742C190.292 79.7752 188.192 81.8762 183.991 81.8762ZM183.991 56.0832C181.89 56.0832 181.89 58.2682 181.89 60.3682V73.7262C181.89 75.8272 181.89 78.0112 183.991 78.0112C186.091 78.0112 186.091 75.8682 186.091 73.7262V60.3682C186.091 58.2262 186.091 56.0832 183.991 56.0832Z" fill="white"/>
<path d="M206.336 52.3452C206.756 52.3452 207.176 52.3452 207.05 53.0592L201.757 80.9952C201.631 81.6252 201.505 81.7512 200.833 81.7512H198.564C197.892 81.7512 197.766 81.6252 197.64 80.9952L192.348 53.0592C192.222 52.3452 192.642 52.3452 193.062 52.3452H195.583C196.129 52.3452 196.381 52.3452 196.507 52.9752L199.531 71.0802C199.573 71.2902 199.825 71.2902 199.867 71.0802L202.891 52.9752C203.018 52.3452 203.27 52.3452 203.816 52.3452H206.336Z" fill="white"/>
<path d="M211.713 80.9102V53.1852C211.713 52.5552 211.924 52.3452 212.554 52.3452H221.417C222.047 52.3452 222.258 52.5552 222.258 53.1852V55.4542C222.258 56.0842 222.047 56.2952 221.417 56.2952H216.754C215.914 56.2952 215.914 56.2952 215.914 57.1352V63.4362C215.914 64.2772 215.914 64.2772 216.754 64.2772H221.417C222.047 64.2772 222.258 64.4872 222.258 65.1172V67.3862C222.258 68.0162 222.047 68.2262 221.417 68.2262H216.754C215.914 68.2262 215.914 68.2262 215.914 69.0662V76.9632C215.914 77.8042 215.914 77.8042 216.754 77.8042H221.417C222.047 77.8042 222.258 78.0142 222.258 78.6442V80.9132C222.258 81.5432 222.047 81.7532 221.417 81.7532H212.554C212.133 81.7502 211.713 81.7502 211.713 80.9102Z" fill="white"/>
<path d="M236.033 69.6942L238.217 80.8682C238.343 81.5402 238.049 81.7502 237.713 81.7502H235.067C234.52 81.7502 234.268 81.7502 234.143 81.1202L232.126 70.7862H230.781C229.941 70.7862 229.941 70.7862 229.941 71.6262V80.9102C229.941 81.7502 229.521 81.7502 229.101 81.7502H226.58C226.159 81.7502 225.739 81.7502 225.739 80.9102V53.1852C225.739 52.5552 225.95 52.3452 226.58 52.3452H232.041C236.241 52.3452 238.342 54.4462 238.342 60.7462V62.3852C238.343 66.2072 237.545 68.4762 236.033 69.6942ZM229.941 66.2072C229.941 67.0482 229.941 67.0482 230.781 67.0482H232.042C234.143 67.0482 234.143 64.9052 234.143 62.7632V60.3682C234.143 58.2252 234.143 56.0832 232.042 56.0832H230.781C229.941 56.0832 229.941 56.0832 229.941 56.9242V66.2072Z" fill="white"/>
<path d="M252.287 81.7502C251.74 81.7502 251.488 81.7502 251.362 81.1202L250.984 78.8512C250.816 78.0112 250.816 78.0112 250.06 78.0112H246.322C245.481 78.0112 245.523 78.0112 245.355 78.8512L244.977 81.1202C244.851 81.7502 244.599 81.7502 244.052 81.7502H241.532C241.112 81.7502 240.691 81.7502 240.817 81.0362L246.11 53.1002C246.237 52.4702 246.362 52.3442 247.034 52.3442H249.304C249.976 52.3442 250.101 52.4702 250.228 53.1002L255.521 81.0362C255.647 81.7502 255.226 81.7502 254.806 81.7502H252.287ZM246.279 73.2232C246.153 74.0632 246.153 74.0632 246.994 74.0632H249.346C250.186 74.0632 250.186 74.0632 250.061 73.2232L248.338 63.0152C248.296 62.8052 248.044 62.8052 248.002 63.0152L246.279 73.2232Z" fill="white"/>
<path d="M258.416 80.9102V53.1852C258.416 52.5552 258.626 52.3452 259.256 52.3452H261.777C262.407 52.3452 262.618 52.5552 262.618 53.1852V76.6672C262.618 77.5492 262.618 77.5492 263.5 77.5492H268.12C268.751 77.5492 268.961 77.7602 268.961 78.3902V80.9112C268.961 81.5412 268.751 81.7512 268.12 81.7512H259.257C258.626 81.7502 258.416 81.5402 258.416 80.9102Z" fill="white"/>
<path d="M274.627 80.9102V53.1852C274.627 52.5552 274.838 52.3452 275.468 52.3452H277.989C278.619 52.3452 278.829 52.5552 278.829 53.1852V76.6672C278.829 77.5492 278.829 77.5492 279.712 77.5492H284.332C284.962 77.5492 285.173 77.7602 285.173 78.3902V80.9112C285.173 81.5412 284.962 81.7512 284.332 81.7512H275.469C274.838 81.7502 274.627 81.5402 274.627 80.9102Z" fill="white"/>
<path d="M94.487 100.669V102.25H86.804V101.146C90.747 97.1343 92.43 95.1793 92.43 93.5643C92.43 92.4603 91.835 91.6773 90.543 91.6773C89.336 91.6773 88.554 92.0513 87.738 92.5613L87.007 91.3553C87.976 90.6413 89.098 90.1143 90.594 90.1143C93.075 90.1143 94.232 91.4913 94.232 93.5133C94.232 95.6213 92.787 97.4743 89.625 100.669H94.487Z" fill="white"/>
<path d="M106.896 100.652V102.25H101.933V100.652H103.667V92.4591L102.205 93.4281L101.389 92.1541L103.922 90.3521H105.418V100.653L106.896 100.652Z" fill="white"/>
<path d="M132.327 90.3521L128.723 97.9331V102.25H126.938V97.9491L123.317 90.3511H125.272L127.838 96.0961L130.371 90.3511L132.327 90.3521Z" fill="white"/>
<path d="M146.318 100.652V102.25H139.383V90.3521H146.199V91.9661H141.15V95.4001H145.366V96.9811H141.15V100.653L146.318 100.652Z" fill="white"/>
<path d="M163.652 102.25H161.697L160.711 99.0371C159.385 99.2581 158.059 99.2581 156.733 99.0371L155.747 102.25H153.809L157.871 90.3521H159.554L163.652 102.25ZM160.287 97.6091L158.706 92.4751L157.142 97.6091C158.196 97.8131 159.232 97.8131 160.287 97.6091Z" fill="white"/>
<path d="M179.394 100.941V102.318C177.745 102.573 176.895 102.454 175.994 100.652L174.447 97.6431C173.75 97.6431 173.104 97.5921 172.475 97.4051V102.25H170.707V90.3521H174.922C177.234 90.3521 178.696 91.796 178.696 93.701V94.312C178.696 95.774 177.778 96.9981 176.265 97.4401L177.812 100.313C178.272 101.162 178.901 101.077 179.394 100.941ZM172.476 95.8241C173.241 96.0281 173.989 96.0801 174.856 96.0801C176.199 96.0801 176.913 95.2131 176.913 94.0911V93.9041C176.913 92.7641 176.199 91.9661 174.924 91.9661H172.476V95.8241Z" fill="white"/>
<path d="M190.78 100.873C192.344 100.873 193.245 100.108 193.245 99.0204C193.245 97.7794 192.412 97.2354 190.848 96.9974C188.876 96.7094 187.38 95.8084 187.38 93.4454C187.38 91.5074 188.689 90.1304 191.069 90.1304C192.582 90.1304 193.585 90.5894 194.57 91.3034L193.805 92.5954C192.972 92.0854 192.207 91.7294 191.085 91.7294C189.708 91.7294 189.096 92.4434 189.096 93.3944C189.096 94.7374 189.946 95.1284 191.357 95.3664C193.159 95.6554 194.994 96.4034 194.994 98.8864C194.994 100.943 193.583 102.49 190.829 102.49C189.266 102.49 187.922 101.963 187.038 101.3L187.769 99.9754C188.587 100.465 189.624 100.873 190.78 100.873Z" fill="white"/>
<path d="M221.144 100.941V102.318C219.495 102.573 218.645 102.454 217.745 100.652L216.198 97.6431C215.501 97.6431 214.854 97.5921 214.225 97.4051V102.25H212.457V90.3521H216.673C218.985 90.3521 220.447 91.796 220.447 93.701V94.312C220.447 95.774 219.529 96.9981 218.015 97.4401L219.562 100.313C220.021 101.162 220.65 101.077 221.144 100.941ZM214.225 95.8241C214.991 96.0281 215.739 96.0801 216.606 96.0801C217.948 96.0801 218.663 95.2131 218.663 94.0911V93.9041C218.663 92.7641 217.948 91.9661 216.674 91.9661H214.226L214.225 95.8241Z" fill="white"/>
<path d="M236.086 90.3521L236.07 102.25H234.455L234.302 101.264C233.69 101.927 232.704 102.489 231.497 102.489C229.219 102.489 228.131 101.316 228.131 98.9361V90.3521H229.916V98.6981C229.916 100.261 230.494 100.925 231.837 100.925C232.908 100.925 233.859 100.245 234.302 99.5661V90.3531L236.086 90.3521Z" fill="white"/>
<path d="M252.555 90.3521V102.25H250.871L245.993 93.9041L246.044 102.25H244.293V90.3521H245.959L250.838 98.7321L250.804 90.3521H252.555Z" fill="white"/>
<path d="M267.838 90.3521V102.25H266.154L261.275 93.9041L261.326 102.25H259.576V90.3521H261.242L266.121 98.7321L266.086 90.3521H267.838Z" fill="white"/>
<path d="M276.627 90.3521V102.25H274.859V90.3521H276.627Z" fill="white"/>
<path d="M291.909 90.3521V102.25H290.226L285.347 93.9041L285.398 102.25H283.648V90.3521H285.313L290.192 98.7321L290.158 90.3521H291.909Z" fill="white"/>
<path d="M306.869 95.8583V102.42H305.543L305.254 101.281C304.541 101.961 303.555 102.488 302.365 102.488C300.137 102.488 298.845 101.043 298.845 98.7153V93.9043C298.845 91.5923 300.545 90.1133 302.891 90.1133C304.642 90.1133 305.662 90.6063 306.597 91.3203L305.849 92.5783C305.033 92.0513 304.302 91.6943 302.891 91.6943C301.566 91.6943 300.63 92.5783 300.63 94.1253V98.4773C300.63 100.04 301.411 100.908 302.704 100.908C303.622 100.908 304.522 100.483 305.1 99.7013V97.3893H302.754V95.8593L306.869 95.8583Z" fill="white"/>
<path d="M85.175 111.872L85.344 110.649H91.493L91.324 111.872H88.932L87.827 119.75H86.462L87.567 111.872H85.175Z" fill="white"/>
<path d="M94.691 112.859L94.639 114.055C93.833 114.055 93.027 114.445 92.494 115.031L91.831 119.75H90.531L91.48 112.99H92.598L92.611 113.796C93.17 113.236 93.963 112.859 94.691 112.859Z" fill="white"/>
<path d="M99.685 119.75L99.698 119.087C99.204 119.542 98.424 119.88 97.657 119.88C96.409 119.88 95.603 119.386 95.603 118.242C95.603 116.5 96.669 115.979 98.359 115.979C98.905 115.979 99.438 116.044 99.958 116.162L100.062 115.408C100.205 114.368 99.841 114.004 98.866 114.004C98.047 114.004 97.345 114.264 96.864 114.511L96.578 113.575C97.189 113.236 98.138 112.859 99.204 112.859C100.894 112.859 101.609 113.678 101.388 115.277L100.751 119.75H99.685ZM98.008 118.827C98.684 118.827 99.308 118.489 99.698 117.995L99.828 117.072C99.334 116.968 98.827 116.916 98.307 116.916C97.371 116.916 96.942 117.163 96.942 118.02C96.942 118.619 97.371 118.827 98.008 118.827Z" fill="white"/>
<path d="M108.655 112.99L105.288 119.75H104.04L102.584 112.99H103.949L104.911 118.177L107.29 112.99H108.655Z" fill="white"/>
<path d="M114.336 115.563L114.167 116.772H110.02L109.981 117.084C109.838 118.202 110.267 118.748 111.19 118.748C112.009 118.748 112.685 118.488 113.296 118.15L113.673 119.059C112.997 119.514 112.113 119.878 111.021 119.878C109.344 119.878 108.447 118.864 108.681 117.174L108.915 115.562C109.149 113.885 110.332 112.858 112.009 112.858C113.686 112.859 114.57 113.887 114.336 115.563ZM111.853 113.991C110.93 113.991 110.358 114.55 110.176 115.668L110.15 115.824H113.01L113.036 115.668C113.218 114.562 112.776 113.991 111.853 113.991Z" fill="white"/>
<path d="M116.702 110H118.002L116.637 119.75H115.337L116.702 110Z" fill="white"/>
<path d="M130.951 119.75H129.794L129.001 116.162L127.168 119.75H125.998L124.529 110.649H125.946L126.869 118.137L128.585 114.64L127.675 110.649H128.923L129.391 113.145L130.587 110.649H131.822L129.833 114.537L130.574 118.138L133.564 110.65H134.942L130.951 119.75Z" fill="white"/>
<path d="M140.221 115.563L140.052 116.772H135.905L135.866 117.084C135.723 118.202 136.152 118.748 137.075 118.748C137.894 118.748 138.57 118.488 139.181 118.15L139.558 119.059C138.882 119.514 137.998 119.878 136.906 119.878C135.229 119.878 134.332 118.864 134.566 117.174L134.8 115.562C135.034 113.885 136.217 112.858 137.894 112.858C139.57 112.859 140.455 113.887 140.221 115.563ZM137.737 113.991C136.814 113.991 136.242 114.55 136.06 115.668L136.034 115.824H138.894L138.92 115.668C139.103 114.562 138.66 113.991 137.737 113.991Z" fill="white"/>
<path d="M148.094 115.563L147.925 116.772H143.778L143.739 117.084C143.596 118.202 144.025 118.748 144.948 118.748C145.767 118.748 146.443 118.488 147.054 118.15L147.431 119.059C146.755 119.514 145.871 119.878 144.779 119.878C143.102 119.878 142.205 118.864 142.439 117.174L142.673 115.562C142.907 113.885 144.09 112.858 145.767 112.858C147.443 112.859 148.328 113.887 148.094 115.563ZM145.61 113.991C144.687 113.991 144.115 114.55 143.933 115.668L143.907 115.824H146.767L146.793 115.668C146.976 114.562 146.533 113.991 145.61 113.991Z" fill="white"/>
<path d="M154.841 118.762L154.672 119.802C153.385 119.997 152.839 119.88 152.306 118.529L151.63 116.826L150.668 117.774L150.395 119.751H149.095L150.46 110.001H151.76L150.928 115.994L153.97 112.991H155.543L152.657 115.811L153.684 118.282C153.943 118.918 154.451 118.866 154.841 118.762Z" fill="white"/>
<path d="M156.842 110H158.142L156.777 119.75H155.477L156.842 110Z" fill="white"/>
<path d="M161.691 118.84H161.704L160.248 121.713H158.909L160.105 119.477L158.623 112.991H159.988L160.976 117.944L163.329 112.991H164.694L161.691 118.84Z" fill="white"/>
<path d="M176.908 118.749V119.802C175.647 119.997 174.997 119.906 174.308 118.529L173.125 116.227C172.592 116.227 172.098 116.188 171.617 116.045V119.75H170.265V110.649H173.489C175.258 110.649 176.375 111.754 176.375 113.211V113.679C176.375 114.797 175.673 115.733 174.516 116.072L175.699 118.268C176.05 118.918 176.531 118.853 176.908 118.749ZM171.616 114.836C172.201 114.992 172.773 115.031 173.436 115.031C174.463 115.031 175.009 114.368 175.009 113.51V113.367C175.009 112.496 174.463 111.885 173.488 111.885H171.616V114.836Z" fill="white"/>
<path d="M179 117.085C179 118.203 179.52 118.749 180.443 118.749C181.262 118.749 181.899 118.489 182.458 118.151L182.965 119.06C182.354 119.515 181.522 119.879 180.43 119.879C178.753 119.879 177.713 118.865 177.713 117.175V115.563C177.713 113.886 178.753 112.859 180.43 112.859C182.107 112.859 183.134 113.886 183.134 115.563V116.772H179V117.085ZM181.848 115.824V115.668C181.848 114.563 181.354 113.991 180.431 113.991C179.508 113.991 178.988 114.55 178.988 115.668V115.824H181.848Z" fill="white"/>
<path d="M191.071 115.277V119.75H190.005L189.914 119.087C189.485 119.542 188.757 119.88 187.99 119.88C186.612 119.88 185.689 119.308 185.689 117.93C185.689 116.409 186.651 115.98 188.146 115.98C188.692 115.98 189.238 116.045 189.771 116.163V115.409C189.771 114.369 189.342 114.005 188.367 114.005C187.548 114.005 186.885 114.265 186.443 114.512L186.027 113.576C186.586 113.237 187.483 112.86 188.549 112.86C190.239 112.859 191.071 113.679 191.071 115.277ZM189.771 118.008V117.072C189.251 116.968 188.744 116.916 188.224 116.916C187.418 116.916 187.002 117.111 187.002 117.865C187.002 118.593 187.496 118.827 188.198 118.827C188.875 118.827 189.446 118.489 189.771 118.008Z" fill="white"/>
<path d="M198.065 110V119.75H197.038L196.947 119.126C196.492 119.581 195.842 119.88 195.062 119.88C193.501 119.88 192.696 118.866 192.696 117.176V115.46C192.696 113.783 193.476 112.859 194.997 112.859C195.595 112.859 196.18 112.951 196.765 113.211V110H198.065ZM196.765 117.943V114.354C196.258 114.107 195.738 114.029 195.218 114.029C194.36 114.029 193.97 114.55 193.97 115.616V117.033C193.97 118.151 194.334 118.736 195.257 118.736C195.959 118.736 196.466 118.45 196.765 117.943Z" fill="white"/>
<path d="M200.977 117.085C200.977 118.203 201.498 118.749 202.42 118.749C203.239 118.749 203.876 118.489 204.436 118.151L204.943 119.06C204.332 119.515 203.5 119.879 202.408 119.879C200.731 119.879 199.691 118.865 199.691 117.175V115.563C199.691 113.886 200.732 112.859 202.408 112.859C204.084 112.859 205.112 113.886 205.112 115.563V116.772H200.977V117.085ZM203.824 115.824V115.668C203.824 114.563 203.33 113.991 202.407 113.991C201.484 113.991 200.964 114.55 200.964 115.668V115.824H203.824Z" fill="white"/>
<path d="M209.674 115.018V119.75H208.373V112.99H209.492L209.621 113.796C210.102 113.236 210.844 112.859 211.572 112.859L211.676 114.055C210.869 114.056 210.142 114.445 209.674 115.018Z" fill="white"/>
<path d="M214.77 118.801C215.694 118.801 216.149 118.372 216.149 117.865C216.149 117.254 215.68 117.046 214.679 116.877C213.548 116.682 212.456 116.435 212.456 114.81C212.456 113.679 213.223 112.86 214.874 112.86C215.939 112.86 216.643 113.185 217.318 113.667L216.824 114.551C216.238 114.2 215.693 113.94 214.913 113.94C214.055 113.94 213.742 114.304 213.742 114.786C213.742 115.514 214.314 115.618 215.212 115.761C216.33 115.943 217.422 116.216 217.436 117.828C217.449 118.985 216.512 119.882 214.823 119.882C213.731 119.882 212.86 119.518 212.235 119.076L212.729 118.166C213.288 118.528 213.951 118.801 214.77 118.801Z" fill="white"/>
<path d="M220.193 111.533C219.933 111.403 219.791 111.143 219.791 110.845C219.791 110.273 220.181 110.026 220.636 110.026C221.104 110.026 221.507 110.273 221.507 110.858C221.507 111.56 221.117 112.431 219.934 112.808L219.622 112.21C219.869 112.054 220.154 111.819 220.193 111.533Z" fill="white"/>
<path d="M228.684 119.932C226.928 119.932 225.641 118.801 225.641 117.034V113.368C225.641 111.599 226.928 110.469 228.684 110.469C229.854 110.469 230.516 110.82 231.218 111.34L230.647 112.302C230.036 111.925 229.593 111.678 228.684 111.678C227.682 111.678 227.006 112.38 227.006 113.537V116.851C227.006 118.047 227.695 118.723 228.684 118.723C229.593 118.723 230.036 118.476 230.647 118.099L231.218 119.061C230.516 119.581 229.854 119.932 228.684 119.932Z" fill="white"/>
<path d="M237.796 115.316V119.75H236.509V115.486C236.509 114.471 236.197 114.016 235.313 114.016C234.715 114.016 234.143 114.432 233.805 114.874V119.749H232.504V110H233.805V113.652C234.273 113.184 234.91 112.859 235.573 112.859C237.146 112.859 237.796 113.718 237.796 115.316Z" fill="white"/>
<path d="M242.125 112.859C243.802 112.859 244.829 113.874 244.829 115.563V117.175C244.829 118.865 243.789 119.879 242.125 119.879C240.447 119.879 239.408 118.865 239.408 117.175V115.563C239.408 113.874 240.447 112.859 242.125 112.859ZM242.125 118.736C243.035 118.736 243.542 118.151 243.542 117.033V115.707C243.542 114.589 243.035 114.004 242.125 114.004C241.201 114.004 240.695 114.589 240.695 115.707V117.033C240.695 118.151 241.201 118.736 242.125 118.736Z" fill="white"/>
<path d="M247.09 111.897C246.583 111.897 246.233 111.625 246.233 111.091C246.233 110.557 246.584 110.272 247.09 110.272C247.584 110.272 247.948 110.558 247.948 111.091C247.948 111.624 247.584 111.897 247.09 111.897ZM247.754 119.75H246.453V112.99H247.754V119.75Z" fill="white"/>
<path d="M255.349 118.736C256.168 118.736 256.649 118.489 257.207 118.151L257.728 119.06C257.118 119.515 256.403 119.879 255.31 119.879C253.633 119.879 252.606 118.852 252.606 117.175V115.563C252.606 113.886 253.633 112.859 255.31 112.859C256.428 112.859 257.052 113.197 257.728 113.691L257.196 114.588C256.61 114.224 256.208 114.003 255.349 114.003C254.4 114.003 253.893 114.588 253.893 115.719V117.019C253.893 118.151 254.399 118.736 255.349 118.736Z" fill="white"/>
<path d="M260.444 117.085C260.444 118.203 260.965 118.749 261.886 118.749C262.706 118.749 263.343 118.489 263.902 118.151L264.41 119.06C263.799 119.515 262.967 119.879 261.875 119.879C260.197 119.879 259.157 118.865 259.157 117.175V115.563C259.157 113.886 260.197 112.859 261.875 112.859C263.551 112.859 264.578 113.886 264.578 115.563V116.772H260.444V117.085ZM263.291 115.824V115.668C263.291 114.563 262.797 113.991 261.875 113.991C260.951 113.991 260.432 114.55 260.432 115.668V115.824H263.291Z" fill="white"/>
<path d="M277.267 119.75H275.772L275.018 117.293C274.004 117.462 272.991 117.462 271.976 117.293L271.222 119.75H269.74L272.847 110.649H274.134L277.267 119.75ZM274.693 116.201L273.483 112.274L272.287 116.201C273.094 116.356 273.887 116.356 274.693 116.201Z" fill="white"/>
<path d="M285.795 112.99L283.52 119.75H282.272L281.376 116.708L280.388 119.75H279.153L276.879 112.99H278.243L279.791 118.177L280.83 114.823L280.285 112.99H281.662L282.924 118.164L284.432 112.99H285.795Z" fill="white"/>
<path d="M293.282 115.277V119.75H292.217L292.125 119.087C291.696 119.542 290.969 119.88 290.201 119.88C288.823 119.88 287.9 119.308 287.9 117.93C287.9 116.409 288.862 115.98 290.357 115.98C290.903 115.98 291.449 116.045 291.982 116.163V115.409C291.982 114.369 291.552 114.005 290.578 114.005C289.76 114.005 289.096 114.265 288.654 114.512L288.238 113.576C288.797 113.237 289.694 112.86 290.759 112.86C292.45 112.859 293.282 113.679 293.282 115.277ZM291.982 118.008V117.072C291.462 116.968 290.955 116.916 290.435 116.916C289.628 116.916 289.212 117.111 289.212 117.865C289.212 118.593 289.706 118.827 290.408 118.827C291.086 118.827 291.657 118.489 291.982 118.008Z" fill="white"/>
<path d="M296.26 115.018V119.75H294.959V112.99H296.077L296.207 113.796C296.687 113.236 297.43 112.859 298.157 112.859L298.261 114.055C297.455 114.056 296.727 114.445 296.26 115.018Z" fill="white"/>
<path d="M304.28 110V119.75H303.253L303.162 119.126C302.707 119.581 302.057 119.88 301.277 119.88C299.716 119.88 298.911 118.866 298.911 117.176V115.46C298.911 113.783 299.691 112.859 301.212 112.859C301.811 112.859 302.395 112.951 302.981 113.211V110H304.28ZM302.98 117.943V114.354C302.472 114.107 301.953 114.029 301.433 114.029C300.575 114.029 300.185 114.55 300.185 115.616V117.033C300.185 118.151 300.548 118.736 301.472 118.736C302.174 118.736 302.682 118.45 302.98 117.943Z" fill="white"/>
<path d="M308.206 118.801C309.129 118.801 309.584 118.372 309.584 117.865C309.584 117.254 309.116 117.046 308.115 116.877C306.984 116.682 305.891 116.435 305.891 114.81C305.891 113.679 306.658 112.86 308.31 112.86C309.375 112.86 310.078 113.185 310.753 113.667L310.259 114.551C309.674 114.2 309.128 113.94 308.349 113.94C307.49 113.94 307.178 114.304 307.178 114.786C307.178 115.514 307.75 115.618 308.648 115.761C309.765 115.943 310.857 116.216 310.871 117.828C310.884 118.985 309.948 119.882 308.258 119.882C307.166 119.882 306.295 119.518 305.671 119.076L306.165 118.166C306.724 118.528 307.387 118.801 308.206 118.801Z" fill="white"/>
<mask id="mask1_22_2263" style="mask-type:luminance" maskUnits="userSpaceOnUse" x="31" y="7" width="336" height="118">
<path d="M366.714 7.4292H31.093V124.069H366.714V7.4292Z" fill="white"/>
</mask>
<g mask="url(#mask1_22_2263)">
<path d="M322.803 120.223C331.568 110.603 338.12 118.41 351.237 118.494C351.237 118.494 342.107 128.153 322.803 120.223Z" fill="white"/>
</g>
<path d="M332.272 111.662C339.506 100.841 347.147 107.583 360.13 105.708C360.13 105.708 352.54 116.622 332.272 111.662Z" fill="white"/>
<path d="M338.699 103.452C343.755 92.2874 351.887 97.3714 363.657 93.6284C363.657 93.6284 358.286 104.934 338.699 103.452Z" fill="white"/>
<path d="M346.049 93.8811C348.472 82.8231 356.794 85.8501 366.707 80.2041C366.707 80.2041 364.026 91.4511 346.049 93.8811Z" fill="white"/>
<path d="M349.185 83.2262C349.992 72.9983 357.838 74.6833 366.039 68.3853C366.039 68.3853 365.024 78.8142 349.185 83.2262Z" fill="white"/>
<path d="M350.407 72.0293C350.715 61.7743 358.633 63.0733 366.518 56.3823C366.518 56.3823 366.012 66.8483 350.407 72.0293Z" fill="white"/>
<path d="M351.172 62.4443C350.25 52.7493 357.861 53.0363 364.496 45.8013C364.496 45.8013 365.255 55.7173 351.172 62.4443Z" fill="white"/>
<path d="M350.574 52.6373C348.305 44.5123 354.839 43.5893 359.39 36.4033C359.39 36.4033 361.554 44.7423 350.574 52.6373Z" fill="white"/>
<path d="M347.681 43.5524C345.295 35.8074 351.546 34.7534 355.733 27.7344C355.733 27.7344 358.025 35.6874 347.681 43.5524Z" fill="white"/>
<path d="M346.537 36.0864C343.591 29.9224 348.674 28.2704 351.299 21.8984C351.299 21.8984 354.192 28.2474 346.537 36.0864Z" fill="white"/>
<path d="M343.771 30.4043C340.123 25.4263 344.359 23.1063 345.623 17.0083C345.623 17.0083 349.255 22.1593 343.771 30.4043Z" fill="white"/>
<path d="M340.827 24.1023C336.622 20.6663 339.721 17.7533 339.456 12.2783C339.456 12.2783 343.685 15.8663 340.827 24.1023Z" fill="white"/>
<path d="M335.837 19.6644C331.192 16.8524 333.853 13.5334 332.823 8.14941C332.823 8.14941 337.513 11.1084 335.837 19.6644Z" fill="white"/>
</svg>
