<svg width="398" height="132" viewBox="0 0 398 132" fill="none" xmlns="http://www.w3.org/2000/svg">
<mask id="mask0_22_2128" style="mask-type:luminance" maskUnits="userSpaceOnUse" x="32" y="6" width="336" height="118">
<path d="M367.96 6.36304H32.339V123.003H367.96V6.36304Z" fill="white"/>
</mask>
<g mask="url(#mask0_22_2128)">
<path d="M76.249 119.157C67.484 109.537 60.933 117.344 47.815 117.428C47.815 117.428 56.946 127.087 76.249 119.157Z" fill="white"/>
</g>
<path d="M66.781 110.596C59.547 99.7751 51.906 106.517 38.923 104.642C38.923 104.642 46.512 115.556 66.781 110.596Z" fill="white"/>
<path d="M60.353 102.386C55.298 91.221 47.165 96.305 35.396 92.562C35.396 92.562 40.767 103.868 60.353 102.386Z" fill="white"/>
<path d="M53.004 92.8149C50.581 81.7569 42.259 84.7839 32.346 79.1379C32.346 79.1379 35.027 90.3849 53.004 92.8149Z" fill="white"/>
<path d="M49.868 82.1601C49.061 71.9321 41.215 73.6171 33.014 67.3191C33.014 67.3191 34.029 77.7491 49.868 82.1601Z" fill="white"/>
<path d="M48.646 70.9629C48.338 60.7079 40.42 62.0069 32.535 55.3159C32.535 55.3159 33.041 65.7829 48.646 70.9629Z" fill="white"/>
<path d="M47.881 61.3781C48.803 51.6831 41.192 51.9701 34.557 44.7351C34.557 44.7351 33.798 54.6511 47.881 61.3781Z" fill="white"/>
<path d="M48.479 51.5712C50.747 43.4462 44.214 42.5232 39.663 35.3372C39.663 35.3372 37.499 43.6762 48.479 51.5712Z" fill="white"/>
<path d="M51.371 42.486C53.758 34.741 47.506 33.687 43.32 26.668C43.32 26.668 41.028 34.622 51.371 42.486Z" fill="white"/>
<path d="M52.515 35.02C55.461 28.856 50.378 27.204 47.753 20.832C47.753 20.832 44.86 27.182 52.515 35.02Z" fill="white"/>
<path d="M55.281 29.3381C58.929 24.3601 54.693 22.0401 53.429 15.9421C53.429 15.9421 49.798 21.0931 55.281 29.3381Z" fill="white"/>
<path d="M58.226 23.0362C62.431 19.6002 59.332 16.6872 59.598 11.2122C59.598 11.2122 55.368 14.8002 58.226 23.0362Z" fill="white"/>
<path d="M63.216 18.598C67.86 15.786 65.2 12.467 66.229 7.08301C66.229 7.08301 61.54 10.042 63.216 18.598Z" fill="white"/>
<path d="M95.883 42.1831H90.422C89.792 42.1831 89.582 41.9731 89.582 41.3431V13.6181C89.582 12.7781 90.002 12.7781 90.422 12.7781H95.883C100.504 12.7781 102.184 15.8021 102.184 20.6751C102.184 23.2791 101.89 24.7501 100.882 26.2201C100.714 26.4721 100.588 26.6401 100.588 26.7661C100.588 26.8921 100.672 27.0601 100.882 27.3961C101.806 29.0351 102.184 30.9251 102.184 33.7821C102.184 40.0831 100.083 42.1831 95.883 42.1831ZM97.983 20.1291C97.941 18.2381 97.773 16.5161 95.883 16.5161H94.623C93.783 16.5161 93.783 16.5161 93.783 17.3571V24.0781C93.783 24.9191 93.783 24.9191 94.623 24.9191H95.883C97.647 24.9191 97.941 23.3221 97.983 21.6001V20.1291ZM95.883 38.4451C97.983 38.4451 97.983 36.3021 97.983 34.1601V32.9421C97.983 30.7991 97.983 28.6571 95.883 28.6571H94.623C93.783 28.6571 93.783 28.6571 93.783 29.4551V37.6041C93.783 38.4451 93.783 38.4451 94.623 38.4451H95.883Z" fill="white"/>
<path d="M105.667 41.3431V13.6181C105.667 12.9881 105.877 12.7781 106.507 12.7781H115.37C116 12.7781 116.21 12.9881 116.21 13.6181V15.8871C116.21 16.5171 116 16.7281 115.37 16.7281H110.707C109.867 16.7281 109.867 16.7281 109.867 17.5681V23.8691C109.867 24.7101 109.867 24.7101 110.707 24.7101H115.37C116 24.7101 116.21 24.9201 116.21 25.5501V27.8191C116.21 28.4491 116 28.6591 115.37 28.6591H110.707C109.867 28.6591 109.867 28.6591 109.867 29.4991V37.3961C109.867 38.2371 109.867 38.2371 110.707 38.2371H115.37C116 38.2371 116.21 38.4471 116.21 39.0771V41.3461C116.21 41.9761 116 42.1861 115.37 42.1861H106.507C106.087 42.1831 105.667 42.1831 105.667 41.3431Z" fill="white"/>
<path d="M119.982 19.2471C119.982 15.4671 122.083 12.6521 126.283 12.6521C130.778 12.6521 132.542 15.6761 132.542 20.2141C132.542 20.8441 132.332 21.1801 131.702 21.1801H129.223C128.593 21.1801 128.383 20.9701 128.383 20.3401C128.383 18.2811 128.173 16.5171 126.282 16.5171C124.182 16.5171 124.182 18.5761 124.182 19.4161C124.182 21.5161 125.694 23.8261 127.878 26.2211C130.315 28.8671 132.541 32.0181 132.541 35.7151C132.541 39.4951 130.44 42.3101 126.24 42.3101C121.745 42.3101 119.981 39.2861 119.981 34.7481C119.981 34.1181 120.191 33.7821 120.821 33.7821H123.3C123.93 33.7821 124.14 33.9921 124.14 34.6221C124.14 36.6811 124.35 38.4451 126.24 38.4451C128.341 38.4451 128.341 36.3861 128.341 35.5471C128.341 33.4461 126.829 31.0521 124.644 28.6571C122.209 26.0101 119.982 22.9441 119.982 19.2471Z" fill="white"/>
<path d="M135.313 12.7781H146.235C146.865 12.7781 147.075 12.9881 147.075 13.6181V15.8871C147.075 16.5171 146.865 16.7281 146.235 16.7281H143.714C142.874 16.7281 142.874 16.7281 142.874 17.5681V41.3441C142.874 42.1841 142.454 42.1841 142.034 42.1841H139.513C139.093 42.1841 138.673 42.1841 138.673 41.3441V17.5671C138.673 16.7271 138.673 16.7271 137.875 16.7271H135.313C134.473 16.7271 134.473 16.3061 134.473 15.8861V13.6171C134.473 13.1981 134.473 12.7781 135.313 12.7781Z" fill="white"/>
<path d="M166.056 34.1601C166.056 36.2611 166.056 38.4451 168.157 38.4451C170.257 38.4451 170.257 36.3021 170.257 34.1601V32.9421C170.257 32.3111 170.467 32.1011 171.097 32.1011H173.618C174.248 32.1011 174.458 32.3111 174.458 32.9421V33.9081C174.458 40.2091 172.358 42.3091 168.157 42.3091C163.956 42.3091 161.856 40.2501 161.856 33.9081V21.0531C161.856 14.7101 163.956 12.6521 168.157 12.6521C172.358 12.6521 174.458 14.7531 174.458 21.0531V22.0191C174.458 22.6501 174.248 22.8601 173.618 22.8601H171.097C170.467 22.8601 170.257 22.6501 170.257 22.0191V20.8011C170.257 18.6581 170.257 16.5161 168.157 16.5161C166.056 16.5161 166.056 18.7011 166.056 20.8011V34.1601Z" fill="white"/>
<path d="M188.232 30.1271L190.416 41.3011C190.542 41.9731 190.248 42.1831 189.912 42.1831H187.266C186.72 42.1831 186.468 42.1831 186.342 41.5531L184.326 31.2191H182.982C182.142 31.2191 182.142 31.2191 182.142 32.0591V41.3431C182.142 42.1831 181.722 42.1831 181.302 42.1831H178.782C178.362 42.1831 177.942 42.1831 177.942 41.3431V13.6181C177.942 12.9881 178.152 12.7781 178.782 12.7781H184.243C188.444 12.7781 190.544 14.8791 190.544 21.1791V22.8181C190.542 26.6401 189.745 28.9091 188.232 30.1271ZM182.141 26.6401C182.141 27.4811 182.141 27.4811 182.981 27.4811H184.241C186.341 27.4811 186.341 25.3381 186.341 23.1961V20.8011C186.341 18.6581 186.341 16.5161 184.241 16.5161H182.981C182.141 16.5161 182.141 16.5161 182.141 17.3571V26.6401Z" fill="white"/>
<path d="M203.268 12.7781H205.789C206.419 12.7781 206.629 12.9881 206.629 13.6181V33.7821C206.629 40.0831 204.528 42.1831 200.328 42.1831C196.127 42.1831 194.027 40.1241 194.027 33.7821V13.6181C194.027 12.9881 194.237 12.7781 194.867 12.7781H197.387C198.017 12.7781 198.227 12.9881 198.227 13.6181V34.1601C198.227 36.2611 198.227 38.4451 200.328 38.4451C202.428 38.4451 202.428 36.3021 202.428 34.1601V13.6181C202.427 12.9881 202.637 12.7781 203.268 12.7781Z" fill="white"/>
<path d="M210.111 41.3431V13.6181C210.111 12.9881 210.321 12.7781 210.951 12.7781H213.472C214.102 12.7781 214.312 12.9881 214.312 13.6181V41.3441C214.312 42.1841 213.892 42.1841 213.472 42.1841H210.951C210.531 42.1831 210.111 42.1831 210.111 41.3431Z" fill="white"/>
<path d="M217.166 19.2471C217.166 15.4671 219.267 12.6521 223.468 12.6521C227.963 12.6521 229.727 15.6761 229.727 20.2141C229.727 20.8441 229.517 21.1801 228.887 21.1801H226.408C225.778 21.1801 225.568 20.9701 225.568 20.3401C225.568 18.2811 225.358 16.5171 223.467 16.5171C221.366 16.5171 221.366 18.5761 221.366 19.4161C221.366 21.5161 222.879 23.8261 225.062 26.2211C227.499 28.8671 229.725 32.0181 229.725 35.7151C229.725 39.4951 227.624 42.3101 223.424 42.3101C218.929 42.3101 217.164 39.2861 217.164 34.7481C217.164 34.1181 217.375 33.7821 218.005 33.7821H220.484C221.114 33.7821 221.324 33.9921 221.324 34.6221C221.324 36.6811 221.534 38.4451 223.425 38.4451C225.526 38.4451 225.526 36.3861 225.526 35.5471C225.526 33.4461 224.013 31.0521 221.829 28.6571C219.393 26.0101 217.166 22.9441 217.166 19.2471Z" fill="white"/>
<path d="M232.58 41.3431V13.6181C232.58 12.9881 232.79 12.7781 233.421 12.7781H242.284C242.914 12.7781 243.124 12.9881 243.124 13.6181V15.8871C243.124 16.5171 242.914 16.7281 242.284 16.7281H237.621C236.781 16.7281 236.781 16.7281 236.781 17.5681V23.8691C236.781 24.7101 236.781 24.7101 237.621 24.7101H242.284C242.914 24.7101 243.124 24.9201 243.124 25.5501V27.8191C243.124 28.4491 242.914 28.6591 242.284 28.6591H237.621C236.781 28.6591 236.781 28.6591 236.781 29.4991V37.3961C236.781 38.2371 236.781 38.2371 237.621 38.2371H242.284C242.914 38.2371 243.124 38.4471 243.124 39.0771V41.3461C243.124 41.9761 242.914 42.1861 242.284 42.1861H233.421C233 42.1831 232.58 42.1831 232.58 41.3431Z" fill="white"/>
<path d="M255.974 41.3431V13.6181C255.974 12.9881 256.184 12.7781 256.814 12.7781H259.335C259.965 12.7781 260.175 12.9881 260.175 13.6181V37.1001C260.175 37.9821 260.175 37.9821 261.058 37.9821H265.678C266.309 37.9821 266.519 38.1931 266.519 38.8231V41.3441C266.519 41.9741 266.309 42.1841 265.678 42.1841H256.815C256.184 42.1831 255.974 41.9731 255.974 41.3431Z" fill="white"/>
<path d="M269.371 41.3431V13.6181C269.371 12.9881 269.581 12.7781 270.212 12.7781H272.732C273.363 12.7781 273.573 12.9881 273.573 13.6181V41.3441C273.573 42.1841 273.153 42.1841 272.732 42.1841H270.212C269.791 42.1831 269.371 42.1831 269.371 41.3431Z" fill="white"/>
<path d="M286.719 41.6791L281.594 27.2701C281.51 26.9761 281.258 27.0601 281.258 27.2701V41.3431C281.258 41.9731 281.048 42.1831 280.417 42.1831H277.897C277.266 42.1831 277.056 41.9731 277.056 41.3431V13.6181C277.056 12.9881 277.266 12.7781 277.897 12.7781H280.207C280.67 12.7781 280.88 12.8621 281.048 13.3241L286.173 27.9011C286.257 28.1531 286.509 28.1111 286.509 27.9011V13.6181C286.509 12.9881 286.719 12.7781 287.349 12.7781H289.87C290.5 12.7781 290.71 12.9881 290.71 13.6181V41.3441C290.71 41.9741 290.5 42.1841 289.87 42.1841H287.559C287.181 42.1831 286.887 42.0991 286.719 41.6791Z" fill="white"/>
<path d="M294.192 41.3431V13.6181C294.192 12.9881 294.402 12.7781 295.033 12.7781H303.896C304.526 12.7781 304.736 12.9881 304.736 13.6181V15.8871C304.736 16.5171 304.526 16.7281 303.896 16.7281H299.233C298.393 16.7281 298.393 16.7281 298.393 17.5681V23.8691C298.393 24.7101 298.393 24.7101 299.233 24.7101H303.896C304.526 24.7101 304.736 24.9201 304.736 25.5501V27.8191C304.736 28.4491 304.526 28.6591 303.896 28.6591H299.233C298.393 28.6591 298.393 28.6591 298.393 29.4991V37.3961C298.393 38.2371 298.393 38.2371 299.233 38.2371H303.896C304.526 38.2371 304.736 38.4471 304.736 39.0771V41.3461C304.736 41.9761 304.526 42.1861 303.896 42.1861H295.033C294.612 42.1831 294.192 42.1831 294.192 41.3431Z" fill="white"/>
<path d="M84.675 79.8441V52.1181C84.675 51.4881 84.885 51.2781 85.515 51.2781H88.035C88.665 51.2781 88.875 51.4881 88.875 52.1181V79.8441C88.875 80.6841 88.455 80.6841 88.035 80.6841H85.515C85.095 80.6841 84.675 80.6841 84.675 79.8441Z" fill="white"/>
<path d="M102.022 80.1801L96.897 65.7701C96.813 65.4761 96.561 65.5601 96.561 65.7701V79.8441C96.561 80.4741 96.351 80.6841 95.721 80.6841H93.201C92.571 80.6841 92.361 80.4741 92.361 79.8441V52.1181C92.361 51.4881 92.571 51.2781 93.201 51.2781H95.511C95.973 51.2781 96.183 51.3621 96.351 51.8241L101.476 66.4011C101.56 66.6531 101.812 66.6111 101.812 66.4011V52.1181C101.812 51.4881 102.022 51.2781 102.652 51.2781H105.172C105.802 51.2781 106.012 51.4881 106.012 52.1181V79.8441C106.012 80.4741 105.802 80.6841 105.172 80.6841H102.862C102.484 80.6841 102.19 80.6001 102.022 80.1801Z" fill="white"/>
<path d="M119.072 51.2781H129.994C130.624 51.2781 130.834 51.4881 130.834 52.1181V54.3871C130.834 55.0171 130.624 55.2281 129.994 55.2281H127.473C126.633 55.2281 126.633 55.2281 126.633 56.0681V79.8451C126.633 80.6851 126.213 80.6851 125.793 80.6851H123.272C122.852 80.6851 122.432 80.6851 122.432 79.8451V56.0671C122.432 55.2271 122.432 55.2271 121.634 55.2271H119.072C118.232 55.2271 118.232 54.8061 118.232 54.3861V52.1171C118.232 51.6981 118.232 51.2781 119.072 51.2781Z" fill="white"/>
<path d="M142.089 79.8441V67.9971C142.089 67.1571 142.089 67.1571 141.249 67.1571H138.728C137.888 67.1571 137.888 67.1571 137.888 67.9971V79.8441C137.888 80.6841 137.468 80.6841 137.048 80.6841H134.528C134.108 80.6841 133.688 80.6841 133.688 79.8441V52.1181C133.688 51.4881 133.898 51.2781 134.528 51.2781H137.048C137.678 51.2781 137.888 51.4881 137.888 52.1181V62.3681C137.888 63.2091 137.888 63.2091 138.728 63.2091H141.249C142.089 63.2091 142.089 63.2091 142.089 62.3681V52.1181C142.089 51.4881 142.299 51.2781 142.929 51.2781H145.45C146.08 51.2781 146.29 51.4881 146.29 52.1181V79.8441C146.29 80.6841 145.87 80.6841 145.45 80.6841H142.929C142.51 80.6841 142.089 80.6841 142.089 79.8441Z" fill="white"/>
<path d="M149.773 79.8441V52.1181C149.773 51.4881 149.983 51.2781 150.613 51.2781H159.476C160.106 51.2781 160.316 51.4881 160.316 52.1181V54.3871C160.316 55.0171 160.106 55.2281 159.476 55.2281H154.813C153.973 55.2281 153.973 55.2281 153.973 56.0681V62.3691C153.973 63.2101 153.973 63.2101 154.813 63.2101H159.476C160.106 63.2101 160.316 63.4201 160.316 64.0501V66.3191C160.316 66.9491 160.106 67.1591 159.476 67.1591H154.813C153.973 67.1591 153.973 67.1591 153.973 67.9991V75.8961C153.973 76.7371 153.973 76.7371 154.813 76.7371H159.476C160.106 76.7371 160.316 76.9471 160.316 77.5771V79.8461C160.316 80.4761 160.106 80.6861 159.476 80.6861H150.613C150.193 80.6841 149.773 80.6841 149.773 79.8441Z" fill="white"/>
<path d="M177.367 72.6601C177.367 74.7611 177.367 76.9451 179.468 76.9451C181.568 76.9451 181.568 74.8021 181.568 72.6601V71.4421C181.568 70.8111 181.778 70.6011 182.408 70.6011H184.929C185.559 70.6011 185.769 70.8111 185.769 71.4421V72.4081C185.769 78.7091 183.669 80.8091 179.468 80.8091C175.267 80.8091 173.167 78.7501 173.167 72.4081V59.5531C173.167 53.2101 175.267 51.1521 179.468 51.1521C183.669 51.1521 185.769 53.2531 185.769 59.5531V60.5191C185.769 61.1501 185.559 61.3601 184.929 61.3601H182.408C181.778 61.3601 181.568 61.1501 181.568 60.5191V59.3011C181.568 57.1581 181.568 55.0161 179.468 55.0161C177.367 55.0161 177.367 57.2011 177.367 59.3011V72.6601Z" fill="white"/>
<path d="M199.292 80.6841C198.746 80.6841 198.494 80.6841 198.368 80.0541L197.99 77.7851C197.822 76.9451 197.822 76.9451 197.066 76.9451H193.328C192.488 76.9451 192.53 76.9451 192.362 77.7851L191.984 80.0541C191.858 80.6841 191.606 80.6841 191.06 80.6841H188.539C188.119 80.6841 187.699 80.6841 187.825 79.9701L193.118 52.0341C193.244 51.4041 193.37 51.2781 194.042 51.2781H196.311C196.983 51.2781 197.109 51.4041 197.235 52.0341L202.527 79.9701C202.654 80.6841 202.233 80.6841 201.813 80.6841H199.292ZM193.286 72.1561C193.16 72.9961 193.16 72.9961 194 72.9961H196.353C197.193 72.9961 197.193 72.9961 197.067 72.1561L195.345 61.9481C195.303 61.7381 195.051 61.7381 195.009 61.9481L193.286 72.1561Z" fill="white"/>
<path d="M215.714 68.6281L217.898 79.8021C218.024 80.4741 217.73 80.6841 217.394 80.6841H214.748C214.202 80.6841 213.95 80.6841 213.824 80.0541L211.807 69.7201H210.463C209.622 69.7201 209.622 69.7201 209.622 70.5601V79.8441C209.622 80.6841 209.202 80.6841 208.782 80.6841H206.261C205.841 80.6841 205.421 80.6841 205.421 79.8441V52.1181C205.421 51.4881 205.631 51.2781 206.261 51.2781H211.722C215.923 51.2781 218.023 53.3791 218.023 59.6791V61.3181C218.023 65.1401 217.226 67.4091 215.714 68.6281ZM209.622 65.1401C209.622 65.9811 209.622 65.9811 210.463 65.9811H211.723C213.824 65.9811 213.824 63.8381 213.824 61.6961V59.3011C213.824 57.1581 213.824 55.0161 211.723 55.0161H210.463C209.622 55.0161 209.622 55.0161 209.622 55.8571V65.1401Z" fill="white"/>
<path d="M221.507 79.8441V52.1181C221.507 51.4881 221.717 51.2781 222.348 51.2781H224.868C225.499 51.2781 225.709 51.4881 225.709 52.1181V79.8441C225.709 80.6841 225.289 80.6841 224.868 80.6841H222.348C221.927 80.6841 221.507 80.6841 221.507 79.8441Z" fill="white"/>
<path d="M235.494 80.6841H230.033C229.402 80.6841 229.192 80.4741 229.192 79.8441V52.1181C229.192 51.2781 229.612 51.2781 230.033 51.2781H235.494C240.114 51.2781 241.795 54.3021 241.795 59.1751C241.795 61.7791 241.501 63.2501 240.492 64.7201C240.324 64.9721 240.198 65.1401 240.198 65.2661C240.198 65.3921 240.282 65.5601 240.492 65.8961C241.417 67.5351 241.795 69.4261 241.795 72.2821C241.795 78.5831 239.694 80.6841 235.494 80.6841ZM237.594 58.6291C237.552 56.7381 237.384 55.0161 235.494 55.0161H234.233C233.393 55.0161 233.393 55.0161 233.393 55.8571V62.5781C233.393 63.4191 233.393 63.4191 234.233 63.4191H235.494C237.258 63.4191 237.552 61.8221 237.594 60.1001V58.6291ZM235.494 76.9451C237.594 76.9451 237.594 74.8021 237.594 72.6601V71.4421C237.594 69.2991 237.594 67.1571 235.494 67.1571H234.233C233.393 67.1571 233.393 67.1571 233.393 67.9551V76.1041C233.393 76.9451 233.393 76.9451 234.233 76.9451H235.494Z" fill="white"/>
<path d="M251.579 80.6841H246.118C245.488 80.6841 245.278 80.4741 245.278 79.8441V52.1181C245.278 51.2781 245.698 51.2781 246.118 51.2781H251.579C256.2 51.2781 257.88 54.3021 257.88 59.1751C257.88 61.7791 257.586 63.2501 256.578 64.7201C256.41 64.9721 256.284 65.1401 256.284 65.2661C256.284 65.3921 256.368 65.5601 256.578 65.8961C257.502 67.5351 257.88 69.4261 257.88 72.2821C257.88 78.5831 255.78 80.6841 251.579 80.6841ZM253.68 58.6291C253.638 56.7381 253.47 55.0161 251.579 55.0161H250.319C249.478 55.0161 249.478 55.0161 249.478 55.8571V62.5781C249.478 63.4191 249.478 63.4191 250.319 63.4191H251.579C253.344 63.4191 253.638 61.8221 253.68 60.1001V58.6291ZM251.579 76.9451C253.68 76.9451 253.68 74.8021 253.68 72.6601V71.4421C253.68 69.2991 253.68 67.1571 251.579 67.1571H250.319C249.478 67.1571 249.478 67.1571 249.478 67.9551V76.1041C249.478 76.9451 249.478 76.9451 250.319 76.9451H251.579Z" fill="white"/>
<path d="M261.363 79.8441V52.1181C261.363 51.4881 261.573 51.2781 262.204 51.2781H271.067C271.697 51.2781 271.907 51.4881 271.907 52.1181V54.3871C271.907 55.0171 271.697 55.2281 271.067 55.2281H266.404C265.564 55.2281 265.564 55.2281 265.564 56.0681V62.3691C265.564 63.2101 265.564 63.2101 266.404 63.2101H271.067C271.697 63.2101 271.907 63.4201 271.907 64.0501V66.3191C271.907 66.9491 271.697 67.1591 271.067 67.1591H266.404C265.564 67.1591 265.564 67.1591 265.564 67.9991V75.8961C265.564 76.7371 265.564 76.7371 266.404 76.7371H271.067C271.697 76.7371 271.907 76.9471 271.907 77.5771V79.8461C271.907 80.4761 271.697 80.6861 271.067 80.6861H262.204C261.783 80.6841 261.363 80.6841 261.363 79.8441Z" fill="white"/>
<path d="M286.271 80.6841C285.725 80.6841 285.473 80.6841 285.347 80.0541L284.969 77.7851C284.801 76.9451 284.801 76.9451 284.044 76.9451H280.306C279.466 76.9451 279.508 76.9451 279.34 77.7851L278.962 80.0541C278.836 80.6841 278.583 80.6841 278.037 80.6841H275.516C275.096 80.6841 274.676 80.6841 274.802 79.9701L280.095 52.0341C280.221 51.4041 280.347 51.2781 281.019 51.2781H283.288C283.96 51.2781 284.086 51.4041 284.213 52.0341L289.505 79.9701C289.632 80.6841 289.211 80.6841 288.791 80.6841H286.271ZM280.264 72.1561C280.138 72.9961 280.138 72.9961 280.978 72.9961H283.331C284.171 72.9961 284.171 72.9961 284.045 72.1561L282.323 61.9481C282.281 61.7381 282.029 61.7381 281.987 61.9481L280.264 72.1561Z" fill="white"/>
<path d="M302.062 80.1801L296.937 65.7701C296.853 65.4761 296.601 65.5601 296.601 65.7701V79.8441C296.601 80.4741 296.391 80.6841 295.76 80.6841H293.24C292.609 80.6841 292.399 80.4741 292.399 79.8441V52.1181C292.399 51.4881 292.609 51.2781 293.24 51.2781H295.55C296.013 51.2781 296.223 51.3621 296.391 51.8241L301.516 66.4011C301.6 66.6531 301.852 66.6111 301.852 66.4011V52.1181C301.852 51.4881 302.062 51.2781 302.692 51.2781H305.213C305.843 51.2781 306.053 51.4881 306.053 52.1181V79.8441C306.053 80.4741 305.843 80.6841 305.213 80.6841H302.902C302.524 80.6841 302.23 80.6001 302.062 80.1801Z" fill="white"/>
<path d="M95.738 99.6031V101.184H88.055V100.08C91.998 96.0681 93.681 94.1131 93.681 92.4981C93.681 91.3941 93.086 90.6111 91.794 90.6111C90.587 90.6111 89.805 90.9851 88.989 91.4951L88.258 90.2891C89.227 89.5751 90.349 89.0481 91.845 89.0481C94.326 89.0481 95.483 90.4251 95.483 92.4471C95.483 94.5551 94.038 96.4081 90.876 99.6031H95.738Z" fill="white"/>
<path d="M108.147 99.5861V101.184H103.184V99.5861H104.918V91.3931L103.456 92.3621L102.64 91.0881L105.173 89.2861H106.669V99.5871L108.147 99.5861Z" fill="white"/>
<path d="M133.578 89.2849L129.974 96.8659V101.183H128.189V96.8819L124.568 89.2839H126.523L129.089 95.0289L131.622 89.2839H133.578V89.2849Z" fill="white"/>
<path d="M147.569 99.5859V101.184H140.634V89.2849H147.45V90.8989H142.401V94.3329H146.617V95.9139H142.401V99.5859H147.569Z" fill="white"/>
<path d="M164.903 101.184H162.948L161.962 97.9711C160.636 98.1921 159.31 98.1921 157.984 97.9711L156.998 101.184H155.06L159.122 89.2861H160.805L164.903 101.184ZM161.538 96.5431L159.957 91.4091L158.393 96.5431C159.447 96.7471 160.483 96.7471 161.538 96.5431Z" fill="white"/>
<path d="M180.645 99.8752V101.252C178.996 101.507 178.146 101.388 177.245 99.5862L175.698 96.5772C175.001 96.5772 174.355 96.5261 173.726 96.3391V101.184H171.958V89.2852H176.173C178.485 89.2852 179.947 90.7292 179.947 92.6342V93.2452C179.947 94.7072 179.029 95.9312 177.516 96.3732L179.063 99.2462C179.523 100.096 180.152 100.011 180.645 99.8752ZM173.727 94.7582C174.492 94.9622 175.24 95.0142 176.107 95.0142C177.45 95.0142 178.164 94.1472 178.164 93.0252V92.8382C178.164 91.6982 177.45 90.9002 176.175 90.9002H173.727V94.7582Z" fill="white"/>
<path d="M192.031 99.807C193.595 99.807 194.496 99.042 194.496 97.954C194.496 96.713 193.663 96.169 192.099 95.931C190.127 95.643 188.631 94.742 188.631 92.379C188.631 90.441 189.94 89.064 192.32 89.064C193.833 89.064 194.836 89.523 195.821 90.237L195.056 91.529C194.223 91.019 193.458 90.663 192.336 90.663C190.959 90.663 190.347 91.377 190.347 92.328C190.347 93.671 191.197 94.062 192.608 94.3C194.41 94.589 196.245 95.337 196.245 97.82C196.245 99.877 194.834 101.424 192.08 101.424C190.517 101.424 189.173 100.897 188.289 100.234L189.02 98.909C189.838 99.398 190.875 99.807 192.031 99.807Z" fill="white"/>
<path d="M222.387 99.8752V101.252C220.738 101.507 219.888 101.388 218.987 99.5862L217.441 96.5772C216.744 96.5772 216.097 96.5261 215.468 96.3391V101.184H213.7V89.2852H217.916C220.228 89.2852 221.689 90.7292 221.689 92.6342V93.2452C221.689 94.7072 220.771 95.9312 219.258 96.3732L220.805 99.2462C221.265 100.096 221.894 100.011 222.387 99.8752ZM215.468 94.7582C216.234 94.9622 216.982 95.0142 217.848 95.0142C219.191 95.0142 219.905 94.1472 219.905 93.0252V92.8382C219.905 91.6982 219.191 90.9002 217.917 90.9002H215.469L215.468 94.7582Z" fill="white"/>
<path d="M237.329 89.2852L237.312 101.183H235.697L235.545 100.197C234.933 100.86 233.947 101.422 232.74 101.422C230.462 101.422 229.374 100.249 229.374 97.8692V89.2852H231.159V97.6311C231.159 99.1941 231.737 99.8582 233.08 99.8582C234.15 99.8582 235.102 99.1782 235.545 98.4992V89.2862L237.329 89.2852Z" fill="white"/>
<path d="M253.806 89.2852V101.183H252.123L247.244 92.8372L247.295 101.183H245.545V89.2852H247.21L252.089 97.6652L252.055 89.2852H253.806Z" fill="white"/>
<path d="M269.088 89.2852V101.183H267.405L262.527 92.8372L262.578 101.183H260.827V89.2852H262.492L267.371 97.6652L267.338 89.2852H269.088Z" fill="white"/>
<path d="M277.878 89.2852V101.183H276.11V89.2852H277.878Z" fill="white"/>
<path d="M293.16 89.2852V101.183H291.476L286.598 92.8372L286.649 101.183H284.898V89.2852H286.564L291.443 97.6652L291.409 89.2852H293.16Z" fill="white"/>
<path d="M308.12 94.7921V101.354H306.795L306.506 100.215C305.791 100.895 304.806 101.422 303.615 101.422C301.388 101.422 300.097 99.9771 300.097 97.6491V92.8381C300.097 90.5261 301.796 89.0471 304.142 89.0471C305.893 89.0471 306.913 89.5401 307.847 90.2541L307.099 91.5121C306.284 90.9851 305.553 90.6281 304.142 90.6281C302.816 90.6281 301.881 91.5121 301.881 93.0591V97.4111C301.881 98.9741 302.663 99.8421 303.954 99.8421C304.872 99.8421 305.773 99.4171 306.351 98.6351V96.3231H304.005V94.7931L308.12 94.7921Z" fill="white"/>
<path d="M86.418 110.806L86.587 109.583H92.736L92.567 110.806H90.175L89.07 118.684H87.705L88.81 110.806H86.418Z" fill="white"/>
<path d="M95.935 111.793L95.883 112.989C95.077 112.989 94.271 113.379 93.738 113.965L93.075 118.684H91.775L92.724 111.924H93.842L93.855 112.73C94.414 112.17 95.207 111.793 95.935 111.793Z" fill="white"/>
<path d="M100.928 118.684L100.941 118.021C100.447 118.476 99.667 118.814 98.9 118.814C97.652 118.814 96.846 118.32 96.846 117.176C96.846 115.434 97.912 114.913 99.602 114.913C100.148 114.913 100.681 114.978 101.201 115.096L101.305 114.342C101.448 113.302 101.084 112.938 100.109 112.938C99.29 112.938 98.588 113.198 98.107 113.445L97.821 112.509C98.432 112.17 99.381 111.793 100.447 111.793C102.137 111.793 102.852 112.612 102.631 114.211L101.994 118.684H100.928ZM99.251 117.761C99.927 117.761 100.551 117.423 100.941 116.929L101.071 116.006C100.577 115.902 100.07 115.85 99.55 115.85C98.614 115.85 98.185 116.097 98.185 116.954C98.185 117.553 98.614 117.761 99.251 117.761Z" fill="white"/>
<path d="M109.898 111.924L106.531 118.684H105.283L103.827 111.924H105.192L106.154 117.111L108.533 111.924H109.898Z" fill="white"/>
<path d="M115.579 114.497L115.41 115.706H111.263L111.224 116.018C111.081 117.136 111.51 117.682 112.433 117.682C113.252 117.682 113.928 117.422 114.539 117.084L114.916 117.993C114.24 118.448 113.356 118.812 112.264 118.812C110.587 118.812 109.69 117.798 109.924 116.108L110.158 114.496C110.392 112.819 111.575 111.792 113.252 111.792C114.929 111.793 115.813 112.82 115.579 114.497ZM113.096 112.925C112.173 112.925 111.601 113.484 111.419 114.602L111.393 114.758H114.253L114.279 114.602C114.461 113.496 114.02 112.925 113.096 112.925Z" fill="white"/>
<path d="M117.945 108.934H119.245L117.88 118.684H116.58L117.945 108.934Z" fill="white"/>
<path d="M132.202 118.684H131.045L130.252 115.096L128.419 118.684H127.249L125.78 109.583H127.197L128.12 117.071L129.836 113.574L128.926 109.583H130.174L130.642 112.079L131.838 109.583H133.073L131.084 113.471L131.825 117.072L134.815 109.584H136.193L132.202 118.684Z" fill="white"/>
<path d="M141.472 114.497L141.303 115.706H137.156L137.117 116.018C136.974 117.136 137.403 117.682 138.326 117.682C139.145 117.682 139.821 117.422 140.432 117.084L140.809 117.993C140.133 118.448 139.249 118.812 138.157 118.812C136.48 118.812 135.583 117.798 135.817 116.108L136.051 114.496C136.285 112.819 137.468 111.792 139.145 111.792C140.821 111.793 141.706 112.82 141.472 114.497ZM138.988 112.925C138.065 112.925 137.493 113.484 137.311 114.602L137.285 114.758H140.145L140.171 114.602C140.354 113.496 139.911 112.925 138.988 112.925Z" fill="white"/>
<path d="M149.337 114.497L149.168 115.706H145.021L144.982 116.018C144.839 117.136 145.268 117.682 146.191 117.682C147.01 117.682 147.686 117.422 148.297 117.084L148.674 117.993C147.998 118.448 147.114 118.812 146.022 118.812C144.345 118.812 143.448 117.798 143.682 116.108L143.916 114.496C144.15 112.819 145.333 111.792 147.01 111.792C148.687 111.793 149.571 112.82 149.337 114.497ZM146.854 112.925C145.931 112.925 145.359 113.484 145.177 114.602L145.151 114.758H148.011L148.037 114.602C148.219 113.496 147.776 112.925 146.854 112.925Z" fill="white"/>
<path d="M156.084 117.695L155.915 118.735C154.628 118.93 154.082 118.813 153.549 117.462L152.873 115.759L151.911 116.707L151.638 118.684H150.338L151.703 108.934H153.003L152.171 114.927L155.213 111.924H156.786L153.9 114.744L154.927 117.215C155.187 117.852 155.694 117.8 156.084 117.695Z" fill="white"/>
<path d="M158.085 108.934H159.385L158.02 118.684H156.72L158.085 108.934Z" fill="white"/>
<path d="M162.934 117.773H162.947L161.491 120.646H160.152L161.348 118.41L159.866 111.924H161.231L162.219 116.877L164.572 111.924H165.937L162.934 117.773Z" fill="white"/>
<path d="M178.151 117.683V118.736C176.89 118.931 176.24 118.84 175.551 117.463L174.368 115.161C173.835 115.161 173.341 115.122 172.86 114.979V118.684H171.508V109.583H174.732C176.501 109.583 177.618 110.688 177.618 112.145V112.613C177.618 113.731 176.916 114.667 175.759 115.006L176.942 117.202C177.293 117.852 177.774 117.786 178.151 117.683ZM172.859 113.77C173.444 113.926 174.016 113.965 174.679 113.965C175.706 113.965 176.252 113.302 176.252 112.444V112.301C176.252 111.43 175.706 110.819 174.731 110.819H172.859V113.77Z" fill="white"/>
<path d="M180.244 116.019C180.244 117.137 180.764 117.683 181.687 117.683C182.506 117.683 183.143 117.423 183.702 117.085L184.209 117.994C183.598 118.449 182.766 118.813 181.674 118.813C179.997 118.813 178.957 117.799 178.957 116.109V114.497C178.957 112.82 179.997 111.793 181.674 111.793C183.351 111.793 184.378 112.82 184.378 114.497V115.706H180.244V116.019ZM183.091 114.758V114.602C183.091 113.497 182.597 112.925 181.674 112.925C180.751 112.925 180.231 113.484 180.231 114.602V114.758H183.091Z" fill="white"/>
<path d="M192.322 114.211V118.684H191.256L191.165 118.021C190.736 118.476 190.008 118.814 189.241 118.814C187.863 118.814 186.94 118.242 186.94 116.864C186.94 115.343 187.902 114.914 189.397 114.914C189.943 114.914 190.489 114.979 191.022 115.097V114.343C191.022 113.303 190.593 112.939 189.618 112.939C188.799 112.939 188.136 113.199 187.694 113.446L187.278 112.51C187.837 112.171 188.734 111.794 189.8 111.794C191.49 111.793 192.322 112.612 192.322 114.211ZM191.022 116.941V116.005C190.502 115.901 189.995 115.849 189.475 115.849C188.669 115.849 188.253 116.044 188.253 116.798C188.253 117.526 188.747 117.76 189.449 117.76C190.125 117.761 190.697 117.423 191.022 116.941Z" fill="white"/>
<path d="M199.316 108.934V118.684H198.289L198.198 118.06C197.743 118.515 197.093 118.814 196.313 118.814C194.752 118.814 193.947 117.8 193.947 116.11V114.394C193.947 112.717 194.727 111.793 196.248 111.793C196.846 111.793 197.431 111.885 198.016 112.145V108.934H199.316ZM198.016 116.877V113.288C197.509 113.041 196.989 112.963 196.469 112.963C195.611 112.963 195.221 113.484 195.221 114.55V115.967C195.221 117.085 195.585 117.67 196.508 117.67C197.21 117.67 197.717 117.384 198.016 116.877Z" fill="white"/>
<path d="M202.228 116.019C202.228 117.137 202.749 117.683 203.671 117.683C204.49 117.683 205.127 117.423 205.686 117.085L206.194 117.994C205.583 118.449 204.751 118.813 203.659 118.813C201.981 118.813 200.941 117.799 200.941 116.109V114.497C200.941 112.82 201.981 111.793 203.659 111.793C205.336 111.793 206.363 112.82 206.363 114.497V115.706H202.228V116.019ZM205.075 114.758V114.602C205.075 113.497 204.581 112.925 203.658 112.925C202.734 112.925 202.215 113.484 202.215 114.602V114.758H205.075Z" fill="white"/>
<path d="M210.925 113.951V118.683H209.625V111.923H210.742L210.873 112.729C211.353 112.169 212.095 111.792 212.822 111.792L212.926 112.988C212.121 112.989 211.393 113.379 210.925 113.951Z" fill="white"/>
<path d="M216.021 117.734C216.943 117.734 217.398 117.305 217.398 116.798C217.398 116.187 216.93 115.979 215.929 115.81C214.798 115.615 213.706 115.368 213.706 113.743C213.706 112.612 214.473 111.793 216.124 111.793C217.19 111.793 217.892 112.118 218.567 112.6L218.074 113.484C217.489 113.133 216.942 112.873 216.163 112.873C215.305 112.873 214.993 113.237 214.993 113.719C214.993 114.447 215.565 114.551 216.462 114.694C217.58 114.876 218.672 115.149 218.685 116.761C218.699 117.918 217.762 118.815 216.072 118.815C214.98 118.815 214.109 118.451 213.486 118.009L213.98 117.099C214.539 117.462 215.201 117.734 216.021 117.734Z" fill="white"/>
<path d="M221.445 110.467C221.184 110.337 221.042 110.077 221.042 109.779C221.042 109.207 221.432 108.96 221.887 108.96C222.356 108.96 222.758 109.207 222.758 109.792C222.758 110.494 222.367 111.365 221.185 111.742L220.873 111.144C221.119 110.987 221.406 110.753 221.445 110.467Z" fill="white"/>
<path d="M229.934 118.865C228.179 118.865 226.892 117.734 226.892 115.967V112.301C226.892 110.532 228.179 109.402 229.934 109.402C231.104 109.402 231.768 109.753 232.469 110.273L231.897 111.235C231.287 110.858 230.844 110.611 229.934 110.611C228.933 110.611 228.257 111.313 228.257 112.47V115.784C228.257 116.98 228.945 117.656 229.934 117.656C230.844 117.656 231.287 117.409 231.897 117.032L232.469 117.994C231.768 118.515 231.104 118.865 229.934 118.865Z" fill="white"/>
<path d="M239.047 114.25V118.684H237.76V114.42C237.76 113.405 237.448 112.95 236.564 112.95C235.966 112.95 235.394 113.366 235.056 113.808V118.683H233.756V108.933H235.056V112.585C235.524 112.117 236.16 111.792 236.825 111.792C238.396 111.793 239.047 112.651 239.047 114.25Z" fill="white"/>
<path d="M243.376 111.793C245.053 111.793 246.08 112.808 246.08 114.497V116.109C246.08 117.799 245.04 118.813 243.376 118.813C241.699 118.813 240.658 117.799 240.658 116.109V114.497C240.658 112.808 241.699 111.793 243.376 111.793ZM243.376 117.67C244.286 117.67 244.793 117.085 244.793 115.967V114.641C244.793 113.523 244.286 112.938 243.376 112.938C242.453 112.938 241.945 113.523 241.945 114.641V115.967C241.945 117.085 242.453 117.67 243.376 117.67Z" fill="white"/>
<path d="M248.342 110.831C247.834 110.831 247.484 110.559 247.484 110.025C247.484 109.491 247.835 109.206 248.342 109.206C248.836 109.206 249.199 109.492 249.199 110.025C249.199 110.558 248.836 110.831 248.342 110.831ZM249.004 118.684H247.704V111.924H249.004V118.684Z" fill="white"/>
<path d="M256.6 117.67C257.418 117.67 257.9 117.423 258.459 117.085L258.979 117.994C258.368 118.449 257.653 118.813 256.561 118.813C254.884 118.813 253.857 117.786 253.857 116.109V114.497C253.857 112.82 254.884 111.793 256.561 111.793C257.679 111.793 258.303 112.131 258.979 112.625L258.446 113.522C257.862 113.158 257.458 112.937 256.6 112.937C255.651 112.937 255.144 113.522 255.144 114.653V115.953C255.144 117.085 255.65 117.67 256.6 117.67Z" fill="white"/>
<path d="M261.695 116.019C261.695 117.137 262.215 117.683 263.138 117.683C263.956 117.683 264.593 117.423 265.153 117.085L265.66 117.994C265.049 118.449 264.217 118.813 263.125 118.813C261.448 118.813 260.408 117.799 260.408 116.109V114.497C260.408 112.82 261.448 111.793 263.125 111.793C264.803 111.793 265.83 112.82 265.83 114.497V115.706H261.695V116.019ZM264.543 114.758V114.602C264.543 113.497 264.049 112.925 263.125 112.925C262.202 112.925 261.682 113.484 261.682 114.602V114.758H264.543Z" fill="white"/>
<path d="M278.518 118.684H277.023L276.269 116.227C275.255 116.396 274.241 116.396 273.227 116.227L272.473 118.684H270.991L274.098 109.583H275.385L278.518 118.684ZM275.943 115.135L274.734 111.208L273.538 115.135C274.345 115.29 275.138 115.29 275.943 115.135Z" fill="white"/>
<path d="M287.046 111.924L284.771 118.684H283.523L282.626 115.642L281.639 118.684H280.404L278.129 111.924H279.494L281.041 117.111L282.081 113.757L281.535 111.924H282.913L284.175 117.098L285.683 111.924H287.046Z" fill="white"/>
<path d="M294.525 114.211V118.684H293.459L293.369 118.021C292.939 118.476 292.211 118.814 291.444 118.814C290.066 118.814 289.143 118.242 289.143 116.864C289.143 115.343 290.105 114.914 291.6 114.914C292.146 114.914 292.692 114.979 293.225 115.097V114.343C293.225 113.303 292.796 112.939 291.821 112.939C291.002 112.939 290.34 113.199 289.897 113.446L289.481 112.51C290.041 112.171 290.937 111.794 292.003 111.794C293.693 111.793 294.525 112.612 294.525 114.211ZM293.226 116.941V116.005C292.705 115.901 292.199 115.849 291.678 115.849C290.873 115.849 290.457 116.044 290.457 116.798C290.457 117.526 290.95 117.76 291.652 117.76C292.328 117.761 292.9 117.423 293.226 116.941Z" fill="white"/>
<path d="M297.502 113.951V118.683H296.202V111.923H297.32L297.45 112.729C297.931 112.169 298.672 111.792 299.4 111.792L299.504 112.988C298.698 112.989 297.971 113.379 297.502 113.951Z" fill="white"/>
<path d="M305.523 108.934V118.684H304.496L304.405 118.06C303.95 118.515 303.301 118.814 302.52 118.814C300.959 118.814 300.154 117.8 300.154 116.11V114.394C300.154 112.717 300.933 111.793 302.455 111.793C303.053 111.793 303.639 111.885 304.223 112.145V108.934H305.523ZM304.223 116.877V113.288C303.717 113.041 303.197 112.963 302.676 112.963C301.819 112.963 301.428 113.484 301.428 114.55V115.967C301.428 117.085 301.792 117.67 302.715 117.67C303.418 117.67 303.924 117.384 304.223 116.877Z" fill="white"/>
<path d="M309.449 117.734C310.372 117.734 310.827 117.305 310.827 116.798C310.827 116.187 310.359 115.979 309.357 115.81C308.226 115.615 307.134 115.368 307.134 113.743C307.134 112.612 307.902 111.793 309.552 111.793C310.618 111.793 311.321 112.118 311.996 112.6L311.502 113.484C310.917 113.133 310.371 112.873 309.591 112.873C308.734 112.873 308.421 113.237 308.421 113.719C308.421 114.447 308.993 114.551 309.89 114.694C311.009 114.876 312.101 115.149 312.114 116.761C312.127 117.918 311.191 118.815 309.501 118.815C308.409 118.815 307.538 118.451 306.914 118.009L307.408 117.099C307.967 117.462 308.63 117.734 309.449 117.734Z" fill="white"/>
<mask id="mask1_22_2128" style="mask-type:luminance" maskUnits="userSpaceOnUse" x="32" y="6" width="336" height="118">
<path d="M367.96 6.36304H32.339V123.003H367.96V6.36304Z" fill="white"/>
</mask>
<g mask="url(#mask1_22_2128)">
<path d="M324.049 119.157C332.814 109.537 339.366 117.344 352.483 117.428C352.483 117.428 343.353 127.087 324.049 119.157Z" fill="white"/>
</g>
<path d="M333.518 110.596C340.752 99.7751 348.393 106.517 361.376 104.642C361.376 104.642 353.786 115.556 333.518 110.596Z" fill="white"/>
<path d="M339.945 102.386C345.001 91.221 353.133 96.305 364.903 92.562C364.903 92.562 359.532 103.868 339.945 102.386Z" fill="white"/>
<path d="M347.295 92.8149C349.718 81.7569 358.04 84.7839 367.953 79.1379C367.953 79.1379 365.272 90.3849 347.295 92.8149Z" fill="white"/>
<path d="M350.431 82.1601C351.238 71.9321 359.084 73.6171 367.285 67.3191C367.285 67.3191 366.27 77.7491 350.431 82.1601Z" fill="white"/>
<path d="M351.653 70.9629C351.961 60.7079 359.879 62.0069 367.764 55.3159C367.764 55.3159 367.258 65.7829 351.653 70.9629Z" fill="white"/>
<path d="M352.418 61.3781C351.496 51.6831 359.107 51.9701 365.742 44.7351C365.742 44.7351 366.501 54.6511 352.418 61.3781Z" fill="white"/>
<path d="M351.82 51.5712C349.551 43.4462 356.085 42.5232 360.636 35.3372C360.636 35.3372 362.8 43.6762 351.82 51.5712Z" fill="white"/>
<path d="M348.927 42.486C346.541 34.741 352.792 33.687 356.979 26.668C356.979 26.668 359.271 34.622 348.927 42.486Z" fill="white"/>
<path d="M347.783 35.02C344.837 28.856 349.92 27.204 352.545 20.832C352.545 20.832 355.438 27.182 347.783 35.02Z" fill="white"/>
<path d="M345.017 29.3381C341.369 24.3601 345.605 22.0401 346.869 15.9421C346.869 15.9421 350.501 21.0931 345.017 29.3381Z" fill="white"/>
<path d="M342.073 23.0362C337.868 19.6002 340.967 16.6872 340.702 11.2122C340.702 11.2122 344.931 14.8002 342.073 23.0362Z" fill="white"/>
<path d="M337.083 18.598C332.438 15.786 335.099 12.467 334.069 7.08301C334.069 7.08301 338.759 10.042 337.083 18.598Z" fill="white"/>
</svg>
